G04 #@! TF.GenerationSoftware,KiCad,Pcbnew,(5.0.2)-1*
G04 #@! TF.CreationDate,2019-01-14T22:25:42+09:00*
G04 #@! TF.ProjectId,Nixie_Module_BaseBoard,4e697869-655f-44d6-9f64-756c655f4261,rev?*
G04 #@! TF.SameCoordinates,Original*
G04 #@! TF.FileFunction,Legend,Top*
G04 #@! TF.FilePolarity,Positive*
%FSLAX46Y46*%
G04 Gerber Fmt 4.6, Leading zero omitted, Abs format (unit mm)*
G04 Created by KiCad (PCBNEW (5.0.2)-1) date 2019/01/14 22:25:42*
%MOMM*%
%LPD*%
G01*
G04 APERTURE LIST*
%ADD10C,0.120000*%
%ADD11C,0.150000*%
%ADD12C,0.075000*%
%ADD13C,0.300000*%
%ADD14C,0.010000*%
%ADD15O,2.100000X2.100000*%
%ADD16R,2.100000X2.100000*%
%ADD17C,2.100000*%
%ADD18C,2.250000*%
%ADD19R,2.127200X2.127200*%
%ADD20C,2.127200*%
%ADD21R,1.900000X1.900000*%
%ADD22C,1.900000*%
%ADD23C,2.000000*%
%ADD24O,2.000000X2.000000*%
G04 APERTURE END LIST*
D10*
G04 #@! TO.C,J1*
X107188000Y-117034000D02*
X108518000Y-117034000D01*
X108518000Y-117034000D02*
X108518000Y-118364000D01*
X108518000Y-119634000D02*
X108518000Y-122234000D01*
X105858000Y-122234000D02*
X108518000Y-122234000D01*
X105858000Y-119634000D02*
X105858000Y-122234000D01*
X105858000Y-119634000D02*
X108518000Y-119634000D01*
G04 #@! TO.C,J2*
X113284000Y-117034000D02*
X114614000Y-117034000D01*
X114614000Y-117034000D02*
X114614000Y-118364000D01*
X114614000Y-119634000D02*
X114614000Y-122234000D01*
X111954000Y-122234000D02*
X114614000Y-122234000D01*
X111954000Y-119634000D02*
X111954000Y-122234000D01*
X111954000Y-119634000D02*
X114614000Y-119634000D01*
G04 #@! TO.C,J3*
X123384000Y-124714000D02*
X123384000Y-123604000D01*
X123384000Y-123604000D02*
X124714000Y-123604000D01*
X123384000Y-137344000D02*
X128584000Y-137344000D01*
X128584000Y-137344000D02*
X128584000Y-128714000D01*
X123384000Y-128714000D02*
X128584000Y-128714000D01*
X123384000Y-137344000D02*
X123384000Y-128714000D01*
X125984000Y-137344000D02*
X125984000Y-128714000D01*
X127614000Y-126204000D02*
X127614000Y-125764000D01*
X127614000Y-128714000D02*
X127614000Y-128304000D01*
X126894000Y-126204000D02*
X126894000Y-125764000D01*
X126894000Y-128714000D02*
X126894000Y-128304000D01*
X125074000Y-126204000D02*
X125074000Y-125824000D01*
X125074000Y-128714000D02*
X125074000Y-128304000D01*
X124354000Y-126204000D02*
X124354000Y-125824000D01*
X124354000Y-128714000D02*
X124354000Y-128304000D01*
X125865900Y-137344000D02*
X125865900Y-128714000D01*
X125747805Y-137344000D02*
X125747805Y-128714000D01*
X125629710Y-137344000D02*
X125629710Y-128714000D01*
X125511615Y-137344000D02*
X125511615Y-128714000D01*
X125393520Y-137344000D02*
X125393520Y-128714000D01*
X125275425Y-137344000D02*
X125275425Y-128714000D01*
X125157330Y-137344000D02*
X125157330Y-128714000D01*
X125039235Y-137344000D02*
X125039235Y-128714000D01*
X124921140Y-137344000D02*
X124921140Y-128714000D01*
X124803045Y-137344000D02*
X124803045Y-128714000D01*
X124684950Y-137344000D02*
X124684950Y-128714000D01*
X124566855Y-137344000D02*
X124566855Y-128714000D01*
X124448760Y-137344000D02*
X124448760Y-128714000D01*
X124330665Y-137344000D02*
X124330665Y-128714000D01*
X124212570Y-137344000D02*
X124212570Y-128714000D01*
X124094475Y-137344000D02*
X124094475Y-128714000D01*
X123976380Y-137344000D02*
X123976380Y-128714000D01*
X123858285Y-137344000D02*
X123858285Y-128714000D01*
X123740190Y-137344000D02*
X123740190Y-128714000D01*
X123622095Y-137344000D02*
X123622095Y-128714000D01*
X123504000Y-137344000D02*
X123504000Y-128714000D01*
G04 #@! TO.C,J4*
X177359000Y-124714000D02*
X177359000Y-123604000D01*
X177359000Y-123604000D02*
X178689000Y-123604000D01*
X177359000Y-137344000D02*
X182559000Y-137344000D01*
X182559000Y-137344000D02*
X182559000Y-128714000D01*
X177359000Y-128714000D02*
X182559000Y-128714000D01*
X177359000Y-137344000D02*
X177359000Y-128714000D01*
X179959000Y-137344000D02*
X179959000Y-128714000D01*
X181589000Y-126204000D02*
X181589000Y-125764000D01*
X181589000Y-128714000D02*
X181589000Y-128304000D01*
X180869000Y-126204000D02*
X180869000Y-125764000D01*
X180869000Y-128714000D02*
X180869000Y-128304000D01*
X179049000Y-126204000D02*
X179049000Y-125824000D01*
X179049000Y-128714000D02*
X179049000Y-128304000D01*
X178329000Y-126204000D02*
X178329000Y-125824000D01*
X178329000Y-128714000D02*
X178329000Y-128304000D01*
X179840900Y-137344000D02*
X179840900Y-128714000D01*
X179722805Y-137344000D02*
X179722805Y-128714000D01*
X179604710Y-137344000D02*
X179604710Y-128714000D01*
X179486615Y-137344000D02*
X179486615Y-128714000D01*
X179368520Y-137344000D02*
X179368520Y-128714000D01*
X179250425Y-137344000D02*
X179250425Y-128714000D01*
X179132330Y-137344000D02*
X179132330Y-128714000D01*
X179014235Y-137344000D02*
X179014235Y-128714000D01*
X178896140Y-137344000D02*
X178896140Y-128714000D01*
X178778045Y-137344000D02*
X178778045Y-128714000D01*
X178659950Y-137344000D02*
X178659950Y-128714000D01*
X178541855Y-137344000D02*
X178541855Y-128714000D01*
X178423760Y-137344000D02*
X178423760Y-128714000D01*
X178305665Y-137344000D02*
X178305665Y-128714000D01*
X178187570Y-137344000D02*
X178187570Y-128714000D01*
X178069475Y-137344000D02*
X178069475Y-128714000D01*
X177951380Y-137344000D02*
X177951380Y-128714000D01*
X177833285Y-137344000D02*
X177833285Y-128714000D01*
X177715190Y-137344000D02*
X177715190Y-128714000D01*
X177597095Y-137344000D02*
X177597095Y-128714000D01*
X177479000Y-137344000D02*
X177479000Y-128714000D01*
G04 #@! TO.C,J5*
X147895000Y-124714000D02*
X147895000Y-123604000D01*
X147895000Y-123604000D02*
X149225000Y-123604000D01*
X147895000Y-137344000D02*
X158175000Y-137344000D01*
X158175000Y-137344000D02*
X158175000Y-128714000D01*
X147895000Y-128714000D02*
X158175000Y-128714000D01*
X147895000Y-137344000D02*
X147895000Y-128714000D01*
X155575000Y-137344000D02*
X155575000Y-128714000D01*
X153035000Y-137344000D02*
X153035000Y-128714000D01*
X150495000Y-137344000D02*
X150495000Y-128714000D01*
X157205000Y-126204000D02*
X157205000Y-125764000D01*
X157205000Y-128714000D02*
X157205000Y-128304000D01*
X156485000Y-126204000D02*
X156485000Y-125764000D01*
X156485000Y-128714000D02*
X156485000Y-128304000D01*
X154665000Y-126204000D02*
X154665000Y-125764000D01*
X154665000Y-128714000D02*
X154665000Y-128304000D01*
X153945000Y-126204000D02*
X153945000Y-125764000D01*
X153945000Y-128714000D02*
X153945000Y-128304000D01*
X152125000Y-126204000D02*
X152125000Y-125764000D01*
X152125000Y-128714000D02*
X152125000Y-128304000D01*
X151405000Y-126204000D02*
X151405000Y-125764000D01*
X151405000Y-128714000D02*
X151405000Y-128304000D01*
X149585000Y-126204000D02*
X149585000Y-125824000D01*
X149585000Y-128714000D02*
X149585000Y-128304000D01*
X148865000Y-126204000D02*
X148865000Y-125824000D01*
X148865000Y-128714000D02*
X148865000Y-128304000D01*
X150376900Y-137344000D02*
X150376900Y-128714000D01*
X150258805Y-137344000D02*
X150258805Y-128714000D01*
X150140710Y-137344000D02*
X150140710Y-128714000D01*
X150022615Y-137344000D02*
X150022615Y-128714000D01*
X149904520Y-137344000D02*
X149904520Y-128714000D01*
X149786425Y-137344000D02*
X149786425Y-128714000D01*
X149668330Y-137344000D02*
X149668330Y-128714000D01*
X149550235Y-137344000D02*
X149550235Y-128714000D01*
X149432140Y-137344000D02*
X149432140Y-128714000D01*
X149314045Y-137344000D02*
X149314045Y-128714000D01*
X149195950Y-137344000D02*
X149195950Y-128714000D01*
X149077855Y-137344000D02*
X149077855Y-128714000D01*
X148959760Y-137344000D02*
X148959760Y-128714000D01*
X148841665Y-137344000D02*
X148841665Y-128714000D01*
X148723570Y-137344000D02*
X148723570Y-128714000D01*
X148605475Y-137344000D02*
X148605475Y-128714000D01*
X148487380Y-137344000D02*
X148487380Y-128714000D01*
X148369285Y-137344000D02*
X148369285Y-128714000D01*
X148251190Y-137344000D02*
X148251190Y-128714000D01*
X148133095Y-137344000D02*
X148133095Y-128714000D01*
X148015000Y-137344000D02*
X148015000Y-128714000D01*
D11*
G04 #@! TO.C,U1*
X156231000Y-101298000D02*
X156231000Y-118298000D01*
X169231000Y-118298000D02*
X149231000Y-118298000D01*
X169231000Y-101298000D02*
X169231000Y-118298000D01*
X169231000Y-101298000D02*
X149231000Y-101298000D01*
X198231000Y-114298000D02*
X200231000Y-114298000D01*
X198231000Y-105298000D02*
X198231000Y-114298000D01*
X200231000Y-105298000D02*
X198231000Y-105298000D01*
X149231000Y-96298000D02*
X200231000Y-96298000D01*
X149231000Y-123298000D02*
X149231000Y-96298000D01*
X200231000Y-123298000D02*
X149231000Y-123298000D01*
X200231000Y-96298000D02*
X200231000Y-123298000D01*
D10*
X195961000Y-96968000D02*
X195961000Y-99628000D01*
X195961000Y-96968000D02*
X150181000Y-96968000D01*
X150181000Y-96968000D02*
X150181000Y-99628000D01*
X195961000Y-99628000D02*
X150181000Y-99628000D01*
X198561000Y-99628000D02*
X197231000Y-99628000D01*
X198561000Y-98298000D02*
X198561000Y-99628000D01*
X198561000Y-122488000D02*
X197231000Y-122488000D01*
X150181000Y-119828000D02*
X150181000Y-122488000D01*
X195961000Y-119828000D02*
X150181000Y-119828000D01*
X195961000Y-122488000D02*
X150181000Y-122488000D01*
X198561000Y-121158000D02*
X198561000Y-122488000D01*
X195961000Y-119828000D02*
X195961000Y-122488000D01*
D11*
G04 #@! TO.C,XA1*
X156845000Y-118618000D02*
X200025000Y-118618000D01*
X156845000Y-100838000D02*
X200025000Y-100838000D01*
X200025000Y-118618000D02*
X200025000Y-100838000D01*
X156845000Y-118618000D02*
X156845000Y-100838000D01*
X201475000Y-105664000D02*
X200025000Y-105664000D01*
X201475000Y-113792000D02*
X201475000Y-105664000D01*
X200025000Y-113792000D02*
X201475000Y-113792000D01*
D10*
G04 #@! TO.C,Q1*
X125514184Y-104500795D02*
G75*
G02X124990000Y-105228000I-2324184J1122795D01*
G01*
X125545457Y-102279629D02*
G75*
G03X124300000Y-101028000I-2355457J-1098371D01*
G01*
X120822801Y-102274158D02*
G75*
G02X122050000Y-101028000I2367199J-1103842D01*
G01*
X120865816Y-104500795D02*
G75*
G03X121390000Y-105228000I2324184J1122795D01*
G01*
X121390000Y-105228000D02*
X124990000Y-105228000D01*
G04 #@! TO.C,J6*
X131512000Y-99822000D02*
X131512000Y-98492000D01*
X131512000Y-98492000D02*
X132842000Y-98492000D01*
X134112000Y-98492000D02*
X144332000Y-98492000D01*
X144332000Y-101152000D02*
X144332000Y-98492000D01*
X134112000Y-101152000D02*
X144332000Y-101152000D01*
X134112000Y-101152000D02*
X134112000Y-98492000D01*
G04 #@! TO.C,R1*
X119610000Y-114776000D02*
X119280000Y-114776000D01*
X119280000Y-114776000D02*
X119280000Y-108236000D01*
X119280000Y-108236000D02*
X119610000Y-108236000D01*
X121690000Y-114776000D02*
X122020000Y-114776000D01*
X122020000Y-114776000D02*
X122020000Y-108236000D01*
X122020000Y-108236000D02*
X121690000Y-108236000D01*
G04 #@! TO.C,R2*
X127100000Y-108236000D02*
X126770000Y-108236000D01*
X127100000Y-114776000D02*
X127100000Y-108236000D01*
X126770000Y-114776000D02*
X127100000Y-114776000D01*
X124360000Y-108236000D02*
X124690000Y-108236000D01*
X124360000Y-114776000D02*
X124360000Y-108236000D01*
X124690000Y-114776000D02*
X124360000Y-114776000D01*
G04 #@! TO.C,J1*
D11*
X106854666Y-115046380D02*
X106854666Y-115760666D01*
X106807047Y-115903523D01*
X106711809Y-115998761D01*
X106568952Y-116046380D01*
X106473714Y-116046380D01*
X107854666Y-116046380D02*
X107283238Y-116046380D01*
X107568952Y-116046380D02*
X107568952Y-115046380D01*
X107473714Y-115189238D01*
X107378476Y-115284476D01*
X107283238Y-115332095D01*
G04 #@! TO.C,J2*
X112950666Y-115046380D02*
X112950666Y-115760666D01*
X112903047Y-115903523D01*
X112807809Y-115998761D01*
X112664952Y-116046380D01*
X112569714Y-116046380D01*
X113379238Y-115141619D02*
X113426857Y-115094000D01*
X113522095Y-115046380D01*
X113760190Y-115046380D01*
X113855428Y-115094000D01*
X113903047Y-115141619D01*
X113950666Y-115236857D01*
X113950666Y-115332095D01*
X113903047Y-115474952D01*
X113331619Y-116046380D01*
X113950666Y-116046380D01*
G04 #@! TO.C,J3*
X125650666Y-121626380D02*
X125650666Y-122340666D01*
X125603047Y-122483523D01*
X125507809Y-122578761D01*
X125364952Y-122626380D01*
X125269714Y-122626380D01*
X126031619Y-121626380D02*
X126650666Y-121626380D01*
X126317333Y-122007333D01*
X126460190Y-122007333D01*
X126555428Y-122054952D01*
X126603047Y-122102571D01*
X126650666Y-122197809D01*
X126650666Y-122435904D01*
X126603047Y-122531142D01*
X126555428Y-122578761D01*
X126460190Y-122626380D01*
X126174476Y-122626380D01*
X126079238Y-122578761D01*
X126031619Y-122531142D01*
G04 #@! TO.C,J4*
X175728380Y-125301333D02*
X176442666Y-125301333D01*
X176585523Y-125348952D01*
X176680761Y-125444190D01*
X176728380Y-125587047D01*
X176728380Y-125682285D01*
X176061714Y-124396571D02*
X176728380Y-124396571D01*
X175680761Y-124634666D02*
X176395047Y-124872761D01*
X176395047Y-124253714D01*
G04 #@! TO.C,J5*
X146264380Y-125047333D02*
X146978666Y-125047333D01*
X147121523Y-125094952D01*
X147216761Y-125190190D01*
X147264380Y-125333047D01*
X147264380Y-125428285D01*
X146264380Y-124094952D02*
X146264380Y-124571142D01*
X146740571Y-124618761D01*
X146692952Y-124571142D01*
X146645333Y-124475904D01*
X146645333Y-124237809D01*
X146692952Y-124142571D01*
X146740571Y-124094952D01*
X146835809Y-124047333D01*
X147073904Y-124047333D01*
X147169142Y-124094952D01*
X147216761Y-124142571D01*
X147264380Y-124237809D01*
X147264380Y-124475904D01*
X147216761Y-124571142D01*
X147169142Y-124618761D01*
G04 #@! TO.C,U1*
X200683380Y-99059904D02*
X201492904Y-99059904D01*
X201588142Y-99012285D01*
X201635761Y-98964666D01*
X201683380Y-98869428D01*
X201683380Y-98678952D01*
X201635761Y-98583714D01*
X201588142Y-98536095D01*
X201492904Y-98488476D01*
X200683380Y-98488476D01*
X201683380Y-97488476D02*
X201683380Y-98059904D01*
X201683380Y-97774190D02*
X200683380Y-97774190D01*
X200826238Y-97869428D01*
X200921476Y-97964666D01*
X200969095Y-98059904D01*
G04 #@! TO.C,XA1*
X200493380Y-104362095D02*
X201493380Y-103695428D01*
X200493380Y-103695428D02*
X201493380Y-104362095D01*
X201207666Y-103362095D02*
X201207666Y-102885904D01*
X201493380Y-103457333D02*
X200493380Y-103124000D01*
X201493380Y-102790666D01*
X201493380Y-101933523D02*
X201493380Y-102504952D01*
X201493380Y-102219238D02*
X200493380Y-102219238D01*
X200636238Y-102314476D01*
X200731476Y-102409714D01*
X200779095Y-102504952D01*
D12*
X192936904Y-103104190D02*
X193246428Y-103104190D01*
X193079761Y-103294666D01*
X193151190Y-103294666D01*
X193198809Y-103318476D01*
X193222619Y-103342285D01*
X193246428Y-103389904D01*
X193246428Y-103508952D01*
X193222619Y-103556571D01*
X193198809Y-103580380D01*
X193151190Y-103604190D01*
X193008333Y-103604190D01*
X192960714Y-103580380D01*
X192936904Y-103556571D01*
X193460714Y-103556571D02*
X193484523Y-103580380D01*
X193460714Y-103604190D01*
X193436904Y-103580380D01*
X193460714Y-103556571D01*
X193460714Y-103604190D01*
X193651190Y-103104190D02*
X193960714Y-103104190D01*
X193794047Y-103294666D01*
X193865476Y-103294666D01*
X193913095Y-103318476D01*
X193936904Y-103342285D01*
X193960714Y-103389904D01*
X193960714Y-103508952D01*
X193936904Y-103556571D01*
X193913095Y-103580380D01*
X193865476Y-103604190D01*
X193722619Y-103604190D01*
X193675000Y-103580380D01*
X193651190Y-103556571D01*
X194103571Y-103104190D02*
X194270238Y-103604190D01*
X194436904Y-103104190D01*
X200386190Y-110358952D02*
X200790952Y-110358952D01*
X200838571Y-110335142D01*
X200862380Y-110311333D01*
X200886190Y-110263714D01*
X200886190Y-110168476D01*
X200862380Y-110120857D01*
X200838571Y-110097047D01*
X200790952Y-110073238D01*
X200386190Y-110073238D01*
X200862380Y-109858952D02*
X200886190Y-109787523D01*
X200886190Y-109668476D01*
X200862380Y-109620857D01*
X200838571Y-109597047D01*
X200790952Y-109573238D01*
X200743333Y-109573238D01*
X200695714Y-109597047D01*
X200671904Y-109620857D01*
X200648095Y-109668476D01*
X200624285Y-109763714D01*
X200600476Y-109811333D01*
X200576666Y-109835142D01*
X200529047Y-109858952D01*
X200481428Y-109858952D01*
X200433809Y-109835142D01*
X200410000Y-109811333D01*
X200386190Y-109763714D01*
X200386190Y-109644666D01*
X200410000Y-109573238D01*
X200624285Y-109192285D02*
X200648095Y-109120857D01*
X200671904Y-109097047D01*
X200719523Y-109073238D01*
X200790952Y-109073238D01*
X200838571Y-109097047D01*
X200862380Y-109120857D01*
X200886190Y-109168476D01*
X200886190Y-109358952D01*
X200386190Y-109358952D01*
X200386190Y-109192285D01*
X200410000Y-109144666D01*
X200433809Y-109120857D01*
X200481428Y-109097047D01*
X200529047Y-109097047D01*
X200576666Y-109120857D01*
X200600476Y-109144666D01*
X200624285Y-109192285D01*
X200624285Y-109358952D01*
G04 #@! TO.C,Q1*
D11*
X123104761Y-99735619D02*
X123009523Y-99688000D01*
X122914285Y-99592761D01*
X122771428Y-99449904D01*
X122676190Y-99402285D01*
X122580952Y-99402285D01*
X122628571Y-99640380D02*
X122533333Y-99592761D01*
X122438095Y-99497523D01*
X122390476Y-99307047D01*
X122390476Y-98973714D01*
X122438095Y-98783238D01*
X122533333Y-98688000D01*
X122628571Y-98640380D01*
X122819047Y-98640380D01*
X122914285Y-98688000D01*
X123009523Y-98783238D01*
X123057142Y-98973714D01*
X123057142Y-99307047D01*
X123009523Y-99497523D01*
X122914285Y-99592761D01*
X122819047Y-99640380D01*
X122628571Y-99640380D01*
X124009523Y-99640380D02*
X123438095Y-99640380D01*
X123723809Y-99640380D02*
X123723809Y-98640380D01*
X123628571Y-98783238D01*
X123533333Y-98878476D01*
X123438095Y-98926095D01*
G04 #@! TO.C,J6*
X129524380Y-100155333D02*
X130238666Y-100155333D01*
X130381523Y-100202952D01*
X130476761Y-100298190D01*
X130524380Y-100441047D01*
X130524380Y-100536285D01*
X129524380Y-99250571D02*
X129524380Y-99441047D01*
X129572000Y-99536285D01*
X129619619Y-99583904D01*
X129762476Y-99679142D01*
X129952952Y-99726761D01*
X130333904Y-99726761D01*
X130429142Y-99679142D01*
X130476761Y-99631523D01*
X130524380Y-99536285D01*
X130524380Y-99345809D01*
X130476761Y-99250571D01*
X130429142Y-99202952D01*
X130333904Y-99155333D01*
X130095809Y-99155333D01*
X130000571Y-99202952D01*
X129952952Y-99250571D01*
X129905333Y-99345809D01*
X129905333Y-99536285D01*
X129952952Y-99631523D01*
X130000571Y-99679142D01*
X130095809Y-99726761D01*
G04 #@! TO.C,R1*
X118732380Y-111672666D02*
X118256190Y-112006000D01*
X118732380Y-112244095D02*
X117732380Y-112244095D01*
X117732380Y-111863142D01*
X117780000Y-111767904D01*
X117827619Y-111720285D01*
X117922857Y-111672666D01*
X118065714Y-111672666D01*
X118160952Y-111720285D01*
X118208571Y-111767904D01*
X118256190Y-111863142D01*
X118256190Y-112244095D01*
X118732380Y-110720285D02*
X118732380Y-111291714D01*
X118732380Y-111006000D02*
X117732380Y-111006000D01*
X117875238Y-111101238D01*
X117970476Y-111196476D01*
X118018095Y-111291714D01*
G04 #@! TO.C,R2*
X128722380Y-111672666D02*
X128246190Y-112006000D01*
X128722380Y-112244095D02*
X127722380Y-112244095D01*
X127722380Y-111863142D01*
X127770000Y-111767904D01*
X127817619Y-111720285D01*
X127912857Y-111672666D01*
X128055714Y-111672666D01*
X128150952Y-111720285D01*
X128198571Y-111767904D01*
X128246190Y-111863142D01*
X128246190Y-112244095D01*
X127817619Y-111291714D02*
X127770000Y-111244095D01*
X127722380Y-111148857D01*
X127722380Y-110910761D01*
X127770000Y-110815523D01*
X127817619Y-110767904D01*
X127912857Y-110720285D01*
X128008095Y-110720285D01*
X128150952Y-110767904D01*
X128722380Y-111339333D01*
X128722380Y-110720285D01*
G04 #@! TD*
%LPC*%
D13*
X158519142Y-111760857D02*
X158519142Y-110560857D01*
X159204857Y-111760857D01*
X159204857Y-110560857D01*
X159776285Y-111760857D02*
X159776285Y-110960857D01*
X159776285Y-110560857D02*
X159719142Y-110618000D01*
X159776285Y-110675142D01*
X159833428Y-110618000D01*
X159776285Y-110560857D01*
X159776285Y-110675142D01*
X160233428Y-111760857D02*
X160862000Y-110960857D01*
X160233428Y-110960857D02*
X160862000Y-111760857D01*
X161319142Y-111760857D02*
X161319142Y-110960857D01*
X161319142Y-110560857D02*
X161262000Y-110618000D01*
X161319142Y-110675142D01*
X161376285Y-110618000D01*
X161319142Y-110560857D01*
X161319142Y-110675142D01*
X162347714Y-111703714D02*
X162233428Y-111760857D01*
X162004857Y-111760857D01*
X161890571Y-111703714D01*
X161833428Y-111589428D01*
X161833428Y-111132285D01*
X161890571Y-111018000D01*
X162004857Y-110960857D01*
X162233428Y-110960857D01*
X162347714Y-111018000D01*
X162404857Y-111132285D01*
X162404857Y-111246571D01*
X161833428Y-111360857D01*
X163662000Y-110560857D02*
X164347714Y-110560857D01*
X164004857Y-111760857D02*
X164004857Y-110560857D01*
X165262000Y-110960857D02*
X165262000Y-111760857D01*
X164747714Y-110960857D02*
X164747714Y-111589428D01*
X164804857Y-111703714D01*
X164919142Y-111760857D01*
X165090571Y-111760857D01*
X165204857Y-111703714D01*
X165262000Y-111646571D01*
X165833428Y-111760857D02*
X165833428Y-110560857D01*
X165833428Y-111018000D02*
X165947714Y-110960857D01*
X166176285Y-110960857D01*
X166290571Y-111018000D01*
X166347714Y-111075142D01*
X166404857Y-111189428D01*
X166404857Y-111532285D01*
X166347714Y-111646571D01*
X166290571Y-111703714D01*
X166176285Y-111760857D01*
X165947714Y-111760857D01*
X165833428Y-111703714D01*
X167376285Y-111703714D02*
X167262000Y-111760857D01*
X167033428Y-111760857D01*
X166919142Y-111703714D01*
X166862000Y-111589428D01*
X166862000Y-111132285D01*
X166919142Y-111018000D01*
X167033428Y-110960857D01*
X167262000Y-110960857D01*
X167376285Y-111018000D01*
X167433428Y-111132285D01*
X167433428Y-111246571D01*
X166862000Y-111360857D01*
X169547714Y-111646571D02*
X169490571Y-111703714D01*
X169319142Y-111760857D01*
X169204857Y-111760857D01*
X169033428Y-111703714D01*
X168919142Y-111589428D01*
X168862000Y-111475142D01*
X168804857Y-111246571D01*
X168804857Y-111075142D01*
X168862000Y-110846571D01*
X168919142Y-110732285D01*
X169033428Y-110618000D01*
X169204857Y-110560857D01*
X169319142Y-110560857D01*
X169490571Y-110618000D01*
X169547714Y-110675142D01*
X170233428Y-111760857D02*
X170119142Y-111703714D01*
X170062000Y-111589428D01*
X170062000Y-110560857D01*
X170862000Y-111760857D02*
X170747714Y-111703714D01*
X170690571Y-111646571D01*
X170633428Y-111532285D01*
X170633428Y-111189428D01*
X170690571Y-111075142D01*
X170747714Y-111018000D01*
X170862000Y-110960857D01*
X171033428Y-110960857D01*
X171147714Y-111018000D01*
X171204857Y-111075142D01*
X171262000Y-111189428D01*
X171262000Y-111532285D01*
X171204857Y-111646571D01*
X171147714Y-111703714D01*
X171033428Y-111760857D01*
X170862000Y-111760857D01*
X172290571Y-111703714D02*
X172176285Y-111760857D01*
X171947714Y-111760857D01*
X171833428Y-111703714D01*
X171776285Y-111646571D01*
X171719142Y-111532285D01*
X171719142Y-111189428D01*
X171776285Y-111075142D01*
X171833428Y-111018000D01*
X171947714Y-110960857D01*
X172176285Y-110960857D01*
X172290571Y-111018000D01*
X172804857Y-111760857D02*
X172804857Y-110560857D01*
X172919142Y-111303714D02*
X173262000Y-111760857D01*
X173262000Y-110960857D02*
X172804857Y-111418000D01*
X159462000Y-113232285D02*
X159633428Y-113289428D01*
X159690571Y-113346571D01*
X159747714Y-113460857D01*
X159747714Y-113632285D01*
X159690571Y-113746571D01*
X159633428Y-113803714D01*
X159519142Y-113860857D01*
X159062000Y-113860857D01*
X159062000Y-112660857D01*
X159462000Y-112660857D01*
X159576285Y-112718000D01*
X159633428Y-112775142D01*
X159690571Y-112889428D01*
X159690571Y-113003714D01*
X159633428Y-113118000D01*
X159576285Y-113175142D01*
X159462000Y-113232285D01*
X159062000Y-113232285D01*
X160776285Y-113860857D02*
X160776285Y-113232285D01*
X160719142Y-113118000D01*
X160604857Y-113060857D01*
X160376285Y-113060857D01*
X160262000Y-113118000D01*
X160776285Y-113803714D02*
X160662000Y-113860857D01*
X160376285Y-113860857D01*
X160262000Y-113803714D01*
X160204857Y-113689428D01*
X160204857Y-113575142D01*
X160262000Y-113460857D01*
X160376285Y-113403714D01*
X160662000Y-113403714D01*
X160776285Y-113346571D01*
X161290571Y-113803714D02*
X161404857Y-113860857D01*
X161633428Y-113860857D01*
X161747714Y-113803714D01*
X161804857Y-113689428D01*
X161804857Y-113632285D01*
X161747714Y-113518000D01*
X161633428Y-113460857D01*
X161462000Y-113460857D01*
X161347714Y-113403714D01*
X161290571Y-113289428D01*
X161290571Y-113232285D01*
X161347714Y-113118000D01*
X161462000Y-113060857D01*
X161633428Y-113060857D01*
X161747714Y-113118000D01*
X162776285Y-113803714D02*
X162662000Y-113860857D01*
X162433428Y-113860857D01*
X162319142Y-113803714D01*
X162262000Y-113689428D01*
X162262000Y-113232285D01*
X162319142Y-113118000D01*
X162433428Y-113060857D01*
X162662000Y-113060857D01*
X162776285Y-113118000D01*
X162833428Y-113232285D01*
X162833428Y-113346571D01*
X162262000Y-113460857D01*
X163747714Y-113232285D02*
X163919142Y-113289428D01*
X163976285Y-113346571D01*
X164033428Y-113460857D01*
X164033428Y-113632285D01*
X163976285Y-113746571D01*
X163919142Y-113803714D01*
X163804857Y-113860857D01*
X163347714Y-113860857D01*
X163347714Y-112660857D01*
X163747714Y-112660857D01*
X163862000Y-112718000D01*
X163919142Y-112775142D01*
X163976285Y-112889428D01*
X163976285Y-113003714D01*
X163919142Y-113118000D01*
X163862000Y-113175142D01*
X163747714Y-113232285D01*
X163347714Y-113232285D01*
X164719142Y-113860857D02*
X164604857Y-113803714D01*
X164547714Y-113746571D01*
X164490571Y-113632285D01*
X164490571Y-113289428D01*
X164547714Y-113175142D01*
X164604857Y-113118000D01*
X164719142Y-113060857D01*
X164890571Y-113060857D01*
X165004857Y-113118000D01*
X165062000Y-113175142D01*
X165119142Y-113289428D01*
X165119142Y-113632285D01*
X165062000Y-113746571D01*
X165004857Y-113803714D01*
X164890571Y-113860857D01*
X164719142Y-113860857D01*
X166147714Y-113860857D02*
X166147714Y-113232285D01*
X166090571Y-113118000D01*
X165976285Y-113060857D01*
X165747714Y-113060857D01*
X165633428Y-113118000D01*
X166147714Y-113803714D02*
X166033428Y-113860857D01*
X165747714Y-113860857D01*
X165633428Y-113803714D01*
X165576285Y-113689428D01*
X165576285Y-113575142D01*
X165633428Y-113460857D01*
X165747714Y-113403714D01*
X166033428Y-113403714D01*
X166147714Y-113346571D01*
X166719142Y-113860857D02*
X166719142Y-113060857D01*
X166719142Y-113289428D02*
X166776285Y-113175142D01*
X166833428Y-113118000D01*
X166947714Y-113060857D01*
X167062000Y-113060857D01*
X167976285Y-113860857D02*
X167976285Y-112660857D01*
X167976285Y-113803714D02*
X167862000Y-113860857D01*
X167633428Y-113860857D01*
X167519142Y-113803714D01*
X167462000Y-113746571D01*
X167404857Y-113632285D01*
X167404857Y-113289428D01*
X167462000Y-113175142D01*
X167519142Y-113118000D01*
X167633428Y-113060857D01*
X167862000Y-113060857D01*
X167976285Y-113118000D01*
X169347714Y-113060857D02*
X169633428Y-113860857D01*
X169919142Y-113060857D01*
X170604857Y-112660857D02*
X170719142Y-112660857D01*
X170833428Y-112718000D01*
X170890571Y-112775142D01*
X170947714Y-112889428D01*
X171004857Y-113118000D01*
X171004857Y-113403714D01*
X170947714Y-113632285D01*
X170890571Y-113746571D01*
X170833428Y-113803714D01*
X170719142Y-113860857D01*
X170604857Y-113860857D01*
X170490571Y-113803714D01*
X170433428Y-113746571D01*
X170376285Y-113632285D01*
X170319142Y-113403714D01*
X170319142Y-113118000D01*
X170376285Y-112889428D01*
X170433428Y-112775142D01*
X170490571Y-112718000D01*
X170604857Y-112660857D01*
X171519142Y-113746571D02*
X171576285Y-113803714D01*
X171519142Y-113860857D01*
X171462000Y-113803714D01*
X171519142Y-113746571D01*
X171519142Y-113860857D01*
X172719142Y-113860857D02*
X172033428Y-113860857D01*
X172376285Y-113860857D02*
X172376285Y-112660857D01*
X172262000Y-112832285D01*
X172147714Y-112946571D01*
X172033428Y-113003714D01*
X105819142Y-103011857D02*
X105319142Y-103011857D01*
X105319142Y-103797571D02*
X105319142Y-102297571D01*
X106033428Y-102297571D01*
X107247714Y-103797571D02*
X107247714Y-103011857D01*
X107176285Y-102869000D01*
X107033428Y-102797571D01*
X106747714Y-102797571D01*
X106604857Y-102869000D01*
X107247714Y-103726142D02*
X107104857Y-103797571D01*
X106747714Y-103797571D01*
X106604857Y-103726142D01*
X106533428Y-103583285D01*
X106533428Y-103440428D01*
X106604857Y-103297571D01*
X106747714Y-103226142D01*
X107104857Y-103226142D01*
X107247714Y-103154714D01*
X107962000Y-103797571D02*
X107962000Y-102297571D01*
X107962000Y-102869000D02*
X108104857Y-102797571D01*
X108390571Y-102797571D01*
X108533428Y-102869000D01*
X108604857Y-102940428D01*
X108676285Y-103083285D01*
X108676285Y-103511857D01*
X108604857Y-103654714D01*
X108533428Y-103726142D01*
X108390571Y-103797571D01*
X108104857Y-103797571D01*
X107962000Y-103726142D01*
X109533428Y-103797571D02*
X109390571Y-103726142D01*
X109319142Y-103583285D01*
X109319142Y-102297571D01*
X110747714Y-103797571D02*
X110747714Y-103011857D01*
X110676285Y-102869000D01*
X110533428Y-102797571D01*
X110247714Y-102797571D01*
X110104857Y-102869000D01*
X110747714Y-103726142D02*
X110604857Y-103797571D01*
X110247714Y-103797571D01*
X110104857Y-103726142D01*
X110033428Y-103583285D01*
X110033428Y-103440428D01*
X110104857Y-103297571D01*
X110247714Y-103226142D01*
X110604857Y-103226142D01*
X110747714Y-103154714D01*
X111462000Y-103797571D02*
X111462000Y-102297571D01*
X111462000Y-102869000D02*
X111604857Y-102797571D01*
X111890571Y-102797571D01*
X112033428Y-102869000D01*
X112104857Y-102940428D01*
X112176285Y-103083285D01*
X112176285Y-103511857D01*
X112104857Y-103654714D01*
X112033428Y-103726142D01*
X111890571Y-103797571D01*
X111604857Y-103797571D01*
X111462000Y-103726142D01*
X105247714Y-106347571D02*
X105247714Y-104847571D01*
X106104857Y-106347571D02*
X105462000Y-105490428D01*
X106104857Y-104847571D02*
X105247714Y-105704714D01*
X107390571Y-106347571D02*
X107390571Y-105561857D01*
X107319142Y-105419000D01*
X107176285Y-105347571D01*
X106890571Y-105347571D01*
X106747714Y-105419000D01*
X107390571Y-106276142D02*
X107247714Y-106347571D01*
X106890571Y-106347571D01*
X106747714Y-106276142D01*
X106676285Y-106133285D01*
X106676285Y-105990428D01*
X106747714Y-105847571D01*
X106890571Y-105776142D01*
X107247714Y-105776142D01*
X107390571Y-105704714D01*
X108104857Y-105347571D02*
X108104857Y-106347571D01*
X108104857Y-105490428D02*
X108176285Y-105419000D01*
X108319142Y-105347571D01*
X108533428Y-105347571D01*
X108676285Y-105419000D01*
X108747714Y-105561857D01*
X108747714Y-106347571D01*
X109462000Y-105347571D02*
X109462000Y-106347571D01*
X109462000Y-105490428D02*
X109533428Y-105419000D01*
X109676285Y-105347571D01*
X109890571Y-105347571D01*
X110033428Y-105419000D01*
X110104857Y-105561857D01*
X110104857Y-106347571D01*
X111462000Y-106347571D02*
X111462000Y-105561857D01*
X111390571Y-105419000D01*
X111247714Y-105347571D01*
X110962000Y-105347571D01*
X110819142Y-105419000D01*
X111462000Y-106276142D02*
X111319142Y-106347571D01*
X110962000Y-106347571D01*
X110819142Y-106276142D01*
X110747714Y-106133285D01*
X110747714Y-105990428D01*
X110819142Y-105847571D01*
X110962000Y-105776142D01*
X111319142Y-105776142D01*
X111462000Y-105704714D01*
X112176285Y-106347571D02*
X112176285Y-105347571D01*
X112176285Y-104847571D02*
X112104857Y-104919000D01*
X112176285Y-104990428D01*
X112247714Y-104919000D01*
X112176285Y-104847571D01*
X112176285Y-104990428D01*
D14*
G04 #@! TO.C,G\002A\002A\002A*
G36*
X109202298Y-95053584D02*
X109641685Y-95111661D01*
X110049897Y-95221470D01*
X110376365Y-95358145D01*
X110699050Y-95539950D01*
X111004818Y-95757000D01*
X111280532Y-95999407D01*
X111513060Y-96257285D01*
X111617176Y-96401208D01*
X111679644Y-96498508D01*
X111710505Y-96558958D01*
X111713907Y-96598185D01*
X111693998Y-96631817D01*
X111682008Y-96645471D01*
X111609239Y-96698109D01*
X111532620Y-96727501D01*
X111505658Y-96731295D01*
X111474308Y-96729552D01*
X111434063Y-96719894D01*
X111380415Y-96699944D01*
X111308854Y-96667323D01*
X111214873Y-96619653D01*
X111093963Y-96554558D01*
X110941616Y-96469658D01*
X110753324Y-96362577D01*
X110524579Y-96230936D01*
X110250871Y-96072358D01*
X109927693Y-95884465D01*
X109864725Y-95847817D01*
X109651369Y-95724324D01*
X109454726Y-95611840D01*
X109281720Y-95514218D01*
X109139271Y-95435315D01*
X109034303Y-95378985D01*
X108973738Y-95349085D01*
X108962338Y-95345250D01*
X108921215Y-95360656D01*
X108838880Y-95401943D01*
X108728202Y-95461711D01*
X108602048Y-95532563D01*
X108473288Y-95607098D01*
X108354791Y-95677919D01*
X108259424Y-95737626D01*
X108200057Y-95778821D01*
X108187518Y-95790730D01*
X108199050Y-95825119D01*
X108252496Y-95872295D01*
X108330655Y-95921855D01*
X108416328Y-95963393D01*
X108492317Y-95986503D01*
X108514114Y-95988307D01*
X108583902Y-95987184D01*
X108697576Y-95985116D01*
X108835532Y-95982465D01*
X108902500Y-95981134D01*
X109186046Y-95995815D01*
X109437474Y-96049656D01*
X109651959Y-96139386D01*
X109824674Y-96261735D01*
X109950792Y-96413433D01*
X110025487Y-96591211D01*
X110044977Y-96755181D01*
X110013960Y-96943655D01*
X109923951Y-97113844D01*
X109777613Y-97262669D01*
X109577605Y-97387054D01*
X109451213Y-97441840D01*
X109266605Y-97492150D01*
X109048962Y-97520726D01*
X108823934Y-97526324D01*
X108617170Y-97507698D01*
X108521500Y-97486951D01*
X108245091Y-97390169D01*
X108027943Y-97271070D01*
X107869767Y-97129380D01*
X107770271Y-96964824D01*
X107729166Y-96777129D01*
X107727927Y-96736909D01*
X107720630Y-96652704D01*
X107708309Y-96601531D01*
X107665949Y-96552441D01*
X107582366Y-96492628D01*
X107476218Y-96431864D01*
X107366160Y-96379920D01*
X107270848Y-96346569D01*
X107210936Y-96341011D01*
X107156189Y-96364857D01*
X107062427Y-96415567D01*
X106943757Y-96485210D01*
X106838750Y-96550252D01*
X106711317Y-96627579D01*
X106598000Y-96689988D01*
X106512489Y-96730318D01*
X106472425Y-96741894D01*
X106408233Y-96722370D01*
X106327709Y-96673277D01*
X106304588Y-96654937D01*
X106201450Y-96567625D01*
X106318553Y-96395020D01*
X106519199Y-96140159D01*
X106766587Y-95891525D01*
X107044440Y-95663143D01*
X107336482Y-95469042D01*
X107489625Y-95385776D01*
X107892512Y-95219243D01*
X108318437Y-95107970D01*
X108758124Y-95052552D01*
X109202298Y-95053584D01*
X109202298Y-95053584D01*
G37*
X109202298Y-95053584D02*
X109641685Y-95111661D01*
X110049897Y-95221470D01*
X110376365Y-95358145D01*
X110699050Y-95539950D01*
X111004818Y-95757000D01*
X111280532Y-95999407D01*
X111513060Y-96257285D01*
X111617176Y-96401208D01*
X111679644Y-96498508D01*
X111710505Y-96558958D01*
X111713907Y-96598185D01*
X111693998Y-96631817D01*
X111682008Y-96645471D01*
X111609239Y-96698109D01*
X111532620Y-96727501D01*
X111505658Y-96731295D01*
X111474308Y-96729552D01*
X111434063Y-96719894D01*
X111380415Y-96699944D01*
X111308854Y-96667323D01*
X111214873Y-96619653D01*
X111093963Y-96554558D01*
X110941616Y-96469658D01*
X110753324Y-96362577D01*
X110524579Y-96230936D01*
X110250871Y-96072358D01*
X109927693Y-95884465D01*
X109864725Y-95847817D01*
X109651369Y-95724324D01*
X109454726Y-95611840D01*
X109281720Y-95514218D01*
X109139271Y-95435315D01*
X109034303Y-95378985D01*
X108973738Y-95349085D01*
X108962338Y-95345250D01*
X108921215Y-95360656D01*
X108838880Y-95401943D01*
X108728202Y-95461711D01*
X108602048Y-95532563D01*
X108473288Y-95607098D01*
X108354791Y-95677919D01*
X108259424Y-95737626D01*
X108200057Y-95778821D01*
X108187518Y-95790730D01*
X108199050Y-95825119D01*
X108252496Y-95872295D01*
X108330655Y-95921855D01*
X108416328Y-95963393D01*
X108492317Y-95986503D01*
X108514114Y-95988307D01*
X108583902Y-95987184D01*
X108697576Y-95985116D01*
X108835532Y-95982465D01*
X108902500Y-95981134D01*
X109186046Y-95995815D01*
X109437474Y-96049656D01*
X109651959Y-96139386D01*
X109824674Y-96261735D01*
X109950792Y-96413433D01*
X110025487Y-96591211D01*
X110044977Y-96755181D01*
X110013960Y-96943655D01*
X109923951Y-97113844D01*
X109777613Y-97262669D01*
X109577605Y-97387054D01*
X109451213Y-97441840D01*
X109266605Y-97492150D01*
X109048962Y-97520726D01*
X108823934Y-97526324D01*
X108617170Y-97507698D01*
X108521500Y-97486951D01*
X108245091Y-97390169D01*
X108027943Y-97271070D01*
X107869767Y-97129380D01*
X107770271Y-96964824D01*
X107729166Y-96777129D01*
X107727927Y-96736909D01*
X107720630Y-96652704D01*
X107708309Y-96601531D01*
X107665949Y-96552441D01*
X107582366Y-96492628D01*
X107476218Y-96431864D01*
X107366160Y-96379920D01*
X107270848Y-96346569D01*
X107210936Y-96341011D01*
X107156189Y-96364857D01*
X107062427Y-96415567D01*
X106943757Y-96485210D01*
X106838750Y-96550252D01*
X106711317Y-96627579D01*
X106598000Y-96689988D01*
X106512489Y-96730318D01*
X106472425Y-96741894D01*
X106408233Y-96722370D01*
X106327709Y-96673277D01*
X106304588Y-96654937D01*
X106201450Y-96567625D01*
X106318553Y-96395020D01*
X106519199Y-96140159D01*
X106766587Y-95891525D01*
X107044440Y-95663143D01*
X107336482Y-95469042D01*
X107489625Y-95385776D01*
X107892512Y-95219243D01*
X108318437Y-95107970D01*
X108758124Y-95052552D01*
X109202298Y-95053584D01*
G36*
X111853395Y-96802506D02*
X111902959Y-96880286D01*
X111960333Y-96995729D01*
X112020401Y-97137223D01*
X112078048Y-97293159D01*
X112128161Y-97451924D01*
X112148214Y-97526432D01*
X112176327Y-97648976D01*
X112195967Y-97766300D01*
X112208495Y-97894130D01*
X112215270Y-98048191D01*
X112217653Y-98244206D01*
X112217695Y-98329750D01*
X112216503Y-98532124D01*
X112212577Y-98686060D01*
X112204307Y-98806608D01*
X112190081Y-98908817D01*
X112168290Y-99007740D01*
X112137322Y-99118427D01*
X112131066Y-99139375D01*
X112030471Y-99423189D01*
X111898734Y-99718257D01*
X111746543Y-100003791D01*
X111584588Y-100259002D01*
X111490890Y-100384320D01*
X111224377Y-100671668D01*
X110914869Y-100929387D01*
X110573337Y-101151476D01*
X110210750Y-101331933D01*
X109838080Y-101464757D01*
X109466296Y-101543946D01*
X109347000Y-101557173D01*
X109214339Y-101562870D01*
X109133237Y-101552063D01*
X109100937Y-101533301D01*
X109074708Y-101475857D01*
X109061593Y-101388008D01*
X109061250Y-101371850D01*
X109060367Y-101340608D01*
X109060750Y-101313904D01*
X109066942Y-101288641D01*
X109083487Y-101261722D01*
X109114930Y-101230052D01*
X109165813Y-101190533D01*
X109240682Y-101140068D01*
X109344080Y-101075561D01*
X109480552Y-100993915D01*
X109654641Y-100892034D01*
X109870891Y-100766821D01*
X110133847Y-100615179D01*
X110378875Y-100473920D01*
X110619533Y-100334271D01*
X110844346Y-100202206D01*
X111046997Y-100081555D01*
X111221170Y-99976148D01*
X111360548Y-99889816D01*
X111458817Y-99826390D01*
X111509659Y-99789701D01*
X111513937Y-99785499D01*
X111537143Y-99748860D01*
X111553005Y-99696012D01*
X111562818Y-99615558D01*
X111567877Y-99496097D01*
X111569478Y-99326233D01*
X111569500Y-99296481D01*
X111567147Y-99122362D01*
X111560532Y-98984351D01*
X111550320Y-98891602D01*
X111537357Y-98853382D01*
X111496743Y-98859783D01*
X111420771Y-98895530D01*
X111325677Y-98952948D01*
X111323044Y-98954695D01*
X111233391Y-99018519D01*
X111166502Y-99080782D01*
X111109248Y-99158036D01*
X111048497Y-99266833D01*
X111002903Y-99358233D01*
X110846301Y-99627114D01*
X110668370Y-99836722D01*
X110469436Y-99986811D01*
X110249828Y-100077133D01*
X110010507Y-100107439D01*
X109826582Y-100089276D01*
X109681563Y-100029727D01*
X109561189Y-99922128D01*
X109530374Y-99883042D01*
X109458175Y-99737691D01*
X109420306Y-99552699D01*
X109415713Y-99341156D01*
X109443342Y-99116149D01*
X109502138Y-98890768D01*
X109591049Y-98678099D01*
X109633563Y-98601590D01*
X109785861Y-98388677D01*
X109959840Y-98214164D01*
X110147875Y-98081595D01*
X110342343Y-97994515D01*
X110535618Y-97956467D01*
X110720077Y-97970996D01*
X110866303Y-98028507D01*
X110964767Y-98080618D01*
X111039001Y-98101422D01*
X111112856Y-98090906D01*
X111210184Y-98049056D01*
X111251656Y-98028299D01*
X111360599Y-97970576D01*
X111437665Y-97917678D01*
X111488365Y-97857373D01*
X111518211Y-97777426D01*
X111532711Y-97665607D01*
X111537378Y-97509682D01*
X111537750Y-97393206D01*
X111540611Y-97188803D01*
X111549392Y-97044230D01*
X111564381Y-96956070D01*
X111577437Y-96927588D01*
X111643593Y-96864499D01*
X111725865Y-96808679D01*
X111798611Y-96776584D01*
X111816755Y-96774000D01*
X111853395Y-96802506D01*
X111853395Y-96802506D01*
G37*
X111853395Y-96802506D02*
X111902959Y-96880286D01*
X111960333Y-96995729D01*
X112020401Y-97137223D01*
X112078048Y-97293159D01*
X112128161Y-97451924D01*
X112148214Y-97526432D01*
X112176327Y-97648976D01*
X112195967Y-97766300D01*
X112208495Y-97894130D01*
X112215270Y-98048191D01*
X112217653Y-98244206D01*
X112217695Y-98329750D01*
X112216503Y-98532124D01*
X112212577Y-98686060D01*
X112204307Y-98806608D01*
X112190081Y-98908817D01*
X112168290Y-99007740D01*
X112137322Y-99118427D01*
X112131066Y-99139375D01*
X112030471Y-99423189D01*
X111898734Y-99718257D01*
X111746543Y-100003791D01*
X111584588Y-100259002D01*
X111490890Y-100384320D01*
X111224377Y-100671668D01*
X110914869Y-100929387D01*
X110573337Y-101151476D01*
X110210750Y-101331933D01*
X109838080Y-101464757D01*
X109466296Y-101543946D01*
X109347000Y-101557173D01*
X109214339Y-101562870D01*
X109133237Y-101552063D01*
X109100937Y-101533301D01*
X109074708Y-101475857D01*
X109061593Y-101388008D01*
X109061250Y-101371850D01*
X109060367Y-101340608D01*
X109060750Y-101313904D01*
X109066942Y-101288641D01*
X109083487Y-101261722D01*
X109114930Y-101230052D01*
X109165813Y-101190533D01*
X109240682Y-101140068D01*
X109344080Y-101075561D01*
X109480552Y-100993915D01*
X109654641Y-100892034D01*
X109870891Y-100766821D01*
X110133847Y-100615179D01*
X110378875Y-100473920D01*
X110619533Y-100334271D01*
X110844346Y-100202206D01*
X111046997Y-100081555D01*
X111221170Y-99976148D01*
X111360548Y-99889816D01*
X111458817Y-99826390D01*
X111509659Y-99789701D01*
X111513937Y-99785499D01*
X111537143Y-99748860D01*
X111553005Y-99696012D01*
X111562818Y-99615558D01*
X111567877Y-99496097D01*
X111569478Y-99326233D01*
X111569500Y-99296481D01*
X111567147Y-99122362D01*
X111560532Y-98984351D01*
X111550320Y-98891602D01*
X111537357Y-98853382D01*
X111496743Y-98859783D01*
X111420771Y-98895530D01*
X111325677Y-98952948D01*
X111323044Y-98954695D01*
X111233391Y-99018519D01*
X111166502Y-99080782D01*
X111109248Y-99158036D01*
X111048497Y-99266833D01*
X111002903Y-99358233D01*
X110846301Y-99627114D01*
X110668370Y-99836722D01*
X110469436Y-99986811D01*
X110249828Y-100077133D01*
X110010507Y-100107439D01*
X109826582Y-100089276D01*
X109681563Y-100029727D01*
X109561189Y-99922128D01*
X109530374Y-99883042D01*
X109458175Y-99737691D01*
X109420306Y-99552699D01*
X109415713Y-99341156D01*
X109443342Y-99116149D01*
X109502138Y-98890768D01*
X109591049Y-98678099D01*
X109633563Y-98601590D01*
X109785861Y-98388677D01*
X109959840Y-98214164D01*
X110147875Y-98081595D01*
X110342343Y-97994515D01*
X110535618Y-97956467D01*
X110720077Y-97970996D01*
X110866303Y-98028507D01*
X110964767Y-98080618D01*
X111039001Y-98101422D01*
X111112856Y-98090906D01*
X111210184Y-98049056D01*
X111251656Y-98028299D01*
X111360599Y-97970576D01*
X111437665Y-97917678D01*
X111488365Y-97857373D01*
X111518211Y-97777426D01*
X111532711Y-97665607D01*
X111537378Y-97509682D01*
X111537750Y-97393206D01*
X111540611Y-97188803D01*
X111549392Y-97044230D01*
X111564381Y-96956070D01*
X111577437Y-96927588D01*
X111643593Y-96864499D01*
X111725865Y-96808679D01*
X111798611Y-96776584D01*
X111816755Y-96774000D01*
X111853395Y-96802506D01*
G36*
X106182141Y-96785805D02*
X106257331Y-96848659D01*
X106378375Y-96959555D01*
X106410125Y-99806125D01*
X106759375Y-100004325D01*
X106895627Y-100079769D01*
X107014391Y-100142034D01*
X107103570Y-100185022D01*
X107151068Y-100202631D01*
X107152849Y-100202763D01*
X107174633Y-100190945D01*
X107185282Y-100147784D01*
X107185963Y-100062163D01*
X107179582Y-99947804D01*
X107166419Y-99807040D01*
X107144110Y-99701750D01*
X107103909Y-99603910D01*
X107037072Y-99485495D01*
X107033454Y-99479491D01*
X106891250Y-99204117D01*
X106807789Y-98944298D01*
X106781846Y-98694701D01*
X106804871Y-98482876D01*
X106872632Y-98286494D01*
X106981136Y-98135436D01*
X107124077Y-98032380D01*
X107295151Y-97980003D01*
X107488053Y-97980982D01*
X107696477Y-98037995D01*
X107772528Y-98071979D01*
X107993254Y-98214926D01*
X108191389Y-98413241D01*
X108361594Y-98661185D01*
X108416674Y-98764860D01*
X108472573Y-98882906D01*
X108508588Y-98978414D01*
X108529874Y-99073540D01*
X108541589Y-99190439D01*
X108548098Y-99329519D01*
X108547975Y-99533921D01*
X108527023Y-99691041D01*
X108480223Y-99815098D01*
X108402551Y-99920311D01*
X108309688Y-100004599D01*
X108189992Y-100100622D01*
X108177979Y-100429623D01*
X108175152Y-100604567D01*
X108186285Y-100730779D01*
X108218443Y-100822654D01*
X108278688Y-100894585D01*
X108374083Y-100960965D01*
X108463026Y-101010487D01*
X108628770Y-101105032D01*
X108742673Y-101185949D01*
X108812911Y-101260341D01*
X108847664Y-101335314D01*
X108850299Y-101346933D01*
X108856650Y-101459426D01*
X108818469Y-101529392D01*
X108731182Y-101561962D01*
X108655320Y-101565725D01*
X108540850Y-101557222D01*
X108400561Y-101537869D01*
X108299250Y-101518919D01*
X107862417Y-101393870D01*
X107454489Y-101214523D01*
X107079232Y-100984895D01*
X106740414Y-100709001D01*
X106441801Y-100390856D01*
X106187160Y-100034476D01*
X105980259Y-99643877D01*
X105824864Y-99223074D01*
X105724742Y-98776082D01*
X105724458Y-98774250D01*
X105705661Y-98574272D01*
X105702040Y-98335407D01*
X105712427Y-98080131D01*
X105735656Y-97830917D01*
X105770559Y-97610239D01*
X105789159Y-97528578D01*
X105833056Y-97376114D01*
X105887083Y-97215871D01*
X105945680Y-97061664D01*
X106003291Y-96927310D01*
X106054357Y-96826627D01*
X106092697Y-96773939D01*
X106130171Y-96761484D01*
X106182141Y-96785805D01*
X106182141Y-96785805D01*
G37*
X106182141Y-96785805D02*
X106257331Y-96848659D01*
X106378375Y-96959555D01*
X106410125Y-99806125D01*
X106759375Y-100004325D01*
X106895627Y-100079769D01*
X107014391Y-100142034D01*
X107103570Y-100185022D01*
X107151068Y-100202631D01*
X107152849Y-100202763D01*
X107174633Y-100190945D01*
X107185282Y-100147784D01*
X107185963Y-100062163D01*
X107179582Y-99947804D01*
X107166419Y-99807040D01*
X107144110Y-99701750D01*
X107103909Y-99603910D01*
X107037072Y-99485495D01*
X107033454Y-99479491D01*
X106891250Y-99204117D01*
X106807789Y-98944298D01*
X106781846Y-98694701D01*
X106804871Y-98482876D01*
X106872632Y-98286494D01*
X106981136Y-98135436D01*
X107124077Y-98032380D01*
X107295151Y-97980003D01*
X107488053Y-97980982D01*
X107696477Y-98037995D01*
X107772528Y-98071979D01*
X107993254Y-98214926D01*
X108191389Y-98413241D01*
X108361594Y-98661185D01*
X108416674Y-98764860D01*
X108472573Y-98882906D01*
X108508588Y-98978414D01*
X108529874Y-99073540D01*
X108541589Y-99190439D01*
X108548098Y-99329519D01*
X108547975Y-99533921D01*
X108527023Y-99691041D01*
X108480223Y-99815098D01*
X108402551Y-99920311D01*
X108309688Y-100004599D01*
X108189992Y-100100622D01*
X108177979Y-100429623D01*
X108175152Y-100604567D01*
X108186285Y-100730779D01*
X108218443Y-100822654D01*
X108278688Y-100894585D01*
X108374083Y-100960965D01*
X108463026Y-101010487D01*
X108628770Y-101105032D01*
X108742673Y-101185949D01*
X108812911Y-101260341D01*
X108847664Y-101335314D01*
X108850299Y-101346933D01*
X108856650Y-101459426D01*
X108818469Y-101529392D01*
X108731182Y-101561962D01*
X108655320Y-101565725D01*
X108540850Y-101557222D01*
X108400561Y-101537869D01*
X108299250Y-101518919D01*
X107862417Y-101393870D01*
X107454489Y-101214523D01*
X107079232Y-100984895D01*
X106740414Y-100709001D01*
X106441801Y-100390856D01*
X106187160Y-100034476D01*
X105980259Y-99643877D01*
X105824864Y-99223074D01*
X105724742Y-98776082D01*
X105724458Y-98774250D01*
X105705661Y-98574272D01*
X105702040Y-98335407D01*
X105712427Y-98080131D01*
X105735656Y-97830917D01*
X105770559Y-97610239D01*
X105789159Y-97528578D01*
X105833056Y-97376114D01*
X105887083Y-97215871D01*
X105945680Y-97061664D01*
X106003291Y-96927310D01*
X106054357Y-96826627D01*
X106092697Y-96773939D01*
X106130171Y-96761484D01*
X106182141Y-96785805D01*
G36*
X112299750Y-101615875D02*
X112283875Y-101631750D01*
X112268000Y-101615875D01*
X112283875Y-101600000D01*
X112299750Y-101615875D01*
X112299750Y-101615875D01*
G37*
X112299750Y-101615875D02*
X112283875Y-101631750D01*
X112268000Y-101615875D01*
X112283875Y-101600000D01*
X112299750Y-101615875D01*
G04 #@! TD*
D15*
G04 #@! TO.C,NIX1*
X121539000Y-92837000D03*
D16*
X118999000Y-92837000D03*
D15*
X118999000Y-128397000D03*
X111379000Y-128397000D03*
X106299000Y-128397000D03*
X113919000Y-128397000D03*
X116459000Y-128397000D03*
X108839000Y-128397000D03*
D17*
X121539000Y-128397000D03*
D15*
X108839000Y-92837000D03*
D16*
X106299000Y-92837000D03*
G04 #@! TD*
D15*
G04 #@! TO.C,NIX2*
X145542000Y-92837000D03*
D16*
X143002000Y-92837000D03*
D15*
X143002000Y-128397000D03*
X135382000Y-128397000D03*
X130302000Y-128397000D03*
X137922000Y-128397000D03*
X140462000Y-128397000D03*
X132842000Y-128397000D03*
D17*
X145542000Y-128397000D03*
D15*
X132842000Y-92837000D03*
D16*
X130302000Y-92837000D03*
G04 #@! TD*
D15*
G04 #@! TO.C,NIX4*
X199517000Y-92837000D03*
D16*
X196977000Y-92837000D03*
D15*
X196977000Y-128397000D03*
X189357000Y-128397000D03*
X184277000Y-128397000D03*
X191897000Y-128397000D03*
X194437000Y-128397000D03*
X186817000Y-128397000D03*
D17*
X199517000Y-128397000D03*
D15*
X186817000Y-92837000D03*
D16*
X184277000Y-92837000D03*
G04 #@! TD*
D15*
G04 #@! TO.C,NIX3*
X175514000Y-92837000D03*
D16*
X172974000Y-92837000D03*
D15*
X172974000Y-128397000D03*
X165354000Y-128397000D03*
X160274000Y-128397000D03*
X167894000Y-128397000D03*
X170434000Y-128397000D03*
X162814000Y-128397000D03*
D17*
X175514000Y-128397000D03*
D15*
X162814000Y-92837000D03*
D16*
X160274000Y-92837000D03*
G04 #@! TD*
D15*
G04 #@! TO.C,J1*
X107188000Y-120904000D03*
D16*
X107188000Y-118364000D03*
G04 #@! TD*
D15*
G04 #@! TO.C,J2*
X113284000Y-120904000D03*
D16*
X113284000Y-118364000D03*
G04 #@! TD*
D15*
G04 #@! TO.C,J3*
X127254000Y-127254000D03*
X127254000Y-124714000D03*
X124714000Y-127254000D03*
D16*
X124714000Y-124714000D03*
G04 #@! TD*
D15*
G04 #@! TO.C,J4*
X181229000Y-127254000D03*
X181229000Y-124714000D03*
X178689000Y-127254000D03*
D16*
X178689000Y-124714000D03*
G04 #@! TD*
D15*
G04 #@! TO.C,J5*
X156845000Y-127254000D03*
X156845000Y-124714000D03*
X154305000Y-127254000D03*
X154305000Y-124714000D03*
X151765000Y-127254000D03*
X151765000Y-124714000D03*
X149225000Y-127254000D03*
D16*
X149225000Y-124714000D03*
G04 #@! TD*
G04 #@! TO.C,U1*
X197231000Y-98298000D03*
D15*
X194691000Y-98298000D03*
X192151000Y-98298000D03*
X189611000Y-98298000D03*
X187071000Y-98298000D03*
X184531000Y-98298000D03*
X181991000Y-98298000D03*
X179451000Y-98298000D03*
X176911000Y-98298000D03*
X174371000Y-98298000D03*
X171831000Y-98298000D03*
X169291000Y-98298000D03*
X166751000Y-98298000D03*
X164211000Y-98298000D03*
X161671000Y-98298000D03*
X159131000Y-98298000D03*
X156591000Y-98298000D03*
X154051000Y-98298000D03*
X151511000Y-98298000D03*
D17*
X197231000Y-121158000D03*
D15*
X181991000Y-121158000D03*
X159131000Y-121158000D03*
X164211000Y-121158000D03*
X192151000Y-121158000D03*
X176911000Y-121158000D03*
X184531000Y-121158000D03*
X166751000Y-121158000D03*
X154051000Y-121158000D03*
X151511000Y-121158000D03*
X156591000Y-121158000D03*
X169291000Y-121158000D03*
X187071000Y-121158000D03*
X174371000Y-121158000D03*
X161671000Y-121158000D03*
X171831000Y-121158000D03*
X194691000Y-121158000D03*
X179451000Y-121158000D03*
X189611000Y-121158000D03*
G04 #@! TD*
D18*
G04 #@! TO.C,XA1*
X198755000Y-102108000D03*
X198755000Y-117348000D03*
X158115000Y-102108000D03*
X158115000Y-117348000D03*
D19*
X160655000Y-117348000D03*
D20*
X163195000Y-117348000D03*
X165735000Y-117348000D03*
X168275000Y-117348000D03*
X170815000Y-117348000D03*
X173355000Y-117348000D03*
X175895000Y-117348000D03*
X178435000Y-117348000D03*
X180975000Y-117348000D03*
X183515000Y-117348000D03*
X186055000Y-117348000D03*
X188595000Y-117348000D03*
X191135000Y-117348000D03*
X193675000Y-117348000D03*
X196215000Y-117348000D03*
X196215000Y-102108000D03*
X193675000Y-102108000D03*
X191135000Y-102108000D03*
X188595000Y-102108000D03*
X186055000Y-102108000D03*
X183515000Y-102108000D03*
X180975000Y-102108000D03*
X178435000Y-102108000D03*
X175895000Y-102108000D03*
X173355000Y-102108000D03*
X170815000Y-102108000D03*
X168275000Y-102108000D03*
X165735000Y-102108000D03*
X163195000Y-102108000D03*
X160655000Y-102108000D03*
G04 #@! TD*
D21*
G04 #@! TO.C,Q1*
X120650000Y-103378000D03*
D22*
X125730000Y-103378000D03*
X123190000Y-100838000D03*
G04 #@! TD*
D15*
G04 #@! TO.C,J6*
X143002000Y-99822000D03*
X140462000Y-99822000D03*
X137922000Y-99822000D03*
X135382000Y-99822000D03*
D16*
X132842000Y-99822000D03*
G04 #@! TD*
D23*
G04 #@! TO.C,R1*
X120650000Y-115316000D03*
D24*
X120650000Y-107696000D03*
G04 #@! TD*
G04 #@! TO.C,R2*
X125730000Y-107696000D03*
D23*
X125730000Y-115316000D03*
G04 #@! TD*
M02*
