M48
;DRILL file {KiCad (5.0.2)-1} date 2019/01/14 22:25:46
;FORMAT={-:-/ absolute / metric / decimal}
FMAT,2
METRIC,TZ
T1C0.400
T2C0.800
T3C1.000
T4C1.016
%
G90
G05
T1
X115.189Y-126.746
X117.856Y-124.714
X128.016Y-102.108
X128.016Y-104.14
X129.54Y-102.108
X129.54Y-104.14
X131.064Y-102.108
X131.064Y-104.14
X136.398Y-125.222
X138.43Y-123.952
X139.954Y-123.952
X141.478Y-123.952
X141.986Y-105.664
X142.24Y-119.38
X143.002Y-123.952
X143.51Y-118.11
X143.764Y-119.38
X145.034Y-118.11
X145.796Y-98.298
X145.796Y-99.568
X145.796Y-123.952
X147.066Y-103.632
X147.066Y-106.172
X147.32Y-98.298
X147.32Y-99.568
X148.844Y-98.298
X148.844Y-99.568
X149.86Y-103.632
X151.384Y-113.919
X151.892Y-108.712
X153.162Y-115.951
X153.317Y-113.919
X153.924Y-117.094
X155.194Y-103.378
X159.766Y-105.156
X159.766Y-107.696
X160.274Y-124.206
X162.56Y-125.73
X163.322Y-107.696
X164.338Y-125.73
X166.116Y-122.936
X166.878Y-107.696
X168.021Y-122.936
X169.545Y-103.886
X170.18Y-106.68
X171.958Y-123.19
X172.085Y-103.886
X173.482Y-123.19
X174.371Y-124.206
X175.514Y-123.19
X195.707Y-126.619
X197.485Y-119.126
T2
X125.73Y-107.696
X125.73Y-115.316
X120.65Y-103.378
X123.19Y-100.838
X125.73Y-103.378
X120.65Y-107.696
X120.65Y-115.316
T3
X151.511Y-98.298
X151.511Y-121.158
X154.051Y-98.298
X154.051Y-121.158
X156.591Y-98.298
X156.591Y-121.158
X159.131Y-98.298
X159.131Y-121.158
X161.671Y-98.298
X161.671Y-121.158
X164.211Y-98.298
X164.211Y-121.158
X166.751Y-98.298
X166.751Y-121.158
X169.291Y-98.298
X169.291Y-121.158
X171.831Y-98.298
X171.831Y-121.158
X174.371Y-98.298
X174.371Y-121.158
X176.911Y-98.298
X176.911Y-121.158
X179.451Y-98.298
X179.451Y-121.158
X181.991Y-98.298
X181.991Y-121.158
X184.531Y-98.298
X184.531Y-121.158
X187.071Y-98.298
X187.071Y-121.158
X189.611Y-98.298
X189.611Y-121.158
X192.151Y-98.298
X192.151Y-121.158
X194.691Y-98.298
X194.691Y-121.158
X197.231Y-98.298
X197.231Y-121.158
X149.225Y-124.714
X149.225Y-127.254
X151.765Y-124.714
X151.765Y-127.254
X154.305Y-124.714
X154.305Y-127.254
X156.845Y-124.714
X156.845Y-127.254
X132.842Y-99.822
X135.382Y-99.822
X137.922Y-99.822
X140.462Y-99.822
X143.002Y-99.822
X113.284Y-118.364
X113.284Y-120.904
X178.689Y-124.714
X178.689Y-127.254
X181.229Y-124.714
X181.229Y-127.254
X184.277Y-92.837
X184.277Y-128.397
X186.817Y-92.837
X186.817Y-128.397
X189.357Y-128.397
X191.897Y-128.397
X194.437Y-128.397
X196.977Y-92.837
X196.977Y-128.397
X199.517Y-92.837
X199.517Y-128.397
X106.299Y-92.837
X106.299Y-128.397
X108.839Y-92.837
X108.839Y-128.397
X111.379Y-128.397
X113.919Y-128.397
X116.459Y-128.397
X118.999Y-92.837
X118.999Y-128.397
X121.539Y-92.837
X121.539Y-128.397
X130.302Y-92.837
X130.302Y-128.397
X132.842Y-92.837
X132.842Y-128.397
X135.382Y-128.397
X137.922Y-128.397
X140.462Y-128.397
X143.002Y-92.837
X143.002Y-128.397
X145.542Y-92.837
X145.542Y-128.397
X124.714Y-124.714
X124.714Y-127.254
X127.254Y-124.714
X127.254Y-127.254
X107.188Y-118.364
X107.188Y-120.904
X160.274Y-92.837
X160.274Y-128.397
X162.814Y-92.837
X162.814Y-128.397
X165.354Y-128.397
X167.894Y-128.397
X170.434Y-128.397
X172.974Y-92.837
X172.974Y-128.397
X175.514Y-92.837
X175.514Y-128.397
T4
X160.655Y-102.108
X160.655Y-117.348
X163.195Y-102.108
X163.195Y-117.348
X165.735Y-102.108
X165.735Y-117.348
X168.275Y-102.108
X168.275Y-117.348
X170.815Y-102.108
X170.815Y-117.348
X173.355Y-102.108
X173.355Y-117.348
X175.895Y-102.108
X175.895Y-117.348
X178.435Y-102.108
X178.435Y-117.348
X180.975Y-102.108
X180.975Y-117.348
X183.515Y-102.108
X183.515Y-117.348
X186.055Y-102.108
X186.055Y-117.348
X188.595Y-102.108
X188.595Y-117.348
X191.135Y-102.108
X191.135Y-117.348
X193.675Y-102.108
X193.675Y-117.348
X196.215Y-102.108
X196.215Y-117.348
T0
M30
