G04 #@! TF.GenerationSoftware,KiCad,Pcbnew,(5.0.2)-1*
G04 #@! TF.CreationDate,2019-01-14T22:25:42+09:00*
G04 #@! TF.ProjectId,Nixie_Module_BaseBoard,4e697869-655f-44d6-9f64-756c655f4261,rev?*
G04 #@! TF.SameCoordinates,Original*
G04 #@! TF.FileFunction,Legend,Bot*
G04 #@! TF.FilePolarity,Positive*
%FSLAX46Y46*%
G04 Gerber Fmt 4.6, Leading zero omitted, Abs format (unit mm)*
G04 Created by KiCad (PCBNEW (5.0.2)-1) date 2019/01/14 22:25:42*
%MOMM*%
%LPD*%
G01*
G04 APERTURE LIST*
%ADD10C,0.300000*%
%ADD11C,0.150000*%
%ADD12C,0.120000*%
%ADD13O,2.100000X2.100000*%
%ADD14R,2.100000X2.100000*%
%ADD15C,2.100000*%
%ADD16C,2.250000*%
%ADD17R,2.127200X2.127200*%
%ADD18C,2.127200*%
%ADD19R,1.900000X1.900000*%
%ADD20C,1.900000*%
%ADD21C,2.000000*%
%ADD22O,2.000000X2.000000*%
G04 APERTURE END LIST*
D10*
X112141142Y-123456000D02*
X111998285Y-123384571D01*
X111784000Y-123384571D01*
X111569714Y-123456000D01*
X111426857Y-123598857D01*
X111355428Y-123741714D01*
X111284000Y-124027428D01*
X111284000Y-124241714D01*
X111355428Y-124527428D01*
X111426857Y-124670285D01*
X111569714Y-124813142D01*
X111784000Y-124884571D01*
X111926857Y-124884571D01*
X112141142Y-124813142D01*
X112212571Y-124741714D01*
X112212571Y-124241714D01*
X111926857Y-124241714D01*
X112855428Y-124884571D02*
X112855428Y-123384571D01*
X113712571Y-124884571D01*
X113712571Y-123384571D01*
X114426857Y-124884571D02*
X114426857Y-123384571D01*
X114784000Y-123384571D01*
X114998285Y-123456000D01*
X115141142Y-123598857D01*
X115212571Y-123741714D01*
X115284000Y-124027428D01*
X115284000Y-124241714D01*
X115212571Y-124527428D01*
X115141142Y-124670285D01*
X114998285Y-124813142D01*
X114784000Y-124884571D01*
X114426857Y-124884571D01*
X104680000Y-124313142D02*
X105822857Y-124313142D01*
X105251428Y-124884571D02*
X105251428Y-123741714D01*
X106537142Y-124884571D02*
X106537142Y-123384571D01*
X106537142Y-124098857D02*
X107394285Y-124098857D01*
X107394285Y-124884571D02*
X107394285Y-123384571D01*
X107894285Y-123384571D02*
X108394285Y-124884571D01*
X108894285Y-123384571D01*
D11*
G04 #@! TO.C,NIX1*
X121539000Y-100457000D02*
G75*
G03X106299000Y-100457000I-7620000J0D01*
G01*
X103759000Y-90297000D02*
X124079000Y-90297000D01*
X103759000Y-130937000D02*
X103759000Y-90297000D01*
X124079000Y-130937000D02*
X103759000Y-130937000D01*
X124079000Y-90297000D02*
X124079000Y-130937000D01*
D12*
X122869000Y-91507000D02*
X122869000Y-94167000D01*
X120269000Y-94167000D02*
X122869000Y-94167000D01*
X120269000Y-91507000D02*
X122869000Y-91507000D01*
X120269000Y-91507000D02*
X120269000Y-94167000D01*
X120269000Y-129727000D02*
X104969000Y-129727000D01*
X104969000Y-129727000D02*
X104969000Y-127067000D01*
X120269000Y-129727000D02*
X120269000Y-127067000D01*
X120269000Y-127067000D02*
X104969000Y-127067000D01*
X122869000Y-127067000D02*
X121539000Y-127067000D01*
X122869000Y-128397000D02*
X122869000Y-127067000D01*
D11*
G04 #@! TO.C,NIX2*
X145542000Y-100457000D02*
G75*
G03X130302000Y-100457000I-7620000J0D01*
G01*
X127762000Y-90297000D02*
X148082000Y-90297000D01*
X127762000Y-130937000D02*
X127762000Y-90297000D01*
X148082000Y-130937000D02*
X127762000Y-130937000D01*
X148082000Y-90297000D02*
X148082000Y-130937000D01*
D12*
X146872000Y-91507000D02*
X146872000Y-94167000D01*
X144272000Y-94167000D02*
X146872000Y-94167000D01*
X144272000Y-91507000D02*
X146872000Y-91507000D01*
X144272000Y-91507000D02*
X144272000Y-94167000D01*
X144272000Y-129727000D02*
X128972000Y-129727000D01*
X128972000Y-129727000D02*
X128972000Y-127067000D01*
X144272000Y-129727000D02*
X144272000Y-127067000D01*
X144272000Y-127067000D02*
X128972000Y-127067000D01*
X146872000Y-127067000D02*
X145542000Y-127067000D01*
X146872000Y-128397000D02*
X146872000Y-127067000D01*
D11*
G04 #@! TO.C,NIX4*
X199517000Y-100457000D02*
G75*
G03X184277000Y-100457000I-7620000J0D01*
G01*
X181737000Y-90297000D02*
X202057000Y-90297000D01*
X181737000Y-130937000D02*
X181737000Y-90297000D01*
X202057000Y-130937000D02*
X181737000Y-130937000D01*
X202057000Y-90297000D02*
X202057000Y-130937000D01*
D12*
X200847000Y-91507000D02*
X200847000Y-94167000D01*
X198247000Y-94167000D02*
X200847000Y-94167000D01*
X198247000Y-91507000D02*
X200847000Y-91507000D01*
X198247000Y-91507000D02*
X198247000Y-94167000D01*
X198247000Y-129727000D02*
X182947000Y-129727000D01*
X182947000Y-129727000D02*
X182947000Y-127067000D01*
X198247000Y-129727000D02*
X198247000Y-127067000D01*
X198247000Y-127067000D02*
X182947000Y-127067000D01*
X200847000Y-127067000D02*
X199517000Y-127067000D01*
X200847000Y-128397000D02*
X200847000Y-127067000D01*
D11*
G04 #@! TO.C,NIX3*
X175514000Y-100457000D02*
G75*
G03X160274000Y-100457000I-7620000J0D01*
G01*
X157734000Y-90297000D02*
X178054000Y-90297000D01*
X157734000Y-130937000D02*
X157734000Y-90297000D01*
X178054000Y-130937000D02*
X157734000Y-130937000D01*
X178054000Y-90297000D02*
X178054000Y-130937000D01*
D12*
X176844000Y-91507000D02*
X176844000Y-94167000D01*
X174244000Y-94167000D02*
X176844000Y-94167000D01*
X174244000Y-91507000D02*
X176844000Y-91507000D01*
X174244000Y-91507000D02*
X174244000Y-94167000D01*
X174244000Y-129727000D02*
X158944000Y-129727000D01*
X158944000Y-129727000D02*
X158944000Y-127067000D01*
X174244000Y-129727000D02*
X174244000Y-127067000D01*
X174244000Y-127067000D02*
X158944000Y-127067000D01*
X176844000Y-127067000D02*
X175514000Y-127067000D01*
X176844000Y-128397000D02*
X176844000Y-127067000D01*
G04 #@! TO.C,NIX1*
D11*
X115522190Y-92400380D02*
X115522190Y-91400380D01*
X114950761Y-92400380D01*
X114950761Y-91400380D01*
X114474571Y-92400380D02*
X114474571Y-91400380D01*
X114093619Y-91400380D02*
X113426952Y-92400380D01*
X113426952Y-91400380D02*
X114093619Y-92400380D01*
X112522190Y-92400380D02*
X113093619Y-92400380D01*
X112807904Y-92400380D02*
X112807904Y-91400380D01*
X112903142Y-91543238D01*
X112998380Y-91638476D01*
X113093619Y-91686095D01*
G04 #@! TO.C,NIX2*
X139906190Y-92400380D02*
X139906190Y-91400380D01*
X139334761Y-92400380D01*
X139334761Y-91400380D01*
X138858571Y-92400380D02*
X138858571Y-91400380D01*
X138477619Y-91400380D02*
X137810952Y-92400380D01*
X137810952Y-91400380D02*
X138477619Y-92400380D01*
X137477619Y-91495619D02*
X137430000Y-91448000D01*
X137334761Y-91400380D01*
X137096666Y-91400380D01*
X137001428Y-91448000D01*
X136953809Y-91495619D01*
X136906190Y-91590857D01*
X136906190Y-91686095D01*
X136953809Y-91828952D01*
X137525238Y-92400380D01*
X136906190Y-92400380D01*
G04 #@! TO.C,NIX4*
X193246190Y-92400380D02*
X193246190Y-91400380D01*
X192674761Y-92400380D01*
X192674761Y-91400380D01*
X192198571Y-92400380D02*
X192198571Y-91400380D01*
X191817619Y-91400380D02*
X191150952Y-92400380D01*
X191150952Y-91400380D02*
X191817619Y-92400380D01*
X190341428Y-91733714D02*
X190341428Y-92400380D01*
X190579523Y-91352761D02*
X190817619Y-92067047D01*
X190198571Y-92067047D01*
G04 #@! TO.C,NIX3*
X169116190Y-92400380D02*
X169116190Y-91400380D01*
X168544761Y-92400380D01*
X168544761Y-91400380D01*
X168068571Y-92400380D02*
X168068571Y-91400380D01*
X167687619Y-91400380D02*
X167020952Y-92400380D01*
X167020952Y-91400380D02*
X167687619Y-92400380D01*
X166735238Y-91400380D02*
X166116190Y-91400380D01*
X166449523Y-91781333D01*
X166306666Y-91781333D01*
X166211428Y-91828952D01*
X166163809Y-91876571D01*
X166116190Y-91971809D01*
X166116190Y-92209904D01*
X166163809Y-92305142D01*
X166211428Y-92352761D01*
X166306666Y-92400380D01*
X166592380Y-92400380D01*
X166687619Y-92352761D01*
X166735238Y-92305142D01*
G04 #@! TD*
%LPC*%
D13*
G04 #@! TO.C,NIX1*
X121539000Y-92837000D03*
D14*
X118999000Y-92837000D03*
D13*
X118999000Y-128397000D03*
X111379000Y-128397000D03*
X106299000Y-128397000D03*
X113919000Y-128397000D03*
X116459000Y-128397000D03*
X108839000Y-128397000D03*
D15*
X121539000Y-128397000D03*
D13*
X108839000Y-92837000D03*
D14*
X106299000Y-92837000D03*
G04 #@! TD*
D13*
G04 #@! TO.C,NIX2*
X145542000Y-92837000D03*
D14*
X143002000Y-92837000D03*
D13*
X143002000Y-128397000D03*
X135382000Y-128397000D03*
X130302000Y-128397000D03*
X137922000Y-128397000D03*
X140462000Y-128397000D03*
X132842000Y-128397000D03*
D15*
X145542000Y-128397000D03*
D13*
X132842000Y-92837000D03*
D14*
X130302000Y-92837000D03*
G04 #@! TD*
D13*
G04 #@! TO.C,NIX4*
X199517000Y-92837000D03*
D14*
X196977000Y-92837000D03*
D13*
X196977000Y-128397000D03*
X189357000Y-128397000D03*
X184277000Y-128397000D03*
X191897000Y-128397000D03*
X194437000Y-128397000D03*
X186817000Y-128397000D03*
D15*
X199517000Y-128397000D03*
D13*
X186817000Y-92837000D03*
D14*
X184277000Y-92837000D03*
G04 #@! TD*
D13*
G04 #@! TO.C,NIX3*
X175514000Y-92837000D03*
D14*
X172974000Y-92837000D03*
D13*
X172974000Y-128397000D03*
X165354000Y-128397000D03*
X160274000Y-128397000D03*
X167894000Y-128397000D03*
X170434000Y-128397000D03*
X162814000Y-128397000D03*
D15*
X175514000Y-128397000D03*
D13*
X162814000Y-92837000D03*
D14*
X160274000Y-92837000D03*
G04 #@! TD*
D13*
G04 #@! TO.C,J1*
X107188000Y-120904000D03*
D14*
X107188000Y-118364000D03*
G04 #@! TD*
D13*
G04 #@! TO.C,J2*
X113284000Y-120904000D03*
D14*
X113284000Y-118364000D03*
G04 #@! TD*
D13*
G04 #@! TO.C,J3*
X127254000Y-127254000D03*
X127254000Y-124714000D03*
X124714000Y-127254000D03*
D14*
X124714000Y-124714000D03*
G04 #@! TD*
D13*
G04 #@! TO.C,J4*
X181229000Y-127254000D03*
X181229000Y-124714000D03*
X178689000Y-127254000D03*
D14*
X178689000Y-124714000D03*
G04 #@! TD*
D13*
G04 #@! TO.C,J5*
X156845000Y-127254000D03*
X156845000Y-124714000D03*
X154305000Y-127254000D03*
X154305000Y-124714000D03*
X151765000Y-127254000D03*
X151765000Y-124714000D03*
X149225000Y-127254000D03*
D14*
X149225000Y-124714000D03*
G04 #@! TD*
G04 #@! TO.C,U1*
X197231000Y-98298000D03*
D13*
X194691000Y-98298000D03*
X192151000Y-98298000D03*
X189611000Y-98298000D03*
X187071000Y-98298000D03*
X184531000Y-98298000D03*
X181991000Y-98298000D03*
X179451000Y-98298000D03*
X176911000Y-98298000D03*
X174371000Y-98298000D03*
X171831000Y-98298000D03*
X169291000Y-98298000D03*
X166751000Y-98298000D03*
X164211000Y-98298000D03*
X161671000Y-98298000D03*
X159131000Y-98298000D03*
X156591000Y-98298000D03*
X154051000Y-98298000D03*
X151511000Y-98298000D03*
D15*
X197231000Y-121158000D03*
D13*
X181991000Y-121158000D03*
X159131000Y-121158000D03*
X164211000Y-121158000D03*
X192151000Y-121158000D03*
X176911000Y-121158000D03*
X184531000Y-121158000D03*
X166751000Y-121158000D03*
X154051000Y-121158000D03*
X151511000Y-121158000D03*
X156591000Y-121158000D03*
X169291000Y-121158000D03*
X187071000Y-121158000D03*
X174371000Y-121158000D03*
X161671000Y-121158000D03*
X171831000Y-121158000D03*
X194691000Y-121158000D03*
X179451000Y-121158000D03*
X189611000Y-121158000D03*
G04 #@! TD*
D16*
G04 #@! TO.C,XA1*
X198755000Y-102108000D03*
X198755000Y-117348000D03*
X158115000Y-102108000D03*
X158115000Y-117348000D03*
D17*
X160655000Y-117348000D03*
D18*
X163195000Y-117348000D03*
X165735000Y-117348000D03*
X168275000Y-117348000D03*
X170815000Y-117348000D03*
X173355000Y-117348000D03*
X175895000Y-117348000D03*
X178435000Y-117348000D03*
X180975000Y-117348000D03*
X183515000Y-117348000D03*
X186055000Y-117348000D03*
X188595000Y-117348000D03*
X191135000Y-117348000D03*
X193675000Y-117348000D03*
X196215000Y-117348000D03*
X196215000Y-102108000D03*
X193675000Y-102108000D03*
X191135000Y-102108000D03*
X188595000Y-102108000D03*
X186055000Y-102108000D03*
X183515000Y-102108000D03*
X180975000Y-102108000D03*
X178435000Y-102108000D03*
X175895000Y-102108000D03*
X173355000Y-102108000D03*
X170815000Y-102108000D03*
X168275000Y-102108000D03*
X165735000Y-102108000D03*
X163195000Y-102108000D03*
X160655000Y-102108000D03*
G04 #@! TD*
D19*
G04 #@! TO.C,Q1*
X120650000Y-103378000D03*
D20*
X125730000Y-103378000D03*
X123190000Y-100838000D03*
G04 #@! TD*
D13*
G04 #@! TO.C,J6*
X143002000Y-99822000D03*
X140462000Y-99822000D03*
X137922000Y-99822000D03*
X135382000Y-99822000D03*
D14*
X132842000Y-99822000D03*
G04 #@! TD*
D21*
G04 #@! TO.C,R1*
X120650000Y-115316000D03*
D22*
X120650000Y-107696000D03*
G04 #@! TD*
G04 #@! TO.C,R2*
X125730000Y-107696000D03*
D21*
X125730000Y-115316000D03*
G04 #@! TD*
M02*
