G04 #@! TF.GenerationSoftware,KiCad,Pcbnew,(5.0.2)-1*
G04 #@! TF.CreationDate,2019-01-14T22:25:41+09:00*
G04 #@! TF.ProjectId,Nixie_Module_BaseBoard,4e697869-655f-44d6-9f64-756c655f4261,rev?*
G04 #@! TF.SameCoordinates,Original*
G04 #@! TF.FileFunction,Copper,L1,Top*
G04 #@! TF.FilePolarity,Positive*
%FSLAX46Y46*%
G04 Gerber Fmt 4.6, Leading zero omitted, Abs format (unit mm)*
G04 Created by KiCad (PCBNEW (5.0.2)-1) date 2019/01/14 22:25:41*
%MOMM*%
%LPD*%
G01*
G04 APERTURE LIST*
G04 #@! TA.AperFunction,ComponentPad*
%ADD10O,1.700000X1.700000*%
G04 #@! TD*
G04 #@! TA.AperFunction,ComponentPad*
%ADD11R,1.700000X1.700000*%
G04 #@! TD*
G04 #@! TA.AperFunction,ComponentPad*
%ADD12C,1.700000*%
G04 #@! TD*
G04 #@! TA.AperFunction,ComponentPad*
%ADD13R,1.727200X1.727200*%
G04 #@! TD*
G04 #@! TA.AperFunction,ComponentPad*
%ADD14C,1.727200*%
G04 #@! TD*
G04 #@! TA.AperFunction,ComponentPad*
%ADD15R,1.500000X1.500000*%
G04 #@! TD*
G04 #@! TA.AperFunction,ComponentPad*
%ADD16C,1.500000*%
G04 #@! TD*
G04 #@! TA.AperFunction,ComponentPad*
%ADD17C,1.600000*%
G04 #@! TD*
G04 #@! TA.AperFunction,ComponentPad*
%ADD18O,1.600000X1.600000*%
G04 #@! TD*
G04 #@! TA.AperFunction,ViaPad*
%ADD19C,0.800000*%
G04 #@! TD*
G04 #@! TA.AperFunction,Conductor*
%ADD20C,2.000000*%
G04 #@! TD*
G04 #@! TA.AperFunction,Conductor*
%ADD21C,0.250000*%
G04 #@! TD*
G04 #@! TA.AperFunction,Conductor*
%ADD22C,0.254000*%
G04 #@! TD*
G04 #@! TA.AperFunction,Conductor*
%ADD23C,1.000000*%
G04 #@! TD*
G04 #@! TA.AperFunction,Conductor*
%ADD24C,1.270000*%
G04 #@! TD*
G04 APERTURE END LIST*
D10*
G04 #@! TO.P,NIX1,8*
G04 #@! TO.N,+HV*
X121539000Y-92837000D03*
D11*
G04 #@! TO.P,NIX1,9*
X118999000Y-92837000D03*
D10*
G04 #@! TO.P,NIX1,6*
G04 #@! TO.N,Net-(NIX1-Pad6)*
X118999000Y-128397000D03*
G04 #@! TO.P,NIX1,3*
G04 #@! TO.N,/NIX_SCL*
X111379000Y-128397000D03*
G04 #@! TO.P,NIX1,1*
G04 #@! TO.N,+5V*
X106299000Y-128397000D03*
G04 #@! TO.P,NIX1,4*
G04 #@! TO.N,N/C*
X113919000Y-128397000D03*
G04 #@! TO.P,NIX1,5*
G04 #@! TO.N,/LEDDATA_5V*
X116459000Y-128397000D03*
G04 #@! TO.P,NIX1,2*
G04 #@! TO.N,/NIX_SDA*
X108839000Y-128397000D03*
D12*
G04 #@! TO.P,NIX1,7*
G04 #@! TO.N,GND*
X121539000Y-128397000D03*
D10*
G04 #@! TO.P,NIX1,10*
X108839000Y-92837000D03*
D11*
G04 #@! TO.P,NIX1,11*
X106299000Y-92837000D03*
G04 #@! TD*
D10*
G04 #@! TO.P,NIX2,8*
G04 #@! TO.N,+HV*
X145542000Y-92837000D03*
D11*
G04 #@! TO.P,NIX2,9*
X143002000Y-92837000D03*
D10*
G04 #@! TO.P,NIX2,6*
G04 #@! TO.N,Net-(NIX2-Pad6)*
X143002000Y-128397000D03*
G04 #@! TO.P,NIX2,3*
G04 #@! TO.N,/NIX_SCL*
X135382000Y-128397000D03*
G04 #@! TO.P,NIX2,1*
G04 #@! TO.N,+5V*
X130302000Y-128397000D03*
G04 #@! TO.P,NIX2,4*
G04 #@! TO.N,N/C*
X137922000Y-128397000D03*
G04 #@! TO.P,NIX2,5*
G04 #@! TO.N,Net-(NIX1-Pad6)*
X140462000Y-128397000D03*
G04 #@! TO.P,NIX2,2*
G04 #@! TO.N,/NIX_SDA*
X132842000Y-128397000D03*
D12*
G04 #@! TO.P,NIX2,7*
G04 #@! TO.N,GND*
X145542000Y-128397000D03*
D10*
G04 #@! TO.P,NIX2,10*
X132842000Y-92837000D03*
D11*
G04 #@! TO.P,NIX2,11*
X130302000Y-92837000D03*
G04 #@! TD*
D10*
G04 #@! TO.P,NIX4,8*
G04 #@! TO.N,+HV*
X199517000Y-92837000D03*
D11*
G04 #@! TO.P,NIX4,9*
X196977000Y-92837000D03*
D10*
G04 #@! TO.P,NIX4,6*
G04 #@! TO.N,N/C*
X196977000Y-128397000D03*
G04 #@! TO.P,NIX4,3*
G04 #@! TO.N,/NIX_SCL*
X189357000Y-128397000D03*
G04 #@! TO.P,NIX4,1*
G04 #@! TO.N,+5V*
X184277000Y-128397000D03*
G04 #@! TO.P,NIX4,4*
G04 #@! TO.N,N/C*
X191897000Y-128397000D03*
G04 #@! TO.P,NIX4,5*
G04 #@! TO.N,Net-(NIX3-Pad6)*
X194437000Y-128397000D03*
G04 #@! TO.P,NIX4,2*
G04 #@! TO.N,/NIX_SDA*
X186817000Y-128397000D03*
D12*
G04 #@! TO.P,NIX4,7*
G04 #@! TO.N,GND*
X199517000Y-128397000D03*
D10*
G04 #@! TO.P,NIX4,10*
X186817000Y-92837000D03*
D11*
G04 #@! TO.P,NIX4,11*
X184277000Y-92837000D03*
G04 #@! TD*
D10*
G04 #@! TO.P,NIX3,8*
G04 #@! TO.N,+HV*
X175514000Y-92837000D03*
D11*
G04 #@! TO.P,NIX3,9*
X172974000Y-92837000D03*
D10*
G04 #@! TO.P,NIX3,6*
G04 #@! TO.N,Net-(NIX3-Pad6)*
X172974000Y-128397000D03*
G04 #@! TO.P,NIX3,3*
G04 #@! TO.N,/NIX_SCL*
X165354000Y-128397000D03*
G04 #@! TO.P,NIX3,1*
G04 #@! TO.N,+5V*
X160274000Y-128397000D03*
G04 #@! TO.P,NIX3,4*
G04 #@! TO.N,N/C*
X167894000Y-128397000D03*
G04 #@! TO.P,NIX3,5*
G04 #@! TO.N,Net-(NIX2-Pad6)*
X170434000Y-128397000D03*
G04 #@! TO.P,NIX3,2*
G04 #@! TO.N,/NIX_SDA*
X162814000Y-128397000D03*
D12*
G04 #@! TO.P,NIX3,7*
G04 #@! TO.N,GND*
X175514000Y-128397000D03*
D10*
G04 #@! TO.P,NIX3,10*
X162814000Y-92837000D03*
D11*
G04 #@! TO.P,NIX3,11*
X160274000Y-92837000D03*
G04 #@! TD*
D10*
G04 #@! TO.P,J1,2*
G04 #@! TO.N,+HV*
X107188000Y-120904000D03*
D11*
G04 #@! TO.P,J1,1*
X107188000Y-118364000D03*
G04 #@! TD*
D10*
G04 #@! TO.P,J2,2*
G04 #@! TO.N,GND*
X113284000Y-120904000D03*
D11*
G04 #@! TO.P,J2,1*
X113284000Y-118364000D03*
G04 #@! TD*
D10*
G04 #@! TO.P,J3,4*
G04 #@! TO.N,N/C*
X127254000Y-127254000D03*
G04 #@! TO.P,J3,3*
G04 #@! TO.N,+HV*
X127254000Y-124714000D03*
G04 #@! TO.P,J3,2*
G04 #@! TO.N,N/C*
X124714000Y-127254000D03*
D11*
G04 #@! TO.P,J3,1*
G04 #@! TO.N,+HV*
X124714000Y-124714000D03*
G04 #@! TD*
D10*
G04 #@! TO.P,J4,4*
G04 #@! TO.N,+5V*
X181229000Y-127254000D03*
G04 #@! TO.P,J4,3*
G04 #@! TO.N,GND*
X181229000Y-124714000D03*
G04 #@! TO.P,J4,2*
G04 #@! TO.N,+3V3*
X178689000Y-127254000D03*
D11*
G04 #@! TO.P,J4,1*
G04 #@! TO.N,GND*
X178689000Y-124714000D03*
G04 #@! TD*
D10*
G04 #@! TO.P,J5,8*
G04 #@! TO.N,/SW_UP*
X156845000Y-127254000D03*
G04 #@! TO.P,J5,7*
G04 #@! TO.N,/GROVE_GPIO_1*
X156845000Y-124714000D03*
G04 #@! TO.P,J5,6*
G04 #@! TO.N,/NIX_SCL*
X154305000Y-127254000D03*
G04 #@! TO.P,J5,5*
G04 #@! TO.N,/NIX_SDA*
X154305000Y-124714000D03*
G04 #@! TO.P,J5,4*
G04 #@! TO.N,/SW_MODE*
X151765000Y-127254000D03*
G04 #@! TO.P,J5,3*
G04 #@! TO.N,/SW_DOWN*
X151765000Y-124714000D03*
G04 #@! TO.P,J5,2*
G04 #@! TO.N,/GROVE_GPIO_0*
X149225000Y-127254000D03*
D11*
G04 #@! TO.P,J5,1*
G04 #@! TO.N,GND*
X149225000Y-124714000D03*
G04 #@! TD*
G04 #@! TO.P,U1,1*
G04 #@! TO.N,N/C*
X197231000Y-98298000D03*
D10*
G04 #@! TO.P,U1,2*
X194691000Y-98298000D03*
G04 #@! TO.P,U1,3*
X192151000Y-98298000D03*
G04 #@! TO.P,U1,4*
X189611000Y-98298000D03*
G04 #@! TO.P,U1,5*
X187071000Y-98298000D03*
G04 #@! TO.P,U1,6*
X184531000Y-98298000D03*
G04 #@! TO.P,U1,7*
X181991000Y-98298000D03*
G04 #@! TO.P,U1,8*
X179451000Y-98298000D03*
G04 #@! TO.P,U1,9*
G04 #@! TO.N,/LEDDATA*
X176911000Y-98298000D03*
G04 #@! TO.P,U1,10*
G04 #@! TO.N,N/C*
X174371000Y-98298000D03*
G04 #@! TO.P,U1,11*
G04 #@! TO.N,/GROVE_GPIO_1*
X171831000Y-98298000D03*
G04 #@! TO.P,U1,12*
G04 #@! TO.N,/GROVE_GPIO_0*
X169291000Y-98298000D03*
G04 #@! TO.P,U1,13*
G04 #@! TO.N,GND*
X166751000Y-98298000D03*
G04 #@! TO.P,U1,14*
G04 #@! TO.N,/NIX_SDA*
X164211000Y-98298000D03*
G04 #@! TO.P,U1,15*
G04 #@! TO.N,N/C*
X161671000Y-98298000D03*
G04 #@! TO.P,U1,16*
X159131000Y-98298000D03*
G04 #@! TO.P,U1,17*
G04 #@! TO.N,/NIX_SCL*
X156591000Y-98298000D03*
G04 #@! TO.P,U1,18*
G04 #@! TO.N,N/C*
X154051000Y-98298000D03*
G04 #@! TO.P,U1,19*
G04 #@! TO.N,GND*
X151511000Y-98298000D03*
D12*
G04 #@! TO.P,U1,38*
G04 #@! TO.N,N/C*
X197231000Y-121158000D03*
D10*
G04 #@! TO.P,U1,32*
X181991000Y-121158000D03*
G04 #@! TO.P,U1,23*
X159131000Y-121158000D03*
G04 #@! TO.P,U1,25*
X164211000Y-121158000D03*
G04 #@! TO.P,U1,36*
X192151000Y-121158000D03*
G04 #@! TO.P,U1,30*
G04 #@! TO.N,/SW_DOWN*
X176911000Y-121158000D03*
G04 #@! TO.P,U1,33*
G04 #@! TO.N,GND*
X184531000Y-121158000D03*
G04 #@! TO.P,U1,26*
G04 #@! TO.N,N/C*
X166751000Y-121158000D03*
G04 #@! TO.P,U1,21*
X154051000Y-121158000D03*
G04 #@! TO.P,U1,20*
G04 #@! TO.N,+3V3*
X151511000Y-121158000D03*
G04 #@! TO.P,U1,22*
G04 #@! TO.N,N/C*
X156591000Y-121158000D03*
G04 #@! TO.P,U1,27*
X169291000Y-121158000D03*
G04 #@! TO.P,U1,34*
X187071000Y-121158000D03*
G04 #@! TO.P,U1,29*
G04 #@! TO.N,/SW_UP*
X174371000Y-121158000D03*
G04 #@! TO.P,U1,24*
G04 #@! TO.N,N/C*
X161671000Y-121158000D03*
G04 #@! TO.P,U1,28*
G04 #@! TO.N,/SW_MODE*
X171831000Y-121158000D03*
G04 #@! TO.P,U1,37*
G04 #@! TO.N,N/C*
X194691000Y-121158000D03*
G04 #@! TO.P,U1,31*
X179451000Y-121158000D03*
G04 #@! TO.P,U1,35*
X189611000Y-121158000D03*
G04 #@! TD*
D13*
G04 #@! TO.P,XA1,D1*
G04 #@! TO.N,N/C*
X160655000Y-117348000D03*
D14*
G04 #@! TO.P,XA1,D0*
X163195000Y-117348000D03*
G04 #@! TO.P,XA1,RST1*
X165735000Y-117348000D03*
G04 #@! TO.P,XA1,GND1*
G04 #@! TO.N,GND*
X168275000Y-117348000D03*
G04 #@! TO.P,XA1,D2*
G04 #@! TO.N,N/C*
X170815000Y-117348000D03*
G04 #@! TO.P,XA1,D3*
X173355000Y-117348000D03*
G04 #@! TO.P,XA1,D4*
G04 #@! TO.N,/SW_MODE*
X175895000Y-117348000D03*
G04 #@! TO.P,XA1,D5*
G04 #@! TO.N,/SW_UP*
X178435000Y-117348000D03*
G04 #@! TO.P,XA1,D6*
G04 #@! TO.N,/SW_DOWN*
X180975000Y-117348000D03*
G04 #@! TO.P,XA1,D7*
G04 #@! TO.N,/LEDDATA*
X183515000Y-117348000D03*
G04 #@! TO.P,XA1,D8*
G04 #@! TO.N,/GROVE_GPIO_0*
X186055000Y-117348000D03*
G04 #@! TO.P,XA1,D9*
G04 #@! TO.N,/GROVE_GPIO_1*
X188595000Y-117348000D03*
G04 #@! TO.P,XA1,D10*
G04 #@! TO.N,N/C*
X191135000Y-117348000D03*
G04 #@! TO.P,XA1,D11*
X193675000Y-117348000D03*
G04 #@! TO.P,XA1,D12*
X196215000Y-117348000D03*
G04 #@! TO.P,XA1,D13*
X196215000Y-102108000D03*
G04 #@! TO.P,XA1,3V3*
G04 #@! TO.N,+3V3*
X193675000Y-102108000D03*
G04 #@! TO.P,XA1,AREF*
G04 #@! TO.N,N/C*
X191135000Y-102108000D03*
G04 #@! TO.P,XA1,A0*
X188595000Y-102108000D03*
G04 #@! TO.P,XA1,A1*
X186055000Y-102108000D03*
G04 #@! TO.P,XA1,A2*
X183515000Y-102108000D03*
G04 #@! TO.P,XA1,A3*
X180975000Y-102108000D03*
G04 #@! TO.P,XA1,A4*
G04 #@! TO.N,/NIX_SDA*
X178435000Y-102108000D03*
G04 #@! TO.P,XA1,A5*
G04 #@! TO.N,/NIX_SCL*
X175895000Y-102108000D03*
G04 #@! TO.P,XA1,A6*
G04 #@! TO.N,N/C*
X173355000Y-102108000D03*
G04 #@! TO.P,XA1,A7*
X170815000Y-102108000D03*
G04 #@! TO.P,XA1,5V*
X168275000Y-102108000D03*
G04 #@! TO.P,XA1,RST2*
X165735000Y-102108000D03*
G04 #@! TO.P,XA1,GND2*
G04 #@! TO.N,GND*
X163195000Y-102108000D03*
G04 #@! TO.P,XA1,VIN*
G04 #@! TO.N,N/C*
X160655000Y-102108000D03*
G04 #@! TD*
D15*
G04 #@! TO.P,Q1,1*
G04 #@! TO.N,/LEDDATA*
X120650000Y-103378000D03*
D16*
G04 #@! TO.P,Q1,3*
G04 #@! TO.N,/LEDDATA_5V*
X125730000Y-103378000D03*
G04 #@! TO.P,Q1,2*
G04 #@! TO.N,+3V3*
X123190000Y-100838000D03*
G04 #@! TD*
D10*
G04 #@! TO.P,J6,5*
G04 #@! TO.N,GND*
X143002000Y-99822000D03*
G04 #@! TO.P,J6,4*
G04 #@! TO.N,N/C*
X140462000Y-99822000D03*
G04 #@! TO.P,J6,3*
G04 #@! TO.N,/NIX_SCL*
X137922000Y-99822000D03*
G04 #@! TO.P,J6,2*
G04 #@! TO.N,/NIX_SDA*
X135382000Y-99822000D03*
D11*
G04 #@! TO.P,J6,1*
G04 #@! TO.N,+3V3*
X132842000Y-99822000D03*
G04 #@! TD*
D17*
G04 #@! TO.P,R1,1*
G04 #@! TO.N,+3V3*
X120650000Y-115316000D03*
D18*
G04 #@! TO.P,R1,2*
G04 #@! TO.N,/LEDDATA*
X120650000Y-107696000D03*
G04 #@! TD*
G04 #@! TO.P,R2,2*
G04 #@! TO.N,/LEDDATA_5V*
X125730000Y-107696000D03*
D17*
G04 #@! TO.P,R2,1*
G04 #@! TO.N,+5V*
X125730000Y-115316000D03*
G04 #@! TD*
D19*
G04 #@! TO.N,+HV*
X117855992Y-124713992D03*
G04 #@! TO.N,GND*
X162560000Y-125730000D03*
X164338000Y-125730000D03*
X160274000Y-124205988D03*
X166116000Y-122936000D03*
X168021000Y-122936000D03*
X175514000Y-123190000D03*
X174371000Y-124206000D03*
X149860000Y-103632000D03*
X147066000Y-103632000D03*
X159766000Y-107696000D03*
X163322000Y-107696000D03*
X166878000Y-107696000D03*
X147066000Y-106172000D03*
X197485000Y-119126000D03*
X115189000Y-126746000D03*
X131064000Y-102108000D03*
X129540000Y-102108000D03*
X128016000Y-102108000D03*
X131064000Y-104140000D03*
X129540000Y-104140000D03*
X128016000Y-104140000D03*
X151892000Y-108712000D03*
X145034000Y-118110000D03*
X143510000Y-118110000D03*
X143764000Y-119380000D03*
X142240000Y-119380000D03*
X143002000Y-123952000D03*
X141478000Y-123952000D03*
X139954000Y-123952000D03*
X138430000Y-123952000D03*
X148844000Y-98298000D03*
X147320000Y-98298000D03*
X145796000Y-98298000D03*
X148844000Y-99568000D03*
X147320000Y-99568000D03*
X145796000Y-99568000D03*
G04 #@! TO.N,/NIX_SDA*
X155193994Y-103378000D03*
X195707000Y-126619000D03*
X136398000Y-125222000D03*
G04 #@! TO.N,/SW_MODE*
X171957972Y-123190000D03*
G04 #@! TO.N,/SW_UP*
X173482001Y-123189999D03*
G04 #@! TO.N,/SW_DOWN*
X153924002Y-117094000D03*
G04 #@! TO.N,/GROVE_GPIO_0*
X169545000Y-103886000D03*
X153162000Y-115951000D03*
G04 #@! TO.N,/GROVE_GPIO_1*
X172085000Y-103886006D03*
X159766000Y-105155976D03*
G04 #@! TO.N,+5V*
X153317324Y-113919000D03*
X151384000Y-113919000D03*
X145796000Y-123952000D03*
G04 #@! TO.N,/LEDDATA*
X170180000Y-106680000D03*
X141986000Y-105664000D03*
G04 #@! TD*
D20*
G04 #@! TO.N,+HV*
X107188000Y-118364000D02*
X107188000Y-120904000D01*
X107188000Y-120904000D02*
X110997992Y-124713992D01*
X117290307Y-124713992D02*
X117855992Y-124713992D01*
X110997992Y-124713992D02*
X117290307Y-124713992D01*
D21*
G04 #@! TO.N,GND*
X166624000Y-98425000D02*
X166751000Y-98298000D01*
X166624000Y-99568000D02*
X166624000Y-98425000D01*
X166116000Y-100076000D02*
X166624000Y-99568000D01*
X164005686Y-100076000D02*
X166116000Y-100076000D01*
X163195000Y-102108000D02*
X163195000Y-100886686D01*
X163195000Y-100886686D02*
X164005686Y-100076000D01*
X178689000Y-124714000D02*
X181229000Y-124714000D01*
X184531000Y-121412000D02*
X184531000Y-121158000D01*
X181229000Y-124714000D02*
X184531000Y-121412000D01*
D22*
X166751000Y-94996000D02*
X166751000Y-98298000D01*
X162814000Y-92837000D02*
X164592000Y-92837000D01*
X164592000Y-92837000D02*
X166751000Y-94996000D01*
X183173000Y-92837000D02*
X184277000Y-92837000D01*
X181014000Y-94996000D02*
X183173000Y-92837000D01*
X166751000Y-94996000D02*
X181014000Y-94996000D01*
D21*
X156972000Y-92837000D02*
X160274000Y-92837000D01*
X151511000Y-98298000D02*
X156972000Y-92837000D01*
X134044081Y-92837000D02*
X137727081Y-96520000D01*
X132842000Y-92837000D02*
X134044081Y-92837000D01*
X137727081Y-96520000D02*
X141478000Y-96520000D01*
X143002000Y-98044000D02*
X143002000Y-99822000D01*
X141478000Y-96520000D02*
X143002000Y-98044000D01*
X112395000Y-92837000D02*
X108839000Y-92837000D01*
X129202000Y-92837000D02*
X130302000Y-92837000D01*
X168275000Y-118569314D02*
X168275000Y-117348000D01*
X168021000Y-118823314D02*
X168275000Y-118569314D01*
X165481000Y-122301000D02*
X166116000Y-122936000D01*
X165481000Y-120269000D02*
X165481000Y-122301000D01*
X168021000Y-118823314D02*
X166926686Y-118823314D01*
X166926686Y-118823314D02*
X165481000Y-120269000D01*
X166926686Y-118823314D02*
X164005686Y-118823314D01*
X164005686Y-118823314D02*
X162941000Y-119888000D01*
X162941000Y-119888000D02*
X162941000Y-122174000D01*
X162941000Y-122174000D02*
X163703000Y-122936000D01*
X163703000Y-122936000D02*
X165227000Y-122936000D01*
X165227000Y-122936000D02*
X165735000Y-122936000D01*
X166116000Y-122936000D02*
X167894000Y-122936000D01*
X168021000Y-122936000D02*
X168021000Y-118823314D01*
X168021000Y-123317000D02*
X168021000Y-122936000D01*
X170180000Y-125476000D02*
X168021000Y-123317000D01*
X176827000Y-125476000D02*
X170180000Y-125476000D01*
X178689000Y-124714000D02*
X177589000Y-124714000D01*
X177589000Y-124714000D02*
X176827000Y-125476000D01*
X168275000Y-118569314D02*
X169623314Y-118569314D01*
X170466001Y-119412001D02*
X170466001Y-123665999D01*
X169623314Y-118569314D02*
X170466001Y-119412001D01*
X196919315Y-119126000D02*
X196792315Y-119253000D01*
X197485000Y-119126000D02*
X196919315Y-119126000D01*
X196792315Y-119253000D02*
X185166000Y-119253000D01*
X184531000Y-119888000D02*
X184531000Y-121158000D01*
X185166000Y-119253000D02*
X184531000Y-119888000D01*
D23*
X121539000Y-127194919D02*
X121158000Y-126813919D01*
X121539000Y-128397000D02*
X121539000Y-127194919D01*
X121158000Y-126813919D02*
X121158000Y-121920000D01*
D24*
G04 #@! TO.N,+3V3*
X151511000Y-121158000D02*
X151511000Y-120523000D01*
X151511000Y-120523000D02*
X151384000Y-120396000D01*
X151384000Y-110744000D02*
X148336000Y-107696000D01*
D20*
X150114000Y-110744000D02*
X151384000Y-110744000D01*
X148844000Y-112014000D02*
X150114000Y-110744000D01*
X148844000Y-117288919D02*
X148844000Y-112014000D01*
X151511000Y-121158000D02*
X151511000Y-119955919D01*
X151511000Y-119955919D02*
X148844000Y-117288919D01*
X152654000Y-110744000D02*
X151384000Y-110744000D01*
X153670000Y-109728000D02*
X152654000Y-110744000D01*
X187276314Y-109728000D02*
X153670000Y-109728000D01*
X193675000Y-102108000D02*
X193675000Y-103329314D01*
X193675000Y-103329314D02*
X187276314Y-109728000D01*
D24*
X161197988Y-122970988D02*
X153323988Y-122970988D01*
X177486919Y-127254000D02*
X176724919Y-126492000D01*
X178689000Y-127254000D02*
X177486919Y-127254000D01*
X153323988Y-122970988D02*
X152360999Y-122007999D01*
X152360999Y-122007999D02*
X151511000Y-121158000D01*
X167386000Y-126492000D02*
X165100000Y-124206000D01*
X165100000Y-124206000D02*
X162433000Y-124206000D01*
X162433000Y-124206000D02*
X161197988Y-122970988D01*
X176724919Y-126492000D02*
X167386000Y-126492000D01*
X148336000Y-107696000D02*
X136652000Y-107696000D01*
X132842000Y-103886000D02*
X132842000Y-99822000D01*
X136652000Y-107696000D02*
X132842000Y-103886000D01*
X123190000Y-100838000D02*
X124206000Y-99822000D01*
X124206000Y-99822000D02*
X128524000Y-99822000D01*
X128524000Y-99822000D02*
X132842000Y-99822000D01*
D23*
X123190000Y-112776000D02*
X120650000Y-115316000D01*
X123190000Y-100838000D02*
X123190000Y-112776000D01*
D22*
G04 #@! TO.N,/NIX_SDA*
X153162000Y-103378000D02*
X155193994Y-103378000D01*
X152146000Y-102362000D02*
X153162000Y-103378000D01*
X136398000Y-102362000D02*
X152146000Y-102362000D01*
X135382000Y-99822000D02*
X135382000Y-101346000D01*
X135382000Y-101346000D02*
X136398000Y-102362000D01*
D21*
X186817000Y-129413000D02*
X186817000Y-128397000D01*
X187198000Y-129794000D02*
X186817000Y-129413000D01*
X195072000Y-129794000D02*
X187198000Y-129794000D01*
X195707000Y-126619000D02*
X195707000Y-129159000D01*
X195707000Y-129159000D02*
X195072000Y-129794000D01*
X162814000Y-127127000D02*
X162814000Y-128397000D01*
X161671000Y-125984000D02*
X162814000Y-127127000D01*
X154305000Y-124714000D02*
X155575000Y-125984000D01*
X155575000Y-125984000D02*
X161671000Y-125984000D01*
X134620000Y-125222000D02*
X136398000Y-125222000D01*
X132842000Y-128397000D02*
X132842000Y-127000000D01*
X132842000Y-127000000D02*
X134620000Y-125222000D01*
G04 #@! TO.N,/NIX_SCL*
X156464000Y-98425000D02*
X156591000Y-98298000D01*
X156464000Y-99568000D02*
X156464000Y-98425000D01*
D22*
X156210000Y-102362000D02*
X156464000Y-102108000D01*
D21*
X156464000Y-102108000D02*
X156464000Y-99568000D01*
D22*
X156210000Y-102362000D02*
X156464000Y-102362000D01*
X156210000Y-102362000D02*
X156464000Y-102616000D01*
D21*
X156464000Y-102616000D02*
X156464000Y-102108000D01*
X156464000Y-103124000D02*
X156464000Y-102616000D01*
X159258000Y-105918000D02*
X156464000Y-103124000D01*
X173609000Y-105918000D02*
X159258000Y-105918000D01*
X175895000Y-102108000D02*
X175895000Y-103632000D01*
X175895000Y-103632000D02*
X173609000Y-105918000D01*
D22*
X152908000Y-102362000D02*
X156210000Y-102362000D01*
X152400000Y-101854000D02*
X152908000Y-102362000D01*
X138430000Y-101854000D02*
X152400000Y-101854000D01*
X137922000Y-99822000D02*
X137922000Y-101346000D01*
X137922000Y-101346000D02*
X138430000Y-101854000D01*
G04 #@! TO.N,/SW_MODE*
X171831000Y-121031000D02*
X171831000Y-121158000D01*
X175895000Y-117348000D02*
X175514000Y-117348000D01*
X175514000Y-117348000D02*
X171831000Y-121031000D01*
D21*
X171831000Y-121158000D02*
X171831000Y-123063028D01*
X171831000Y-123063028D02*
X171957972Y-123190000D01*
D22*
G04 #@! TO.N,/SW_UP*
X174371000Y-121031000D02*
X174371000Y-121158000D01*
X178435000Y-117348000D02*
X178054000Y-117348000D01*
X178054000Y-117348000D02*
X174371000Y-121031000D01*
D21*
X173482001Y-122046999D02*
X173482001Y-122624314D01*
X173482001Y-122624314D02*
X173482001Y-123189999D01*
X174371000Y-121158000D02*
X173482001Y-122046999D01*
D22*
G04 #@! TO.N,/SW_DOWN*
X154324001Y-116694001D02*
X153924002Y-117094000D01*
X155702002Y-115316000D02*
X154324001Y-116694001D01*
X180467000Y-115316000D02*
X155702002Y-115316000D01*
X180975000Y-117348000D02*
X180975000Y-115824000D01*
X180975000Y-115824000D02*
X180467000Y-115316000D01*
X176911000Y-121031000D02*
X176911000Y-121158000D01*
X180975000Y-117348000D02*
X180594000Y-117348000D01*
X180594000Y-117348000D02*
X176911000Y-121031000D01*
D21*
G04 #@! TO.N,Net-(NIX1-Pad6)*
X118999000Y-129540000D02*
X118999000Y-128397000D01*
X119380000Y-129921000D02*
X118999000Y-129540000D01*
X140208000Y-129921000D02*
X119380000Y-129921000D01*
X140462000Y-128397000D02*
X140462000Y-129667000D01*
X140462000Y-129667000D02*
X140208000Y-129921000D01*
G04 #@! TO.N,Net-(NIX2-Pad6)*
X143002000Y-129667000D02*
X143002000Y-128397000D01*
X143256000Y-129921000D02*
X143002000Y-129667000D01*
X170434000Y-129667000D02*
X170180000Y-129921000D01*
X170180000Y-129921000D02*
X143256000Y-129921000D01*
X170434000Y-128397000D02*
X170434000Y-129667000D01*
D22*
G04 #@! TO.N,/GROVE_GPIO_0*
X186055000Y-115697000D02*
X186055000Y-117348000D01*
X185166000Y-114808000D02*
X186055000Y-115697000D01*
X154686000Y-114808000D02*
X185166000Y-114808000D01*
X153162000Y-115951000D02*
X153543000Y-115951000D01*
X153543000Y-115951000D02*
X154686000Y-114808000D01*
X169291000Y-99949000D02*
X169291000Y-98298000D01*
X169545000Y-103886000D02*
X169545000Y-100203000D01*
X169545000Y-100203000D02*
X169291000Y-99949000D01*
G04 #@! TO.N,/GROVE_GPIO_1*
X172085000Y-100203000D02*
X172085000Y-103886006D01*
X171831000Y-98298000D02*
X171831000Y-99949000D01*
X171831000Y-99949000D02*
X172085000Y-100203000D01*
X160020024Y-105410000D02*
X159766000Y-105155976D01*
X172085000Y-103886006D02*
X170561006Y-105410000D01*
X170561006Y-105410000D02*
X160020024Y-105410000D01*
D20*
G04 #@! TO.N,+5V*
X181229000Y-127254000D02*
X182431081Y-127254000D01*
X183134000Y-127254000D02*
X182431081Y-127254000D01*
X184277000Y-128397000D02*
X183134000Y-127254000D01*
X196850000Y-114808000D02*
X198628000Y-114808000D01*
X154587324Y-112649000D02*
X153317324Y-113919000D01*
X184658000Y-124714000D02*
X197612000Y-124714000D01*
D23*
X199390000Y-114808000D02*
X198628000Y-114808000D01*
D20*
X194691000Y-112649000D02*
X154587324Y-112649000D01*
X196850000Y-114808000D02*
X194691000Y-112649000D01*
D24*
X197612000Y-124714000D02*
X199644000Y-124714000D01*
X199644000Y-124714000D02*
X200660000Y-123698000D01*
D23*
X200660000Y-123698000D02*
X200660000Y-116078000D01*
X200660000Y-116078000D02*
X199390000Y-114808000D01*
D20*
X182431081Y-127254000D02*
X184658000Y-125027081D01*
X184658000Y-125027081D02*
X184658000Y-124714000D01*
D23*
X153317324Y-113919000D02*
X151384000Y-113919000D01*
X145796000Y-126449667D02*
X145796000Y-124517685D01*
X145796000Y-124517685D02*
X145796000Y-123952000D01*
X148442322Y-129095989D02*
X145796000Y-126449667D01*
X158372930Y-129095989D02*
X148442322Y-129095989D01*
X160274000Y-128397000D02*
X159071919Y-128397000D01*
X159071919Y-128397000D02*
X158372930Y-129095989D01*
X135703919Y-121793000D02*
X144907000Y-121793000D01*
X145796000Y-122682000D02*
X145796000Y-123952000D01*
X144907000Y-121793000D02*
X145796000Y-122682000D01*
X135703919Y-121793000D02*
X134366000Y-121793000D01*
X134493000Y-121793000D02*
X135703919Y-121793000D01*
X130302000Y-128397000D02*
X130302000Y-125984000D01*
X130302000Y-125984000D02*
X134493000Y-121793000D01*
D24*
X128016000Y-115316000D02*
X134493000Y-121793000D01*
X125222000Y-115316000D02*
X128016000Y-115316000D01*
D21*
G04 #@! TO.N,/LEDDATA_5V*
X120142000Y-119634000D02*
X121158000Y-118618000D01*
X116459000Y-128397000D02*
X120142000Y-124714000D01*
X120142000Y-124714000D02*
X120142000Y-119634000D01*
D22*
X125730000Y-112268000D02*
X125730000Y-107696000D01*
X123190000Y-114808000D02*
X125730000Y-112268000D01*
X121158000Y-118618000D02*
X123190000Y-116586000D01*
X123190000Y-116586000D02*
X123190000Y-114808000D01*
G04 #@! TO.N,/LEDDATA*
X141986000Y-105664000D02*
X142494000Y-105156000D01*
X169926000Y-106426000D02*
X170180000Y-106680000D01*
X159004000Y-106426000D02*
X169926000Y-106426000D01*
X142494000Y-105156000D02*
X157734000Y-105156000D01*
X157734000Y-105156000D02*
X159004000Y-106426000D01*
X170434000Y-106426000D02*
X170180000Y-106680000D01*
X173990000Y-106426000D02*
X170434000Y-106426000D01*
X177165000Y-103251000D02*
X173990000Y-106426000D01*
X177165000Y-100203000D02*
X177165000Y-103251000D01*
X176911000Y-98298000D02*
X176911000Y-99949000D01*
X176911000Y-99949000D02*
X177165000Y-100203000D01*
G04 #@! TD*
G04 #@! TO.N,GND*
G36*
X180050231Y-128432769D02*
X180591055Y-128794136D01*
X181067969Y-128889000D01*
X182270051Y-128889000D01*
X182431081Y-128921031D01*
X182479218Y-128911456D01*
X183234746Y-129666985D01*
X183465246Y-129821000D01*
X175987272Y-129821000D01*
X176298080Y-129692259D01*
X176378353Y-129440958D01*
X175514000Y-128576605D01*
X174649647Y-129440958D01*
X174729920Y-129692259D01*
X175084818Y-129821000D01*
X173426925Y-129821000D01*
X173553418Y-129795839D01*
X174044625Y-129467625D01*
X174233037Y-129185647D01*
X174470042Y-129261353D01*
X175334395Y-128397000D01*
X175320253Y-128382858D01*
X175499858Y-128203253D01*
X175514000Y-128217395D01*
X175528143Y-128203253D01*
X175707748Y-128382858D01*
X175693605Y-128397000D01*
X176557958Y-129261353D01*
X176809259Y-129181080D01*
X177010718Y-128625721D01*
X177002974Y-128452617D01*
X177361839Y-128524000D01*
X177361843Y-128524000D01*
X177486919Y-128548879D01*
X177611995Y-128524000D01*
X177916761Y-128524000D01*
X178109582Y-128652839D01*
X178542744Y-128739000D01*
X178835256Y-128739000D01*
X179268418Y-128652839D01*
X179759625Y-128324625D01*
X179868798Y-128161236D01*
X180050231Y-128432769D01*
X180050231Y-128432769D01*
G37*
X180050231Y-128432769D02*
X180591055Y-128794136D01*
X181067969Y-128889000D01*
X182270051Y-128889000D01*
X182431081Y-128921031D01*
X182479218Y-128911456D01*
X183234746Y-129666985D01*
X183465246Y-129821000D01*
X175987272Y-129821000D01*
X176298080Y-129692259D01*
X176378353Y-129440958D01*
X175514000Y-128576605D01*
X174649647Y-129440958D01*
X174729920Y-129692259D01*
X175084818Y-129821000D01*
X173426925Y-129821000D01*
X173553418Y-129795839D01*
X174044625Y-129467625D01*
X174233037Y-129185647D01*
X174470042Y-129261353D01*
X175334395Y-128397000D01*
X175320253Y-128382858D01*
X175499858Y-128203253D01*
X175514000Y-128217395D01*
X175528143Y-128203253D01*
X175707748Y-128382858D01*
X175693605Y-128397000D01*
X176557958Y-129261353D01*
X176809259Y-129181080D01*
X177010718Y-128625721D01*
X177002974Y-128452617D01*
X177361839Y-128524000D01*
X177361843Y-128524000D01*
X177486919Y-128548879D01*
X177611995Y-128524000D01*
X177916761Y-128524000D01*
X178109582Y-128652839D01*
X178542744Y-128739000D01*
X178835256Y-128739000D01*
X179268418Y-128652839D01*
X179759625Y-128324625D01*
X179868798Y-128161236D01*
X180050231Y-128432769D01*
G36*
X201151001Y-128503629D02*
X201092956Y-128908938D01*
X200945385Y-129233504D01*
X200712650Y-129503606D01*
X200413459Y-129697532D01*
X200047525Y-129806970D01*
X200019031Y-129809087D01*
X200301080Y-129692259D01*
X200381353Y-129440958D01*
X199517000Y-128576605D01*
X198652647Y-129440958D01*
X198732920Y-129692259D01*
X199087818Y-129821000D01*
X197429925Y-129821000D01*
X197556418Y-129795839D01*
X198047625Y-129467625D01*
X198236037Y-129185647D01*
X198473042Y-129261353D01*
X199337395Y-128397000D01*
X199696605Y-128397000D01*
X200560958Y-129261353D01*
X200812259Y-129181080D01*
X201013718Y-128625721D01*
X200987315Y-128035542D01*
X200812259Y-127612920D01*
X200560958Y-127532647D01*
X199696605Y-128397000D01*
X199337395Y-128397000D01*
X198473042Y-127532647D01*
X198236037Y-127608353D01*
X198065444Y-127353042D01*
X198652647Y-127353042D01*
X199517000Y-128217395D01*
X200381353Y-127353042D01*
X200301080Y-127101741D01*
X199745721Y-126900282D01*
X199155542Y-126926685D01*
X198732920Y-127101741D01*
X198652647Y-127353042D01*
X198065444Y-127353042D01*
X198047625Y-127326375D01*
X197556418Y-126998161D01*
X197123256Y-126912000D01*
X196830744Y-126912000D01*
X196694703Y-126939060D01*
X196742000Y-126824874D01*
X196742000Y-126413126D01*
X196715438Y-126349000D01*
X197773031Y-126349000D01*
X198249945Y-126254136D01*
X198654232Y-125984000D01*
X199518925Y-125984000D01*
X199644000Y-126008879D01*
X199769075Y-125984000D01*
X199769080Y-125984000D01*
X200139529Y-125910313D01*
X200559618Y-125629618D01*
X200630471Y-125523579D01*
X201151001Y-125003050D01*
X201151001Y-128503629D01*
X201151001Y-128503629D01*
G37*
X201151001Y-128503629D02*
X201092956Y-128908938D01*
X200945385Y-129233504D01*
X200712650Y-129503606D01*
X200413459Y-129697532D01*
X200047525Y-129806970D01*
X200019031Y-129809087D01*
X200301080Y-129692259D01*
X200381353Y-129440958D01*
X199517000Y-128576605D01*
X198652647Y-129440958D01*
X198732920Y-129692259D01*
X199087818Y-129821000D01*
X197429925Y-129821000D01*
X197556418Y-129795839D01*
X198047625Y-129467625D01*
X198236037Y-129185647D01*
X198473042Y-129261353D01*
X199337395Y-128397000D01*
X199696605Y-128397000D01*
X200560958Y-129261353D01*
X200812259Y-129181080D01*
X201013718Y-128625721D01*
X200987315Y-128035542D01*
X200812259Y-127612920D01*
X200560958Y-127532647D01*
X199696605Y-128397000D01*
X199337395Y-128397000D01*
X198473042Y-127532647D01*
X198236037Y-127608353D01*
X198065444Y-127353042D01*
X198652647Y-127353042D01*
X199517000Y-128217395D01*
X200381353Y-127353042D01*
X200301080Y-127101741D01*
X199745721Y-126900282D01*
X199155542Y-126926685D01*
X198732920Y-127101741D01*
X198652647Y-127353042D01*
X198065444Y-127353042D01*
X198047625Y-127326375D01*
X197556418Y-126998161D01*
X197123256Y-126912000D01*
X196830744Y-126912000D01*
X196694703Y-126939060D01*
X196742000Y-126824874D01*
X196742000Y-126413126D01*
X196715438Y-126349000D01*
X197773031Y-126349000D01*
X198249945Y-126254136D01*
X198654232Y-125984000D01*
X199518925Y-125984000D01*
X199644000Y-126008879D01*
X199769075Y-125984000D01*
X199769080Y-125984000D01*
X200139529Y-125910313D01*
X200559618Y-125629618D01*
X200630471Y-125523579D01*
X201151001Y-125003050D01*
X201151001Y-128503629D01*
G36*
X116242197Y-91350197D02*
X116214667Y-91391399D01*
X116205000Y-91440000D01*
X116205000Y-93980000D01*
X116214667Y-94028601D01*
X116242197Y-94069803D01*
X117004197Y-94831803D01*
X117045399Y-94859333D01*
X117094000Y-94869000D01*
X122428000Y-94869000D01*
X122476601Y-94859333D01*
X122517803Y-94831803D01*
X123533803Y-93815803D01*
X123561333Y-93774601D01*
X123571000Y-93726000D01*
X123571000Y-93122750D01*
X128817000Y-93122750D01*
X128817000Y-93813309D01*
X128913673Y-94046698D01*
X129092301Y-94225327D01*
X129325690Y-94322000D01*
X130016250Y-94322000D01*
X130175000Y-94163250D01*
X130175000Y-92964000D01*
X130429000Y-92964000D01*
X130429000Y-94163250D01*
X130587750Y-94322000D01*
X131278310Y-94322000D01*
X131511699Y-94225327D01*
X131690327Y-94046698D01*
X131777136Y-93837122D01*
X132075076Y-94108645D01*
X132485110Y-94278476D01*
X132715000Y-94157155D01*
X132715000Y-92964000D01*
X132969000Y-92964000D01*
X132969000Y-94157155D01*
X133198890Y-94278476D01*
X133608924Y-94108645D01*
X134037183Y-93718358D01*
X134283486Y-93193892D01*
X134162819Y-92964000D01*
X132969000Y-92964000D01*
X132715000Y-92964000D01*
X130429000Y-92964000D01*
X130175000Y-92964000D01*
X128975750Y-92964000D01*
X128817000Y-93122750D01*
X123571000Y-93122750D01*
X123571000Y-91860691D01*
X128817000Y-91860691D01*
X128817000Y-92551250D01*
X128975750Y-92710000D01*
X130175000Y-92710000D01*
X130175000Y-91510750D01*
X130429000Y-91510750D01*
X130429000Y-92710000D01*
X132715000Y-92710000D01*
X132715000Y-91516845D01*
X132969000Y-91516845D01*
X132969000Y-92710000D01*
X134162819Y-92710000D01*
X134283486Y-92480108D01*
X134037183Y-91955642D01*
X133608924Y-91565355D01*
X133198890Y-91395524D01*
X132969000Y-91516845D01*
X132715000Y-91516845D01*
X132485110Y-91395524D01*
X132075076Y-91565355D01*
X131777136Y-91836878D01*
X131690327Y-91627302D01*
X131511699Y-91448673D01*
X131278310Y-91352000D01*
X130587750Y-91352000D01*
X130429000Y-91510750D01*
X130175000Y-91510750D01*
X130016250Y-91352000D01*
X129325690Y-91352000D01*
X129092301Y-91448673D01*
X128913673Y-91627302D01*
X128817000Y-91860691D01*
X123571000Y-91860691D01*
X123571000Y-91440000D01*
X123561333Y-91391399D01*
X123533803Y-91350197D01*
X123474606Y-91291000D01*
X140939394Y-91291000D01*
X140372197Y-91858197D01*
X140344667Y-91899399D01*
X140335000Y-91948000D01*
X140335000Y-93472000D01*
X140344667Y-93520601D01*
X140372197Y-93561803D01*
X141642197Y-94831803D01*
X141683399Y-94859333D01*
X141732000Y-94869000D01*
X146558000Y-94869000D01*
X146606601Y-94859333D01*
X146647803Y-94831803D01*
X147917803Y-93561803D01*
X147945333Y-93520601D01*
X147955000Y-93472000D01*
X147955000Y-93122750D01*
X158789000Y-93122750D01*
X158789000Y-93813309D01*
X158885673Y-94046698D01*
X159064301Y-94225327D01*
X159297690Y-94322000D01*
X159988250Y-94322000D01*
X160147000Y-94163250D01*
X160147000Y-92964000D01*
X160401000Y-92964000D01*
X160401000Y-94163250D01*
X160559750Y-94322000D01*
X161250310Y-94322000D01*
X161483699Y-94225327D01*
X161662327Y-94046698D01*
X161749136Y-93837122D01*
X162047076Y-94108645D01*
X162457110Y-94278476D01*
X162687000Y-94157155D01*
X162687000Y-92964000D01*
X162941000Y-92964000D01*
X162941000Y-94157155D01*
X163170890Y-94278476D01*
X163580924Y-94108645D01*
X164009183Y-93718358D01*
X164255486Y-93193892D01*
X164134819Y-92964000D01*
X162941000Y-92964000D01*
X162687000Y-92964000D01*
X160401000Y-92964000D01*
X160147000Y-92964000D01*
X158947750Y-92964000D01*
X158789000Y-93122750D01*
X147955000Y-93122750D01*
X147955000Y-91948000D01*
X147945333Y-91899399D01*
X147919470Y-91860691D01*
X158789000Y-91860691D01*
X158789000Y-92551250D01*
X158947750Y-92710000D01*
X160147000Y-92710000D01*
X160147000Y-91510750D01*
X160401000Y-91510750D01*
X160401000Y-92710000D01*
X162687000Y-92710000D01*
X162687000Y-91516845D01*
X162941000Y-91516845D01*
X162941000Y-92710000D01*
X164134819Y-92710000D01*
X164255486Y-92480108D01*
X164009183Y-91955642D01*
X163580924Y-91565355D01*
X163170890Y-91395524D01*
X162941000Y-91516845D01*
X162687000Y-91516845D01*
X162457110Y-91395524D01*
X162047076Y-91565355D01*
X161749136Y-91836878D01*
X161662327Y-91627302D01*
X161483699Y-91448673D01*
X161250310Y-91352000D01*
X160559750Y-91352000D01*
X160401000Y-91510750D01*
X160147000Y-91510750D01*
X159988250Y-91352000D01*
X159297690Y-91352000D01*
X159064301Y-91448673D01*
X158885673Y-91627302D01*
X158789000Y-91860691D01*
X147919470Y-91860691D01*
X147917803Y-91858197D01*
X147350606Y-91291000D01*
X170403394Y-91291000D01*
X170090197Y-91604197D01*
X170062667Y-91645399D01*
X170053000Y-91694000D01*
X170053000Y-93726000D01*
X170062667Y-93774601D01*
X170090197Y-93815803D01*
X171360197Y-95085803D01*
X171401399Y-95113333D01*
X171450000Y-95123000D01*
X176784000Y-95123000D01*
X176832601Y-95113333D01*
X176873803Y-95085803D01*
X178143803Y-93815803D01*
X178171333Y-93774601D01*
X178181000Y-93726000D01*
X178181000Y-93122750D01*
X182792000Y-93122750D01*
X182792000Y-93813309D01*
X182888673Y-94046698D01*
X183067301Y-94225327D01*
X183300690Y-94322000D01*
X183991250Y-94322000D01*
X184150000Y-94163250D01*
X184150000Y-92964000D01*
X184404000Y-92964000D01*
X184404000Y-94163250D01*
X184562750Y-94322000D01*
X185253310Y-94322000D01*
X185486699Y-94225327D01*
X185665327Y-94046698D01*
X185752136Y-93837122D01*
X186050076Y-94108645D01*
X186460110Y-94278476D01*
X186690000Y-94157155D01*
X186690000Y-92964000D01*
X186944000Y-92964000D01*
X186944000Y-94157155D01*
X187173890Y-94278476D01*
X187583924Y-94108645D01*
X188012183Y-93718358D01*
X188258486Y-93193892D01*
X188137819Y-92964000D01*
X186944000Y-92964000D01*
X186690000Y-92964000D01*
X184404000Y-92964000D01*
X184150000Y-92964000D01*
X182950750Y-92964000D01*
X182792000Y-93122750D01*
X178181000Y-93122750D01*
X178181000Y-91860691D01*
X182792000Y-91860691D01*
X182792000Y-92551250D01*
X182950750Y-92710000D01*
X184150000Y-92710000D01*
X184150000Y-91510750D01*
X184404000Y-91510750D01*
X184404000Y-92710000D01*
X186690000Y-92710000D01*
X186690000Y-91516845D01*
X186944000Y-91516845D01*
X186944000Y-92710000D01*
X188137819Y-92710000D01*
X188258486Y-92480108D01*
X188012183Y-91955642D01*
X187583924Y-91565355D01*
X187173890Y-91395524D01*
X186944000Y-91516845D01*
X186690000Y-91516845D01*
X186460110Y-91395524D01*
X186050076Y-91565355D01*
X185752136Y-91836878D01*
X185665327Y-91627302D01*
X185486699Y-91448673D01*
X185253310Y-91352000D01*
X184562750Y-91352000D01*
X184404000Y-91510750D01*
X184150000Y-91510750D01*
X183991250Y-91352000D01*
X183300690Y-91352000D01*
X183067301Y-91448673D01*
X182888673Y-91627302D01*
X182792000Y-91860691D01*
X178181000Y-91860691D01*
X178181000Y-91694000D01*
X178171333Y-91645399D01*
X178143803Y-91604197D01*
X177830606Y-91291000D01*
X193675000Y-91291000D01*
X193675000Y-93726000D01*
X193684667Y-93774601D01*
X193712197Y-93815803D01*
X194982197Y-95085803D01*
X195023399Y-95113333D01*
X195072000Y-95123000D01*
X201151000Y-95123000D01*
X201151000Y-109783042D01*
X200823235Y-109139766D01*
X200302234Y-108618765D01*
X199645735Y-108284262D01*
X198918000Y-108169000D01*
X198190265Y-108284262D01*
X197533766Y-108618765D01*
X197012765Y-109139766D01*
X196678262Y-109796265D01*
X196563000Y-110524000D01*
X196678262Y-111251735D01*
X197012765Y-111908234D01*
X197533766Y-112429235D01*
X198190265Y-112763738D01*
X198918000Y-112879000D01*
X199645735Y-112763738D01*
X200302234Y-112429235D01*
X200823235Y-111908234D01*
X201151001Y-111264958D01*
X201151001Y-114963869D01*
X200271613Y-114084482D01*
X200208289Y-113989711D01*
X199918056Y-113795783D01*
X199806769Y-113629231D01*
X199265945Y-113267864D01*
X198789031Y-113173000D01*
X197527239Y-113173000D01*
X195960988Y-111606750D01*
X195869769Y-111470231D01*
X195328945Y-111108864D01*
X194852031Y-111014000D01*
X194852030Y-111014000D01*
X194691000Y-110981969D01*
X194529970Y-111014000D01*
X188294600Y-111014000D01*
X188455083Y-110906769D01*
X188546302Y-110770250D01*
X194717256Y-104599298D01*
X194853769Y-104508083D01*
X194944984Y-104371570D01*
X194944986Y-104371568D01*
X195215136Y-103967260D01*
X195337874Y-103350214D01*
X195366111Y-103378451D01*
X195916910Y-103606600D01*
X196513090Y-103606600D01*
X197063889Y-103378451D01*
X197441584Y-103000757D01*
X197871331Y-103430504D01*
X198444697Y-103668000D01*
X199065303Y-103668000D01*
X199638669Y-103430504D01*
X200077504Y-102991669D01*
X200315000Y-102418303D01*
X200315000Y-101797697D01*
X200077504Y-101224331D01*
X199638669Y-100785496D01*
X199065303Y-100548000D01*
X198444697Y-100548000D01*
X197871331Y-100785496D01*
X197441584Y-101215244D01*
X197063889Y-100837549D01*
X196513090Y-100609400D01*
X195916910Y-100609400D01*
X195366111Y-100837549D01*
X195022262Y-101181398D01*
X194853769Y-100929231D01*
X194312944Y-100567864D01*
X193675000Y-100440969D01*
X193037055Y-100567864D01*
X192496231Y-100929231D01*
X192327738Y-101181398D01*
X191983889Y-100837549D01*
X191433090Y-100609400D01*
X190836910Y-100609400D01*
X190286111Y-100837549D01*
X189865000Y-101258660D01*
X189443889Y-100837549D01*
X188893090Y-100609400D01*
X188296910Y-100609400D01*
X187746111Y-100837549D01*
X187325000Y-101258660D01*
X186903889Y-100837549D01*
X186353090Y-100609400D01*
X185756910Y-100609400D01*
X185206111Y-100837549D01*
X184785000Y-101258660D01*
X184363889Y-100837549D01*
X183813090Y-100609400D01*
X183216910Y-100609400D01*
X182666111Y-100837549D01*
X182245000Y-101258660D01*
X181823889Y-100837549D01*
X181273090Y-100609400D01*
X180676910Y-100609400D01*
X180126111Y-100837549D01*
X179705000Y-101258660D01*
X179283889Y-100837549D01*
X178733090Y-100609400D01*
X178136910Y-100609400D01*
X177927000Y-100696348D01*
X177927000Y-100278042D01*
X177941927Y-100202999D01*
X177927000Y-100127956D01*
X177927000Y-100127952D01*
X177882788Y-99905683D01*
X177714371Y-99653629D01*
X177673000Y-99625986D01*
X177673000Y-99574842D01*
X177981625Y-99368625D01*
X178181000Y-99070239D01*
X178380375Y-99368625D01*
X178871582Y-99696839D01*
X179304744Y-99783000D01*
X179597256Y-99783000D01*
X180030418Y-99696839D01*
X180521625Y-99368625D01*
X180721000Y-99070239D01*
X180920375Y-99368625D01*
X181411582Y-99696839D01*
X181844744Y-99783000D01*
X182137256Y-99783000D01*
X182570418Y-99696839D01*
X183061625Y-99368625D01*
X183261000Y-99070239D01*
X183460375Y-99368625D01*
X183951582Y-99696839D01*
X184384744Y-99783000D01*
X184677256Y-99783000D01*
X185110418Y-99696839D01*
X185601625Y-99368625D01*
X185801000Y-99070239D01*
X186000375Y-99368625D01*
X186491582Y-99696839D01*
X186924744Y-99783000D01*
X187217256Y-99783000D01*
X187650418Y-99696839D01*
X188141625Y-99368625D01*
X188341000Y-99070239D01*
X188540375Y-99368625D01*
X189031582Y-99696839D01*
X189464744Y-99783000D01*
X189757256Y-99783000D01*
X190190418Y-99696839D01*
X190681625Y-99368625D01*
X190881000Y-99070239D01*
X191080375Y-99368625D01*
X191571582Y-99696839D01*
X192004744Y-99783000D01*
X192297256Y-99783000D01*
X192730418Y-99696839D01*
X193221625Y-99368625D01*
X193421000Y-99070239D01*
X193620375Y-99368625D01*
X194111582Y-99696839D01*
X194544744Y-99783000D01*
X194837256Y-99783000D01*
X195270418Y-99696839D01*
X195761625Y-99368625D01*
X195773816Y-99350381D01*
X195782843Y-99395765D01*
X195923191Y-99605809D01*
X196133235Y-99746157D01*
X196381000Y-99795440D01*
X198081000Y-99795440D01*
X198328765Y-99746157D01*
X198538809Y-99605809D01*
X198679157Y-99395765D01*
X198728440Y-99148000D01*
X198728440Y-97448000D01*
X198679157Y-97200235D01*
X198538809Y-96990191D01*
X198328765Y-96849843D01*
X198081000Y-96800560D01*
X196381000Y-96800560D01*
X196133235Y-96849843D01*
X195923191Y-96990191D01*
X195782843Y-97200235D01*
X195773816Y-97245619D01*
X195761625Y-97227375D01*
X195270418Y-96899161D01*
X194837256Y-96813000D01*
X194544744Y-96813000D01*
X194111582Y-96899161D01*
X193620375Y-97227375D01*
X193421000Y-97525761D01*
X193221625Y-97227375D01*
X192730418Y-96899161D01*
X192297256Y-96813000D01*
X192004744Y-96813000D01*
X191571582Y-96899161D01*
X191080375Y-97227375D01*
X190881000Y-97525761D01*
X190681625Y-97227375D01*
X190190418Y-96899161D01*
X189757256Y-96813000D01*
X189464744Y-96813000D01*
X189031582Y-96899161D01*
X188540375Y-97227375D01*
X188341000Y-97525761D01*
X188141625Y-97227375D01*
X187650418Y-96899161D01*
X187217256Y-96813000D01*
X186924744Y-96813000D01*
X186491582Y-96899161D01*
X186000375Y-97227375D01*
X185801000Y-97525761D01*
X185601625Y-97227375D01*
X185110418Y-96899161D01*
X184677256Y-96813000D01*
X184384744Y-96813000D01*
X183951582Y-96899161D01*
X183460375Y-97227375D01*
X183261000Y-97525761D01*
X183061625Y-97227375D01*
X182570418Y-96899161D01*
X182137256Y-96813000D01*
X181844744Y-96813000D01*
X181411582Y-96899161D01*
X180920375Y-97227375D01*
X180721000Y-97525761D01*
X180521625Y-97227375D01*
X180030418Y-96899161D01*
X179597256Y-96813000D01*
X179304744Y-96813000D01*
X178871582Y-96899161D01*
X178380375Y-97227375D01*
X178181000Y-97525761D01*
X177981625Y-97227375D01*
X177490418Y-96899161D01*
X177057256Y-96813000D01*
X176764744Y-96813000D01*
X176331582Y-96899161D01*
X175840375Y-97227375D01*
X175641000Y-97525761D01*
X175441625Y-97227375D01*
X174950418Y-96899161D01*
X174517256Y-96813000D01*
X174224744Y-96813000D01*
X173791582Y-96899161D01*
X173300375Y-97227375D01*
X173101000Y-97525761D01*
X172901625Y-97227375D01*
X172410418Y-96899161D01*
X171977256Y-96813000D01*
X171684744Y-96813000D01*
X171251582Y-96899161D01*
X170760375Y-97227375D01*
X170561000Y-97525761D01*
X170361625Y-97227375D01*
X169870418Y-96899161D01*
X169437256Y-96813000D01*
X169144744Y-96813000D01*
X168711582Y-96899161D01*
X168220375Y-97227375D01*
X168007157Y-97546478D01*
X167946183Y-97416642D01*
X167517924Y-97026355D01*
X167107890Y-96856524D01*
X166878000Y-96977845D01*
X166878000Y-98171000D01*
X166898000Y-98171000D01*
X166898000Y-98425000D01*
X166878000Y-98425000D01*
X166878000Y-99618155D01*
X167107890Y-99739476D01*
X167517924Y-99569645D01*
X167946183Y-99179358D01*
X168007157Y-99049522D01*
X168220375Y-99368625D01*
X168529000Y-99574842D01*
X168529000Y-99873956D01*
X168514073Y-99949000D01*
X168529000Y-100024043D01*
X168529000Y-100024047D01*
X168573212Y-100246316D01*
X168741629Y-100498371D01*
X168783001Y-100526015D01*
X168783001Y-100696348D01*
X168573090Y-100609400D01*
X167976910Y-100609400D01*
X167426111Y-100837549D01*
X167005000Y-101258660D01*
X166583889Y-100837549D01*
X166033090Y-100609400D01*
X165436910Y-100609400D01*
X164886111Y-100837549D01*
X164464549Y-101259111D01*
X164448247Y-101298468D01*
X164248805Y-101233800D01*
X163374605Y-102108000D01*
X164248805Y-102982200D01*
X164448247Y-102917532D01*
X164464549Y-102956889D01*
X164886111Y-103378451D01*
X165436910Y-103606600D01*
X166033090Y-103606600D01*
X166583889Y-103378451D01*
X167005000Y-102957340D01*
X167426111Y-103378451D01*
X167976910Y-103606600D01*
X168540455Y-103606600D01*
X168510000Y-103680126D01*
X168510000Y-104091874D01*
X168667569Y-104472280D01*
X168843289Y-104648000D01*
X160675866Y-104648000D01*
X160643431Y-104569696D01*
X160352280Y-104278545D01*
X159971874Y-104120976D01*
X159560126Y-104120976D01*
X159179720Y-104278545D01*
X158936533Y-104521732D01*
X158082801Y-103668000D01*
X158425303Y-103668000D01*
X158998669Y-103430504D01*
X159428417Y-103000757D01*
X159806111Y-103378451D01*
X160356910Y-103606600D01*
X160953090Y-103606600D01*
X161503889Y-103378451D01*
X161720535Y-103161805D01*
X162320800Y-103161805D01*
X162402741Y-103414516D01*
X162963030Y-103618248D01*
X163558635Y-103592058D01*
X163987259Y-103414516D01*
X164069200Y-103161805D01*
X163195000Y-102287605D01*
X162320800Y-103161805D01*
X161720535Y-103161805D01*
X161925451Y-102956889D01*
X161941753Y-102917532D01*
X162141195Y-102982200D01*
X163015395Y-102108000D01*
X162141195Y-101233800D01*
X161941753Y-101298468D01*
X161925451Y-101259111D01*
X161720535Y-101054195D01*
X162320800Y-101054195D01*
X163195000Y-101928395D01*
X164069200Y-101054195D01*
X163987259Y-100801484D01*
X163426970Y-100597752D01*
X162831365Y-100623942D01*
X162402741Y-100801484D01*
X162320800Y-101054195D01*
X161720535Y-101054195D01*
X161503889Y-100837549D01*
X160953090Y-100609400D01*
X160356910Y-100609400D01*
X159806111Y-100837549D01*
X159428417Y-101215244D01*
X158998669Y-100785496D01*
X158425303Y-100548000D01*
X157804697Y-100548000D01*
X157231331Y-100785496D01*
X157224000Y-100792827D01*
X157224000Y-99661037D01*
X157661625Y-99368625D01*
X157861000Y-99070239D01*
X158060375Y-99368625D01*
X158551582Y-99696839D01*
X158984744Y-99783000D01*
X159277256Y-99783000D01*
X159710418Y-99696839D01*
X160201625Y-99368625D01*
X160401000Y-99070239D01*
X160600375Y-99368625D01*
X161091582Y-99696839D01*
X161524744Y-99783000D01*
X161817256Y-99783000D01*
X162250418Y-99696839D01*
X162741625Y-99368625D01*
X162941000Y-99070239D01*
X163140375Y-99368625D01*
X163631582Y-99696839D01*
X164064744Y-99783000D01*
X164357256Y-99783000D01*
X164790418Y-99696839D01*
X165281625Y-99368625D01*
X165494843Y-99049522D01*
X165555817Y-99179358D01*
X165984076Y-99569645D01*
X166394110Y-99739476D01*
X166624000Y-99618155D01*
X166624000Y-98425000D01*
X166604000Y-98425000D01*
X166604000Y-98171000D01*
X166624000Y-98171000D01*
X166624000Y-96977845D01*
X166394110Y-96856524D01*
X165984076Y-97026355D01*
X165555817Y-97416642D01*
X165494843Y-97546478D01*
X165281625Y-97227375D01*
X164790418Y-96899161D01*
X164357256Y-96813000D01*
X164064744Y-96813000D01*
X163631582Y-96899161D01*
X163140375Y-97227375D01*
X162941000Y-97525761D01*
X162741625Y-97227375D01*
X162250418Y-96899161D01*
X161817256Y-96813000D01*
X161524744Y-96813000D01*
X161091582Y-96899161D01*
X160600375Y-97227375D01*
X160401000Y-97525761D01*
X160201625Y-97227375D01*
X159710418Y-96899161D01*
X159277256Y-96813000D01*
X158984744Y-96813000D01*
X158551582Y-96899161D01*
X158060375Y-97227375D01*
X157861000Y-97525761D01*
X157661625Y-97227375D01*
X157170418Y-96899161D01*
X156737256Y-96813000D01*
X156444744Y-96813000D01*
X156011582Y-96899161D01*
X155520375Y-97227375D01*
X155321000Y-97525761D01*
X155121625Y-97227375D01*
X154630418Y-96899161D01*
X154197256Y-96813000D01*
X153904744Y-96813000D01*
X153471582Y-96899161D01*
X152980375Y-97227375D01*
X152767157Y-97546478D01*
X152706183Y-97416642D01*
X152277924Y-97026355D01*
X151867890Y-96856524D01*
X151638000Y-96977845D01*
X151638000Y-98171000D01*
X151658000Y-98171000D01*
X151658000Y-98425000D01*
X151638000Y-98425000D01*
X151638000Y-99618155D01*
X151867890Y-99739476D01*
X152277924Y-99569645D01*
X152706183Y-99179358D01*
X152767157Y-99049522D01*
X152980375Y-99368625D01*
X153471582Y-99696839D01*
X153904744Y-99783000D01*
X154197256Y-99783000D01*
X154630418Y-99696839D01*
X155121625Y-99368625D01*
X155321000Y-99070239D01*
X155520375Y-99368625D01*
X155704000Y-99491319D01*
X155704000Y-99642851D01*
X155704001Y-99642856D01*
X155704000Y-101600000D01*
X153223630Y-101600000D01*
X152991884Y-101368254D01*
X152949371Y-101304629D01*
X152697317Y-101136212D01*
X152475048Y-101092000D01*
X152475043Y-101092000D01*
X152400000Y-101077073D01*
X152324957Y-101092000D01*
X143770729Y-101092000D01*
X144197183Y-100703358D01*
X144443486Y-100178892D01*
X144322819Y-99949000D01*
X143129000Y-99949000D01*
X143129000Y-99969000D01*
X142875000Y-99969000D01*
X142875000Y-99949000D01*
X142855000Y-99949000D01*
X142855000Y-99695000D01*
X142875000Y-99695000D01*
X142875000Y-98501845D01*
X143129000Y-98501845D01*
X143129000Y-99695000D01*
X144322819Y-99695000D01*
X144443486Y-99465108D01*
X144197183Y-98940642D01*
X143883632Y-98654892D01*
X150069514Y-98654892D01*
X150315817Y-99179358D01*
X150744076Y-99569645D01*
X151154110Y-99739476D01*
X151384000Y-99618155D01*
X151384000Y-98425000D01*
X150190181Y-98425000D01*
X150069514Y-98654892D01*
X143883632Y-98654892D01*
X143768924Y-98550355D01*
X143358890Y-98380524D01*
X143129000Y-98501845D01*
X142875000Y-98501845D01*
X142645110Y-98380524D01*
X142235076Y-98550355D01*
X141806817Y-98940642D01*
X141745843Y-99070478D01*
X141532625Y-98751375D01*
X141041418Y-98423161D01*
X140608256Y-98337000D01*
X140315744Y-98337000D01*
X139882582Y-98423161D01*
X139391375Y-98751375D01*
X139192000Y-99049761D01*
X138992625Y-98751375D01*
X138501418Y-98423161D01*
X138068256Y-98337000D01*
X137775744Y-98337000D01*
X137342582Y-98423161D01*
X136851375Y-98751375D01*
X136652000Y-99049761D01*
X136452625Y-98751375D01*
X135961418Y-98423161D01*
X135528256Y-98337000D01*
X135235744Y-98337000D01*
X134802582Y-98423161D01*
X134311375Y-98751375D01*
X134299184Y-98769619D01*
X134290157Y-98724235D01*
X134149809Y-98514191D01*
X133939765Y-98373843D01*
X133692000Y-98324560D01*
X131992000Y-98324560D01*
X131744235Y-98373843D01*
X131534191Y-98514191D01*
X131508928Y-98552000D01*
X124331075Y-98552000D01*
X124206000Y-98527121D01*
X124080925Y-98552000D01*
X124080920Y-98552000D01*
X123710471Y-98625687D01*
X123290382Y-98906382D01*
X123219530Y-99012419D01*
X122683097Y-99548852D01*
X122405460Y-99663853D01*
X122015853Y-100053460D01*
X121805000Y-100562506D01*
X121805000Y-101113494D01*
X122015853Y-101622540D01*
X122055000Y-101661687D01*
X122055001Y-107403847D01*
X122001740Y-107136091D01*
X121684577Y-106661423D01*
X121209909Y-106344260D01*
X120791333Y-106261000D01*
X120508667Y-106261000D01*
X120090091Y-106344260D01*
X119615423Y-106661423D01*
X119298260Y-107136091D01*
X119186887Y-107696000D01*
X119298260Y-108255909D01*
X119615423Y-108730577D01*
X120090091Y-109047740D01*
X120508667Y-109131000D01*
X120791333Y-109131000D01*
X121209909Y-109047740D01*
X121684577Y-108730577D01*
X122001740Y-108255909D01*
X122055001Y-107988150D01*
X122055001Y-112305867D01*
X120479869Y-113881000D01*
X120364561Y-113881000D01*
X119837138Y-114099466D01*
X119433466Y-114503138D01*
X119215000Y-115030561D01*
X119215000Y-115601439D01*
X119433466Y-116128862D01*
X119837138Y-116532534D01*
X120364561Y-116751000D01*
X120935439Y-116751000D01*
X121462862Y-116532534D01*
X121866534Y-116128862D01*
X122085000Y-115601439D01*
X122085000Y-115486131D01*
X122428001Y-115143131D01*
X122428000Y-116270369D01*
X120566118Y-118132252D01*
X120560423Y-118140775D01*
X119657528Y-119043671D01*
X119594072Y-119086071D01*
X119551672Y-119149527D01*
X119551671Y-119149528D01*
X119426097Y-119337463D01*
X119367112Y-119634000D01*
X119382001Y-119708852D01*
X119382000Y-122301000D01*
X113735618Y-122301000D01*
X114165358Y-122099183D01*
X114555645Y-121670924D01*
X114725476Y-121260890D01*
X114604155Y-121031000D01*
X113411000Y-121031000D01*
X113411000Y-121051000D01*
X113157000Y-121051000D01*
X113157000Y-121031000D01*
X111963845Y-121031000D01*
X111842524Y-121260890D01*
X112012355Y-121670924D01*
X112402642Y-122099183D01*
X112832382Y-122301000D01*
X111050606Y-122301000D01*
X110109000Y-121359394D01*
X110109000Y-118649750D01*
X111799000Y-118649750D01*
X111799000Y-119340310D01*
X111895673Y-119573699D01*
X112074302Y-119752327D01*
X112283878Y-119839136D01*
X112012355Y-120137076D01*
X111842524Y-120547110D01*
X111963845Y-120777000D01*
X113157000Y-120777000D01*
X113157000Y-118491000D01*
X113411000Y-118491000D01*
X113411000Y-120777000D01*
X114604155Y-120777000D01*
X114725476Y-120547110D01*
X114555645Y-120137076D01*
X114284122Y-119839136D01*
X114493698Y-119752327D01*
X114672327Y-119573699D01*
X114769000Y-119340310D01*
X114769000Y-118649750D01*
X114610250Y-118491000D01*
X113411000Y-118491000D01*
X113157000Y-118491000D01*
X111957750Y-118491000D01*
X111799000Y-118649750D01*
X110109000Y-118649750D01*
X110109000Y-117387690D01*
X111799000Y-117387690D01*
X111799000Y-118078250D01*
X111957750Y-118237000D01*
X113157000Y-118237000D01*
X113157000Y-117037750D01*
X113411000Y-117037750D01*
X113411000Y-118237000D01*
X114610250Y-118237000D01*
X114769000Y-118078250D01*
X114769000Y-117387690D01*
X114672327Y-117154301D01*
X114493698Y-116975673D01*
X114260309Y-116879000D01*
X113569750Y-116879000D01*
X113411000Y-117037750D01*
X113157000Y-117037750D01*
X112998250Y-116879000D01*
X112307691Y-116879000D01*
X112074302Y-116975673D01*
X111895673Y-117154301D01*
X111799000Y-117387690D01*
X110109000Y-117387690D01*
X110109000Y-117348000D01*
X110099333Y-117299399D01*
X110071803Y-117258197D01*
X108801803Y-115988197D01*
X108760601Y-115960667D01*
X108712000Y-115951000D01*
X105918000Y-115951000D01*
X105869399Y-115960667D01*
X105828197Y-115988197D01*
X105066197Y-116750197D01*
X105038667Y-116791399D01*
X105029000Y-116840000D01*
X105029000Y-121920000D01*
X105038667Y-121968601D01*
X105066197Y-122009803D01*
X109638197Y-126581803D01*
X109679399Y-126609333D01*
X109728000Y-126619000D01*
X117162199Y-126619000D01*
X116825408Y-126955791D01*
X116605256Y-126912000D01*
X116312744Y-126912000D01*
X115879582Y-126998161D01*
X115388375Y-127326375D01*
X115189000Y-127624761D01*
X114989625Y-127326375D01*
X114498418Y-126998161D01*
X114065256Y-126912000D01*
X113772744Y-126912000D01*
X113339582Y-126998161D01*
X112848375Y-127326375D01*
X112649000Y-127624761D01*
X112449625Y-127326375D01*
X111958418Y-126998161D01*
X111525256Y-126912000D01*
X111232744Y-126912000D01*
X110799582Y-126998161D01*
X110308375Y-127326375D01*
X110109000Y-127624761D01*
X109909625Y-127326375D01*
X109418418Y-126998161D01*
X108985256Y-126912000D01*
X108692744Y-126912000D01*
X108259582Y-126998161D01*
X107768375Y-127326375D01*
X107569000Y-127624761D01*
X107369625Y-127326375D01*
X106878418Y-126998161D01*
X106445256Y-126912000D01*
X106152744Y-126912000D01*
X105719582Y-126998161D01*
X105228375Y-127326375D01*
X104900161Y-127817582D01*
X104784908Y-128397000D01*
X104900161Y-128976418D01*
X105228375Y-129467625D01*
X105707827Y-129787985D01*
X105533062Y-129762956D01*
X105208496Y-129615385D01*
X104938394Y-129382650D01*
X104744468Y-129083459D01*
X104635030Y-128717525D01*
X104621000Y-128528727D01*
X104621000Y-110890197D01*
X104678262Y-111251735D01*
X105012765Y-111908234D01*
X105533766Y-112429235D01*
X106190265Y-112763738D01*
X106918000Y-112879000D01*
X107645735Y-112763738D01*
X108302234Y-112429235D01*
X108823235Y-111908234D01*
X109157738Y-111251735D01*
X109273000Y-110524000D01*
X109157738Y-109796265D01*
X108823235Y-109139766D01*
X108302234Y-108618765D01*
X107645735Y-108284262D01*
X106918000Y-108169000D01*
X106190265Y-108284262D01*
X105533766Y-108618765D01*
X105012765Y-109139766D01*
X104678262Y-109796265D01*
X104621000Y-110157803D01*
X104621000Y-102628000D01*
X119252560Y-102628000D01*
X119252560Y-104128000D01*
X119301843Y-104375765D01*
X119442191Y-104585809D01*
X119652235Y-104726157D01*
X119900000Y-104775440D01*
X121400000Y-104775440D01*
X121647765Y-104726157D01*
X121857809Y-104585809D01*
X121998157Y-104375765D01*
X122047440Y-104128000D01*
X122047440Y-102628000D01*
X121998157Y-102380235D01*
X121857809Y-102170191D01*
X121647765Y-102029843D01*
X121400000Y-101980560D01*
X119900000Y-101980560D01*
X119652235Y-102029843D01*
X119442191Y-102170191D01*
X119301843Y-102380235D01*
X119252560Y-102628000D01*
X104621000Y-102628000D01*
X104621000Y-97941108D01*
X150069514Y-97941108D01*
X150190181Y-98171000D01*
X151384000Y-98171000D01*
X151384000Y-96977845D01*
X151154110Y-96856524D01*
X150744076Y-97026355D01*
X150315817Y-97416642D01*
X150069514Y-97941108D01*
X104621000Y-97941108D01*
X104621000Y-93122750D01*
X104814000Y-93122750D01*
X104814000Y-93813309D01*
X104910673Y-94046698D01*
X105089301Y-94225327D01*
X105322690Y-94322000D01*
X106013250Y-94322000D01*
X106172000Y-94163250D01*
X106172000Y-92964000D01*
X106426000Y-92964000D01*
X106426000Y-94163250D01*
X106584750Y-94322000D01*
X107275310Y-94322000D01*
X107508699Y-94225327D01*
X107687327Y-94046698D01*
X107774136Y-93837122D01*
X108072076Y-94108645D01*
X108482110Y-94278476D01*
X108712000Y-94157155D01*
X108712000Y-92964000D01*
X108966000Y-92964000D01*
X108966000Y-94157155D01*
X109195890Y-94278476D01*
X109605924Y-94108645D01*
X110034183Y-93718358D01*
X110280486Y-93193892D01*
X110159819Y-92964000D01*
X108966000Y-92964000D01*
X108712000Y-92964000D01*
X106426000Y-92964000D01*
X106172000Y-92964000D01*
X104972750Y-92964000D01*
X104814000Y-93122750D01*
X104621000Y-93122750D01*
X104621000Y-92608364D01*
X104679044Y-92203060D01*
X104814000Y-91906240D01*
X104814000Y-92551250D01*
X104972750Y-92710000D01*
X106172000Y-92710000D01*
X106172000Y-91510750D01*
X106426000Y-91510750D01*
X106426000Y-92710000D01*
X108712000Y-92710000D01*
X108712000Y-91516845D01*
X108966000Y-91516845D01*
X108966000Y-92710000D01*
X110159819Y-92710000D01*
X110280486Y-92480108D01*
X110034183Y-91955642D01*
X109605924Y-91565355D01*
X109195890Y-91395524D01*
X108966000Y-91516845D01*
X108712000Y-91516845D01*
X108482110Y-91395524D01*
X108072076Y-91565355D01*
X107774136Y-91836878D01*
X107687327Y-91627302D01*
X107508699Y-91448673D01*
X107275310Y-91352000D01*
X106584750Y-91352000D01*
X106426000Y-91510750D01*
X106172000Y-91510750D01*
X106013250Y-91352000D01*
X105567420Y-91352000D01*
X105724479Y-91305030D01*
X105913273Y-91291000D01*
X116301394Y-91291000D01*
X116242197Y-91350197D01*
X116242197Y-91350197D01*
G37*
X116242197Y-91350197D02*
X116214667Y-91391399D01*
X116205000Y-91440000D01*
X116205000Y-93980000D01*
X116214667Y-94028601D01*
X116242197Y-94069803D01*
X117004197Y-94831803D01*
X117045399Y-94859333D01*
X117094000Y-94869000D01*
X122428000Y-94869000D01*
X122476601Y-94859333D01*
X122517803Y-94831803D01*
X123533803Y-93815803D01*
X123561333Y-93774601D01*
X123571000Y-93726000D01*
X123571000Y-93122750D01*
X128817000Y-93122750D01*
X128817000Y-93813309D01*
X128913673Y-94046698D01*
X129092301Y-94225327D01*
X129325690Y-94322000D01*
X130016250Y-94322000D01*
X130175000Y-94163250D01*
X130175000Y-92964000D01*
X130429000Y-92964000D01*
X130429000Y-94163250D01*
X130587750Y-94322000D01*
X131278310Y-94322000D01*
X131511699Y-94225327D01*
X131690327Y-94046698D01*
X131777136Y-93837122D01*
X132075076Y-94108645D01*
X132485110Y-94278476D01*
X132715000Y-94157155D01*
X132715000Y-92964000D01*
X132969000Y-92964000D01*
X132969000Y-94157155D01*
X133198890Y-94278476D01*
X133608924Y-94108645D01*
X134037183Y-93718358D01*
X134283486Y-93193892D01*
X134162819Y-92964000D01*
X132969000Y-92964000D01*
X132715000Y-92964000D01*
X130429000Y-92964000D01*
X130175000Y-92964000D01*
X128975750Y-92964000D01*
X128817000Y-93122750D01*
X123571000Y-93122750D01*
X123571000Y-91860691D01*
X128817000Y-91860691D01*
X128817000Y-92551250D01*
X128975750Y-92710000D01*
X130175000Y-92710000D01*
X130175000Y-91510750D01*
X130429000Y-91510750D01*
X130429000Y-92710000D01*
X132715000Y-92710000D01*
X132715000Y-91516845D01*
X132969000Y-91516845D01*
X132969000Y-92710000D01*
X134162819Y-92710000D01*
X134283486Y-92480108D01*
X134037183Y-91955642D01*
X133608924Y-91565355D01*
X133198890Y-91395524D01*
X132969000Y-91516845D01*
X132715000Y-91516845D01*
X132485110Y-91395524D01*
X132075076Y-91565355D01*
X131777136Y-91836878D01*
X131690327Y-91627302D01*
X131511699Y-91448673D01*
X131278310Y-91352000D01*
X130587750Y-91352000D01*
X130429000Y-91510750D01*
X130175000Y-91510750D01*
X130016250Y-91352000D01*
X129325690Y-91352000D01*
X129092301Y-91448673D01*
X128913673Y-91627302D01*
X128817000Y-91860691D01*
X123571000Y-91860691D01*
X123571000Y-91440000D01*
X123561333Y-91391399D01*
X123533803Y-91350197D01*
X123474606Y-91291000D01*
X140939394Y-91291000D01*
X140372197Y-91858197D01*
X140344667Y-91899399D01*
X140335000Y-91948000D01*
X140335000Y-93472000D01*
X140344667Y-93520601D01*
X140372197Y-93561803D01*
X141642197Y-94831803D01*
X141683399Y-94859333D01*
X141732000Y-94869000D01*
X146558000Y-94869000D01*
X146606601Y-94859333D01*
X146647803Y-94831803D01*
X147917803Y-93561803D01*
X147945333Y-93520601D01*
X147955000Y-93472000D01*
X147955000Y-93122750D01*
X158789000Y-93122750D01*
X158789000Y-93813309D01*
X158885673Y-94046698D01*
X159064301Y-94225327D01*
X159297690Y-94322000D01*
X159988250Y-94322000D01*
X160147000Y-94163250D01*
X160147000Y-92964000D01*
X160401000Y-92964000D01*
X160401000Y-94163250D01*
X160559750Y-94322000D01*
X161250310Y-94322000D01*
X161483699Y-94225327D01*
X161662327Y-94046698D01*
X161749136Y-93837122D01*
X162047076Y-94108645D01*
X162457110Y-94278476D01*
X162687000Y-94157155D01*
X162687000Y-92964000D01*
X162941000Y-92964000D01*
X162941000Y-94157155D01*
X163170890Y-94278476D01*
X163580924Y-94108645D01*
X164009183Y-93718358D01*
X164255486Y-93193892D01*
X164134819Y-92964000D01*
X162941000Y-92964000D01*
X162687000Y-92964000D01*
X160401000Y-92964000D01*
X160147000Y-92964000D01*
X158947750Y-92964000D01*
X158789000Y-93122750D01*
X147955000Y-93122750D01*
X147955000Y-91948000D01*
X147945333Y-91899399D01*
X147919470Y-91860691D01*
X158789000Y-91860691D01*
X158789000Y-92551250D01*
X158947750Y-92710000D01*
X160147000Y-92710000D01*
X160147000Y-91510750D01*
X160401000Y-91510750D01*
X160401000Y-92710000D01*
X162687000Y-92710000D01*
X162687000Y-91516845D01*
X162941000Y-91516845D01*
X162941000Y-92710000D01*
X164134819Y-92710000D01*
X164255486Y-92480108D01*
X164009183Y-91955642D01*
X163580924Y-91565355D01*
X163170890Y-91395524D01*
X162941000Y-91516845D01*
X162687000Y-91516845D01*
X162457110Y-91395524D01*
X162047076Y-91565355D01*
X161749136Y-91836878D01*
X161662327Y-91627302D01*
X161483699Y-91448673D01*
X161250310Y-91352000D01*
X160559750Y-91352000D01*
X160401000Y-91510750D01*
X160147000Y-91510750D01*
X159988250Y-91352000D01*
X159297690Y-91352000D01*
X159064301Y-91448673D01*
X158885673Y-91627302D01*
X158789000Y-91860691D01*
X147919470Y-91860691D01*
X147917803Y-91858197D01*
X147350606Y-91291000D01*
X170403394Y-91291000D01*
X170090197Y-91604197D01*
X170062667Y-91645399D01*
X170053000Y-91694000D01*
X170053000Y-93726000D01*
X170062667Y-93774601D01*
X170090197Y-93815803D01*
X171360197Y-95085803D01*
X171401399Y-95113333D01*
X171450000Y-95123000D01*
X176784000Y-95123000D01*
X176832601Y-95113333D01*
X176873803Y-95085803D01*
X178143803Y-93815803D01*
X178171333Y-93774601D01*
X178181000Y-93726000D01*
X178181000Y-93122750D01*
X182792000Y-93122750D01*
X182792000Y-93813309D01*
X182888673Y-94046698D01*
X183067301Y-94225327D01*
X183300690Y-94322000D01*
X183991250Y-94322000D01*
X184150000Y-94163250D01*
X184150000Y-92964000D01*
X184404000Y-92964000D01*
X184404000Y-94163250D01*
X184562750Y-94322000D01*
X185253310Y-94322000D01*
X185486699Y-94225327D01*
X185665327Y-94046698D01*
X185752136Y-93837122D01*
X186050076Y-94108645D01*
X186460110Y-94278476D01*
X186690000Y-94157155D01*
X186690000Y-92964000D01*
X186944000Y-92964000D01*
X186944000Y-94157155D01*
X187173890Y-94278476D01*
X187583924Y-94108645D01*
X188012183Y-93718358D01*
X188258486Y-93193892D01*
X188137819Y-92964000D01*
X186944000Y-92964000D01*
X186690000Y-92964000D01*
X184404000Y-92964000D01*
X184150000Y-92964000D01*
X182950750Y-92964000D01*
X182792000Y-93122750D01*
X178181000Y-93122750D01*
X178181000Y-91860691D01*
X182792000Y-91860691D01*
X182792000Y-92551250D01*
X182950750Y-92710000D01*
X184150000Y-92710000D01*
X184150000Y-91510750D01*
X184404000Y-91510750D01*
X184404000Y-92710000D01*
X186690000Y-92710000D01*
X186690000Y-91516845D01*
X186944000Y-91516845D01*
X186944000Y-92710000D01*
X188137819Y-92710000D01*
X188258486Y-92480108D01*
X188012183Y-91955642D01*
X187583924Y-91565355D01*
X187173890Y-91395524D01*
X186944000Y-91516845D01*
X186690000Y-91516845D01*
X186460110Y-91395524D01*
X186050076Y-91565355D01*
X185752136Y-91836878D01*
X185665327Y-91627302D01*
X185486699Y-91448673D01*
X185253310Y-91352000D01*
X184562750Y-91352000D01*
X184404000Y-91510750D01*
X184150000Y-91510750D01*
X183991250Y-91352000D01*
X183300690Y-91352000D01*
X183067301Y-91448673D01*
X182888673Y-91627302D01*
X182792000Y-91860691D01*
X178181000Y-91860691D01*
X178181000Y-91694000D01*
X178171333Y-91645399D01*
X178143803Y-91604197D01*
X177830606Y-91291000D01*
X193675000Y-91291000D01*
X193675000Y-93726000D01*
X193684667Y-93774601D01*
X193712197Y-93815803D01*
X194982197Y-95085803D01*
X195023399Y-95113333D01*
X195072000Y-95123000D01*
X201151000Y-95123000D01*
X201151000Y-109783042D01*
X200823235Y-109139766D01*
X200302234Y-108618765D01*
X199645735Y-108284262D01*
X198918000Y-108169000D01*
X198190265Y-108284262D01*
X197533766Y-108618765D01*
X197012765Y-109139766D01*
X196678262Y-109796265D01*
X196563000Y-110524000D01*
X196678262Y-111251735D01*
X197012765Y-111908234D01*
X197533766Y-112429235D01*
X198190265Y-112763738D01*
X198918000Y-112879000D01*
X199645735Y-112763738D01*
X200302234Y-112429235D01*
X200823235Y-111908234D01*
X201151001Y-111264958D01*
X201151001Y-114963869D01*
X200271613Y-114084482D01*
X200208289Y-113989711D01*
X199918056Y-113795783D01*
X199806769Y-113629231D01*
X199265945Y-113267864D01*
X198789031Y-113173000D01*
X197527239Y-113173000D01*
X195960988Y-111606750D01*
X195869769Y-111470231D01*
X195328945Y-111108864D01*
X194852031Y-111014000D01*
X194852030Y-111014000D01*
X194691000Y-110981969D01*
X194529970Y-111014000D01*
X188294600Y-111014000D01*
X188455083Y-110906769D01*
X188546302Y-110770250D01*
X194717256Y-104599298D01*
X194853769Y-104508083D01*
X194944984Y-104371570D01*
X194944986Y-104371568D01*
X195215136Y-103967260D01*
X195337874Y-103350214D01*
X195366111Y-103378451D01*
X195916910Y-103606600D01*
X196513090Y-103606600D01*
X197063889Y-103378451D01*
X197441584Y-103000757D01*
X197871331Y-103430504D01*
X198444697Y-103668000D01*
X199065303Y-103668000D01*
X199638669Y-103430504D01*
X200077504Y-102991669D01*
X200315000Y-102418303D01*
X200315000Y-101797697D01*
X200077504Y-101224331D01*
X199638669Y-100785496D01*
X199065303Y-100548000D01*
X198444697Y-100548000D01*
X197871331Y-100785496D01*
X197441584Y-101215244D01*
X197063889Y-100837549D01*
X196513090Y-100609400D01*
X195916910Y-100609400D01*
X195366111Y-100837549D01*
X195022262Y-101181398D01*
X194853769Y-100929231D01*
X194312944Y-100567864D01*
X193675000Y-100440969D01*
X193037055Y-100567864D01*
X192496231Y-100929231D01*
X192327738Y-101181398D01*
X191983889Y-100837549D01*
X191433090Y-100609400D01*
X190836910Y-100609400D01*
X190286111Y-100837549D01*
X189865000Y-101258660D01*
X189443889Y-100837549D01*
X188893090Y-100609400D01*
X188296910Y-100609400D01*
X187746111Y-100837549D01*
X187325000Y-101258660D01*
X186903889Y-100837549D01*
X186353090Y-100609400D01*
X185756910Y-100609400D01*
X185206111Y-100837549D01*
X184785000Y-101258660D01*
X184363889Y-100837549D01*
X183813090Y-100609400D01*
X183216910Y-100609400D01*
X182666111Y-100837549D01*
X182245000Y-101258660D01*
X181823889Y-100837549D01*
X181273090Y-100609400D01*
X180676910Y-100609400D01*
X180126111Y-100837549D01*
X179705000Y-101258660D01*
X179283889Y-100837549D01*
X178733090Y-100609400D01*
X178136910Y-100609400D01*
X177927000Y-100696348D01*
X177927000Y-100278042D01*
X177941927Y-100202999D01*
X177927000Y-100127956D01*
X177927000Y-100127952D01*
X177882788Y-99905683D01*
X177714371Y-99653629D01*
X177673000Y-99625986D01*
X177673000Y-99574842D01*
X177981625Y-99368625D01*
X178181000Y-99070239D01*
X178380375Y-99368625D01*
X178871582Y-99696839D01*
X179304744Y-99783000D01*
X179597256Y-99783000D01*
X180030418Y-99696839D01*
X180521625Y-99368625D01*
X180721000Y-99070239D01*
X180920375Y-99368625D01*
X181411582Y-99696839D01*
X181844744Y-99783000D01*
X182137256Y-99783000D01*
X182570418Y-99696839D01*
X183061625Y-99368625D01*
X183261000Y-99070239D01*
X183460375Y-99368625D01*
X183951582Y-99696839D01*
X184384744Y-99783000D01*
X184677256Y-99783000D01*
X185110418Y-99696839D01*
X185601625Y-99368625D01*
X185801000Y-99070239D01*
X186000375Y-99368625D01*
X186491582Y-99696839D01*
X186924744Y-99783000D01*
X187217256Y-99783000D01*
X187650418Y-99696839D01*
X188141625Y-99368625D01*
X188341000Y-99070239D01*
X188540375Y-99368625D01*
X189031582Y-99696839D01*
X189464744Y-99783000D01*
X189757256Y-99783000D01*
X190190418Y-99696839D01*
X190681625Y-99368625D01*
X190881000Y-99070239D01*
X191080375Y-99368625D01*
X191571582Y-99696839D01*
X192004744Y-99783000D01*
X192297256Y-99783000D01*
X192730418Y-99696839D01*
X193221625Y-99368625D01*
X193421000Y-99070239D01*
X193620375Y-99368625D01*
X194111582Y-99696839D01*
X194544744Y-99783000D01*
X194837256Y-99783000D01*
X195270418Y-99696839D01*
X195761625Y-99368625D01*
X195773816Y-99350381D01*
X195782843Y-99395765D01*
X195923191Y-99605809D01*
X196133235Y-99746157D01*
X196381000Y-99795440D01*
X198081000Y-99795440D01*
X198328765Y-99746157D01*
X198538809Y-99605809D01*
X198679157Y-99395765D01*
X198728440Y-99148000D01*
X198728440Y-97448000D01*
X198679157Y-97200235D01*
X198538809Y-96990191D01*
X198328765Y-96849843D01*
X198081000Y-96800560D01*
X196381000Y-96800560D01*
X196133235Y-96849843D01*
X195923191Y-96990191D01*
X195782843Y-97200235D01*
X195773816Y-97245619D01*
X195761625Y-97227375D01*
X195270418Y-96899161D01*
X194837256Y-96813000D01*
X194544744Y-96813000D01*
X194111582Y-96899161D01*
X193620375Y-97227375D01*
X193421000Y-97525761D01*
X193221625Y-97227375D01*
X192730418Y-96899161D01*
X192297256Y-96813000D01*
X192004744Y-96813000D01*
X191571582Y-96899161D01*
X191080375Y-97227375D01*
X190881000Y-97525761D01*
X190681625Y-97227375D01*
X190190418Y-96899161D01*
X189757256Y-96813000D01*
X189464744Y-96813000D01*
X189031582Y-96899161D01*
X188540375Y-97227375D01*
X188341000Y-97525761D01*
X188141625Y-97227375D01*
X187650418Y-96899161D01*
X187217256Y-96813000D01*
X186924744Y-96813000D01*
X186491582Y-96899161D01*
X186000375Y-97227375D01*
X185801000Y-97525761D01*
X185601625Y-97227375D01*
X185110418Y-96899161D01*
X184677256Y-96813000D01*
X184384744Y-96813000D01*
X183951582Y-96899161D01*
X183460375Y-97227375D01*
X183261000Y-97525761D01*
X183061625Y-97227375D01*
X182570418Y-96899161D01*
X182137256Y-96813000D01*
X181844744Y-96813000D01*
X181411582Y-96899161D01*
X180920375Y-97227375D01*
X180721000Y-97525761D01*
X180521625Y-97227375D01*
X180030418Y-96899161D01*
X179597256Y-96813000D01*
X179304744Y-96813000D01*
X178871582Y-96899161D01*
X178380375Y-97227375D01*
X178181000Y-97525761D01*
X177981625Y-97227375D01*
X177490418Y-96899161D01*
X177057256Y-96813000D01*
X176764744Y-96813000D01*
X176331582Y-96899161D01*
X175840375Y-97227375D01*
X175641000Y-97525761D01*
X175441625Y-97227375D01*
X174950418Y-96899161D01*
X174517256Y-96813000D01*
X174224744Y-96813000D01*
X173791582Y-96899161D01*
X173300375Y-97227375D01*
X173101000Y-97525761D01*
X172901625Y-97227375D01*
X172410418Y-96899161D01*
X171977256Y-96813000D01*
X171684744Y-96813000D01*
X171251582Y-96899161D01*
X170760375Y-97227375D01*
X170561000Y-97525761D01*
X170361625Y-97227375D01*
X169870418Y-96899161D01*
X169437256Y-96813000D01*
X169144744Y-96813000D01*
X168711582Y-96899161D01*
X168220375Y-97227375D01*
X168007157Y-97546478D01*
X167946183Y-97416642D01*
X167517924Y-97026355D01*
X167107890Y-96856524D01*
X166878000Y-96977845D01*
X166878000Y-98171000D01*
X166898000Y-98171000D01*
X166898000Y-98425000D01*
X166878000Y-98425000D01*
X166878000Y-99618155D01*
X167107890Y-99739476D01*
X167517924Y-99569645D01*
X167946183Y-99179358D01*
X168007157Y-99049522D01*
X168220375Y-99368625D01*
X168529000Y-99574842D01*
X168529000Y-99873956D01*
X168514073Y-99949000D01*
X168529000Y-100024043D01*
X168529000Y-100024047D01*
X168573212Y-100246316D01*
X168741629Y-100498371D01*
X168783001Y-100526015D01*
X168783001Y-100696348D01*
X168573090Y-100609400D01*
X167976910Y-100609400D01*
X167426111Y-100837549D01*
X167005000Y-101258660D01*
X166583889Y-100837549D01*
X166033090Y-100609400D01*
X165436910Y-100609400D01*
X164886111Y-100837549D01*
X164464549Y-101259111D01*
X164448247Y-101298468D01*
X164248805Y-101233800D01*
X163374605Y-102108000D01*
X164248805Y-102982200D01*
X164448247Y-102917532D01*
X164464549Y-102956889D01*
X164886111Y-103378451D01*
X165436910Y-103606600D01*
X166033090Y-103606600D01*
X166583889Y-103378451D01*
X167005000Y-102957340D01*
X167426111Y-103378451D01*
X167976910Y-103606600D01*
X168540455Y-103606600D01*
X168510000Y-103680126D01*
X168510000Y-104091874D01*
X168667569Y-104472280D01*
X168843289Y-104648000D01*
X160675866Y-104648000D01*
X160643431Y-104569696D01*
X160352280Y-104278545D01*
X159971874Y-104120976D01*
X159560126Y-104120976D01*
X159179720Y-104278545D01*
X158936533Y-104521732D01*
X158082801Y-103668000D01*
X158425303Y-103668000D01*
X158998669Y-103430504D01*
X159428417Y-103000757D01*
X159806111Y-103378451D01*
X160356910Y-103606600D01*
X160953090Y-103606600D01*
X161503889Y-103378451D01*
X161720535Y-103161805D01*
X162320800Y-103161805D01*
X162402741Y-103414516D01*
X162963030Y-103618248D01*
X163558635Y-103592058D01*
X163987259Y-103414516D01*
X164069200Y-103161805D01*
X163195000Y-102287605D01*
X162320800Y-103161805D01*
X161720535Y-103161805D01*
X161925451Y-102956889D01*
X161941753Y-102917532D01*
X162141195Y-102982200D01*
X163015395Y-102108000D01*
X162141195Y-101233800D01*
X161941753Y-101298468D01*
X161925451Y-101259111D01*
X161720535Y-101054195D01*
X162320800Y-101054195D01*
X163195000Y-101928395D01*
X164069200Y-101054195D01*
X163987259Y-100801484D01*
X163426970Y-100597752D01*
X162831365Y-100623942D01*
X162402741Y-100801484D01*
X162320800Y-101054195D01*
X161720535Y-101054195D01*
X161503889Y-100837549D01*
X160953090Y-100609400D01*
X160356910Y-100609400D01*
X159806111Y-100837549D01*
X159428417Y-101215244D01*
X158998669Y-100785496D01*
X158425303Y-100548000D01*
X157804697Y-100548000D01*
X157231331Y-100785496D01*
X157224000Y-100792827D01*
X157224000Y-99661037D01*
X157661625Y-99368625D01*
X157861000Y-99070239D01*
X158060375Y-99368625D01*
X158551582Y-99696839D01*
X158984744Y-99783000D01*
X159277256Y-99783000D01*
X159710418Y-99696839D01*
X160201625Y-99368625D01*
X160401000Y-99070239D01*
X160600375Y-99368625D01*
X161091582Y-99696839D01*
X161524744Y-99783000D01*
X161817256Y-99783000D01*
X162250418Y-99696839D01*
X162741625Y-99368625D01*
X162941000Y-99070239D01*
X163140375Y-99368625D01*
X163631582Y-99696839D01*
X164064744Y-99783000D01*
X164357256Y-99783000D01*
X164790418Y-99696839D01*
X165281625Y-99368625D01*
X165494843Y-99049522D01*
X165555817Y-99179358D01*
X165984076Y-99569645D01*
X166394110Y-99739476D01*
X166624000Y-99618155D01*
X166624000Y-98425000D01*
X166604000Y-98425000D01*
X166604000Y-98171000D01*
X166624000Y-98171000D01*
X166624000Y-96977845D01*
X166394110Y-96856524D01*
X165984076Y-97026355D01*
X165555817Y-97416642D01*
X165494843Y-97546478D01*
X165281625Y-97227375D01*
X164790418Y-96899161D01*
X164357256Y-96813000D01*
X164064744Y-96813000D01*
X163631582Y-96899161D01*
X163140375Y-97227375D01*
X162941000Y-97525761D01*
X162741625Y-97227375D01*
X162250418Y-96899161D01*
X161817256Y-96813000D01*
X161524744Y-96813000D01*
X161091582Y-96899161D01*
X160600375Y-97227375D01*
X160401000Y-97525761D01*
X160201625Y-97227375D01*
X159710418Y-96899161D01*
X159277256Y-96813000D01*
X158984744Y-96813000D01*
X158551582Y-96899161D01*
X158060375Y-97227375D01*
X157861000Y-97525761D01*
X157661625Y-97227375D01*
X157170418Y-96899161D01*
X156737256Y-96813000D01*
X156444744Y-96813000D01*
X156011582Y-96899161D01*
X155520375Y-97227375D01*
X155321000Y-97525761D01*
X155121625Y-97227375D01*
X154630418Y-96899161D01*
X154197256Y-96813000D01*
X153904744Y-96813000D01*
X153471582Y-96899161D01*
X152980375Y-97227375D01*
X152767157Y-97546478D01*
X152706183Y-97416642D01*
X152277924Y-97026355D01*
X151867890Y-96856524D01*
X151638000Y-96977845D01*
X151638000Y-98171000D01*
X151658000Y-98171000D01*
X151658000Y-98425000D01*
X151638000Y-98425000D01*
X151638000Y-99618155D01*
X151867890Y-99739476D01*
X152277924Y-99569645D01*
X152706183Y-99179358D01*
X152767157Y-99049522D01*
X152980375Y-99368625D01*
X153471582Y-99696839D01*
X153904744Y-99783000D01*
X154197256Y-99783000D01*
X154630418Y-99696839D01*
X155121625Y-99368625D01*
X155321000Y-99070239D01*
X155520375Y-99368625D01*
X155704000Y-99491319D01*
X155704000Y-99642851D01*
X155704001Y-99642856D01*
X155704000Y-101600000D01*
X153223630Y-101600000D01*
X152991884Y-101368254D01*
X152949371Y-101304629D01*
X152697317Y-101136212D01*
X152475048Y-101092000D01*
X152475043Y-101092000D01*
X152400000Y-101077073D01*
X152324957Y-101092000D01*
X143770729Y-101092000D01*
X144197183Y-100703358D01*
X144443486Y-100178892D01*
X144322819Y-99949000D01*
X143129000Y-99949000D01*
X143129000Y-99969000D01*
X142875000Y-99969000D01*
X142875000Y-99949000D01*
X142855000Y-99949000D01*
X142855000Y-99695000D01*
X142875000Y-99695000D01*
X142875000Y-98501845D01*
X143129000Y-98501845D01*
X143129000Y-99695000D01*
X144322819Y-99695000D01*
X144443486Y-99465108D01*
X144197183Y-98940642D01*
X143883632Y-98654892D01*
X150069514Y-98654892D01*
X150315817Y-99179358D01*
X150744076Y-99569645D01*
X151154110Y-99739476D01*
X151384000Y-99618155D01*
X151384000Y-98425000D01*
X150190181Y-98425000D01*
X150069514Y-98654892D01*
X143883632Y-98654892D01*
X143768924Y-98550355D01*
X143358890Y-98380524D01*
X143129000Y-98501845D01*
X142875000Y-98501845D01*
X142645110Y-98380524D01*
X142235076Y-98550355D01*
X141806817Y-98940642D01*
X141745843Y-99070478D01*
X141532625Y-98751375D01*
X141041418Y-98423161D01*
X140608256Y-98337000D01*
X140315744Y-98337000D01*
X139882582Y-98423161D01*
X139391375Y-98751375D01*
X139192000Y-99049761D01*
X138992625Y-98751375D01*
X138501418Y-98423161D01*
X138068256Y-98337000D01*
X137775744Y-98337000D01*
X137342582Y-98423161D01*
X136851375Y-98751375D01*
X136652000Y-99049761D01*
X136452625Y-98751375D01*
X135961418Y-98423161D01*
X135528256Y-98337000D01*
X135235744Y-98337000D01*
X134802582Y-98423161D01*
X134311375Y-98751375D01*
X134299184Y-98769619D01*
X134290157Y-98724235D01*
X134149809Y-98514191D01*
X133939765Y-98373843D01*
X133692000Y-98324560D01*
X131992000Y-98324560D01*
X131744235Y-98373843D01*
X131534191Y-98514191D01*
X131508928Y-98552000D01*
X124331075Y-98552000D01*
X124206000Y-98527121D01*
X124080925Y-98552000D01*
X124080920Y-98552000D01*
X123710471Y-98625687D01*
X123290382Y-98906382D01*
X123219530Y-99012419D01*
X122683097Y-99548852D01*
X122405460Y-99663853D01*
X122015853Y-100053460D01*
X121805000Y-100562506D01*
X121805000Y-101113494D01*
X122015853Y-101622540D01*
X122055000Y-101661687D01*
X122055001Y-107403847D01*
X122001740Y-107136091D01*
X121684577Y-106661423D01*
X121209909Y-106344260D01*
X120791333Y-106261000D01*
X120508667Y-106261000D01*
X120090091Y-106344260D01*
X119615423Y-106661423D01*
X119298260Y-107136091D01*
X119186887Y-107696000D01*
X119298260Y-108255909D01*
X119615423Y-108730577D01*
X120090091Y-109047740D01*
X120508667Y-109131000D01*
X120791333Y-109131000D01*
X121209909Y-109047740D01*
X121684577Y-108730577D01*
X122001740Y-108255909D01*
X122055001Y-107988150D01*
X122055001Y-112305867D01*
X120479869Y-113881000D01*
X120364561Y-113881000D01*
X119837138Y-114099466D01*
X119433466Y-114503138D01*
X119215000Y-115030561D01*
X119215000Y-115601439D01*
X119433466Y-116128862D01*
X119837138Y-116532534D01*
X120364561Y-116751000D01*
X120935439Y-116751000D01*
X121462862Y-116532534D01*
X121866534Y-116128862D01*
X122085000Y-115601439D01*
X122085000Y-115486131D01*
X122428001Y-115143131D01*
X122428000Y-116270369D01*
X120566118Y-118132252D01*
X120560423Y-118140775D01*
X119657528Y-119043671D01*
X119594072Y-119086071D01*
X119551672Y-119149527D01*
X119551671Y-119149528D01*
X119426097Y-119337463D01*
X119367112Y-119634000D01*
X119382001Y-119708852D01*
X119382000Y-122301000D01*
X113735618Y-122301000D01*
X114165358Y-122099183D01*
X114555645Y-121670924D01*
X114725476Y-121260890D01*
X114604155Y-121031000D01*
X113411000Y-121031000D01*
X113411000Y-121051000D01*
X113157000Y-121051000D01*
X113157000Y-121031000D01*
X111963845Y-121031000D01*
X111842524Y-121260890D01*
X112012355Y-121670924D01*
X112402642Y-122099183D01*
X112832382Y-122301000D01*
X111050606Y-122301000D01*
X110109000Y-121359394D01*
X110109000Y-118649750D01*
X111799000Y-118649750D01*
X111799000Y-119340310D01*
X111895673Y-119573699D01*
X112074302Y-119752327D01*
X112283878Y-119839136D01*
X112012355Y-120137076D01*
X111842524Y-120547110D01*
X111963845Y-120777000D01*
X113157000Y-120777000D01*
X113157000Y-118491000D01*
X113411000Y-118491000D01*
X113411000Y-120777000D01*
X114604155Y-120777000D01*
X114725476Y-120547110D01*
X114555645Y-120137076D01*
X114284122Y-119839136D01*
X114493698Y-119752327D01*
X114672327Y-119573699D01*
X114769000Y-119340310D01*
X114769000Y-118649750D01*
X114610250Y-118491000D01*
X113411000Y-118491000D01*
X113157000Y-118491000D01*
X111957750Y-118491000D01*
X111799000Y-118649750D01*
X110109000Y-118649750D01*
X110109000Y-117387690D01*
X111799000Y-117387690D01*
X111799000Y-118078250D01*
X111957750Y-118237000D01*
X113157000Y-118237000D01*
X113157000Y-117037750D01*
X113411000Y-117037750D01*
X113411000Y-118237000D01*
X114610250Y-118237000D01*
X114769000Y-118078250D01*
X114769000Y-117387690D01*
X114672327Y-117154301D01*
X114493698Y-116975673D01*
X114260309Y-116879000D01*
X113569750Y-116879000D01*
X113411000Y-117037750D01*
X113157000Y-117037750D01*
X112998250Y-116879000D01*
X112307691Y-116879000D01*
X112074302Y-116975673D01*
X111895673Y-117154301D01*
X111799000Y-117387690D01*
X110109000Y-117387690D01*
X110109000Y-117348000D01*
X110099333Y-117299399D01*
X110071803Y-117258197D01*
X108801803Y-115988197D01*
X108760601Y-115960667D01*
X108712000Y-115951000D01*
X105918000Y-115951000D01*
X105869399Y-115960667D01*
X105828197Y-115988197D01*
X105066197Y-116750197D01*
X105038667Y-116791399D01*
X105029000Y-116840000D01*
X105029000Y-121920000D01*
X105038667Y-121968601D01*
X105066197Y-122009803D01*
X109638197Y-126581803D01*
X109679399Y-126609333D01*
X109728000Y-126619000D01*
X117162199Y-126619000D01*
X116825408Y-126955791D01*
X116605256Y-126912000D01*
X116312744Y-126912000D01*
X115879582Y-126998161D01*
X115388375Y-127326375D01*
X115189000Y-127624761D01*
X114989625Y-127326375D01*
X114498418Y-126998161D01*
X114065256Y-126912000D01*
X113772744Y-126912000D01*
X113339582Y-126998161D01*
X112848375Y-127326375D01*
X112649000Y-127624761D01*
X112449625Y-127326375D01*
X111958418Y-126998161D01*
X111525256Y-126912000D01*
X111232744Y-126912000D01*
X110799582Y-126998161D01*
X110308375Y-127326375D01*
X110109000Y-127624761D01*
X109909625Y-127326375D01*
X109418418Y-126998161D01*
X108985256Y-126912000D01*
X108692744Y-126912000D01*
X108259582Y-126998161D01*
X107768375Y-127326375D01*
X107569000Y-127624761D01*
X107369625Y-127326375D01*
X106878418Y-126998161D01*
X106445256Y-126912000D01*
X106152744Y-126912000D01*
X105719582Y-126998161D01*
X105228375Y-127326375D01*
X104900161Y-127817582D01*
X104784908Y-128397000D01*
X104900161Y-128976418D01*
X105228375Y-129467625D01*
X105707827Y-129787985D01*
X105533062Y-129762956D01*
X105208496Y-129615385D01*
X104938394Y-129382650D01*
X104744468Y-129083459D01*
X104635030Y-128717525D01*
X104621000Y-128528727D01*
X104621000Y-110890197D01*
X104678262Y-111251735D01*
X105012765Y-111908234D01*
X105533766Y-112429235D01*
X106190265Y-112763738D01*
X106918000Y-112879000D01*
X107645735Y-112763738D01*
X108302234Y-112429235D01*
X108823235Y-111908234D01*
X109157738Y-111251735D01*
X109273000Y-110524000D01*
X109157738Y-109796265D01*
X108823235Y-109139766D01*
X108302234Y-108618765D01*
X107645735Y-108284262D01*
X106918000Y-108169000D01*
X106190265Y-108284262D01*
X105533766Y-108618765D01*
X105012765Y-109139766D01*
X104678262Y-109796265D01*
X104621000Y-110157803D01*
X104621000Y-102628000D01*
X119252560Y-102628000D01*
X119252560Y-104128000D01*
X119301843Y-104375765D01*
X119442191Y-104585809D01*
X119652235Y-104726157D01*
X119900000Y-104775440D01*
X121400000Y-104775440D01*
X121647765Y-104726157D01*
X121857809Y-104585809D01*
X121998157Y-104375765D01*
X122047440Y-104128000D01*
X122047440Y-102628000D01*
X121998157Y-102380235D01*
X121857809Y-102170191D01*
X121647765Y-102029843D01*
X121400000Y-101980560D01*
X119900000Y-101980560D01*
X119652235Y-102029843D01*
X119442191Y-102170191D01*
X119301843Y-102380235D01*
X119252560Y-102628000D01*
X104621000Y-102628000D01*
X104621000Y-97941108D01*
X150069514Y-97941108D01*
X150190181Y-98171000D01*
X151384000Y-98171000D01*
X151384000Y-96977845D01*
X151154110Y-96856524D01*
X150744076Y-97026355D01*
X150315817Y-97416642D01*
X150069514Y-97941108D01*
X104621000Y-97941108D01*
X104621000Y-93122750D01*
X104814000Y-93122750D01*
X104814000Y-93813309D01*
X104910673Y-94046698D01*
X105089301Y-94225327D01*
X105322690Y-94322000D01*
X106013250Y-94322000D01*
X106172000Y-94163250D01*
X106172000Y-92964000D01*
X106426000Y-92964000D01*
X106426000Y-94163250D01*
X106584750Y-94322000D01*
X107275310Y-94322000D01*
X107508699Y-94225327D01*
X107687327Y-94046698D01*
X107774136Y-93837122D01*
X108072076Y-94108645D01*
X108482110Y-94278476D01*
X108712000Y-94157155D01*
X108712000Y-92964000D01*
X108966000Y-92964000D01*
X108966000Y-94157155D01*
X109195890Y-94278476D01*
X109605924Y-94108645D01*
X110034183Y-93718358D01*
X110280486Y-93193892D01*
X110159819Y-92964000D01*
X108966000Y-92964000D01*
X108712000Y-92964000D01*
X106426000Y-92964000D01*
X106172000Y-92964000D01*
X104972750Y-92964000D01*
X104814000Y-93122750D01*
X104621000Y-93122750D01*
X104621000Y-92608364D01*
X104679044Y-92203060D01*
X104814000Y-91906240D01*
X104814000Y-92551250D01*
X104972750Y-92710000D01*
X106172000Y-92710000D01*
X106172000Y-91510750D01*
X106426000Y-91510750D01*
X106426000Y-92710000D01*
X108712000Y-92710000D01*
X108712000Y-91516845D01*
X108966000Y-91516845D01*
X108966000Y-92710000D01*
X110159819Y-92710000D01*
X110280486Y-92480108D01*
X110034183Y-91955642D01*
X109605924Y-91565355D01*
X109195890Y-91395524D01*
X108966000Y-91516845D01*
X108712000Y-91516845D01*
X108482110Y-91395524D01*
X108072076Y-91565355D01*
X107774136Y-91836878D01*
X107687327Y-91627302D01*
X107508699Y-91448673D01*
X107275310Y-91352000D01*
X106584750Y-91352000D01*
X106426000Y-91510750D01*
X106172000Y-91510750D01*
X106013250Y-91352000D01*
X105567420Y-91352000D01*
X105724479Y-91305030D01*
X105913273Y-91291000D01*
X116301394Y-91291000D01*
X116242197Y-91350197D01*
G36*
X123063000Y-127052606D02*
X123063000Y-128778000D01*
X123072667Y-128826601D01*
X123100197Y-128867803D01*
X123141399Y-128895333D01*
X123190000Y-128905000D01*
X128778000Y-128905000D01*
X128826601Y-128895333D01*
X128867803Y-128867803D01*
X128878401Y-128851942D01*
X128903161Y-128976418D01*
X129026495Y-129161000D01*
X122841543Y-129161000D01*
X123035718Y-128625721D01*
X123009315Y-128035542D01*
X122834259Y-127612920D01*
X122582958Y-127532647D01*
X121718605Y-128397000D01*
X121732748Y-128411143D01*
X121553143Y-128590748D01*
X121539000Y-128576605D01*
X121524858Y-128590748D01*
X121345253Y-128411143D01*
X121359395Y-128397000D01*
X120495042Y-127532647D01*
X120258037Y-127608353D01*
X120087444Y-127353042D01*
X120674647Y-127353042D01*
X121539000Y-128217395D01*
X122403353Y-127353042D01*
X122323080Y-127101741D01*
X121767721Y-126900282D01*
X121177542Y-126926685D01*
X120754920Y-127101741D01*
X120674647Y-127353042D01*
X120087444Y-127353042D01*
X120069625Y-127326375D01*
X119578418Y-126998161D01*
X119145256Y-126912000D01*
X119018802Y-126912000D01*
X119311802Y-126619000D01*
X122629394Y-126619000D01*
X123063000Y-127052606D01*
X123063000Y-127052606D01*
G37*
X123063000Y-127052606D02*
X123063000Y-128778000D01*
X123072667Y-128826601D01*
X123100197Y-128867803D01*
X123141399Y-128895333D01*
X123190000Y-128905000D01*
X128778000Y-128905000D01*
X128826601Y-128895333D01*
X128867803Y-128867803D01*
X128878401Y-128851942D01*
X128903161Y-128976418D01*
X129026495Y-129161000D01*
X122841543Y-129161000D01*
X123035718Y-128625721D01*
X123009315Y-128035542D01*
X122834259Y-127612920D01*
X122582958Y-127532647D01*
X121718605Y-128397000D01*
X121732748Y-128411143D01*
X121553143Y-128590748D01*
X121539000Y-128576605D01*
X121524858Y-128590748D01*
X121345253Y-128411143D01*
X121359395Y-128397000D01*
X120495042Y-127532647D01*
X120258037Y-127608353D01*
X120087444Y-127353042D01*
X120674647Y-127353042D01*
X121539000Y-128217395D01*
X122403353Y-127353042D01*
X122323080Y-127101741D01*
X121767721Y-126900282D01*
X121177542Y-126926685D01*
X120754920Y-127101741D01*
X120674647Y-127353042D01*
X120087444Y-127353042D01*
X120069625Y-127326375D01*
X119578418Y-126998161D01*
X119145256Y-126912000D01*
X119018802Y-126912000D01*
X119311802Y-126619000D01*
X122629394Y-126619000D01*
X123063000Y-127052606D01*
G36*
X144661000Y-123152132D02*
X144661000Y-124629467D01*
X144661001Y-124629472D01*
X144661000Y-126337883D01*
X144638765Y-126449667D01*
X144677127Y-126642527D01*
X144726854Y-126892521D01*
X144843080Y-127066466D01*
X144757920Y-127101741D01*
X144677647Y-127353042D01*
X145542000Y-128217395D01*
X145556143Y-128203253D01*
X145735748Y-128382858D01*
X145721605Y-128397000D01*
X145735748Y-128411143D01*
X145556143Y-128590748D01*
X145542000Y-128576605D01*
X145527858Y-128590748D01*
X145348253Y-128411143D01*
X145362395Y-128397000D01*
X144498042Y-127532647D01*
X144261037Y-127608353D01*
X144072625Y-127326375D01*
X143581418Y-126998161D01*
X143148256Y-126912000D01*
X142855744Y-126912000D01*
X142422582Y-126998161D01*
X141931375Y-127326375D01*
X141732000Y-127624761D01*
X141532625Y-127326375D01*
X141041418Y-126998161D01*
X140608256Y-126912000D01*
X140315744Y-126912000D01*
X139882582Y-126998161D01*
X139391375Y-127326375D01*
X139192000Y-127624761D01*
X138992625Y-127326375D01*
X138501418Y-126998161D01*
X138068256Y-126912000D01*
X137775744Y-126912000D01*
X137342582Y-126998161D01*
X136851375Y-127326375D01*
X136652000Y-127624761D01*
X136452625Y-127326375D01*
X135961418Y-126998161D01*
X135528256Y-126912000D01*
X135235744Y-126912000D01*
X134802582Y-126998161D01*
X134311375Y-127326375D01*
X134112000Y-127624761D01*
X133912625Y-127326375D01*
X133719481Y-127197320D01*
X134934802Y-125982000D01*
X135694289Y-125982000D01*
X135811720Y-126099431D01*
X136192126Y-126257000D01*
X136603874Y-126257000D01*
X136984280Y-126099431D01*
X137275431Y-125808280D01*
X137433000Y-125427874D01*
X137433000Y-125016126D01*
X137275431Y-124635720D01*
X136984280Y-124344569D01*
X136603874Y-124187000D01*
X136192126Y-124187000D01*
X135811720Y-124344569D01*
X135694289Y-124462000D01*
X134694848Y-124462000D01*
X134620000Y-124447112D01*
X134545152Y-124462000D01*
X134545148Y-124462000D01*
X134371605Y-124496520D01*
X134323462Y-124506096D01*
X134138824Y-124629468D01*
X134072071Y-124674071D01*
X134029671Y-124737527D01*
X132357528Y-126409671D01*
X132294072Y-126452071D01*
X132251672Y-126515527D01*
X132251671Y-126515528D01*
X132126097Y-126703463D01*
X132067112Y-127000000D01*
X132082001Y-127074851D01*
X132082001Y-127118821D01*
X131771375Y-127326375D01*
X131572000Y-127624761D01*
X131437000Y-127422719D01*
X131437000Y-126454131D01*
X134880290Y-123010842D01*
X134988528Y-122989312D01*
X135080288Y-122928000D01*
X144436869Y-122928000D01*
X144661000Y-123152132D01*
X144661000Y-123152132D01*
G37*
X144661000Y-123152132D02*
X144661000Y-124629467D01*
X144661001Y-124629472D01*
X144661000Y-126337883D01*
X144638765Y-126449667D01*
X144677127Y-126642527D01*
X144726854Y-126892521D01*
X144843080Y-127066466D01*
X144757920Y-127101741D01*
X144677647Y-127353042D01*
X145542000Y-128217395D01*
X145556143Y-128203253D01*
X145735748Y-128382858D01*
X145721605Y-128397000D01*
X145735748Y-128411143D01*
X145556143Y-128590748D01*
X145542000Y-128576605D01*
X145527858Y-128590748D01*
X145348253Y-128411143D01*
X145362395Y-128397000D01*
X144498042Y-127532647D01*
X144261037Y-127608353D01*
X144072625Y-127326375D01*
X143581418Y-126998161D01*
X143148256Y-126912000D01*
X142855744Y-126912000D01*
X142422582Y-126998161D01*
X141931375Y-127326375D01*
X141732000Y-127624761D01*
X141532625Y-127326375D01*
X141041418Y-126998161D01*
X140608256Y-126912000D01*
X140315744Y-126912000D01*
X139882582Y-126998161D01*
X139391375Y-127326375D01*
X139192000Y-127624761D01*
X138992625Y-127326375D01*
X138501418Y-126998161D01*
X138068256Y-126912000D01*
X137775744Y-126912000D01*
X137342582Y-126998161D01*
X136851375Y-127326375D01*
X136652000Y-127624761D01*
X136452625Y-127326375D01*
X135961418Y-126998161D01*
X135528256Y-126912000D01*
X135235744Y-126912000D01*
X134802582Y-126998161D01*
X134311375Y-127326375D01*
X134112000Y-127624761D01*
X133912625Y-127326375D01*
X133719481Y-127197320D01*
X134934802Y-125982000D01*
X135694289Y-125982000D01*
X135811720Y-126099431D01*
X136192126Y-126257000D01*
X136603874Y-126257000D01*
X136984280Y-126099431D01*
X137275431Y-125808280D01*
X137433000Y-125427874D01*
X137433000Y-125016126D01*
X137275431Y-124635720D01*
X136984280Y-124344569D01*
X136603874Y-124187000D01*
X136192126Y-124187000D01*
X135811720Y-124344569D01*
X135694289Y-124462000D01*
X134694848Y-124462000D01*
X134620000Y-124447112D01*
X134545152Y-124462000D01*
X134545148Y-124462000D01*
X134371605Y-124496520D01*
X134323462Y-124506096D01*
X134138824Y-124629468D01*
X134072071Y-124674071D01*
X134029671Y-124737527D01*
X132357528Y-126409671D01*
X132294072Y-126452071D01*
X132251672Y-126515527D01*
X132251671Y-126515528D01*
X132126097Y-126703463D01*
X132067112Y-127000000D01*
X132082001Y-127074851D01*
X132082001Y-127118821D01*
X131771375Y-127326375D01*
X131572000Y-127624761D01*
X131437000Y-127422719D01*
X131437000Y-126454131D01*
X134880290Y-123010842D01*
X134988528Y-122989312D01*
X135080288Y-122928000D01*
X144436869Y-122928000D01*
X144661000Y-123152132D01*
G36*
X162307920Y-125476000D02*
X162307924Y-125476000D01*
X162433000Y-125500879D01*
X162558076Y-125476000D01*
X164573950Y-125476000D01*
X166399531Y-127301581D01*
X166409219Y-127316081D01*
X165933418Y-126998161D01*
X165500256Y-126912000D01*
X165207744Y-126912000D01*
X164774582Y-126998161D01*
X164283375Y-127326375D01*
X164084000Y-127624761D01*
X163884625Y-127326375D01*
X163588577Y-127128562D01*
X163588888Y-127126999D01*
X163574000Y-127052152D01*
X163574000Y-127052148D01*
X163529904Y-126830463D01*
X163361929Y-126579071D01*
X163298473Y-126536671D01*
X162261331Y-125499530D01*
X162236058Y-125461706D01*
X162307920Y-125476000D01*
X162307920Y-125476000D01*
G37*
X162307920Y-125476000D02*
X162307924Y-125476000D01*
X162433000Y-125500879D01*
X162558076Y-125476000D01*
X164573950Y-125476000D01*
X166399531Y-127301581D01*
X166409219Y-127316081D01*
X165933418Y-126998161D01*
X165500256Y-126912000D01*
X165207744Y-126912000D01*
X164774582Y-126998161D01*
X164283375Y-127326375D01*
X164084000Y-127624761D01*
X163884625Y-127326375D01*
X163588577Y-127128562D01*
X163588888Y-127126999D01*
X163574000Y-127052152D01*
X163574000Y-127052148D01*
X163529904Y-126830463D01*
X163361929Y-126579071D01*
X163298473Y-126536671D01*
X162261331Y-125499530D01*
X162236058Y-125461706D01*
X162307920Y-125476000D01*
G36*
X131534191Y-101129809D02*
X131572001Y-101155073D01*
X131572000Y-103760925D01*
X131547121Y-103886000D01*
X131572000Y-104011075D01*
X131572000Y-104011079D01*
X131645687Y-104381528D01*
X131926382Y-104801618D01*
X132032421Y-104872471D01*
X135665531Y-108505582D01*
X135736382Y-108611618D01*
X135842418Y-108682469D01*
X135842419Y-108682470D01*
X135914416Y-108730577D01*
X136156471Y-108892313D01*
X136526920Y-108966000D01*
X136526924Y-108966000D01*
X136652000Y-108990879D01*
X136777076Y-108966000D01*
X147809950Y-108966000D01*
X148694855Y-109850906D01*
X147801748Y-110744014D01*
X147665232Y-110835231D01*
X147574015Y-110971747D01*
X147303865Y-111376055D01*
X147176969Y-112014000D01*
X147209001Y-112175034D01*
X147209000Y-117127889D01*
X147176969Y-117288919D01*
X147209000Y-117449949D01*
X147303864Y-117926863D01*
X147665231Y-118467688D01*
X147801750Y-118558907D01*
X149876000Y-120633159D01*
X149876000Y-121319030D01*
X149970864Y-121795944D01*
X150332231Y-122336769D01*
X150873055Y-122698136D01*
X151349944Y-122792995D01*
X151551418Y-122994469D01*
X151551421Y-122994471D01*
X151785950Y-123229000D01*
X151618744Y-123229000D01*
X151185582Y-123315161D01*
X150694375Y-123643375D01*
X150679904Y-123665033D01*
X150613327Y-123504302D01*
X150434699Y-123325673D01*
X150201310Y-123229000D01*
X149510750Y-123229000D01*
X149352000Y-123387750D01*
X149352000Y-124587000D01*
X149372000Y-124587000D01*
X149372000Y-124841000D01*
X149352000Y-124841000D01*
X149352000Y-124861000D01*
X149098000Y-124861000D01*
X149098000Y-124841000D01*
X147898750Y-124841000D01*
X147740000Y-124999750D01*
X147740000Y-125690309D01*
X147836673Y-125923698D01*
X148015301Y-126102327D01*
X148176032Y-126168904D01*
X148154375Y-126183375D01*
X147826161Y-126674582D01*
X147792960Y-126841495D01*
X146931000Y-125979536D01*
X146931000Y-123737691D01*
X147740000Y-123737691D01*
X147740000Y-124428250D01*
X147898750Y-124587000D01*
X149098000Y-124587000D01*
X149098000Y-123387750D01*
X148939250Y-123229000D01*
X148248690Y-123229000D01*
X148015301Y-123325673D01*
X147836673Y-123504302D01*
X147740000Y-123737691D01*
X146931000Y-123737691D01*
X146931000Y-122793783D01*
X146953235Y-122682000D01*
X146865146Y-122239145D01*
X146771626Y-122099183D01*
X146614289Y-121863711D01*
X146519521Y-121800389D01*
X145788613Y-121069481D01*
X145725289Y-120974711D01*
X145349855Y-120723854D01*
X145018783Y-120658000D01*
X144907000Y-120635765D01*
X144795217Y-120658000D01*
X135154051Y-120658000D01*
X129002471Y-114506421D01*
X128931618Y-114400382D01*
X128511529Y-114119687D01*
X128141080Y-114046000D01*
X128141075Y-114046000D01*
X128016000Y-114021121D01*
X127890925Y-114046000D01*
X126413784Y-114046000D01*
X126015439Y-113881000D01*
X125444561Y-113881000D01*
X125017902Y-114057728D01*
X126215747Y-112859883D01*
X126279371Y-112817371D01*
X126447788Y-112565317D01*
X126492000Y-112343048D01*
X126492000Y-112343044D01*
X126506927Y-112268001D01*
X126492000Y-112192958D01*
X126492000Y-108912707D01*
X126764577Y-108730577D01*
X127081740Y-108255909D01*
X127193113Y-107696000D01*
X127081740Y-107136091D01*
X126764577Y-106661423D01*
X126289909Y-106344260D01*
X125871333Y-106261000D01*
X125588667Y-106261000D01*
X125170091Y-106344260D01*
X124695423Y-106661423D01*
X124378260Y-107136091D01*
X124325000Y-107403847D01*
X124325000Y-103102506D01*
X124345000Y-103102506D01*
X124345000Y-103653494D01*
X124555853Y-104162540D01*
X124945460Y-104552147D01*
X125454506Y-104763000D01*
X126005494Y-104763000D01*
X126514540Y-104552147D01*
X126904147Y-104162540D01*
X127115000Y-103653494D01*
X127115000Y-103102506D01*
X126904147Y-102593460D01*
X126514540Y-102203853D01*
X126005494Y-101993000D01*
X125454506Y-101993000D01*
X124945460Y-102203853D01*
X124555853Y-102593460D01*
X124345000Y-103102506D01*
X124325000Y-103102506D01*
X124325000Y-101661687D01*
X124364147Y-101622540D01*
X124479148Y-101344903D01*
X124732051Y-101092000D01*
X131508928Y-101092000D01*
X131534191Y-101129809D01*
X131534191Y-101129809D01*
G37*
X131534191Y-101129809D02*
X131572001Y-101155073D01*
X131572000Y-103760925D01*
X131547121Y-103886000D01*
X131572000Y-104011075D01*
X131572000Y-104011079D01*
X131645687Y-104381528D01*
X131926382Y-104801618D01*
X132032421Y-104872471D01*
X135665531Y-108505582D01*
X135736382Y-108611618D01*
X135842418Y-108682469D01*
X135842419Y-108682470D01*
X135914416Y-108730577D01*
X136156471Y-108892313D01*
X136526920Y-108966000D01*
X136526924Y-108966000D01*
X136652000Y-108990879D01*
X136777076Y-108966000D01*
X147809950Y-108966000D01*
X148694855Y-109850906D01*
X147801748Y-110744014D01*
X147665232Y-110835231D01*
X147574015Y-110971747D01*
X147303865Y-111376055D01*
X147176969Y-112014000D01*
X147209001Y-112175034D01*
X147209000Y-117127889D01*
X147176969Y-117288919D01*
X147209000Y-117449949D01*
X147303864Y-117926863D01*
X147665231Y-118467688D01*
X147801750Y-118558907D01*
X149876000Y-120633159D01*
X149876000Y-121319030D01*
X149970864Y-121795944D01*
X150332231Y-122336769D01*
X150873055Y-122698136D01*
X151349944Y-122792995D01*
X151551418Y-122994469D01*
X151551421Y-122994471D01*
X151785950Y-123229000D01*
X151618744Y-123229000D01*
X151185582Y-123315161D01*
X150694375Y-123643375D01*
X150679904Y-123665033D01*
X150613327Y-123504302D01*
X150434699Y-123325673D01*
X150201310Y-123229000D01*
X149510750Y-123229000D01*
X149352000Y-123387750D01*
X149352000Y-124587000D01*
X149372000Y-124587000D01*
X149372000Y-124841000D01*
X149352000Y-124841000D01*
X149352000Y-124861000D01*
X149098000Y-124861000D01*
X149098000Y-124841000D01*
X147898750Y-124841000D01*
X147740000Y-124999750D01*
X147740000Y-125690309D01*
X147836673Y-125923698D01*
X148015301Y-126102327D01*
X148176032Y-126168904D01*
X148154375Y-126183375D01*
X147826161Y-126674582D01*
X147792960Y-126841495D01*
X146931000Y-125979536D01*
X146931000Y-123737691D01*
X147740000Y-123737691D01*
X147740000Y-124428250D01*
X147898750Y-124587000D01*
X149098000Y-124587000D01*
X149098000Y-123387750D01*
X148939250Y-123229000D01*
X148248690Y-123229000D01*
X148015301Y-123325673D01*
X147836673Y-123504302D01*
X147740000Y-123737691D01*
X146931000Y-123737691D01*
X146931000Y-122793783D01*
X146953235Y-122682000D01*
X146865146Y-122239145D01*
X146771626Y-122099183D01*
X146614289Y-121863711D01*
X146519521Y-121800389D01*
X145788613Y-121069481D01*
X145725289Y-120974711D01*
X145349855Y-120723854D01*
X145018783Y-120658000D01*
X144907000Y-120635765D01*
X144795217Y-120658000D01*
X135154051Y-120658000D01*
X129002471Y-114506421D01*
X128931618Y-114400382D01*
X128511529Y-114119687D01*
X128141080Y-114046000D01*
X128141075Y-114046000D01*
X128016000Y-114021121D01*
X127890925Y-114046000D01*
X126413784Y-114046000D01*
X126015439Y-113881000D01*
X125444561Y-113881000D01*
X125017902Y-114057728D01*
X126215747Y-112859883D01*
X126279371Y-112817371D01*
X126447788Y-112565317D01*
X126492000Y-112343048D01*
X126492000Y-112343044D01*
X126506927Y-112268001D01*
X126492000Y-112192958D01*
X126492000Y-108912707D01*
X126764577Y-108730577D01*
X127081740Y-108255909D01*
X127193113Y-107696000D01*
X127081740Y-107136091D01*
X126764577Y-106661423D01*
X126289909Y-106344260D01*
X125871333Y-106261000D01*
X125588667Y-106261000D01*
X125170091Y-106344260D01*
X124695423Y-106661423D01*
X124378260Y-107136091D01*
X124325000Y-107403847D01*
X124325000Y-103102506D01*
X124345000Y-103102506D01*
X124345000Y-103653494D01*
X124555853Y-104162540D01*
X124945460Y-104552147D01*
X125454506Y-104763000D01*
X126005494Y-104763000D01*
X126514540Y-104552147D01*
X126904147Y-104162540D01*
X127115000Y-103653494D01*
X127115000Y-103102506D01*
X126904147Y-102593460D01*
X126514540Y-102203853D01*
X126005494Y-101993000D01*
X125454506Y-101993000D01*
X124945460Y-102203853D01*
X124555853Y-102593460D01*
X124345000Y-103102506D01*
X124325000Y-103102506D01*
X124325000Y-101661687D01*
X124364147Y-101622540D01*
X124479148Y-101344903D01*
X124732051Y-101092000D01*
X131508928Y-101092000D01*
X131534191Y-101129809D01*
G36*
X195366111Y-118618451D02*
X195916910Y-118846600D01*
X196513090Y-118846600D01*
X197063889Y-118618451D01*
X197441584Y-118240757D01*
X197871331Y-118670504D01*
X198444697Y-118908000D01*
X199065303Y-118908000D01*
X199525001Y-118717587D01*
X199525000Y-123036949D01*
X199117950Y-123444000D01*
X198654232Y-123444000D01*
X198249945Y-123173864D01*
X197773031Y-123079000D01*
X184819031Y-123079000D01*
X184658000Y-123046969D01*
X184496969Y-123079000D01*
X184020055Y-123173864D01*
X183479231Y-123535231D01*
X183117864Y-124076055D01*
X183073437Y-124299405D01*
X182714000Y-124658842D01*
X182714000Y-124586998D01*
X182549820Y-124586998D01*
X182670486Y-124357108D01*
X182424183Y-123832642D01*
X181995924Y-123442355D01*
X181585890Y-123272524D01*
X181356000Y-123393845D01*
X181356000Y-124587000D01*
X181376000Y-124587000D01*
X181376000Y-124841000D01*
X181356000Y-124841000D01*
X181356000Y-124861000D01*
X181102000Y-124861000D01*
X181102000Y-124841000D01*
X178816000Y-124841000D01*
X178816000Y-124861000D01*
X178562000Y-124861000D01*
X178562000Y-124841000D01*
X177362750Y-124841000D01*
X177204000Y-124999750D01*
X177204000Y-125292415D01*
X176849999Y-125222000D01*
X176849994Y-125222000D01*
X176724919Y-125197121D01*
X176599844Y-125222000D01*
X167912051Y-125222000D01*
X166086471Y-123396421D01*
X166015618Y-123290382D01*
X165595529Y-123009687D01*
X165225080Y-122936000D01*
X165225075Y-122936000D01*
X165100000Y-122911121D01*
X164974925Y-122936000D01*
X162959051Y-122936000D01*
X162447922Y-122424871D01*
X162741625Y-122228625D01*
X162941000Y-121930239D01*
X163140375Y-122228625D01*
X163631582Y-122556839D01*
X164064744Y-122643000D01*
X164357256Y-122643000D01*
X164790418Y-122556839D01*
X165281625Y-122228625D01*
X165481000Y-121930239D01*
X165680375Y-122228625D01*
X166171582Y-122556839D01*
X166604744Y-122643000D01*
X166897256Y-122643000D01*
X167330418Y-122556839D01*
X167821625Y-122228625D01*
X168021000Y-121930239D01*
X168220375Y-122228625D01*
X168711582Y-122556839D01*
X169144744Y-122643000D01*
X169437256Y-122643000D01*
X169870418Y-122556839D01*
X170361625Y-122228625D01*
X170561000Y-121930239D01*
X170760375Y-122228625D01*
X171071001Y-122436178D01*
X171071001Y-122626752D01*
X170922972Y-122984126D01*
X170922972Y-123395874D01*
X171080541Y-123776280D01*
X171371692Y-124067431D01*
X171752098Y-124225000D01*
X172163846Y-124225000D01*
X172544252Y-124067431D01*
X172719987Y-123891696D01*
X172895721Y-124067430D01*
X173276127Y-124224999D01*
X173687875Y-124224999D01*
X174068281Y-124067430D01*
X174359432Y-123776279D01*
X174375415Y-123737691D01*
X177204000Y-123737691D01*
X177204000Y-124428250D01*
X177362750Y-124587000D01*
X178562000Y-124587000D01*
X178562000Y-123387750D01*
X178816000Y-123387750D01*
X178816000Y-124587000D01*
X181102000Y-124587000D01*
X181102000Y-123393845D01*
X180872110Y-123272524D01*
X180462076Y-123442355D01*
X180164136Y-123713878D01*
X180077327Y-123504302D01*
X179898699Y-123325673D01*
X179665310Y-123229000D01*
X178974750Y-123229000D01*
X178816000Y-123387750D01*
X178562000Y-123387750D01*
X178403250Y-123229000D01*
X177712690Y-123229000D01*
X177479301Y-123325673D01*
X177300673Y-123504302D01*
X177204000Y-123737691D01*
X174375415Y-123737691D01*
X174517001Y-123395873D01*
X174517001Y-122984125D01*
X174375703Y-122643000D01*
X174517256Y-122643000D01*
X174950418Y-122556839D01*
X175441625Y-122228625D01*
X175641000Y-121930239D01*
X175840375Y-122228625D01*
X176331582Y-122556839D01*
X176764744Y-122643000D01*
X177057256Y-122643000D01*
X177490418Y-122556839D01*
X177981625Y-122228625D01*
X178181000Y-121930239D01*
X178380375Y-122228625D01*
X178871582Y-122556839D01*
X179304744Y-122643000D01*
X179597256Y-122643000D01*
X180030418Y-122556839D01*
X180521625Y-122228625D01*
X180721000Y-121930239D01*
X180920375Y-122228625D01*
X181411582Y-122556839D01*
X181844744Y-122643000D01*
X182137256Y-122643000D01*
X182570418Y-122556839D01*
X183061625Y-122228625D01*
X183274843Y-121909522D01*
X183335817Y-122039358D01*
X183764076Y-122429645D01*
X184174110Y-122599476D01*
X184404000Y-122478155D01*
X184404000Y-121285000D01*
X184384000Y-121285000D01*
X184384000Y-121031000D01*
X184404000Y-121031000D01*
X184404000Y-119837845D01*
X184658000Y-119837845D01*
X184658000Y-121031000D01*
X184678000Y-121031000D01*
X184678000Y-121285000D01*
X184658000Y-121285000D01*
X184658000Y-122478155D01*
X184887890Y-122599476D01*
X185297924Y-122429645D01*
X185726183Y-122039358D01*
X185787157Y-121909522D01*
X186000375Y-122228625D01*
X186491582Y-122556839D01*
X186924744Y-122643000D01*
X187217256Y-122643000D01*
X187650418Y-122556839D01*
X188141625Y-122228625D01*
X188341000Y-121930239D01*
X188540375Y-122228625D01*
X189031582Y-122556839D01*
X189464744Y-122643000D01*
X189757256Y-122643000D01*
X190190418Y-122556839D01*
X190681625Y-122228625D01*
X190881000Y-121930239D01*
X191080375Y-122228625D01*
X191571582Y-122556839D01*
X192004744Y-122643000D01*
X192297256Y-122643000D01*
X192730418Y-122556839D01*
X193221625Y-122228625D01*
X193421000Y-121930239D01*
X193620375Y-122228625D01*
X194111582Y-122556839D01*
X194544744Y-122643000D01*
X194837256Y-122643000D01*
X195270418Y-122556839D01*
X195761625Y-122228625D01*
X195950209Y-121946389D01*
X195972078Y-121999185D01*
X196389815Y-122416922D01*
X196935615Y-122643000D01*
X197526385Y-122643000D01*
X198072185Y-122416922D01*
X198489922Y-121999185D01*
X198716000Y-121453385D01*
X198716000Y-120862615D01*
X198489922Y-120316815D01*
X198072185Y-119899078D01*
X197526385Y-119673000D01*
X196935615Y-119673000D01*
X196389815Y-119899078D01*
X195972078Y-120316815D01*
X195950209Y-120369611D01*
X195761625Y-120087375D01*
X195270418Y-119759161D01*
X194837256Y-119673000D01*
X194544744Y-119673000D01*
X194111582Y-119759161D01*
X193620375Y-120087375D01*
X193421000Y-120385761D01*
X193221625Y-120087375D01*
X192730418Y-119759161D01*
X192297256Y-119673000D01*
X192004744Y-119673000D01*
X191571582Y-119759161D01*
X191080375Y-120087375D01*
X190881000Y-120385761D01*
X190681625Y-120087375D01*
X190190418Y-119759161D01*
X189757256Y-119673000D01*
X189464744Y-119673000D01*
X189031582Y-119759161D01*
X188540375Y-120087375D01*
X188341000Y-120385761D01*
X188141625Y-120087375D01*
X187650418Y-119759161D01*
X187217256Y-119673000D01*
X186924744Y-119673000D01*
X186491582Y-119759161D01*
X186000375Y-120087375D01*
X185787157Y-120406478D01*
X185726183Y-120276642D01*
X185297924Y-119886355D01*
X184887890Y-119716524D01*
X184658000Y-119837845D01*
X184404000Y-119837845D01*
X184174110Y-119716524D01*
X183764076Y-119886355D01*
X183335817Y-120276642D01*
X183274843Y-120406478D01*
X183061625Y-120087375D01*
X182570418Y-119759161D01*
X182137256Y-119673000D01*
X181844744Y-119673000D01*
X181411582Y-119759161D01*
X180920375Y-120087375D01*
X180721000Y-120385761D01*
X180521625Y-120087375D01*
X180030418Y-119759161D01*
X179597256Y-119673000D01*
X179346631Y-119673000D01*
X180320614Y-118699017D01*
X180676910Y-118846600D01*
X181273090Y-118846600D01*
X181823889Y-118618451D01*
X182245000Y-118197340D01*
X182666111Y-118618451D01*
X183216910Y-118846600D01*
X183813090Y-118846600D01*
X184363889Y-118618451D01*
X184785000Y-118197340D01*
X185206111Y-118618451D01*
X185756910Y-118846600D01*
X186353090Y-118846600D01*
X186903889Y-118618451D01*
X187325000Y-118197340D01*
X187746111Y-118618451D01*
X188296910Y-118846600D01*
X188893090Y-118846600D01*
X189443889Y-118618451D01*
X189865000Y-118197340D01*
X190286111Y-118618451D01*
X190836910Y-118846600D01*
X191433090Y-118846600D01*
X191983889Y-118618451D01*
X192405000Y-118197340D01*
X192826111Y-118618451D01*
X193376910Y-118846600D01*
X193973090Y-118846600D01*
X194523889Y-118618451D01*
X194945000Y-118197340D01*
X195366111Y-118618451D01*
X195366111Y-118618451D01*
G37*
X195366111Y-118618451D02*
X195916910Y-118846600D01*
X196513090Y-118846600D01*
X197063889Y-118618451D01*
X197441584Y-118240757D01*
X197871331Y-118670504D01*
X198444697Y-118908000D01*
X199065303Y-118908000D01*
X199525001Y-118717587D01*
X199525000Y-123036949D01*
X199117950Y-123444000D01*
X198654232Y-123444000D01*
X198249945Y-123173864D01*
X197773031Y-123079000D01*
X184819031Y-123079000D01*
X184658000Y-123046969D01*
X184496969Y-123079000D01*
X184020055Y-123173864D01*
X183479231Y-123535231D01*
X183117864Y-124076055D01*
X183073437Y-124299405D01*
X182714000Y-124658842D01*
X182714000Y-124586998D01*
X182549820Y-124586998D01*
X182670486Y-124357108D01*
X182424183Y-123832642D01*
X181995924Y-123442355D01*
X181585890Y-123272524D01*
X181356000Y-123393845D01*
X181356000Y-124587000D01*
X181376000Y-124587000D01*
X181376000Y-124841000D01*
X181356000Y-124841000D01*
X181356000Y-124861000D01*
X181102000Y-124861000D01*
X181102000Y-124841000D01*
X178816000Y-124841000D01*
X178816000Y-124861000D01*
X178562000Y-124861000D01*
X178562000Y-124841000D01*
X177362750Y-124841000D01*
X177204000Y-124999750D01*
X177204000Y-125292415D01*
X176849999Y-125222000D01*
X176849994Y-125222000D01*
X176724919Y-125197121D01*
X176599844Y-125222000D01*
X167912051Y-125222000D01*
X166086471Y-123396421D01*
X166015618Y-123290382D01*
X165595529Y-123009687D01*
X165225080Y-122936000D01*
X165225075Y-122936000D01*
X165100000Y-122911121D01*
X164974925Y-122936000D01*
X162959051Y-122936000D01*
X162447922Y-122424871D01*
X162741625Y-122228625D01*
X162941000Y-121930239D01*
X163140375Y-122228625D01*
X163631582Y-122556839D01*
X164064744Y-122643000D01*
X164357256Y-122643000D01*
X164790418Y-122556839D01*
X165281625Y-122228625D01*
X165481000Y-121930239D01*
X165680375Y-122228625D01*
X166171582Y-122556839D01*
X166604744Y-122643000D01*
X166897256Y-122643000D01*
X167330418Y-122556839D01*
X167821625Y-122228625D01*
X168021000Y-121930239D01*
X168220375Y-122228625D01*
X168711582Y-122556839D01*
X169144744Y-122643000D01*
X169437256Y-122643000D01*
X169870418Y-122556839D01*
X170361625Y-122228625D01*
X170561000Y-121930239D01*
X170760375Y-122228625D01*
X171071001Y-122436178D01*
X171071001Y-122626752D01*
X170922972Y-122984126D01*
X170922972Y-123395874D01*
X171080541Y-123776280D01*
X171371692Y-124067431D01*
X171752098Y-124225000D01*
X172163846Y-124225000D01*
X172544252Y-124067431D01*
X172719987Y-123891696D01*
X172895721Y-124067430D01*
X173276127Y-124224999D01*
X173687875Y-124224999D01*
X174068281Y-124067430D01*
X174359432Y-123776279D01*
X174375415Y-123737691D01*
X177204000Y-123737691D01*
X177204000Y-124428250D01*
X177362750Y-124587000D01*
X178562000Y-124587000D01*
X178562000Y-123387750D01*
X178816000Y-123387750D01*
X178816000Y-124587000D01*
X181102000Y-124587000D01*
X181102000Y-123393845D01*
X180872110Y-123272524D01*
X180462076Y-123442355D01*
X180164136Y-123713878D01*
X180077327Y-123504302D01*
X179898699Y-123325673D01*
X179665310Y-123229000D01*
X178974750Y-123229000D01*
X178816000Y-123387750D01*
X178562000Y-123387750D01*
X178403250Y-123229000D01*
X177712690Y-123229000D01*
X177479301Y-123325673D01*
X177300673Y-123504302D01*
X177204000Y-123737691D01*
X174375415Y-123737691D01*
X174517001Y-123395873D01*
X174517001Y-122984125D01*
X174375703Y-122643000D01*
X174517256Y-122643000D01*
X174950418Y-122556839D01*
X175441625Y-122228625D01*
X175641000Y-121930239D01*
X175840375Y-122228625D01*
X176331582Y-122556839D01*
X176764744Y-122643000D01*
X177057256Y-122643000D01*
X177490418Y-122556839D01*
X177981625Y-122228625D01*
X178181000Y-121930239D01*
X178380375Y-122228625D01*
X178871582Y-122556839D01*
X179304744Y-122643000D01*
X179597256Y-122643000D01*
X180030418Y-122556839D01*
X180521625Y-122228625D01*
X180721000Y-121930239D01*
X180920375Y-122228625D01*
X181411582Y-122556839D01*
X181844744Y-122643000D01*
X182137256Y-122643000D01*
X182570418Y-122556839D01*
X183061625Y-122228625D01*
X183274843Y-121909522D01*
X183335817Y-122039358D01*
X183764076Y-122429645D01*
X184174110Y-122599476D01*
X184404000Y-122478155D01*
X184404000Y-121285000D01*
X184384000Y-121285000D01*
X184384000Y-121031000D01*
X184404000Y-121031000D01*
X184404000Y-119837845D01*
X184658000Y-119837845D01*
X184658000Y-121031000D01*
X184678000Y-121031000D01*
X184678000Y-121285000D01*
X184658000Y-121285000D01*
X184658000Y-122478155D01*
X184887890Y-122599476D01*
X185297924Y-122429645D01*
X185726183Y-122039358D01*
X185787157Y-121909522D01*
X186000375Y-122228625D01*
X186491582Y-122556839D01*
X186924744Y-122643000D01*
X187217256Y-122643000D01*
X187650418Y-122556839D01*
X188141625Y-122228625D01*
X188341000Y-121930239D01*
X188540375Y-122228625D01*
X189031582Y-122556839D01*
X189464744Y-122643000D01*
X189757256Y-122643000D01*
X190190418Y-122556839D01*
X190681625Y-122228625D01*
X190881000Y-121930239D01*
X191080375Y-122228625D01*
X191571582Y-122556839D01*
X192004744Y-122643000D01*
X192297256Y-122643000D01*
X192730418Y-122556839D01*
X193221625Y-122228625D01*
X193421000Y-121930239D01*
X193620375Y-122228625D01*
X194111582Y-122556839D01*
X194544744Y-122643000D01*
X194837256Y-122643000D01*
X195270418Y-122556839D01*
X195761625Y-122228625D01*
X195950209Y-121946389D01*
X195972078Y-121999185D01*
X196389815Y-122416922D01*
X196935615Y-122643000D01*
X197526385Y-122643000D01*
X198072185Y-122416922D01*
X198489922Y-121999185D01*
X198716000Y-121453385D01*
X198716000Y-120862615D01*
X198489922Y-120316815D01*
X198072185Y-119899078D01*
X197526385Y-119673000D01*
X196935615Y-119673000D01*
X196389815Y-119899078D01*
X195972078Y-120316815D01*
X195950209Y-120369611D01*
X195761625Y-120087375D01*
X195270418Y-119759161D01*
X194837256Y-119673000D01*
X194544744Y-119673000D01*
X194111582Y-119759161D01*
X193620375Y-120087375D01*
X193421000Y-120385761D01*
X193221625Y-120087375D01*
X192730418Y-119759161D01*
X192297256Y-119673000D01*
X192004744Y-119673000D01*
X191571582Y-119759161D01*
X191080375Y-120087375D01*
X190881000Y-120385761D01*
X190681625Y-120087375D01*
X190190418Y-119759161D01*
X189757256Y-119673000D01*
X189464744Y-119673000D01*
X189031582Y-119759161D01*
X188540375Y-120087375D01*
X188341000Y-120385761D01*
X188141625Y-120087375D01*
X187650418Y-119759161D01*
X187217256Y-119673000D01*
X186924744Y-119673000D01*
X186491582Y-119759161D01*
X186000375Y-120087375D01*
X185787157Y-120406478D01*
X185726183Y-120276642D01*
X185297924Y-119886355D01*
X184887890Y-119716524D01*
X184658000Y-119837845D01*
X184404000Y-119837845D01*
X184174110Y-119716524D01*
X183764076Y-119886355D01*
X183335817Y-120276642D01*
X183274843Y-120406478D01*
X183061625Y-120087375D01*
X182570418Y-119759161D01*
X182137256Y-119673000D01*
X181844744Y-119673000D01*
X181411582Y-119759161D01*
X180920375Y-120087375D01*
X180721000Y-120385761D01*
X180521625Y-120087375D01*
X180030418Y-119759161D01*
X179597256Y-119673000D01*
X179346631Y-119673000D01*
X180320614Y-118699017D01*
X180676910Y-118846600D01*
X181273090Y-118846600D01*
X181823889Y-118618451D01*
X182245000Y-118197340D01*
X182666111Y-118618451D01*
X183216910Y-118846600D01*
X183813090Y-118846600D01*
X184363889Y-118618451D01*
X184785000Y-118197340D01*
X185206111Y-118618451D01*
X185756910Y-118846600D01*
X186353090Y-118846600D01*
X186903889Y-118618451D01*
X187325000Y-118197340D01*
X187746111Y-118618451D01*
X188296910Y-118846600D01*
X188893090Y-118846600D01*
X189443889Y-118618451D01*
X189865000Y-118197340D01*
X190286111Y-118618451D01*
X190836910Y-118846600D01*
X191433090Y-118846600D01*
X191983889Y-118618451D01*
X192405000Y-118197340D01*
X192826111Y-118618451D01*
X193376910Y-118846600D01*
X193973090Y-118846600D01*
X194523889Y-118618451D01*
X194945000Y-118197340D01*
X195366111Y-118618451D01*
G36*
X124025687Y-115811529D02*
X124306382Y-116231618D01*
X124726471Y-116512313D01*
X124999372Y-116566596D01*
X125444561Y-116751000D01*
X126015439Y-116751000D01*
X126413784Y-116586000D01*
X127489950Y-116586000D01*
X132792409Y-121888460D01*
X132372259Y-122308610D01*
X132334000Y-122301000D01*
X120902000Y-122301000D01*
X120902000Y-119948801D01*
X121635225Y-119215577D01*
X121643748Y-119209882D01*
X123675750Y-117177881D01*
X123739371Y-117135371D01*
X123907788Y-116883317D01*
X123952000Y-116661048D01*
X123952000Y-116661043D01*
X123966927Y-116586000D01*
X123952000Y-116510957D01*
X123952000Y-115441080D01*
X124025687Y-115811529D01*
X124025687Y-115811529D01*
G37*
X124025687Y-115811529D02*
X124306382Y-116231618D01*
X124726471Y-116512313D01*
X124999372Y-116566596D01*
X125444561Y-116751000D01*
X126015439Y-116751000D01*
X126413784Y-116586000D01*
X127489950Y-116586000D01*
X132792409Y-121888460D01*
X132372259Y-122308610D01*
X132334000Y-122301000D01*
X120902000Y-122301000D01*
X120902000Y-119948801D01*
X121635225Y-119215577D01*
X121643748Y-119209882D01*
X123675750Y-117177881D01*
X123739371Y-117135371D01*
X123907788Y-116883317D01*
X123952000Y-116661048D01*
X123952000Y-116661043D01*
X123966927Y-116586000D01*
X123952000Y-116510957D01*
X123952000Y-115441080D01*
X124025687Y-115811529D01*
G36*
X150565711Y-114737289D02*
X150941145Y-114988146D01*
X151272217Y-115054000D01*
X152109311Y-115054000D01*
X152138556Y-115097768D01*
X152386110Y-115263179D01*
X152284569Y-115364720D01*
X152127000Y-115745126D01*
X152127000Y-116156874D01*
X152284569Y-116537280D01*
X152575720Y-116828431D01*
X152889002Y-116958196D01*
X152889002Y-117299874D01*
X153046571Y-117680280D01*
X153337722Y-117971431D01*
X153718128Y-118129000D01*
X154129876Y-118129000D01*
X154510282Y-117971431D01*
X154801433Y-117680280D01*
X154959002Y-117299874D01*
X154959002Y-117136630D01*
X156017633Y-116078000D01*
X157178827Y-116078000D01*
X156792496Y-116464331D01*
X156555000Y-117037697D01*
X156555000Y-117658303D01*
X156792496Y-118231669D01*
X157231331Y-118670504D01*
X157804697Y-118908000D01*
X158425303Y-118908000D01*
X158998669Y-118670504D01*
X159199878Y-118469295D01*
X159333591Y-118669409D01*
X159543635Y-118809757D01*
X159791400Y-118859040D01*
X161518600Y-118859040D01*
X161766365Y-118809757D01*
X161976409Y-118669409D01*
X162116757Y-118459365D01*
X162128415Y-118400755D01*
X162346111Y-118618451D01*
X162896910Y-118846600D01*
X163493090Y-118846600D01*
X164043889Y-118618451D01*
X164465000Y-118197340D01*
X164886111Y-118618451D01*
X165436910Y-118846600D01*
X166033090Y-118846600D01*
X166583889Y-118618451D01*
X166800535Y-118401805D01*
X167400800Y-118401805D01*
X167482741Y-118654516D01*
X168043030Y-118858248D01*
X168638635Y-118832058D01*
X169067259Y-118654516D01*
X169149200Y-118401805D01*
X168275000Y-117527605D01*
X167400800Y-118401805D01*
X166800535Y-118401805D01*
X167005451Y-118196889D01*
X167021753Y-118157532D01*
X167221195Y-118222200D01*
X168095395Y-117348000D01*
X167221195Y-116473800D01*
X167021753Y-116538468D01*
X167005451Y-116499111D01*
X166584340Y-116078000D01*
X167470901Y-116078000D01*
X167400800Y-116294195D01*
X168275000Y-117168395D01*
X169149200Y-116294195D01*
X169079099Y-116078000D01*
X169965660Y-116078000D01*
X169544549Y-116499111D01*
X169528247Y-116538468D01*
X169328805Y-116473800D01*
X168454605Y-117348000D01*
X169328805Y-118222200D01*
X169528247Y-118157532D01*
X169544549Y-118196889D01*
X169966111Y-118618451D01*
X170516910Y-118846600D01*
X171113090Y-118846600D01*
X171663889Y-118618451D01*
X172085000Y-118197340D01*
X172506111Y-118618451D01*
X172972665Y-118811705D01*
X172089119Y-119695251D01*
X171977256Y-119673000D01*
X171684744Y-119673000D01*
X171251582Y-119759161D01*
X170760375Y-120087375D01*
X170561000Y-120385761D01*
X170361625Y-120087375D01*
X169870418Y-119759161D01*
X169437256Y-119673000D01*
X169144744Y-119673000D01*
X168711582Y-119759161D01*
X168220375Y-120087375D01*
X168021000Y-120385761D01*
X167821625Y-120087375D01*
X167330418Y-119759161D01*
X166897256Y-119673000D01*
X166604744Y-119673000D01*
X166171582Y-119759161D01*
X165680375Y-120087375D01*
X165481000Y-120385761D01*
X165281625Y-120087375D01*
X164790418Y-119759161D01*
X164357256Y-119673000D01*
X164064744Y-119673000D01*
X163631582Y-119759161D01*
X163140375Y-120087375D01*
X162941000Y-120385761D01*
X162741625Y-120087375D01*
X162250418Y-119759161D01*
X161817256Y-119673000D01*
X161524744Y-119673000D01*
X161091582Y-119759161D01*
X160600375Y-120087375D01*
X160401000Y-120385761D01*
X160201625Y-120087375D01*
X159710418Y-119759161D01*
X159277256Y-119673000D01*
X158984744Y-119673000D01*
X158551582Y-119759161D01*
X158060375Y-120087375D01*
X157861000Y-120385761D01*
X157661625Y-120087375D01*
X157170418Y-119759161D01*
X156737256Y-119673000D01*
X156444744Y-119673000D01*
X156011582Y-119759161D01*
X155520375Y-120087375D01*
X155321000Y-120385761D01*
X155121625Y-120087375D01*
X154630418Y-119759161D01*
X154197256Y-119673000D01*
X153904744Y-119673000D01*
X153471582Y-119759161D01*
X153177923Y-119955377D01*
X153051136Y-119317973D01*
X152780986Y-118913665D01*
X152780984Y-118913663D01*
X152689769Y-118777150D01*
X152553255Y-118685935D01*
X150479000Y-116611681D01*
X150479000Y-114607517D01*
X150565711Y-114737289D01*
X150565711Y-114737289D01*
G37*
X150565711Y-114737289D02*
X150941145Y-114988146D01*
X151272217Y-115054000D01*
X152109311Y-115054000D01*
X152138556Y-115097768D01*
X152386110Y-115263179D01*
X152284569Y-115364720D01*
X152127000Y-115745126D01*
X152127000Y-116156874D01*
X152284569Y-116537280D01*
X152575720Y-116828431D01*
X152889002Y-116958196D01*
X152889002Y-117299874D01*
X153046571Y-117680280D01*
X153337722Y-117971431D01*
X153718128Y-118129000D01*
X154129876Y-118129000D01*
X154510282Y-117971431D01*
X154801433Y-117680280D01*
X154959002Y-117299874D01*
X154959002Y-117136630D01*
X156017633Y-116078000D01*
X157178827Y-116078000D01*
X156792496Y-116464331D01*
X156555000Y-117037697D01*
X156555000Y-117658303D01*
X156792496Y-118231669D01*
X157231331Y-118670504D01*
X157804697Y-118908000D01*
X158425303Y-118908000D01*
X158998669Y-118670504D01*
X159199878Y-118469295D01*
X159333591Y-118669409D01*
X159543635Y-118809757D01*
X159791400Y-118859040D01*
X161518600Y-118859040D01*
X161766365Y-118809757D01*
X161976409Y-118669409D01*
X162116757Y-118459365D01*
X162128415Y-118400755D01*
X162346111Y-118618451D01*
X162896910Y-118846600D01*
X163493090Y-118846600D01*
X164043889Y-118618451D01*
X164465000Y-118197340D01*
X164886111Y-118618451D01*
X165436910Y-118846600D01*
X166033090Y-118846600D01*
X166583889Y-118618451D01*
X166800535Y-118401805D01*
X167400800Y-118401805D01*
X167482741Y-118654516D01*
X168043030Y-118858248D01*
X168638635Y-118832058D01*
X169067259Y-118654516D01*
X169149200Y-118401805D01*
X168275000Y-117527605D01*
X167400800Y-118401805D01*
X166800535Y-118401805D01*
X167005451Y-118196889D01*
X167021753Y-118157532D01*
X167221195Y-118222200D01*
X168095395Y-117348000D01*
X167221195Y-116473800D01*
X167021753Y-116538468D01*
X167005451Y-116499111D01*
X166584340Y-116078000D01*
X167470901Y-116078000D01*
X167400800Y-116294195D01*
X168275000Y-117168395D01*
X169149200Y-116294195D01*
X169079099Y-116078000D01*
X169965660Y-116078000D01*
X169544549Y-116499111D01*
X169528247Y-116538468D01*
X169328805Y-116473800D01*
X168454605Y-117348000D01*
X169328805Y-118222200D01*
X169528247Y-118157532D01*
X169544549Y-118196889D01*
X169966111Y-118618451D01*
X170516910Y-118846600D01*
X171113090Y-118846600D01*
X171663889Y-118618451D01*
X172085000Y-118197340D01*
X172506111Y-118618451D01*
X172972665Y-118811705D01*
X172089119Y-119695251D01*
X171977256Y-119673000D01*
X171684744Y-119673000D01*
X171251582Y-119759161D01*
X170760375Y-120087375D01*
X170561000Y-120385761D01*
X170361625Y-120087375D01*
X169870418Y-119759161D01*
X169437256Y-119673000D01*
X169144744Y-119673000D01*
X168711582Y-119759161D01*
X168220375Y-120087375D01*
X168021000Y-120385761D01*
X167821625Y-120087375D01*
X167330418Y-119759161D01*
X166897256Y-119673000D01*
X166604744Y-119673000D01*
X166171582Y-119759161D01*
X165680375Y-120087375D01*
X165481000Y-120385761D01*
X165281625Y-120087375D01*
X164790418Y-119759161D01*
X164357256Y-119673000D01*
X164064744Y-119673000D01*
X163631582Y-119759161D01*
X163140375Y-120087375D01*
X162941000Y-120385761D01*
X162741625Y-120087375D01*
X162250418Y-119759161D01*
X161817256Y-119673000D01*
X161524744Y-119673000D01*
X161091582Y-119759161D01*
X160600375Y-120087375D01*
X160401000Y-120385761D01*
X160201625Y-120087375D01*
X159710418Y-119759161D01*
X159277256Y-119673000D01*
X158984744Y-119673000D01*
X158551582Y-119759161D01*
X158060375Y-120087375D01*
X157861000Y-120385761D01*
X157661625Y-120087375D01*
X157170418Y-119759161D01*
X156737256Y-119673000D01*
X156444744Y-119673000D01*
X156011582Y-119759161D01*
X155520375Y-120087375D01*
X155321000Y-120385761D01*
X155121625Y-120087375D01*
X154630418Y-119759161D01*
X154197256Y-119673000D01*
X153904744Y-119673000D01*
X153471582Y-119759161D01*
X153177923Y-119955377D01*
X153051136Y-119317973D01*
X152780986Y-118913665D01*
X152780984Y-118913663D01*
X152689769Y-118777150D01*
X152553255Y-118685935D01*
X150479000Y-116611681D01*
X150479000Y-114607517D01*
X150565711Y-114737289D01*
G36*
X190286111Y-103378451D02*
X190836910Y-103606600D01*
X191085474Y-103606600D01*
X186599076Y-108093000D01*
X153831030Y-108093000D01*
X153670000Y-108060969D01*
X153508970Y-108093000D01*
X153508969Y-108093000D01*
X153032055Y-108187864D01*
X152491231Y-108549231D01*
X152400012Y-108685750D01*
X151976762Y-109109000D01*
X151545051Y-109109000D01*
X149322471Y-106886421D01*
X149251618Y-106780382D01*
X148831529Y-106499687D01*
X148461080Y-106426000D01*
X148461075Y-106426000D01*
X148336000Y-106401121D01*
X148210925Y-106426000D01*
X142687711Y-106426000D01*
X142863431Y-106250280D01*
X143001066Y-105918000D01*
X157418370Y-105918000D01*
X158412117Y-106911748D01*
X158454629Y-106975371D01*
X158518251Y-107017882D01*
X158706681Y-107143787D01*
X158706682Y-107143787D01*
X158706683Y-107143788D01*
X158928952Y-107188000D01*
X158928956Y-107188000D01*
X159003999Y-107202927D01*
X159079042Y-107188000D01*
X169270144Y-107188000D01*
X169302569Y-107266280D01*
X169593720Y-107557431D01*
X169974126Y-107715000D01*
X170385874Y-107715000D01*
X170766280Y-107557431D01*
X171057431Y-107266280D01*
X171089856Y-107188000D01*
X173914957Y-107188000D01*
X173990000Y-107202927D01*
X174065043Y-107188000D01*
X174065048Y-107188000D01*
X174287317Y-107143788D01*
X174539371Y-106975371D01*
X174581883Y-106911747D01*
X177650749Y-103842882D01*
X177714371Y-103800371D01*
X177882788Y-103548317D01*
X177891421Y-103504915D01*
X178136910Y-103606600D01*
X178733090Y-103606600D01*
X179283889Y-103378451D01*
X179705000Y-102957340D01*
X180126111Y-103378451D01*
X180676910Y-103606600D01*
X181273090Y-103606600D01*
X181823889Y-103378451D01*
X182245000Y-102957340D01*
X182666111Y-103378451D01*
X183216910Y-103606600D01*
X183813090Y-103606600D01*
X184363889Y-103378451D01*
X184785000Y-102957340D01*
X185206111Y-103378451D01*
X185756910Y-103606600D01*
X186353090Y-103606600D01*
X186903889Y-103378451D01*
X187325000Y-102957340D01*
X187746111Y-103378451D01*
X188296910Y-103606600D01*
X188893090Y-103606600D01*
X189443889Y-103378451D01*
X189865000Y-102957340D01*
X190286111Y-103378451D01*
X190286111Y-103378451D01*
G37*
X190286111Y-103378451D02*
X190836910Y-103606600D01*
X191085474Y-103606600D01*
X186599076Y-108093000D01*
X153831030Y-108093000D01*
X153670000Y-108060969D01*
X153508970Y-108093000D01*
X153508969Y-108093000D01*
X153032055Y-108187864D01*
X152491231Y-108549231D01*
X152400012Y-108685750D01*
X151976762Y-109109000D01*
X151545051Y-109109000D01*
X149322471Y-106886421D01*
X149251618Y-106780382D01*
X148831529Y-106499687D01*
X148461080Y-106426000D01*
X148461075Y-106426000D01*
X148336000Y-106401121D01*
X148210925Y-106426000D01*
X142687711Y-106426000D01*
X142863431Y-106250280D01*
X143001066Y-105918000D01*
X157418370Y-105918000D01*
X158412117Y-106911748D01*
X158454629Y-106975371D01*
X158518251Y-107017882D01*
X158706681Y-107143787D01*
X158706682Y-107143787D01*
X158706683Y-107143788D01*
X158928952Y-107188000D01*
X158928956Y-107188000D01*
X159003999Y-107202927D01*
X159079042Y-107188000D01*
X169270144Y-107188000D01*
X169302569Y-107266280D01*
X169593720Y-107557431D01*
X169974126Y-107715000D01*
X170385874Y-107715000D01*
X170766280Y-107557431D01*
X171057431Y-107266280D01*
X171089856Y-107188000D01*
X173914957Y-107188000D01*
X173990000Y-107202927D01*
X174065043Y-107188000D01*
X174065048Y-107188000D01*
X174287317Y-107143788D01*
X174539371Y-106975371D01*
X174581883Y-106911747D01*
X177650749Y-103842882D01*
X177714371Y-103800371D01*
X177882788Y-103548317D01*
X177891421Y-103504915D01*
X178136910Y-103606600D01*
X178733090Y-103606600D01*
X179283889Y-103378451D01*
X179705000Y-102957340D01*
X180126111Y-103378451D01*
X180676910Y-103606600D01*
X181273090Y-103606600D01*
X181823889Y-103378451D01*
X182245000Y-102957340D01*
X182666111Y-103378451D01*
X183216910Y-103606600D01*
X183813090Y-103606600D01*
X184363889Y-103378451D01*
X184785000Y-102957340D01*
X185206111Y-103378451D01*
X185756910Y-103606600D01*
X186353090Y-103606600D01*
X186903889Y-103378451D01*
X187325000Y-102957340D01*
X187746111Y-103378451D01*
X188296910Y-103606600D01*
X188893090Y-103606600D01*
X189443889Y-103378451D01*
X189865000Y-102957340D01*
X190286111Y-103378451D01*
G36*
X134311375Y-100892625D02*
X134620001Y-101098842D01*
X134620001Y-101270952D01*
X134605073Y-101346000D01*
X134664213Y-101643317D01*
X134777344Y-101812629D01*
X134832630Y-101895371D01*
X134896251Y-101937881D01*
X135806117Y-102847748D01*
X135848629Y-102911371D01*
X135912250Y-102953881D01*
X135912251Y-102953882D01*
X135974459Y-102995448D01*
X136100683Y-103079788D01*
X136322952Y-103124000D01*
X136322957Y-103124000D01*
X136398000Y-103138927D01*
X136473043Y-103124000D01*
X151830370Y-103124000D01*
X152570118Y-103863749D01*
X152612629Y-103927371D01*
X152864683Y-104095788D01*
X153086952Y-104140000D01*
X153086957Y-104140000D01*
X153162000Y-104154927D01*
X153237043Y-104140000D01*
X154492283Y-104140000D01*
X154607714Y-104255431D01*
X154942250Y-104394000D01*
X142569042Y-104394000D01*
X142493999Y-104379073D01*
X142418956Y-104394000D01*
X142418952Y-104394000D01*
X142196683Y-104438212D01*
X142196682Y-104438213D01*
X142196681Y-104438213D01*
X142145697Y-104472280D01*
X141944629Y-104606629D01*
X141929681Y-104629000D01*
X141780126Y-104629000D01*
X141399720Y-104786569D01*
X141108569Y-105077720D01*
X140951000Y-105458126D01*
X140951000Y-105869874D01*
X141108569Y-106250280D01*
X141284289Y-106426000D01*
X137178051Y-106426000D01*
X134112000Y-103359950D01*
X134112000Y-101155072D01*
X134149809Y-101129809D01*
X134290157Y-100919765D01*
X134299184Y-100874381D01*
X134311375Y-100892625D01*
X134311375Y-100892625D01*
G37*
X134311375Y-100892625D02*
X134620001Y-101098842D01*
X134620001Y-101270952D01*
X134605073Y-101346000D01*
X134664213Y-101643317D01*
X134777344Y-101812629D01*
X134832630Y-101895371D01*
X134896251Y-101937881D01*
X135806117Y-102847748D01*
X135848629Y-102911371D01*
X135912250Y-102953881D01*
X135912251Y-102953882D01*
X135974459Y-102995448D01*
X136100683Y-103079788D01*
X136322952Y-103124000D01*
X136322957Y-103124000D01*
X136398000Y-103138927D01*
X136473043Y-103124000D01*
X151830370Y-103124000D01*
X152570118Y-103863749D01*
X152612629Y-103927371D01*
X152864683Y-104095788D01*
X153086952Y-104140000D01*
X153086957Y-104140000D01*
X153162000Y-104154927D01*
X153237043Y-104140000D01*
X154492283Y-104140000D01*
X154607714Y-104255431D01*
X154942250Y-104394000D01*
X142569042Y-104394000D01*
X142493999Y-104379073D01*
X142418956Y-104394000D01*
X142418952Y-104394000D01*
X142196683Y-104438212D01*
X142196682Y-104438213D01*
X142196681Y-104438213D01*
X142145697Y-104472280D01*
X141944629Y-104606629D01*
X141929681Y-104629000D01*
X141780126Y-104629000D01*
X141399720Y-104786569D01*
X141108569Y-105077720D01*
X140951000Y-105458126D01*
X140951000Y-105869874D01*
X141108569Y-106250280D01*
X141284289Y-106426000D01*
X137178051Y-106426000D01*
X134112000Y-103359950D01*
X134112000Y-101155072D01*
X134149809Y-101129809D01*
X134290157Y-100919765D01*
X134299184Y-100874381D01*
X134311375Y-100892625D01*
G04 #@! TD*
M02*
