G04 #@! TF.GenerationSoftware,KiCad,Pcbnew,(5.0.2)-1*
G04 #@! TF.CreationDate,2019-01-14T22:25:42+09:00*
G04 #@! TF.ProjectId,Nixie_Module_BaseBoard,4e697869-655f-44d6-9f64-756c655f4261,rev?*
G04 #@! TF.SameCoordinates,Original*
G04 #@! TF.FileFunction,Soldermask,Top*
G04 #@! TF.FilePolarity,Negative*
%FSLAX46Y46*%
G04 Gerber Fmt 4.6, Leading zero omitted, Abs format (unit mm)*
G04 Created by KiCad (PCBNEW (5.0.2)-1) date 2019/01/14 22:25:42*
%MOMM*%
%LPD*%
G01*
G04 APERTURE LIST*
%ADD10C,0.300000*%
%ADD11C,0.010000*%
%ADD12C,0.100000*%
G04 APERTURE END LIST*
D10*
X158519142Y-111760857D02*
X158519142Y-110560857D01*
X159204857Y-111760857D01*
X159204857Y-110560857D01*
X159776285Y-111760857D02*
X159776285Y-110960857D01*
X159776285Y-110560857D02*
X159719142Y-110618000D01*
X159776285Y-110675142D01*
X159833428Y-110618000D01*
X159776285Y-110560857D01*
X159776285Y-110675142D01*
X160233428Y-111760857D02*
X160862000Y-110960857D01*
X160233428Y-110960857D02*
X160862000Y-111760857D01*
X161319142Y-111760857D02*
X161319142Y-110960857D01*
X161319142Y-110560857D02*
X161262000Y-110618000D01*
X161319142Y-110675142D01*
X161376285Y-110618000D01*
X161319142Y-110560857D01*
X161319142Y-110675142D01*
X162347714Y-111703714D02*
X162233428Y-111760857D01*
X162004857Y-111760857D01*
X161890571Y-111703714D01*
X161833428Y-111589428D01*
X161833428Y-111132285D01*
X161890571Y-111018000D01*
X162004857Y-110960857D01*
X162233428Y-110960857D01*
X162347714Y-111018000D01*
X162404857Y-111132285D01*
X162404857Y-111246571D01*
X161833428Y-111360857D01*
X163662000Y-110560857D02*
X164347714Y-110560857D01*
X164004857Y-111760857D02*
X164004857Y-110560857D01*
X165262000Y-110960857D02*
X165262000Y-111760857D01*
X164747714Y-110960857D02*
X164747714Y-111589428D01*
X164804857Y-111703714D01*
X164919142Y-111760857D01*
X165090571Y-111760857D01*
X165204857Y-111703714D01*
X165262000Y-111646571D01*
X165833428Y-111760857D02*
X165833428Y-110560857D01*
X165833428Y-111018000D02*
X165947714Y-110960857D01*
X166176285Y-110960857D01*
X166290571Y-111018000D01*
X166347714Y-111075142D01*
X166404857Y-111189428D01*
X166404857Y-111532285D01*
X166347714Y-111646571D01*
X166290571Y-111703714D01*
X166176285Y-111760857D01*
X165947714Y-111760857D01*
X165833428Y-111703714D01*
X167376285Y-111703714D02*
X167262000Y-111760857D01*
X167033428Y-111760857D01*
X166919142Y-111703714D01*
X166862000Y-111589428D01*
X166862000Y-111132285D01*
X166919142Y-111018000D01*
X167033428Y-110960857D01*
X167262000Y-110960857D01*
X167376285Y-111018000D01*
X167433428Y-111132285D01*
X167433428Y-111246571D01*
X166862000Y-111360857D01*
X169547714Y-111646571D02*
X169490571Y-111703714D01*
X169319142Y-111760857D01*
X169204857Y-111760857D01*
X169033428Y-111703714D01*
X168919142Y-111589428D01*
X168862000Y-111475142D01*
X168804857Y-111246571D01*
X168804857Y-111075142D01*
X168862000Y-110846571D01*
X168919142Y-110732285D01*
X169033428Y-110618000D01*
X169204857Y-110560857D01*
X169319142Y-110560857D01*
X169490571Y-110618000D01*
X169547714Y-110675142D01*
X170233428Y-111760857D02*
X170119142Y-111703714D01*
X170062000Y-111589428D01*
X170062000Y-110560857D01*
X170862000Y-111760857D02*
X170747714Y-111703714D01*
X170690571Y-111646571D01*
X170633428Y-111532285D01*
X170633428Y-111189428D01*
X170690571Y-111075142D01*
X170747714Y-111018000D01*
X170862000Y-110960857D01*
X171033428Y-110960857D01*
X171147714Y-111018000D01*
X171204857Y-111075142D01*
X171262000Y-111189428D01*
X171262000Y-111532285D01*
X171204857Y-111646571D01*
X171147714Y-111703714D01*
X171033428Y-111760857D01*
X170862000Y-111760857D01*
X172290571Y-111703714D02*
X172176285Y-111760857D01*
X171947714Y-111760857D01*
X171833428Y-111703714D01*
X171776285Y-111646571D01*
X171719142Y-111532285D01*
X171719142Y-111189428D01*
X171776285Y-111075142D01*
X171833428Y-111018000D01*
X171947714Y-110960857D01*
X172176285Y-110960857D01*
X172290571Y-111018000D01*
X172804857Y-111760857D02*
X172804857Y-110560857D01*
X172919142Y-111303714D02*
X173262000Y-111760857D01*
X173262000Y-110960857D02*
X172804857Y-111418000D01*
X159462000Y-113232285D02*
X159633428Y-113289428D01*
X159690571Y-113346571D01*
X159747714Y-113460857D01*
X159747714Y-113632285D01*
X159690571Y-113746571D01*
X159633428Y-113803714D01*
X159519142Y-113860857D01*
X159062000Y-113860857D01*
X159062000Y-112660857D01*
X159462000Y-112660857D01*
X159576285Y-112718000D01*
X159633428Y-112775142D01*
X159690571Y-112889428D01*
X159690571Y-113003714D01*
X159633428Y-113118000D01*
X159576285Y-113175142D01*
X159462000Y-113232285D01*
X159062000Y-113232285D01*
X160776285Y-113860857D02*
X160776285Y-113232285D01*
X160719142Y-113118000D01*
X160604857Y-113060857D01*
X160376285Y-113060857D01*
X160262000Y-113118000D01*
X160776285Y-113803714D02*
X160662000Y-113860857D01*
X160376285Y-113860857D01*
X160262000Y-113803714D01*
X160204857Y-113689428D01*
X160204857Y-113575142D01*
X160262000Y-113460857D01*
X160376285Y-113403714D01*
X160662000Y-113403714D01*
X160776285Y-113346571D01*
X161290571Y-113803714D02*
X161404857Y-113860857D01*
X161633428Y-113860857D01*
X161747714Y-113803714D01*
X161804857Y-113689428D01*
X161804857Y-113632285D01*
X161747714Y-113518000D01*
X161633428Y-113460857D01*
X161462000Y-113460857D01*
X161347714Y-113403714D01*
X161290571Y-113289428D01*
X161290571Y-113232285D01*
X161347714Y-113118000D01*
X161462000Y-113060857D01*
X161633428Y-113060857D01*
X161747714Y-113118000D01*
X162776285Y-113803714D02*
X162662000Y-113860857D01*
X162433428Y-113860857D01*
X162319142Y-113803714D01*
X162262000Y-113689428D01*
X162262000Y-113232285D01*
X162319142Y-113118000D01*
X162433428Y-113060857D01*
X162662000Y-113060857D01*
X162776285Y-113118000D01*
X162833428Y-113232285D01*
X162833428Y-113346571D01*
X162262000Y-113460857D01*
X163747714Y-113232285D02*
X163919142Y-113289428D01*
X163976285Y-113346571D01*
X164033428Y-113460857D01*
X164033428Y-113632285D01*
X163976285Y-113746571D01*
X163919142Y-113803714D01*
X163804857Y-113860857D01*
X163347714Y-113860857D01*
X163347714Y-112660857D01*
X163747714Y-112660857D01*
X163862000Y-112718000D01*
X163919142Y-112775142D01*
X163976285Y-112889428D01*
X163976285Y-113003714D01*
X163919142Y-113118000D01*
X163862000Y-113175142D01*
X163747714Y-113232285D01*
X163347714Y-113232285D01*
X164719142Y-113860857D02*
X164604857Y-113803714D01*
X164547714Y-113746571D01*
X164490571Y-113632285D01*
X164490571Y-113289428D01*
X164547714Y-113175142D01*
X164604857Y-113118000D01*
X164719142Y-113060857D01*
X164890571Y-113060857D01*
X165004857Y-113118000D01*
X165062000Y-113175142D01*
X165119142Y-113289428D01*
X165119142Y-113632285D01*
X165062000Y-113746571D01*
X165004857Y-113803714D01*
X164890571Y-113860857D01*
X164719142Y-113860857D01*
X166147714Y-113860857D02*
X166147714Y-113232285D01*
X166090571Y-113118000D01*
X165976285Y-113060857D01*
X165747714Y-113060857D01*
X165633428Y-113118000D01*
X166147714Y-113803714D02*
X166033428Y-113860857D01*
X165747714Y-113860857D01*
X165633428Y-113803714D01*
X165576285Y-113689428D01*
X165576285Y-113575142D01*
X165633428Y-113460857D01*
X165747714Y-113403714D01*
X166033428Y-113403714D01*
X166147714Y-113346571D01*
X166719142Y-113860857D02*
X166719142Y-113060857D01*
X166719142Y-113289428D02*
X166776285Y-113175142D01*
X166833428Y-113118000D01*
X166947714Y-113060857D01*
X167062000Y-113060857D01*
X167976285Y-113860857D02*
X167976285Y-112660857D01*
X167976285Y-113803714D02*
X167862000Y-113860857D01*
X167633428Y-113860857D01*
X167519142Y-113803714D01*
X167462000Y-113746571D01*
X167404857Y-113632285D01*
X167404857Y-113289428D01*
X167462000Y-113175142D01*
X167519142Y-113118000D01*
X167633428Y-113060857D01*
X167862000Y-113060857D01*
X167976285Y-113118000D01*
X169347714Y-113060857D02*
X169633428Y-113860857D01*
X169919142Y-113060857D01*
X170604857Y-112660857D02*
X170719142Y-112660857D01*
X170833428Y-112718000D01*
X170890571Y-112775142D01*
X170947714Y-112889428D01*
X171004857Y-113118000D01*
X171004857Y-113403714D01*
X170947714Y-113632285D01*
X170890571Y-113746571D01*
X170833428Y-113803714D01*
X170719142Y-113860857D01*
X170604857Y-113860857D01*
X170490571Y-113803714D01*
X170433428Y-113746571D01*
X170376285Y-113632285D01*
X170319142Y-113403714D01*
X170319142Y-113118000D01*
X170376285Y-112889428D01*
X170433428Y-112775142D01*
X170490571Y-112718000D01*
X170604857Y-112660857D01*
X171519142Y-113746571D02*
X171576285Y-113803714D01*
X171519142Y-113860857D01*
X171462000Y-113803714D01*
X171519142Y-113746571D01*
X171519142Y-113860857D01*
X172719142Y-113860857D02*
X172033428Y-113860857D01*
X172376285Y-113860857D02*
X172376285Y-112660857D01*
X172262000Y-112832285D01*
X172147714Y-112946571D01*
X172033428Y-113003714D01*
X105819142Y-103011857D02*
X105319142Y-103011857D01*
X105319142Y-103797571D02*
X105319142Y-102297571D01*
X106033428Y-102297571D01*
X107247714Y-103797571D02*
X107247714Y-103011857D01*
X107176285Y-102869000D01*
X107033428Y-102797571D01*
X106747714Y-102797571D01*
X106604857Y-102869000D01*
X107247714Y-103726142D02*
X107104857Y-103797571D01*
X106747714Y-103797571D01*
X106604857Y-103726142D01*
X106533428Y-103583285D01*
X106533428Y-103440428D01*
X106604857Y-103297571D01*
X106747714Y-103226142D01*
X107104857Y-103226142D01*
X107247714Y-103154714D01*
X107962000Y-103797571D02*
X107962000Y-102297571D01*
X107962000Y-102869000D02*
X108104857Y-102797571D01*
X108390571Y-102797571D01*
X108533428Y-102869000D01*
X108604857Y-102940428D01*
X108676285Y-103083285D01*
X108676285Y-103511857D01*
X108604857Y-103654714D01*
X108533428Y-103726142D01*
X108390571Y-103797571D01*
X108104857Y-103797571D01*
X107962000Y-103726142D01*
X109533428Y-103797571D02*
X109390571Y-103726142D01*
X109319142Y-103583285D01*
X109319142Y-102297571D01*
X110747714Y-103797571D02*
X110747714Y-103011857D01*
X110676285Y-102869000D01*
X110533428Y-102797571D01*
X110247714Y-102797571D01*
X110104857Y-102869000D01*
X110747714Y-103726142D02*
X110604857Y-103797571D01*
X110247714Y-103797571D01*
X110104857Y-103726142D01*
X110033428Y-103583285D01*
X110033428Y-103440428D01*
X110104857Y-103297571D01*
X110247714Y-103226142D01*
X110604857Y-103226142D01*
X110747714Y-103154714D01*
X111462000Y-103797571D02*
X111462000Y-102297571D01*
X111462000Y-102869000D02*
X111604857Y-102797571D01*
X111890571Y-102797571D01*
X112033428Y-102869000D01*
X112104857Y-102940428D01*
X112176285Y-103083285D01*
X112176285Y-103511857D01*
X112104857Y-103654714D01*
X112033428Y-103726142D01*
X111890571Y-103797571D01*
X111604857Y-103797571D01*
X111462000Y-103726142D01*
X105247714Y-106347571D02*
X105247714Y-104847571D01*
X106104857Y-106347571D02*
X105462000Y-105490428D01*
X106104857Y-104847571D02*
X105247714Y-105704714D01*
X107390571Y-106347571D02*
X107390571Y-105561857D01*
X107319142Y-105419000D01*
X107176285Y-105347571D01*
X106890571Y-105347571D01*
X106747714Y-105419000D01*
X107390571Y-106276142D02*
X107247714Y-106347571D01*
X106890571Y-106347571D01*
X106747714Y-106276142D01*
X106676285Y-106133285D01*
X106676285Y-105990428D01*
X106747714Y-105847571D01*
X106890571Y-105776142D01*
X107247714Y-105776142D01*
X107390571Y-105704714D01*
X108104857Y-105347571D02*
X108104857Y-106347571D01*
X108104857Y-105490428D02*
X108176285Y-105419000D01*
X108319142Y-105347571D01*
X108533428Y-105347571D01*
X108676285Y-105419000D01*
X108747714Y-105561857D01*
X108747714Y-106347571D01*
X109462000Y-105347571D02*
X109462000Y-106347571D01*
X109462000Y-105490428D02*
X109533428Y-105419000D01*
X109676285Y-105347571D01*
X109890571Y-105347571D01*
X110033428Y-105419000D01*
X110104857Y-105561857D01*
X110104857Y-106347571D01*
X111462000Y-106347571D02*
X111462000Y-105561857D01*
X111390571Y-105419000D01*
X111247714Y-105347571D01*
X110962000Y-105347571D01*
X110819142Y-105419000D01*
X111462000Y-106276142D02*
X111319142Y-106347571D01*
X110962000Y-106347571D01*
X110819142Y-106276142D01*
X110747714Y-106133285D01*
X110747714Y-105990428D01*
X110819142Y-105847571D01*
X110962000Y-105776142D01*
X111319142Y-105776142D01*
X111462000Y-105704714D01*
X112176285Y-106347571D02*
X112176285Y-105347571D01*
X112176285Y-104847571D02*
X112104857Y-104919000D01*
X112176285Y-104990428D01*
X112247714Y-104919000D01*
X112176285Y-104847571D01*
X112176285Y-104990428D01*
D11*
G04 #@! TO.C,G\002A\002A\002A*
G36*
X109202298Y-95053584D02*
X109641685Y-95111661D01*
X110049897Y-95221470D01*
X110376365Y-95358145D01*
X110699050Y-95539950D01*
X111004818Y-95757000D01*
X111280532Y-95999407D01*
X111513060Y-96257285D01*
X111617176Y-96401208D01*
X111679644Y-96498508D01*
X111710505Y-96558958D01*
X111713907Y-96598185D01*
X111693998Y-96631817D01*
X111682008Y-96645471D01*
X111609239Y-96698109D01*
X111532620Y-96727501D01*
X111505658Y-96731295D01*
X111474308Y-96729552D01*
X111434063Y-96719894D01*
X111380415Y-96699944D01*
X111308854Y-96667323D01*
X111214873Y-96619653D01*
X111093963Y-96554558D01*
X110941616Y-96469658D01*
X110753324Y-96362577D01*
X110524579Y-96230936D01*
X110250871Y-96072358D01*
X109927693Y-95884465D01*
X109864725Y-95847817D01*
X109651369Y-95724324D01*
X109454726Y-95611840D01*
X109281720Y-95514218D01*
X109139271Y-95435315D01*
X109034303Y-95378985D01*
X108973738Y-95349085D01*
X108962338Y-95345250D01*
X108921215Y-95360656D01*
X108838880Y-95401943D01*
X108728202Y-95461711D01*
X108602048Y-95532563D01*
X108473288Y-95607098D01*
X108354791Y-95677919D01*
X108259424Y-95737626D01*
X108200057Y-95778821D01*
X108187518Y-95790730D01*
X108199050Y-95825119D01*
X108252496Y-95872295D01*
X108330655Y-95921855D01*
X108416328Y-95963393D01*
X108492317Y-95986503D01*
X108514114Y-95988307D01*
X108583902Y-95987184D01*
X108697576Y-95985116D01*
X108835532Y-95982465D01*
X108902500Y-95981134D01*
X109186046Y-95995815D01*
X109437474Y-96049656D01*
X109651959Y-96139386D01*
X109824674Y-96261735D01*
X109950792Y-96413433D01*
X110025487Y-96591211D01*
X110044977Y-96755181D01*
X110013960Y-96943655D01*
X109923951Y-97113844D01*
X109777613Y-97262669D01*
X109577605Y-97387054D01*
X109451213Y-97441840D01*
X109266605Y-97492150D01*
X109048962Y-97520726D01*
X108823934Y-97526324D01*
X108617170Y-97507698D01*
X108521500Y-97486951D01*
X108245091Y-97390169D01*
X108027943Y-97271070D01*
X107869767Y-97129380D01*
X107770271Y-96964824D01*
X107729166Y-96777129D01*
X107727927Y-96736909D01*
X107720630Y-96652704D01*
X107708309Y-96601531D01*
X107665949Y-96552441D01*
X107582366Y-96492628D01*
X107476218Y-96431864D01*
X107366160Y-96379920D01*
X107270848Y-96346569D01*
X107210936Y-96341011D01*
X107156189Y-96364857D01*
X107062427Y-96415567D01*
X106943757Y-96485210D01*
X106838750Y-96550252D01*
X106711317Y-96627579D01*
X106598000Y-96689988D01*
X106512489Y-96730318D01*
X106472425Y-96741894D01*
X106408233Y-96722370D01*
X106327709Y-96673277D01*
X106304588Y-96654937D01*
X106201450Y-96567625D01*
X106318553Y-96395020D01*
X106519199Y-96140159D01*
X106766587Y-95891525D01*
X107044440Y-95663143D01*
X107336482Y-95469042D01*
X107489625Y-95385776D01*
X107892512Y-95219243D01*
X108318437Y-95107970D01*
X108758124Y-95052552D01*
X109202298Y-95053584D01*
X109202298Y-95053584D01*
G37*
X109202298Y-95053584D02*
X109641685Y-95111661D01*
X110049897Y-95221470D01*
X110376365Y-95358145D01*
X110699050Y-95539950D01*
X111004818Y-95757000D01*
X111280532Y-95999407D01*
X111513060Y-96257285D01*
X111617176Y-96401208D01*
X111679644Y-96498508D01*
X111710505Y-96558958D01*
X111713907Y-96598185D01*
X111693998Y-96631817D01*
X111682008Y-96645471D01*
X111609239Y-96698109D01*
X111532620Y-96727501D01*
X111505658Y-96731295D01*
X111474308Y-96729552D01*
X111434063Y-96719894D01*
X111380415Y-96699944D01*
X111308854Y-96667323D01*
X111214873Y-96619653D01*
X111093963Y-96554558D01*
X110941616Y-96469658D01*
X110753324Y-96362577D01*
X110524579Y-96230936D01*
X110250871Y-96072358D01*
X109927693Y-95884465D01*
X109864725Y-95847817D01*
X109651369Y-95724324D01*
X109454726Y-95611840D01*
X109281720Y-95514218D01*
X109139271Y-95435315D01*
X109034303Y-95378985D01*
X108973738Y-95349085D01*
X108962338Y-95345250D01*
X108921215Y-95360656D01*
X108838880Y-95401943D01*
X108728202Y-95461711D01*
X108602048Y-95532563D01*
X108473288Y-95607098D01*
X108354791Y-95677919D01*
X108259424Y-95737626D01*
X108200057Y-95778821D01*
X108187518Y-95790730D01*
X108199050Y-95825119D01*
X108252496Y-95872295D01*
X108330655Y-95921855D01*
X108416328Y-95963393D01*
X108492317Y-95986503D01*
X108514114Y-95988307D01*
X108583902Y-95987184D01*
X108697576Y-95985116D01*
X108835532Y-95982465D01*
X108902500Y-95981134D01*
X109186046Y-95995815D01*
X109437474Y-96049656D01*
X109651959Y-96139386D01*
X109824674Y-96261735D01*
X109950792Y-96413433D01*
X110025487Y-96591211D01*
X110044977Y-96755181D01*
X110013960Y-96943655D01*
X109923951Y-97113844D01*
X109777613Y-97262669D01*
X109577605Y-97387054D01*
X109451213Y-97441840D01*
X109266605Y-97492150D01*
X109048962Y-97520726D01*
X108823934Y-97526324D01*
X108617170Y-97507698D01*
X108521500Y-97486951D01*
X108245091Y-97390169D01*
X108027943Y-97271070D01*
X107869767Y-97129380D01*
X107770271Y-96964824D01*
X107729166Y-96777129D01*
X107727927Y-96736909D01*
X107720630Y-96652704D01*
X107708309Y-96601531D01*
X107665949Y-96552441D01*
X107582366Y-96492628D01*
X107476218Y-96431864D01*
X107366160Y-96379920D01*
X107270848Y-96346569D01*
X107210936Y-96341011D01*
X107156189Y-96364857D01*
X107062427Y-96415567D01*
X106943757Y-96485210D01*
X106838750Y-96550252D01*
X106711317Y-96627579D01*
X106598000Y-96689988D01*
X106512489Y-96730318D01*
X106472425Y-96741894D01*
X106408233Y-96722370D01*
X106327709Y-96673277D01*
X106304588Y-96654937D01*
X106201450Y-96567625D01*
X106318553Y-96395020D01*
X106519199Y-96140159D01*
X106766587Y-95891525D01*
X107044440Y-95663143D01*
X107336482Y-95469042D01*
X107489625Y-95385776D01*
X107892512Y-95219243D01*
X108318437Y-95107970D01*
X108758124Y-95052552D01*
X109202298Y-95053584D01*
G36*
X111853395Y-96802506D02*
X111902959Y-96880286D01*
X111960333Y-96995729D01*
X112020401Y-97137223D01*
X112078048Y-97293159D01*
X112128161Y-97451924D01*
X112148214Y-97526432D01*
X112176327Y-97648976D01*
X112195967Y-97766300D01*
X112208495Y-97894130D01*
X112215270Y-98048191D01*
X112217653Y-98244206D01*
X112217695Y-98329750D01*
X112216503Y-98532124D01*
X112212577Y-98686060D01*
X112204307Y-98806608D01*
X112190081Y-98908817D01*
X112168290Y-99007740D01*
X112137322Y-99118427D01*
X112131066Y-99139375D01*
X112030471Y-99423189D01*
X111898734Y-99718257D01*
X111746543Y-100003791D01*
X111584588Y-100259002D01*
X111490890Y-100384320D01*
X111224377Y-100671668D01*
X110914869Y-100929387D01*
X110573337Y-101151476D01*
X110210750Y-101331933D01*
X109838080Y-101464757D01*
X109466296Y-101543946D01*
X109347000Y-101557173D01*
X109214339Y-101562870D01*
X109133237Y-101552063D01*
X109100937Y-101533301D01*
X109074708Y-101475857D01*
X109061593Y-101388008D01*
X109061250Y-101371850D01*
X109060367Y-101340608D01*
X109060750Y-101313904D01*
X109066942Y-101288641D01*
X109083487Y-101261722D01*
X109114930Y-101230052D01*
X109165813Y-101190533D01*
X109240682Y-101140068D01*
X109344080Y-101075561D01*
X109480552Y-100993915D01*
X109654641Y-100892034D01*
X109870891Y-100766821D01*
X110133847Y-100615179D01*
X110378875Y-100473920D01*
X110619533Y-100334271D01*
X110844346Y-100202206D01*
X111046997Y-100081555D01*
X111221170Y-99976148D01*
X111360548Y-99889816D01*
X111458817Y-99826390D01*
X111509659Y-99789701D01*
X111513937Y-99785499D01*
X111537143Y-99748860D01*
X111553005Y-99696012D01*
X111562818Y-99615558D01*
X111567877Y-99496097D01*
X111569478Y-99326233D01*
X111569500Y-99296481D01*
X111567147Y-99122362D01*
X111560532Y-98984351D01*
X111550320Y-98891602D01*
X111537357Y-98853382D01*
X111496743Y-98859783D01*
X111420771Y-98895530D01*
X111325677Y-98952948D01*
X111323044Y-98954695D01*
X111233391Y-99018519D01*
X111166502Y-99080782D01*
X111109248Y-99158036D01*
X111048497Y-99266833D01*
X111002903Y-99358233D01*
X110846301Y-99627114D01*
X110668370Y-99836722D01*
X110469436Y-99986811D01*
X110249828Y-100077133D01*
X110010507Y-100107439D01*
X109826582Y-100089276D01*
X109681563Y-100029727D01*
X109561189Y-99922128D01*
X109530374Y-99883042D01*
X109458175Y-99737691D01*
X109420306Y-99552699D01*
X109415713Y-99341156D01*
X109443342Y-99116149D01*
X109502138Y-98890768D01*
X109591049Y-98678099D01*
X109633563Y-98601590D01*
X109785861Y-98388677D01*
X109959840Y-98214164D01*
X110147875Y-98081595D01*
X110342343Y-97994515D01*
X110535618Y-97956467D01*
X110720077Y-97970996D01*
X110866303Y-98028507D01*
X110964767Y-98080618D01*
X111039001Y-98101422D01*
X111112856Y-98090906D01*
X111210184Y-98049056D01*
X111251656Y-98028299D01*
X111360599Y-97970576D01*
X111437665Y-97917678D01*
X111488365Y-97857373D01*
X111518211Y-97777426D01*
X111532711Y-97665607D01*
X111537378Y-97509682D01*
X111537750Y-97393206D01*
X111540611Y-97188803D01*
X111549392Y-97044230D01*
X111564381Y-96956070D01*
X111577437Y-96927588D01*
X111643593Y-96864499D01*
X111725865Y-96808679D01*
X111798611Y-96776584D01*
X111816755Y-96774000D01*
X111853395Y-96802506D01*
X111853395Y-96802506D01*
G37*
X111853395Y-96802506D02*
X111902959Y-96880286D01*
X111960333Y-96995729D01*
X112020401Y-97137223D01*
X112078048Y-97293159D01*
X112128161Y-97451924D01*
X112148214Y-97526432D01*
X112176327Y-97648976D01*
X112195967Y-97766300D01*
X112208495Y-97894130D01*
X112215270Y-98048191D01*
X112217653Y-98244206D01*
X112217695Y-98329750D01*
X112216503Y-98532124D01*
X112212577Y-98686060D01*
X112204307Y-98806608D01*
X112190081Y-98908817D01*
X112168290Y-99007740D01*
X112137322Y-99118427D01*
X112131066Y-99139375D01*
X112030471Y-99423189D01*
X111898734Y-99718257D01*
X111746543Y-100003791D01*
X111584588Y-100259002D01*
X111490890Y-100384320D01*
X111224377Y-100671668D01*
X110914869Y-100929387D01*
X110573337Y-101151476D01*
X110210750Y-101331933D01*
X109838080Y-101464757D01*
X109466296Y-101543946D01*
X109347000Y-101557173D01*
X109214339Y-101562870D01*
X109133237Y-101552063D01*
X109100937Y-101533301D01*
X109074708Y-101475857D01*
X109061593Y-101388008D01*
X109061250Y-101371850D01*
X109060367Y-101340608D01*
X109060750Y-101313904D01*
X109066942Y-101288641D01*
X109083487Y-101261722D01*
X109114930Y-101230052D01*
X109165813Y-101190533D01*
X109240682Y-101140068D01*
X109344080Y-101075561D01*
X109480552Y-100993915D01*
X109654641Y-100892034D01*
X109870891Y-100766821D01*
X110133847Y-100615179D01*
X110378875Y-100473920D01*
X110619533Y-100334271D01*
X110844346Y-100202206D01*
X111046997Y-100081555D01*
X111221170Y-99976148D01*
X111360548Y-99889816D01*
X111458817Y-99826390D01*
X111509659Y-99789701D01*
X111513937Y-99785499D01*
X111537143Y-99748860D01*
X111553005Y-99696012D01*
X111562818Y-99615558D01*
X111567877Y-99496097D01*
X111569478Y-99326233D01*
X111569500Y-99296481D01*
X111567147Y-99122362D01*
X111560532Y-98984351D01*
X111550320Y-98891602D01*
X111537357Y-98853382D01*
X111496743Y-98859783D01*
X111420771Y-98895530D01*
X111325677Y-98952948D01*
X111323044Y-98954695D01*
X111233391Y-99018519D01*
X111166502Y-99080782D01*
X111109248Y-99158036D01*
X111048497Y-99266833D01*
X111002903Y-99358233D01*
X110846301Y-99627114D01*
X110668370Y-99836722D01*
X110469436Y-99986811D01*
X110249828Y-100077133D01*
X110010507Y-100107439D01*
X109826582Y-100089276D01*
X109681563Y-100029727D01*
X109561189Y-99922128D01*
X109530374Y-99883042D01*
X109458175Y-99737691D01*
X109420306Y-99552699D01*
X109415713Y-99341156D01*
X109443342Y-99116149D01*
X109502138Y-98890768D01*
X109591049Y-98678099D01*
X109633563Y-98601590D01*
X109785861Y-98388677D01*
X109959840Y-98214164D01*
X110147875Y-98081595D01*
X110342343Y-97994515D01*
X110535618Y-97956467D01*
X110720077Y-97970996D01*
X110866303Y-98028507D01*
X110964767Y-98080618D01*
X111039001Y-98101422D01*
X111112856Y-98090906D01*
X111210184Y-98049056D01*
X111251656Y-98028299D01*
X111360599Y-97970576D01*
X111437665Y-97917678D01*
X111488365Y-97857373D01*
X111518211Y-97777426D01*
X111532711Y-97665607D01*
X111537378Y-97509682D01*
X111537750Y-97393206D01*
X111540611Y-97188803D01*
X111549392Y-97044230D01*
X111564381Y-96956070D01*
X111577437Y-96927588D01*
X111643593Y-96864499D01*
X111725865Y-96808679D01*
X111798611Y-96776584D01*
X111816755Y-96774000D01*
X111853395Y-96802506D01*
G36*
X106182141Y-96785805D02*
X106257331Y-96848659D01*
X106378375Y-96959555D01*
X106410125Y-99806125D01*
X106759375Y-100004325D01*
X106895627Y-100079769D01*
X107014391Y-100142034D01*
X107103570Y-100185022D01*
X107151068Y-100202631D01*
X107152849Y-100202763D01*
X107174633Y-100190945D01*
X107185282Y-100147784D01*
X107185963Y-100062163D01*
X107179582Y-99947804D01*
X107166419Y-99807040D01*
X107144110Y-99701750D01*
X107103909Y-99603910D01*
X107037072Y-99485495D01*
X107033454Y-99479491D01*
X106891250Y-99204117D01*
X106807789Y-98944298D01*
X106781846Y-98694701D01*
X106804871Y-98482876D01*
X106872632Y-98286494D01*
X106981136Y-98135436D01*
X107124077Y-98032380D01*
X107295151Y-97980003D01*
X107488053Y-97980982D01*
X107696477Y-98037995D01*
X107772528Y-98071979D01*
X107993254Y-98214926D01*
X108191389Y-98413241D01*
X108361594Y-98661185D01*
X108416674Y-98764860D01*
X108472573Y-98882906D01*
X108508588Y-98978414D01*
X108529874Y-99073540D01*
X108541589Y-99190439D01*
X108548098Y-99329519D01*
X108547975Y-99533921D01*
X108527023Y-99691041D01*
X108480223Y-99815098D01*
X108402551Y-99920311D01*
X108309688Y-100004599D01*
X108189992Y-100100622D01*
X108177979Y-100429623D01*
X108175152Y-100604567D01*
X108186285Y-100730779D01*
X108218443Y-100822654D01*
X108278688Y-100894585D01*
X108374083Y-100960965D01*
X108463026Y-101010487D01*
X108628770Y-101105032D01*
X108742673Y-101185949D01*
X108812911Y-101260341D01*
X108847664Y-101335314D01*
X108850299Y-101346933D01*
X108856650Y-101459426D01*
X108818469Y-101529392D01*
X108731182Y-101561962D01*
X108655320Y-101565725D01*
X108540850Y-101557222D01*
X108400561Y-101537869D01*
X108299250Y-101518919D01*
X107862417Y-101393870D01*
X107454489Y-101214523D01*
X107079232Y-100984895D01*
X106740414Y-100709001D01*
X106441801Y-100390856D01*
X106187160Y-100034476D01*
X105980259Y-99643877D01*
X105824864Y-99223074D01*
X105724742Y-98776082D01*
X105724458Y-98774250D01*
X105705661Y-98574272D01*
X105702040Y-98335407D01*
X105712427Y-98080131D01*
X105735656Y-97830917D01*
X105770559Y-97610239D01*
X105789159Y-97528578D01*
X105833056Y-97376114D01*
X105887083Y-97215871D01*
X105945680Y-97061664D01*
X106003291Y-96927310D01*
X106054357Y-96826627D01*
X106092697Y-96773939D01*
X106130171Y-96761484D01*
X106182141Y-96785805D01*
X106182141Y-96785805D01*
G37*
X106182141Y-96785805D02*
X106257331Y-96848659D01*
X106378375Y-96959555D01*
X106410125Y-99806125D01*
X106759375Y-100004325D01*
X106895627Y-100079769D01*
X107014391Y-100142034D01*
X107103570Y-100185022D01*
X107151068Y-100202631D01*
X107152849Y-100202763D01*
X107174633Y-100190945D01*
X107185282Y-100147784D01*
X107185963Y-100062163D01*
X107179582Y-99947804D01*
X107166419Y-99807040D01*
X107144110Y-99701750D01*
X107103909Y-99603910D01*
X107037072Y-99485495D01*
X107033454Y-99479491D01*
X106891250Y-99204117D01*
X106807789Y-98944298D01*
X106781846Y-98694701D01*
X106804871Y-98482876D01*
X106872632Y-98286494D01*
X106981136Y-98135436D01*
X107124077Y-98032380D01*
X107295151Y-97980003D01*
X107488053Y-97980982D01*
X107696477Y-98037995D01*
X107772528Y-98071979D01*
X107993254Y-98214926D01*
X108191389Y-98413241D01*
X108361594Y-98661185D01*
X108416674Y-98764860D01*
X108472573Y-98882906D01*
X108508588Y-98978414D01*
X108529874Y-99073540D01*
X108541589Y-99190439D01*
X108548098Y-99329519D01*
X108547975Y-99533921D01*
X108527023Y-99691041D01*
X108480223Y-99815098D01*
X108402551Y-99920311D01*
X108309688Y-100004599D01*
X108189992Y-100100622D01*
X108177979Y-100429623D01*
X108175152Y-100604567D01*
X108186285Y-100730779D01*
X108218443Y-100822654D01*
X108278688Y-100894585D01*
X108374083Y-100960965D01*
X108463026Y-101010487D01*
X108628770Y-101105032D01*
X108742673Y-101185949D01*
X108812911Y-101260341D01*
X108847664Y-101335314D01*
X108850299Y-101346933D01*
X108856650Y-101459426D01*
X108818469Y-101529392D01*
X108731182Y-101561962D01*
X108655320Y-101565725D01*
X108540850Y-101557222D01*
X108400561Y-101537869D01*
X108299250Y-101518919D01*
X107862417Y-101393870D01*
X107454489Y-101214523D01*
X107079232Y-100984895D01*
X106740414Y-100709001D01*
X106441801Y-100390856D01*
X106187160Y-100034476D01*
X105980259Y-99643877D01*
X105824864Y-99223074D01*
X105724742Y-98776082D01*
X105724458Y-98774250D01*
X105705661Y-98574272D01*
X105702040Y-98335407D01*
X105712427Y-98080131D01*
X105735656Y-97830917D01*
X105770559Y-97610239D01*
X105789159Y-97528578D01*
X105833056Y-97376114D01*
X105887083Y-97215871D01*
X105945680Y-97061664D01*
X106003291Y-96927310D01*
X106054357Y-96826627D01*
X106092697Y-96773939D01*
X106130171Y-96761484D01*
X106182141Y-96785805D01*
G36*
X112299750Y-101615875D02*
X112283875Y-101631750D01*
X112268000Y-101615875D01*
X112283875Y-101600000D01*
X112299750Y-101615875D01*
X112299750Y-101615875D01*
G37*
X112299750Y-101615875D02*
X112283875Y-101631750D01*
X112268000Y-101615875D01*
X112283875Y-101600000D01*
X112299750Y-101615875D01*
D12*
G36*
X199642888Y-127351470D02*
X199823274Y-127387350D01*
X200014362Y-127466502D01*
X200186336Y-127581411D01*
X200332589Y-127727664D01*
X200447498Y-127899638D01*
X200526650Y-128090726D01*
X200567000Y-128293584D01*
X200567000Y-128500416D01*
X200526650Y-128703274D01*
X200447498Y-128894362D01*
X200332589Y-129066336D01*
X200186336Y-129212589D01*
X200014362Y-129327498D01*
X199823274Y-129406650D01*
X199642888Y-129442530D01*
X199620417Y-129447000D01*
X199413583Y-129447000D01*
X199391112Y-129442530D01*
X199210726Y-129406650D01*
X199019638Y-129327498D01*
X198847664Y-129212589D01*
X198701411Y-129066336D01*
X198586502Y-128894362D01*
X198507350Y-128703274D01*
X198467000Y-128500416D01*
X198467000Y-128293584D01*
X198507350Y-128090726D01*
X198586502Y-127899638D01*
X198701411Y-127727664D01*
X198847664Y-127581411D01*
X199019638Y-127466502D01*
X199210726Y-127387350D01*
X199391112Y-127351470D01*
X199413583Y-127347000D01*
X199620417Y-127347000D01*
X199642888Y-127351470D01*
X199642888Y-127351470D01*
G37*
G36*
X108967707Y-127354597D02*
X109044836Y-127362193D01*
X109176787Y-127402220D01*
X109242763Y-127422233D01*
X109425172Y-127519733D01*
X109585054Y-127650946D01*
X109716267Y-127810828D01*
X109813767Y-127993237D01*
X109813767Y-127993238D01*
X109873807Y-128191164D01*
X109894080Y-128397000D01*
X109873807Y-128602836D01*
X109833780Y-128734787D01*
X109813767Y-128800763D01*
X109716267Y-128983172D01*
X109585054Y-129143054D01*
X109425172Y-129274267D01*
X109242763Y-129371767D01*
X109176787Y-129391780D01*
X109044836Y-129431807D01*
X108967707Y-129439403D01*
X108890580Y-129447000D01*
X108787420Y-129447000D01*
X108710293Y-129439403D01*
X108633164Y-129431807D01*
X108501213Y-129391780D01*
X108435237Y-129371767D01*
X108252828Y-129274267D01*
X108092946Y-129143054D01*
X107961733Y-128983172D01*
X107864233Y-128800763D01*
X107844220Y-128734787D01*
X107804193Y-128602836D01*
X107783920Y-128397000D01*
X107804193Y-128191164D01*
X107864233Y-127993238D01*
X107864233Y-127993237D01*
X107961733Y-127810828D01*
X108092946Y-127650946D01*
X108252828Y-127519733D01*
X108435237Y-127422233D01*
X108501213Y-127402220D01*
X108633164Y-127362193D01*
X108710293Y-127354597D01*
X108787420Y-127347000D01*
X108890580Y-127347000D01*
X108967707Y-127354597D01*
X108967707Y-127354597D01*
G37*
G36*
X189485707Y-127354597D02*
X189562836Y-127362193D01*
X189694787Y-127402220D01*
X189760763Y-127422233D01*
X189943172Y-127519733D01*
X190103054Y-127650946D01*
X190234267Y-127810828D01*
X190331767Y-127993237D01*
X190331767Y-127993238D01*
X190391807Y-128191164D01*
X190412080Y-128397000D01*
X190391807Y-128602836D01*
X190351780Y-128734787D01*
X190331767Y-128800763D01*
X190234267Y-128983172D01*
X190103054Y-129143054D01*
X189943172Y-129274267D01*
X189760763Y-129371767D01*
X189694787Y-129391780D01*
X189562836Y-129431807D01*
X189485707Y-129439403D01*
X189408580Y-129447000D01*
X189305420Y-129447000D01*
X189228293Y-129439403D01*
X189151164Y-129431807D01*
X189019213Y-129391780D01*
X188953237Y-129371767D01*
X188770828Y-129274267D01*
X188610946Y-129143054D01*
X188479733Y-128983172D01*
X188382233Y-128800763D01*
X188362220Y-128734787D01*
X188322193Y-128602836D01*
X188301920Y-128397000D01*
X188322193Y-128191164D01*
X188382233Y-127993238D01*
X188382233Y-127993237D01*
X188479733Y-127810828D01*
X188610946Y-127650946D01*
X188770828Y-127519733D01*
X188953237Y-127422233D01*
X189019213Y-127402220D01*
X189151164Y-127362193D01*
X189228293Y-127354597D01*
X189305420Y-127347000D01*
X189408580Y-127347000D01*
X189485707Y-127354597D01*
X189485707Y-127354597D01*
G37*
G36*
X145667888Y-127351470D02*
X145848274Y-127387350D01*
X146039362Y-127466502D01*
X146211336Y-127581411D01*
X146357589Y-127727664D01*
X146472498Y-127899638D01*
X146551650Y-128090726D01*
X146592000Y-128293584D01*
X146592000Y-128500416D01*
X146551650Y-128703274D01*
X146472498Y-128894362D01*
X146357589Y-129066336D01*
X146211336Y-129212589D01*
X146039362Y-129327498D01*
X145848274Y-129406650D01*
X145667888Y-129442530D01*
X145645417Y-129447000D01*
X145438583Y-129447000D01*
X145416112Y-129442530D01*
X145235726Y-129406650D01*
X145044638Y-129327498D01*
X144872664Y-129212589D01*
X144726411Y-129066336D01*
X144611502Y-128894362D01*
X144532350Y-128703274D01*
X144492000Y-128500416D01*
X144492000Y-128293584D01*
X144532350Y-128090726D01*
X144611502Y-127899638D01*
X144726411Y-127727664D01*
X144872664Y-127581411D01*
X145044638Y-127466502D01*
X145235726Y-127387350D01*
X145416112Y-127351470D01*
X145438583Y-127347000D01*
X145645417Y-127347000D01*
X145667888Y-127351470D01*
X145667888Y-127351470D01*
G37*
G36*
X132970707Y-127354597D02*
X133047836Y-127362193D01*
X133179787Y-127402220D01*
X133245763Y-127422233D01*
X133428172Y-127519733D01*
X133588054Y-127650946D01*
X133719267Y-127810828D01*
X133816767Y-127993237D01*
X133816767Y-127993238D01*
X133876807Y-128191164D01*
X133897080Y-128397000D01*
X133876807Y-128602836D01*
X133836780Y-128734787D01*
X133816767Y-128800763D01*
X133719267Y-128983172D01*
X133588054Y-129143054D01*
X133428172Y-129274267D01*
X133245763Y-129371767D01*
X133179787Y-129391780D01*
X133047836Y-129431807D01*
X132970707Y-129439403D01*
X132893580Y-129447000D01*
X132790420Y-129447000D01*
X132713293Y-129439403D01*
X132636164Y-129431807D01*
X132504213Y-129391780D01*
X132438237Y-129371767D01*
X132255828Y-129274267D01*
X132095946Y-129143054D01*
X131964733Y-128983172D01*
X131867233Y-128800763D01*
X131847220Y-128734787D01*
X131807193Y-128602836D01*
X131786920Y-128397000D01*
X131807193Y-128191164D01*
X131867233Y-127993238D01*
X131867233Y-127993237D01*
X131964733Y-127810828D01*
X132095946Y-127650946D01*
X132255828Y-127519733D01*
X132438237Y-127422233D01*
X132504213Y-127402220D01*
X132636164Y-127362193D01*
X132713293Y-127354597D01*
X132790420Y-127347000D01*
X132893580Y-127347000D01*
X132970707Y-127354597D01*
X132970707Y-127354597D01*
G37*
G36*
X140590707Y-127354597D02*
X140667836Y-127362193D01*
X140799787Y-127402220D01*
X140865763Y-127422233D01*
X141048172Y-127519733D01*
X141208054Y-127650946D01*
X141339267Y-127810828D01*
X141436767Y-127993237D01*
X141436767Y-127993238D01*
X141496807Y-128191164D01*
X141517080Y-128397000D01*
X141496807Y-128602836D01*
X141456780Y-128734787D01*
X141436767Y-128800763D01*
X141339267Y-128983172D01*
X141208054Y-129143054D01*
X141048172Y-129274267D01*
X140865763Y-129371767D01*
X140799787Y-129391780D01*
X140667836Y-129431807D01*
X140590707Y-129439403D01*
X140513580Y-129447000D01*
X140410420Y-129447000D01*
X140333293Y-129439403D01*
X140256164Y-129431807D01*
X140124213Y-129391780D01*
X140058237Y-129371767D01*
X139875828Y-129274267D01*
X139715946Y-129143054D01*
X139584733Y-128983172D01*
X139487233Y-128800763D01*
X139467220Y-128734787D01*
X139427193Y-128602836D01*
X139406920Y-128397000D01*
X139427193Y-128191164D01*
X139487233Y-127993238D01*
X139487233Y-127993237D01*
X139584733Y-127810828D01*
X139715946Y-127650946D01*
X139875828Y-127519733D01*
X140058237Y-127422233D01*
X140124213Y-127402220D01*
X140256164Y-127362193D01*
X140333293Y-127354597D01*
X140410420Y-127347000D01*
X140513580Y-127347000D01*
X140590707Y-127354597D01*
X140590707Y-127354597D01*
G37*
G36*
X138050707Y-127354597D02*
X138127836Y-127362193D01*
X138259787Y-127402220D01*
X138325763Y-127422233D01*
X138508172Y-127519733D01*
X138668054Y-127650946D01*
X138799267Y-127810828D01*
X138896767Y-127993237D01*
X138896767Y-127993238D01*
X138956807Y-128191164D01*
X138977080Y-128397000D01*
X138956807Y-128602836D01*
X138916780Y-128734787D01*
X138896767Y-128800763D01*
X138799267Y-128983172D01*
X138668054Y-129143054D01*
X138508172Y-129274267D01*
X138325763Y-129371767D01*
X138259787Y-129391780D01*
X138127836Y-129431807D01*
X138050707Y-129439403D01*
X137973580Y-129447000D01*
X137870420Y-129447000D01*
X137793293Y-129439403D01*
X137716164Y-129431807D01*
X137584213Y-129391780D01*
X137518237Y-129371767D01*
X137335828Y-129274267D01*
X137175946Y-129143054D01*
X137044733Y-128983172D01*
X136947233Y-128800763D01*
X136927220Y-128734787D01*
X136887193Y-128602836D01*
X136866920Y-128397000D01*
X136887193Y-128191164D01*
X136947233Y-127993238D01*
X136947233Y-127993237D01*
X137044733Y-127810828D01*
X137175946Y-127650946D01*
X137335828Y-127519733D01*
X137518237Y-127422233D01*
X137584213Y-127402220D01*
X137716164Y-127362193D01*
X137793293Y-127354597D01*
X137870420Y-127347000D01*
X137973580Y-127347000D01*
X138050707Y-127354597D01*
X138050707Y-127354597D01*
G37*
G36*
X130430707Y-127354597D02*
X130507836Y-127362193D01*
X130639787Y-127402220D01*
X130705763Y-127422233D01*
X130888172Y-127519733D01*
X131048054Y-127650946D01*
X131179267Y-127810828D01*
X131276767Y-127993237D01*
X131276767Y-127993238D01*
X131336807Y-128191164D01*
X131357080Y-128397000D01*
X131336807Y-128602836D01*
X131296780Y-128734787D01*
X131276767Y-128800763D01*
X131179267Y-128983172D01*
X131048054Y-129143054D01*
X130888172Y-129274267D01*
X130705763Y-129371767D01*
X130639787Y-129391780D01*
X130507836Y-129431807D01*
X130430707Y-129439403D01*
X130353580Y-129447000D01*
X130250420Y-129447000D01*
X130173293Y-129439403D01*
X130096164Y-129431807D01*
X129964213Y-129391780D01*
X129898237Y-129371767D01*
X129715828Y-129274267D01*
X129555946Y-129143054D01*
X129424733Y-128983172D01*
X129327233Y-128800763D01*
X129307220Y-128734787D01*
X129267193Y-128602836D01*
X129246920Y-128397000D01*
X129267193Y-128191164D01*
X129327233Y-127993238D01*
X129327233Y-127993237D01*
X129424733Y-127810828D01*
X129555946Y-127650946D01*
X129715828Y-127519733D01*
X129898237Y-127422233D01*
X129964213Y-127402220D01*
X130096164Y-127362193D01*
X130173293Y-127354597D01*
X130250420Y-127347000D01*
X130353580Y-127347000D01*
X130430707Y-127354597D01*
X130430707Y-127354597D01*
G37*
G36*
X135510707Y-127354597D02*
X135587836Y-127362193D01*
X135719787Y-127402220D01*
X135785763Y-127422233D01*
X135968172Y-127519733D01*
X136128054Y-127650946D01*
X136259267Y-127810828D01*
X136356767Y-127993237D01*
X136356767Y-127993238D01*
X136416807Y-128191164D01*
X136437080Y-128397000D01*
X136416807Y-128602836D01*
X136376780Y-128734787D01*
X136356767Y-128800763D01*
X136259267Y-128983172D01*
X136128054Y-129143054D01*
X135968172Y-129274267D01*
X135785763Y-129371767D01*
X135719787Y-129391780D01*
X135587836Y-129431807D01*
X135510707Y-129439403D01*
X135433580Y-129447000D01*
X135330420Y-129447000D01*
X135253293Y-129439403D01*
X135176164Y-129431807D01*
X135044213Y-129391780D01*
X134978237Y-129371767D01*
X134795828Y-129274267D01*
X134635946Y-129143054D01*
X134504733Y-128983172D01*
X134407233Y-128800763D01*
X134387220Y-128734787D01*
X134347193Y-128602836D01*
X134326920Y-128397000D01*
X134347193Y-128191164D01*
X134407233Y-127993238D01*
X134407233Y-127993237D01*
X134504733Y-127810828D01*
X134635946Y-127650946D01*
X134795828Y-127519733D01*
X134978237Y-127422233D01*
X135044213Y-127402220D01*
X135176164Y-127362193D01*
X135253293Y-127354597D01*
X135330420Y-127347000D01*
X135433580Y-127347000D01*
X135510707Y-127354597D01*
X135510707Y-127354597D01*
G37*
G36*
X143130707Y-127354597D02*
X143207836Y-127362193D01*
X143339787Y-127402220D01*
X143405763Y-127422233D01*
X143588172Y-127519733D01*
X143748054Y-127650946D01*
X143879267Y-127810828D01*
X143976767Y-127993237D01*
X143976767Y-127993238D01*
X144036807Y-128191164D01*
X144057080Y-128397000D01*
X144036807Y-128602836D01*
X143996780Y-128734787D01*
X143976767Y-128800763D01*
X143879267Y-128983172D01*
X143748054Y-129143054D01*
X143588172Y-129274267D01*
X143405763Y-129371767D01*
X143339787Y-129391780D01*
X143207836Y-129431807D01*
X143130707Y-129439403D01*
X143053580Y-129447000D01*
X142950420Y-129447000D01*
X142873293Y-129439403D01*
X142796164Y-129431807D01*
X142664213Y-129391780D01*
X142598237Y-129371767D01*
X142415828Y-129274267D01*
X142255946Y-129143054D01*
X142124733Y-128983172D01*
X142027233Y-128800763D01*
X142007220Y-128734787D01*
X141967193Y-128602836D01*
X141946920Y-128397000D01*
X141967193Y-128191164D01*
X142027233Y-127993238D01*
X142027233Y-127993237D01*
X142124733Y-127810828D01*
X142255946Y-127650946D01*
X142415828Y-127519733D01*
X142598237Y-127422233D01*
X142664213Y-127402220D01*
X142796164Y-127362193D01*
X142873293Y-127354597D01*
X142950420Y-127347000D01*
X143053580Y-127347000D01*
X143130707Y-127354597D01*
X143130707Y-127354597D01*
G37*
G36*
X184405707Y-127354597D02*
X184482836Y-127362193D01*
X184614787Y-127402220D01*
X184680763Y-127422233D01*
X184863172Y-127519733D01*
X185023054Y-127650946D01*
X185154267Y-127810828D01*
X185251767Y-127993237D01*
X185251767Y-127993238D01*
X185311807Y-128191164D01*
X185332080Y-128397000D01*
X185311807Y-128602836D01*
X185271780Y-128734787D01*
X185251767Y-128800763D01*
X185154267Y-128983172D01*
X185023054Y-129143054D01*
X184863172Y-129274267D01*
X184680763Y-129371767D01*
X184614787Y-129391780D01*
X184482836Y-129431807D01*
X184405707Y-129439403D01*
X184328580Y-129447000D01*
X184225420Y-129447000D01*
X184148293Y-129439403D01*
X184071164Y-129431807D01*
X183939213Y-129391780D01*
X183873237Y-129371767D01*
X183690828Y-129274267D01*
X183530946Y-129143054D01*
X183399733Y-128983172D01*
X183302233Y-128800763D01*
X183282220Y-128734787D01*
X183242193Y-128602836D01*
X183221920Y-128397000D01*
X183242193Y-128191164D01*
X183302233Y-127993238D01*
X183302233Y-127993237D01*
X183399733Y-127810828D01*
X183530946Y-127650946D01*
X183690828Y-127519733D01*
X183873237Y-127422233D01*
X183939213Y-127402220D01*
X184071164Y-127362193D01*
X184148293Y-127354597D01*
X184225420Y-127347000D01*
X184328580Y-127347000D01*
X184405707Y-127354597D01*
X184405707Y-127354597D01*
G37*
G36*
X192025707Y-127354597D02*
X192102836Y-127362193D01*
X192234787Y-127402220D01*
X192300763Y-127422233D01*
X192483172Y-127519733D01*
X192643054Y-127650946D01*
X192774267Y-127810828D01*
X192871767Y-127993237D01*
X192871767Y-127993238D01*
X192931807Y-128191164D01*
X192952080Y-128397000D01*
X192931807Y-128602836D01*
X192891780Y-128734787D01*
X192871767Y-128800763D01*
X192774267Y-128983172D01*
X192643054Y-129143054D01*
X192483172Y-129274267D01*
X192300763Y-129371767D01*
X192234787Y-129391780D01*
X192102836Y-129431807D01*
X192025707Y-129439403D01*
X191948580Y-129447000D01*
X191845420Y-129447000D01*
X191768293Y-129439403D01*
X191691164Y-129431807D01*
X191559213Y-129391780D01*
X191493237Y-129371767D01*
X191310828Y-129274267D01*
X191150946Y-129143054D01*
X191019733Y-128983172D01*
X190922233Y-128800763D01*
X190902220Y-128734787D01*
X190862193Y-128602836D01*
X190841920Y-128397000D01*
X190862193Y-128191164D01*
X190922233Y-127993238D01*
X190922233Y-127993237D01*
X191019733Y-127810828D01*
X191150946Y-127650946D01*
X191310828Y-127519733D01*
X191493237Y-127422233D01*
X191559213Y-127402220D01*
X191691164Y-127362193D01*
X191768293Y-127354597D01*
X191845420Y-127347000D01*
X191948580Y-127347000D01*
X192025707Y-127354597D01*
X192025707Y-127354597D01*
G37*
G36*
X194565707Y-127354597D02*
X194642836Y-127362193D01*
X194774787Y-127402220D01*
X194840763Y-127422233D01*
X195023172Y-127519733D01*
X195183054Y-127650946D01*
X195314267Y-127810828D01*
X195411767Y-127993237D01*
X195411767Y-127993238D01*
X195471807Y-128191164D01*
X195492080Y-128397000D01*
X195471807Y-128602836D01*
X195431780Y-128734787D01*
X195411767Y-128800763D01*
X195314267Y-128983172D01*
X195183054Y-129143054D01*
X195023172Y-129274267D01*
X194840763Y-129371767D01*
X194774787Y-129391780D01*
X194642836Y-129431807D01*
X194565707Y-129439403D01*
X194488580Y-129447000D01*
X194385420Y-129447000D01*
X194308293Y-129439403D01*
X194231164Y-129431807D01*
X194099213Y-129391780D01*
X194033237Y-129371767D01*
X193850828Y-129274267D01*
X193690946Y-129143054D01*
X193559733Y-128983172D01*
X193462233Y-128800763D01*
X193442220Y-128734787D01*
X193402193Y-128602836D01*
X193381920Y-128397000D01*
X193402193Y-128191164D01*
X193462233Y-127993238D01*
X193462233Y-127993237D01*
X193559733Y-127810828D01*
X193690946Y-127650946D01*
X193850828Y-127519733D01*
X194033237Y-127422233D01*
X194099213Y-127402220D01*
X194231164Y-127362193D01*
X194308293Y-127354597D01*
X194385420Y-127347000D01*
X194488580Y-127347000D01*
X194565707Y-127354597D01*
X194565707Y-127354597D01*
G37*
G36*
X186945707Y-127354597D02*
X187022836Y-127362193D01*
X187154787Y-127402220D01*
X187220763Y-127422233D01*
X187403172Y-127519733D01*
X187563054Y-127650946D01*
X187694267Y-127810828D01*
X187791767Y-127993237D01*
X187791767Y-127993238D01*
X187851807Y-128191164D01*
X187872080Y-128397000D01*
X187851807Y-128602836D01*
X187811780Y-128734787D01*
X187791767Y-128800763D01*
X187694267Y-128983172D01*
X187563054Y-129143054D01*
X187403172Y-129274267D01*
X187220763Y-129371767D01*
X187154787Y-129391780D01*
X187022836Y-129431807D01*
X186945707Y-129439403D01*
X186868580Y-129447000D01*
X186765420Y-129447000D01*
X186688293Y-129439403D01*
X186611164Y-129431807D01*
X186479213Y-129391780D01*
X186413237Y-129371767D01*
X186230828Y-129274267D01*
X186070946Y-129143054D01*
X185939733Y-128983172D01*
X185842233Y-128800763D01*
X185822220Y-128734787D01*
X185782193Y-128602836D01*
X185761920Y-128397000D01*
X185782193Y-128191164D01*
X185842233Y-127993238D01*
X185842233Y-127993237D01*
X185939733Y-127810828D01*
X186070946Y-127650946D01*
X186230828Y-127519733D01*
X186413237Y-127422233D01*
X186479213Y-127402220D01*
X186611164Y-127362193D01*
X186688293Y-127354597D01*
X186765420Y-127347000D01*
X186868580Y-127347000D01*
X186945707Y-127354597D01*
X186945707Y-127354597D01*
G37*
G36*
X121664888Y-127351470D02*
X121845274Y-127387350D01*
X122036362Y-127466502D01*
X122208336Y-127581411D01*
X122354589Y-127727664D01*
X122469498Y-127899638D01*
X122548650Y-128090726D01*
X122589000Y-128293584D01*
X122589000Y-128500416D01*
X122548650Y-128703274D01*
X122469498Y-128894362D01*
X122354589Y-129066336D01*
X122208336Y-129212589D01*
X122036362Y-129327498D01*
X121845274Y-129406650D01*
X121664888Y-129442530D01*
X121642417Y-129447000D01*
X121435583Y-129447000D01*
X121413112Y-129442530D01*
X121232726Y-129406650D01*
X121041638Y-129327498D01*
X120869664Y-129212589D01*
X120723411Y-129066336D01*
X120608502Y-128894362D01*
X120529350Y-128703274D01*
X120489000Y-128500416D01*
X120489000Y-128293584D01*
X120529350Y-128090726D01*
X120608502Y-127899638D01*
X120723411Y-127727664D01*
X120869664Y-127581411D01*
X121041638Y-127466502D01*
X121232726Y-127387350D01*
X121413112Y-127351470D01*
X121435583Y-127347000D01*
X121642417Y-127347000D01*
X121664888Y-127351470D01*
X121664888Y-127351470D01*
G37*
G36*
X116587707Y-127354597D02*
X116664836Y-127362193D01*
X116796787Y-127402220D01*
X116862763Y-127422233D01*
X117045172Y-127519733D01*
X117205054Y-127650946D01*
X117336267Y-127810828D01*
X117433767Y-127993237D01*
X117433767Y-127993238D01*
X117493807Y-128191164D01*
X117514080Y-128397000D01*
X117493807Y-128602836D01*
X117453780Y-128734787D01*
X117433767Y-128800763D01*
X117336267Y-128983172D01*
X117205054Y-129143054D01*
X117045172Y-129274267D01*
X116862763Y-129371767D01*
X116796787Y-129391780D01*
X116664836Y-129431807D01*
X116587707Y-129439403D01*
X116510580Y-129447000D01*
X116407420Y-129447000D01*
X116330293Y-129439403D01*
X116253164Y-129431807D01*
X116121213Y-129391780D01*
X116055237Y-129371767D01*
X115872828Y-129274267D01*
X115712946Y-129143054D01*
X115581733Y-128983172D01*
X115484233Y-128800763D01*
X115464220Y-128734787D01*
X115424193Y-128602836D01*
X115403920Y-128397000D01*
X115424193Y-128191164D01*
X115484233Y-127993238D01*
X115484233Y-127993237D01*
X115581733Y-127810828D01*
X115712946Y-127650946D01*
X115872828Y-127519733D01*
X116055237Y-127422233D01*
X116121213Y-127402220D01*
X116253164Y-127362193D01*
X116330293Y-127354597D01*
X116407420Y-127347000D01*
X116510580Y-127347000D01*
X116587707Y-127354597D01*
X116587707Y-127354597D01*
G37*
G36*
X175639888Y-127351470D02*
X175820274Y-127387350D01*
X176011362Y-127466502D01*
X176183336Y-127581411D01*
X176329589Y-127727664D01*
X176444498Y-127899638D01*
X176523650Y-128090726D01*
X176564000Y-128293584D01*
X176564000Y-128500416D01*
X176523650Y-128703274D01*
X176444498Y-128894362D01*
X176329589Y-129066336D01*
X176183336Y-129212589D01*
X176011362Y-129327498D01*
X175820274Y-129406650D01*
X175639888Y-129442530D01*
X175617417Y-129447000D01*
X175410583Y-129447000D01*
X175388112Y-129442530D01*
X175207726Y-129406650D01*
X175016638Y-129327498D01*
X174844664Y-129212589D01*
X174698411Y-129066336D01*
X174583502Y-128894362D01*
X174504350Y-128703274D01*
X174464000Y-128500416D01*
X174464000Y-128293584D01*
X174504350Y-128090726D01*
X174583502Y-127899638D01*
X174698411Y-127727664D01*
X174844664Y-127581411D01*
X175016638Y-127466502D01*
X175207726Y-127387350D01*
X175388112Y-127351470D01*
X175410583Y-127347000D01*
X175617417Y-127347000D01*
X175639888Y-127351470D01*
X175639888Y-127351470D01*
G37*
G36*
X162942707Y-127354597D02*
X163019836Y-127362193D01*
X163151787Y-127402220D01*
X163217763Y-127422233D01*
X163400172Y-127519733D01*
X163560054Y-127650946D01*
X163691267Y-127810828D01*
X163788767Y-127993237D01*
X163788767Y-127993238D01*
X163848807Y-128191164D01*
X163869080Y-128397000D01*
X163848807Y-128602836D01*
X163808780Y-128734787D01*
X163788767Y-128800763D01*
X163691267Y-128983172D01*
X163560054Y-129143054D01*
X163400172Y-129274267D01*
X163217763Y-129371767D01*
X163151787Y-129391780D01*
X163019836Y-129431807D01*
X162942707Y-129439403D01*
X162865580Y-129447000D01*
X162762420Y-129447000D01*
X162685293Y-129439403D01*
X162608164Y-129431807D01*
X162476213Y-129391780D01*
X162410237Y-129371767D01*
X162227828Y-129274267D01*
X162067946Y-129143054D01*
X161936733Y-128983172D01*
X161839233Y-128800763D01*
X161819220Y-128734787D01*
X161779193Y-128602836D01*
X161758920Y-128397000D01*
X161779193Y-128191164D01*
X161839233Y-127993238D01*
X161839233Y-127993237D01*
X161936733Y-127810828D01*
X162067946Y-127650946D01*
X162227828Y-127519733D01*
X162410237Y-127422233D01*
X162476213Y-127402220D01*
X162608164Y-127362193D01*
X162685293Y-127354597D01*
X162762420Y-127347000D01*
X162865580Y-127347000D01*
X162942707Y-127354597D01*
X162942707Y-127354597D01*
G37*
G36*
X170562707Y-127354597D02*
X170639836Y-127362193D01*
X170771787Y-127402220D01*
X170837763Y-127422233D01*
X171020172Y-127519733D01*
X171180054Y-127650946D01*
X171311267Y-127810828D01*
X171408767Y-127993237D01*
X171408767Y-127993238D01*
X171468807Y-128191164D01*
X171489080Y-128397000D01*
X171468807Y-128602836D01*
X171428780Y-128734787D01*
X171408767Y-128800763D01*
X171311267Y-128983172D01*
X171180054Y-129143054D01*
X171020172Y-129274267D01*
X170837763Y-129371767D01*
X170771787Y-129391780D01*
X170639836Y-129431807D01*
X170562707Y-129439403D01*
X170485580Y-129447000D01*
X170382420Y-129447000D01*
X170305293Y-129439403D01*
X170228164Y-129431807D01*
X170096213Y-129391780D01*
X170030237Y-129371767D01*
X169847828Y-129274267D01*
X169687946Y-129143054D01*
X169556733Y-128983172D01*
X169459233Y-128800763D01*
X169439220Y-128734787D01*
X169399193Y-128602836D01*
X169378920Y-128397000D01*
X169399193Y-128191164D01*
X169459233Y-127993238D01*
X169459233Y-127993237D01*
X169556733Y-127810828D01*
X169687946Y-127650946D01*
X169847828Y-127519733D01*
X170030237Y-127422233D01*
X170096213Y-127402220D01*
X170228164Y-127362193D01*
X170305293Y-127354597D01*
X170382420Y-127347000D01*
X170485580Y-127347000D01*
X170562707Y-127354597D01*
X170562707Y-127354597D01*
G37*
G36*
X168022707Y-127354597D02*
X168099836Y-127362193D01*
X168231787Y-127402220D01*
X168297763Y-127422233D01*
X168480172Y-127519733D01*
X168640054Y-127650946D01*
X168771267Y-127810828D01*
X168868767Y-127993237D01*
X168868767Y-127993238D01*
X168928807Y-128191164D01*
X168949080Y-128397000D01*
X168928807Y-128602836D01*
X168888780Y-128734787D01*
X168868767Y-128800763D01*
X168771267Y-128983172D01*
X168640054Y-129143054D01*
X168480172Y-129274267D01*
X168297763Y-129371767D01*
X168231787Y-129391780D01*
X168099836Y-129431807D01*
X168022707Y-129439403D01*
X167945580Y-129447000D01*
X167842420Y-129447000D01*
X167765293Y-129439403D01*
X167688164Y-129431807D01*
X167556213Y-129391780D01*
X167490237Y-129371767D01*
X167307828Y-129274267D01*
X167147946Y-129143054D01*
X167016733Y-128983172D01*
X166919233Y-128800763D01*
X166899220Y-128734787D01*
X166859193Y-128602836D01*
X166838920Y-128397000D01*
X166859193Y-128191164D01*
X166919233Y-127993238D01*
X166919233Y-127993237D01*
X167016733Y-127810828D01*
X167147946Y-127650946D01*
X167307828Y-127519733D01*
X167490237Y-127422233D01*
X167556213Y-127402220D01*
X167688164Y-127362193D01*
X167765293Y-127354597D01*
X167842420Y-127347000D01*
X167945580Y-127347000D01*
X168022707Y-127354597D01*
X168022707Y-127354597D01*
G37*
G36*
X160402707Y-127354597D02*
X160479836Y-127362193D01*
X160611787Y-127402220D01*
X160677763Y-127422233D01*
X160860172Y-127519733D01*
X161020054Y-127650946D01*
X161151267Y-127810828D01*
X161248767Y-127993237D01*
X161248767Y-127993238D01*
X161308807Y-128191164D01*
X161329080Y-128397000D01*
X161308807Y-128602836D01*
X161268780Y-128734787D01*
X161248767Y-128800763D01*
X161151267Y-128983172D01*
X161020054Y-129143054D01*
X160860172Y-129274267D01*
X160677763Y-129371767D01*
X160611787Y-129391780D01*
X160479836Y-129431807D01*
X160402707Y-129439403D01*
X160325580Y-129447000D01*
X160222420Y-129447000D01*
X160145293Y-129439403D01*
X160068164Y-129431807D01*
X159936213Y-129391780D01*
X159870237Y-129371767D01*
X159687828Y-129274267D01*
X159527946Y-129143054D01*
X159396733Y-128983172D01*
X159299233Y-128800763D01*
X159279220Y-128734787D01*
X159239193Y-128602836D01*
X159218920Y-128397000D01*
X159239193Y-128191164D01*
X159299233Y-127993238D01*
X159299233Y-127993237D01*
X159396733Y-127810828D01*
X159527946Y-127650946D01*
X159687828Y-127519733D01*
X159870237Y-127422233D01*
X159936213Y-127402220D01*
X160068164Y-127362193D01*
X160145293Y-127354597D01*
X160222420Y-127347000D01*
X160325580Y-127347000D01*
X160402707Y-127354597D01*
X160402707Y-127354597D01*
G37*
G36*
X165482707Y-127354597D02*
X165559836Y-127362193D01*
X165691787Y-127402220D01*
X165757763Y-127422233D01*
X165940172Y-127519733D01*
X166100054Y-127650946D01*
X166231267Y-127810828D01*
X166328767Y-127993237D01*
X166328767Y-127993238D01*
X166388807Y-128191164D01*
X166409080Y-128397000D01*
X166388807Y-128602836D01*
X166348780Y-128734787D01*
X166328767Y-128800763D01*
X166231267Y-128983172D01*
X166100054Y-129143054D01*
X165940172Y-129274267D01*
X165757763Y-129371767D01*
X165691787Y-129391780D01*
X165559836Y-129431807D01*
X165482707Y-129439403D01*
X165405580Y-129447000D01*
X165302420Y-129447000D01*
X165225293Y-129439403D01*
X165148164Y-129431807D01*
X165016213Y-129391780D01*
X164950237Y-129371767D01*
X164767828Y-129274267D01*
X164607946Y-129143054D01*
X164476733Y-128983172D01*
X164379233Y-128800763D01*
X164359220Y-128734787D01*
X164319193Y-128602836D01*
X164298920Y-128397000D01*
X164319193Y-128191164D01*
X164379233Y-127993238D01*
X164379233Y-127993237D01*
X164476733Y-127810828D01*
X164607946Y-127650946D01*
X164767828Y-127519733D01*
X164950237Y-127422233D01*
X165016213Y-127402220D01*
X165148164Y-127362193D01*
X165225293Y-127354597D01*
X165302420Y-127347000D01*
X165405580Y-127347000D01*
X165482707Y-127354597D01*
X165482707Y-127354597D01*
G37*
G36*
X119127707Y-127354597D02*
X119204836Y-127362193D01*
X119336787Y-127402220D01*
X119402763Y-127422233D01*
X119585172Y-127519733D01*
X119745054Y-127650946D01*
X119876267Y-127810828D01*
X119973767Y-127993237D01*
X119973767Y-127993238D01*
X120033807Y-128191164D01*
X120054080Y-128397000D01*
X120033807Y-128602836D01*
X119993780Y-128734787D01*
X119973767Y-128800763D01*
X119876267Y-128983172D01*
X119745054Y-129143054D01*
X119585172Y-129274267D01*
X119402763Y-129371767D01*
X119336787Y-129391780D01*
X119204836Y-129431807D01*
X119127707Y-129439403D01*
X119050580Y-129447000D01*
X118947420Y-129447000D01*
X118870293Y-129439403D01*
X118793164Y-129431807D01*
X118661213Y-129391780D01*
X118595237Y-129371767D01*
X118412828Y-129274267D01*
X118252946Y-129143054D01*
X118121733Y-128983172D01*
X118024233Y-128800763D01*
X118004220Y-128734787D01*
X117964193Y-128602836D01*
X117943920Y-128397000D01*
X117964193Y-128191164D01*
X118024233Y-127993238D01*
X118024233Y-127993237D01*
X118121733Y-127810828D01*
X118252946Y-127650946D01*
X118412828Y-127519733D01*
X118595237Y-127422233D01*
X118661213Y-127402220D01*
X118793164Y-127362193D01*
X118870293Y-127354597D01*
X118947420Y-127347000D01*
X119050580Y-127347000D01*
X119127707Y-127354597D01*
X119127707Y-127354597D01*
G37*
G36*
X111507707Y-127354597D02*
X111584836Y-127362193D01*
X111716787Y-127402220D01*
X111782763Y-127422233D01*
X111965172Y-127519733D01*
X112125054Y-127650946D01*
X112256267Y-127810828D01*
X112353767Y-127993237D01*
X112353767Y-127993238D01*
X112413807Y-128191164D01*
X112434080Y-128397000D01*
X112413807Y-128602836D01*
X112373780Y-128734787D01*
X112353767Y-128800763D01*
X112256267Y-128983172D01*
X112125054Y-129143054D01*
X111965172Y-129274267D01*
X111782763Y-129371767D01*
X111716787Y-129391780D01*
X111584836Y-129431807D01*
X111507707Y-129439403D01*
X111430580Y-129447000D01*
X111327420Y-129447000D01*
X111250293Y-129439403D01*
X111173164Y-129431807D01*
X111041213Y-129391780D01*
X110975237Y-129371767D01*
X110792828Y-129274267D01*
X110632946Y-129143054D01*
X110501733Y-128983172D01*
X110404233Y-128800763D01*
X110384220Y-128734787D01*
X110344193Y-128602836D01*
X110323920Y-128397000D01*
X110344193Y-128191164D01*
X110404233Y-127993238D01*
X110404233Y-127993237D01*
X110501733Y-127810828D01*
X110632946Y-127650946D01*
X110792828Y-127519733D01*
X110975237Y-127422233D01*
X111041213Y-127402220D01*
X111173164Y-127362193D01*
X111250293Y-127354597D01*
X111327420Y-127347000D01*
X111430580Y-127347000D01*
X111507707Y-127354597D01*
X111507707Y-127354597D01*
G37*
G36*
X106427707Y-127354597D02*
X106504836Y-127362193D01*
X106636787Y-127402220D01*
X106702763Y-127422233D01*
X106885172Y-127519733D01*
X107045054Y-127650946D01*
X107176267Y-127810828D01*
X107273767Y-127993237D01*
X107273767Y-127993238D01*
X107333807Y-128191164D01*
X107354080Y-128397000D01*
X107333807Y-128602836D01*
X107293780Y-128734787D01*
X107273767Y-128800763D01*
X107176267Y-128983172D01*
X107045054Y-129143054D01*
X106885172Y-129274267D01*
X106702763Y-129371767D01*
X106636787Y-129391780D01*
X106504836Y-129431807D01*
X106427707Y-129439403D01*
X106350580Y-129447000D01*
X106247420Y-129447000D01*
X106170293Y-129439403D01*
X106093164Y-129431807D01*
X105961213Y-129391780D01*
X105895237Y-129371767D01*
X105712828Y-129274267D01*
X105552946Y-129143054D01*
X105421733Y-128983172D01*
X105324233Y-128800763D01*
X105304220Y-128734787D01*
X105264193Y-128602836D01*
X105243920Y-128397000D01*
X105264193Y-128191164D01*
X105324233Y-127993238D01*
X105324233Y-127993237D01*
X105421733Y-127810828D01*
X105552946Y-127650946D01*
X105712828Y-127519733D01*
X105895237Y-127422233D01*
X105961213Y-127402220D01*
X106093164Y-127362193D01*
X106170293Y-127354597D01*
X106247420Y-127347000D01*
X106350580Y-127347000D01*
X106427707Y-127354597D01*
X106427707Y-127354597D01*
G37*
G36*
X114047707Y-127354597D02*
X114124836Y-127362193D01*
X114256787Y-127402220D01*
X114322763Y-127422233D01*
X114505172Y-127519733D01*
X114665054Y-127650946D01*
X114796267Y-127810828D01*
X114893767Y-127993237D01*
X114893767Y-127993238D01*
X114953807Y-128191164D01*
X114974080Y-128397000D01*
X114953807Y-128602836D01*
X114913780Y-128734787D01*
X114893767Y-128800763D01*
X114796267Y-128983172D01*
X114665054Y-129143054D01*
X114505172Y-129274267D01*
X114322763Y-129371767D01*
X114256787Y-129391780D01*
X114124836Y-129431807D01*
X114047707Y-129439403D01*
X113970580Y-129447000D01*
X113867420Y-129447000D01*
X113790293Y-129439403D01*
X113713164Y-129431807D01*
X113581213Y-129391780D01*
X113515237Y-129371767D01*
X113332828Y-129274267D01*
X113172946Y-129143054D01*
X113041733Y-128983172D01*
X112944233Y-128800763D01*
X112924220Y-128734787D01*
X112884193Y-128602836D01*
X112863920Y-128397000D01*
X112884193Y-128191164D01*
X112944233Y-127993238D01*
X112944233Y-127993237D01*
X113041733Y-127810828D01*
X113172946Y-127650946D01*
X113332828Y-127519733D01*
X113515237Y-127422233D01*
X113581213Y-127402220D01*
X113713164Y-127362193D01*
X113790293Y-127354597D01*
X113867420Y-127347000D01*
X113970580Y-127347000D01*
X114047707Y-127354597D01*
X114047707Y-127354597D01*
G37*
G36*
X197105707Y-127354597D02*
X197182836Y-127362193D01*
X197314787Y-127402220D01*
X197380763Y-127422233D01*
X197563172Y-127519733D01*
X197723054Y-127650946D01*
X197854267Y-127810828D01*
X197951767Y-127993237D01*
X197951767Y-127993238D01*
X198011807Y-128191164D01*
X198032080Y-128397000D01*
X198011807Y-128602836D01*
X197971780Y-128734787D01*
X197951767Y-128800763D01*
X197854267Y-128983172D01*
X197723054Y-129143054D01*
X197563172Y-129274267D01*
X197380763Y-129371767D01*
X197314787Y-129391780D01*
X197182836Y-129431807D01*
X197105707Y-129439403D01*
X197028580Y-129447000D01*
X196925420Y-129447000D01*
X196848293Y-129439403D01*
X196771164Y-129431807D01*
X196639213Y-129391780D01*
X196573237Y-129371767D01*
X196390828Y-129274267D01*
X196230946Y-129143054D01*
X196099733Y-128983172D01*
X196002233Y-128800763D01*
X195982220Y-128734787D01*
X195942193Y-128602836D01*
X195921920Y-128397000D01*
X195942193Y-128191164D01*
X196002233Y-127993238D01*
X196002233Y-127993237D01*
X196099733Y-127810828D01*
X196230946Y-127650946D01*
X196390828Y-127519733D01*
X196573237Y-127422233D01*
X196639213Y-127402220D01*
X196771164Y-127362193D01*
X196848293Y-127354597D01*
X196925420Y-127347000D01*
X197028580Y-127347000D01*
X197105707Y-127354597D01*
X197105707Y-127354597D01*
G37*
G36*
X173102707Y-127354597D02*
X173179836Y-127362193D01*
X173311787Y-127402220D01*
X173377763Y-127422233D01*
X173560172Y-127519733D01*
X173720054Y-127650946D01*
X173851267Y-127810828D01*
X173948767Y-127993237D01*
X173948767Y-127993238D01*
X174008807Y-128191164D01*
X174029080Y-128397000D01*
X174008807Y-128602836D01*
X173968780Y-128734787D01*
X173948767Y-128800763D01*
X173851267Y-128983172D01*
X173720054Y-129143054D01*
X173560172Y-129274267D01*
X173377763Y-129371767D01*
X173311787Y-129391780D01*
X173179836Y-129431807D01*
X173102707Y-129439403D01*
X173025580Y-129447000D01*
X172922420Y-129447000D01*
X172845293Y-129439403D01*
X172768164Y-129431807D01*
X172636213Y-129391780D01*
X172570237Y-129371767D01*
X172387828Y-129274267D01*
X172227946Y-129143054D01*
X172096733Y-128983172D01*
X171999233Y-128800763D01*
X171979220Y-128734787D01*
X171939193Y-128602836D01*
X171918920Y-128397000D01*
X171939193Y-128191164D01*
X171999233Y-127993238D01*
X171999233Y-127993237D01*
X172096733Y-127810828D01*
X172227946Y-127650946D01*
X172387828Y-127519733D01*
X172570237Y-127422233D01*
X172636213Y-127402220D01*
X172768164Y-127362193D01*
X172845293Y-127354597D01*
X172922420Y-127347000D01*
X173025580Y-127347000D01*
X173102707Y-127354597D01*
X173102707Y-127354597D01*
G37*
G36*
X178817707Y-126211596D02*
X178894836Y-126219193D01*
X179026787Y-126259220D01*
X179092763Y-126279233D01*
X179275172Y-126376733D01*
X179435054Y-126507946D01*
X179566267Y-126667828D01*
X179663767Y-126850237D01*
X179663767Y-126850238D01*
X179723807Y-127048164D01*
X179744080Y-127254000D01*
X179723807Y-127459836D01*
X179686928Y-127581411D01*
X179663767Y-127657763D01*
X179566267Y-127840172D01*
X179435054Y-128000054D01*
X179275172Y-128131267D01*
X179092763Y-128228767D01*
X179026787Y-128248780D01*
X178894836Y-128288807D01*
X178817707Y-128296403D01*
X178740580Y-128304000D01*
X178637420Y-128304000D01*
X178560293Y-128296403D01*
X178483164Y-128288807D01*
X178351213Y-128248780D01*
X178285237Y-128228767D01*
X178102828Y-128131267D01*
X177942946Y-128000054D01*
X177811733Y-127840172D01*
X177714233Y-127657763D01*
X177691072Y-127581411D01*
X177654193Y-127459836D01*
X177633920Y-127254000D01*
X177654193Y-127048164D01*
X177714233Y-126850238D01*
X177714233Y-126850237D01*
X177811733Y-126667828D01*
X177942946Y-126507946D01*
X178102828Y-126376733D01*
X178285237Y-126279233D01*
X178351213Y-126259220D01*
X178483164Y-126219193D01*
X178560293Y-126211596D01*
X178637420Y-126204000D01*
X178740580Y-126204000D01*
X178817707Y-126211596D01*
X178817707Y-126211596D01*
G37*
G36*
X149353707Y-126211596D02*
X149430836Y-126219193D01*
X149562787Y-126259220D01*
X149628763Y-126279233D01*
X149811172Y-126376733D01*
X149971054Y-126507946D01*
X150102267Y-126667828D01*
X150199767Y-126850237D01*
X150199767Y-126850238D01*
X150259807Y-127048164D01*
X150280080Y-127254000D01*
X150259807Y-127459836D01*
X150222928Y-127581411D01*
X150199767Y-127657763D01*
X150102267Y-127840172D01*
X149971054Y-128000054D01*
X149811172Y-128131267D01*
X149628763Y-128228767D01*
X149562787Y-128248780D01*
X149430836Y-128288807D01*
X149353707Y-128296403D01*
X149276580Y-128304000D01*
X149173420Y-128304000D01*
X149096293Y-128296403D01*
X149019164Y-128288807D01*
X148887213Y-128248780D01*
X148821237Y-128228767D01*
X148638828Y-128131267D01*
X148478946Y-128000054D01*
X148347733Y-127840172D01*
X148250233Y-127657763D01*
X148227072Y-127581411D01*
X148190193Y-127459836D01*
X148169920Y-127254000D01*
X148190193Y-127048164D01*
X148250233Y-126850238D01*
X148250233Y-126850237D01*
X148347733Y-126667828D01*
X148478946Y-126507946D01*
X148638828Y-126376733D01*
X148821237Y-126279233D01*
X148887213Y-126259220D01*
X149019164Y-126219193D01*
X149096293Y-126211596D01*
X149173420Y-126204000D01*
X149276580Y-126204000D01*
X149353707Y-126211596D01*
X149353707Y-126211596D01*
G37*
G36*
X151893707Y-126211596D02*
X151970836Y-126219193D01*
X152102787Y-126259220D01*
X152168763Y-126279233D01*
X152351172Y-126376733D01*
X152511054Y-126507946D01*
X152642267Y-126667828D01*
X152739767Y-126850237D01*
X152739767Y-126850238D01*
X152799807Y-127048164D01*
X152820080Y-127254000D01*
X152799807Y-127459836D01*
X152762928Y-127581411D01*
X152739767Y-127657763D01*
X152642267Y-127840172D01*
X152511054Y-128000054D01*
X152351172Y-128131267D01*
X152168763Y-128228767D01*
X152102787Y-128248780D01*
X151970836Y-128288807D01*
X151893707Y-128296403D01*
X151816580Y-128304000D01*
X151713420Y-128304000D01*
X151636293Y-128296403D01*
X151559164Y-128288807D01*
X151427213Y-128248780D01*
X151361237Y-128228767D01*
X151178828Y-128131267D01*
X151018946Y-128000054D01*
X150887733Y-127840172D01*
X150790233Y-127657763D01*
X150767072Y-127581411D01*
X150730193Y-127459836D01*
X150709920Y-127254000D01*
X150730193Y-127048164D01*
X150790233Y-126850238D01*
X150790233Y-126850237D01*
X150887733Y-126667828D01*
X151018946Y-126507946D01*
X151178828Y-126376733D01*
X151361237Y-126279233D01*
X151427213Y-126259220D01*
X151559164Y-126219193D01*
X151636293Y-126211596D01*
X151713420Y-126204000D01*
X151816580Y-126204000D01*
X151893707Y-126211596D01*
X151893707Y-126211596D01*
G37*
G36*
X154433707Y-126211596D02*
X154510836Y-126219193D01*
X154642787Y-126259220D01*
X154708763Y-126279233D01*
X154891172Y-126376733D01*
X155051054Y-126507946D01*
X155182267Y-126667828D01*
X155279767Y-126850237D01*
X155279767Y-126850238D01*
X155339807Y-127048164D01*
X155360080Y-127254000D01*
X155339807Y-127459836D01*
X155302928Y-127581411D01*
X155279767Y-127657763D01*
X155182267Y-127840172D01*
X155051054Y-128000054D01*
X154891172Y-128131267D01*
X154708763Y-128228767D01*
X154642787Y-128248780D01*
X154510836Y-128288807D01*
X154433707Y-128296403D01*
X154356580Y-128304000D01*
X154253420Y-128304000D01*
X154176293Y-128296403D01*
X154099164Y-128288807D01*
X153967213Y-128248780D01*
X153901237Y-128228767D01*
X153718828Y-128131267D01*
X153558946Y-128000054D01*
X153427733Y-127840172D01*
X153330233Y-127657763D01*
X153307072Y-127581411D01*
X153270193Y-127459836D01*
X153249920Y-127254000D01*
X153270193Y-127048164D01*
X153330233Y-126850238D01*
X153330233Y-126850237D01*
X153427733Y-126667828D01*
X153558946Y-126507946D01*
X153718828Y-126376733D01*
X153901237Y-126279233D01*
X153967213Y-126259220D01*
X154099164Y-126219193D01*
X154176293Y-126211596D01*
X154253420Y-126204000D01*
X154356580Y-126204000D01*
X154433707Y-126211596D01*
X154433707Y-126211596D01*
G37*
G36*
X156973707Y-126211596D02*
X157050836Y-126219193D01*
X157182787Y-126259220D01*
X157248763Y-126279233D01*
X157431172Y-126376733D01*
X157591054Y-126507946D01*
X157722267Y-126667828D01*
X157819767Y-126850237D01*
X157819767Y-126850238D01*
X157879807Y-127048164D01*
X157900080Y-127254000D01*
X157879807Y-127459836D01*
X157842928Y-127581411D01*
X157819767Y-127657763D01*
X157722267Y-127840172D01*
X157591054Y-128000054D01*
X157431172Y-128131267D01*
X157248763Y-128228767D01*
X157182787Y-128248780D01*
X157050836Y-128288807D01*
X156973707Y-128296403D01*
X156896580Y-128304000D01*
X156793420Y-128304000D01*
X156716293Y-128296403D01*
X156639164Y-128288807D01*
X156507213Y-128248780D01*
X156441237Y-128228767D01*
X156258828Y-128131267D01*
X156098946Y-128000054D01*
X155967733Y-127840172D01*
X155870233Y-127657763D01*
X155847072Y-127581411D01*
X155810193Y-127459836D01*
X155789920Y-127254000D01*
X155810193Y-127048164D01*
X155870233Y-126850238D01*
X155870233Y-126850237D01*
X155967733Y-126667828D01*
X156098946Y-126507946D01*
X156258828Y-126376733D01*
X156441237Y-126279233D01*
X156507213Y-126259220D01*
X156639164Y-126219193D01*
X156716293Y-126211596D01*
X156793420Y-126204000D01*
X156896580Y-126204000D01*
X156973707Y-126211596D01*
X156973707Y-126211596D01*
G37*
G36*
X124842707Y-126211596D02*
X124919836Y-126219193D01*
X125051787Y-126259220D01*
X125117763Y-126279233D01*
X125300172Y-126376733D01*
X125460054Y-126507946D01*
X125591267Y-126667828D01*
X125688767Y-126850237D01*
X125688767Y-126850238D01*
X125748807Y-127048164D01*
X125769080Y-127254000D01*
X125748807Y-127459836D01*
X125711928Y-127581411D01*
X125688767Y-127657763D01*
X125591267Y-127840172D01*
X125460054Y-128000054D01*
X125300172Y-128131267D01*
X125117763Y-128228767D01*
X125051787Y-128248780D01*
X124919836Y-128288807D01*
X124842707Y-128296403D01*
X124765580Y-128304000D01*
X124662420Y-128304000D01*
X124585293Y-128296403D01*
X124508164Y-128288807D01*
X124376213Y-128248780D01*
X124310237Y-128228767D01*
X124127828Y-128131267D01*
X123967946Y-128000054D01*
X123836733Y-127840172D01*
X123739233Y-127657763D01*
X123716072Y-127581411D01*
X123679193Y-127459836D01*
X123658920Y-127254000D01*
X123679193Y-127048164D01*
X123739233Y-126850238D01*
X123739233Y-126850237D01*
X123836733Y-126667828D01*
X123967946Y-126507946D01*
X124127828Y-126376733D01*
X124310237Y-126279233D01*
X124376213Y-126259220D01*
X124508164Y-126219193D01*
X124585293Y-126211596D01*
X124662420Y-126204000D01*
X124765580Y-126204000D01*
X124842707Y-126211596D01*
X124842707Y-126211596D01*
G37*
G36*
X127382707Y-126211596D02*
X127459836Y-126219193D01*
X127591787Y-126259220D01*
X127657763Y-126279233D01*
X127840172Y-126376733D01*
X128000054Y-126507946D01*
X128131267Y-126667828D01*
X128228767Y-126850237D01*
X128228767Y-126850238D01*
X128288807Y-127048164D01*
X128309080Y-127254000D01*
X128288807Y-127459836D01*
X128251928Y-127581411D01*
X128228767Y-127657763D01*
X128131267Y-127840172D01*
X128000054Y-128000054D01*
X127840172Y-128131267D01*
X127657763Y-128228767D01*
X127591787Y-128248780D01*
X127459836Y-128288807D01*
X127382707Y-128296403D01*
X127305580Y-128304000D01*
X127202420Y-128304000D01*
X127125293Y-128296403D01*
X127048164Y-128288807D01*
X126916213Y-128248780D01*
X126850237Y-128228767D01*
X126667828Y-128131267D01*
X126507946Y-128000054D01*
X126376733Y-127840172D01*
X126279233Y-127657763D01*
X126256072Y-127581411D01*
X126219193Y-127459836D01*
X126198920Y-127254000D01*
X126219193Y-127048164D01*
X126279233Y-126850238D01*
X126279233Y-126850237D01*
X126376733Y-126667828D01*
X126507946Y-126507946D01*
X126667828Y-126376733D01*
X126850237Y-126279233D01*
X126916213Y-126259220D01*
X127048164Y-126219193D01*
X127125293Y-126211596D01*
X127202420Y-126204000D01*
X127305580Y-126204000D01*
X127382707Y-126211596D01*
X127382707Y-126211596D01*
G37*
G36*
X181357707Y-126211596D02*
X181434836Y-126219193D01*
X181566787Y-126259220D01*
X181632763Y-126279233D01*
X181815172Y-126376733D01*
X181975054Y-126507946D01*
X182106267Y-126667828D01*
X182203767Y-126850237D01*
X182203767Y-126850238D01*
X182263807Y-127048164D01*
X182284080Y-127254000D01*
X182263807Y-127459836D01*
X182226928Y-127581411D01*
X182203767Y-127657763D01*
X182106267Y-127840172D01*
X181975054Y-128000054D01*
X181815172Y-128131267D01*
X181632763Y-128228767D01*
X181566787Y-128248780D01*
X181434836Y-128288807D01*
X181357707Y-128296403D01*
X181280580Y-128304000D01*
X181177420Y-128304000D01*
X181100293Y-128296403D01*
X181023164Y-128288807D01*
X180891213Y-128248780D01*
X180825237Y-128228767D01*
X180642828Y-128131267D01*
X180482946Y-128000054D01*
X180351733Y-127840172D01*
X180254233Y-127657763D01*
X180231072Y-127581411D01*
X180194193Y-127459836D01*
X180173920Y-127254000D01*
X180194193Y-127048164D01*
X180254233Y-126850238D01*
X180254233Y-126850237D01*
X180351733Y-126667828D01*
X180482946Y-126507946D01*
X180642828Y-126376733D01*
X180825237Y-126279233D01*
X180891213Y-126259220D01*
X181023164Y-126219193D01*
X181100293Y-126211596D01*
X181177420Y-126204000D01*
X181280580Y-126204000D01*
X181357707Y-126211596D01*
X181357707Y-126211596D01*
G37*
G36*
X127382707Y-123671596D02*
X127459836Y-123679193D01*
X127591787Y-123719220D01*
X127657763Y-123739233D01*
X127840172Y-123836733D01*
X128000054Y-123967946D01*
X128131267Y-124127828D01*
X128228767Y-124310237D01*
X128228767Y-124310238D01*
X128288807Y-124508164D01*
X128309080Y-124714000D01*
X128288807Y-124919836D01*
X128248780Y-125051787D01*
X128228767Y-125117763D01*
X128131267Y-125300172D01*
X128000054Y-125460054D01*
X127840172Y-125591267D01*
X127657763Y-125688767D01*
X127591787Y-125708780D01*
X127459836Y-125748807D01*
X127382707Y-125756404D01*
X127305580Y-125764000D01*
X127202420Y-125764000D01*
X127125293Y-125756404D01*
X127048164Y-125748807D01*
X126916213Y-125708780D01*
X126850237Y-125688767D01*
X126667828Y-125591267D01*
X126507946Y-125460054D01*
X126376733Y-125300172D01*
X126279233Y-125117763D01*
X126259220Y-125051787D01*
X126219193Y-124919836D01*
X126198920Y-124714000D01*
X126219193Y-124508164D01*
X126279233Y-124310238D01*
X126279233Y-124310237D01*
X126376733Y-124127828D01*
X126507946Y-123967946D01*
X126667828Y-123836733D01*
X126850237Y-123739233D01*
X126916213Y-123719220D01*
X127048164Y-123679193D01*
X127125293Y-123671596D01*
X127202420Y-123664000D01*
X127305580Y-123664000D01*
X127382707Y-123671596D01*
X127382707Y-123671596D01*
G37*
G36*
X179739000Y-125764000D02*
X177639000Y-125764000D01*
X177639000Y-123664000D01*
X179739000Y-123664000D01*
X179739000Y-125764000D01*
X179739000Y-125764000D01*
G37*
G36*
X181357707Y-123671596D02*
X181434836Y-123679193D01*
X181566787Y-123719220D01*
X181632763Y-123739233D01*
X181815172Y-123836733D01*
X181975054Y-123967946D01*
X182106267Y-124127828D01*
X182203767Y-124310237D01*
X182203767Y-124310238D01*
X182263807Y-124508164D01*
X182284080Y-124714000D01*
X182263807Y-124919836D01*
X182223780Y-125051787D01*
X182203767Y-125117763D01*
X182106267Y-125300172D01*
X181975054Y-125460054D01*
X181815172Y-125591267D01*
X181632763Y-125688767D01*
X181566787Y-125708780D01*
X181434836Y-125748807D01*
X181357707Y-125756404D01*
X181280580Y-125764000D01*
X181177420Y-125764000D01*
X181100293Y-125756404D01*
X181023164Y-125748807D01*
X180891213Y-125708780D01*
X180825237Y-125688767D01*
X180642828Y-125591267D01*
X180482946Y-125460054D01*
X180351733Y-125300172D01*
X180254233Y-125117763D01*
X180234220Y-125051787D01*
X180194193Y-124919836D01*
X180173920Y-124714000D01*
X180194193Y-124508164D01*
X180254233Y-124310238D01*
X180254233Y-124310237D01*
X180351733Y-124127828D01*
X180482946Y-123967946D01*
X180642828Y-123836733D01*
X180825237Y-123739233D01*
X180891213Y-123719220D01*
X181023164Y-123679193D01*
X181100293Y-123671596D01*
X181177420Y-123664000D01*
X181280580Y-123664000D01*
X181357707Y-123671596D01*
X181357707Y-123671596D01*
G37*
G36*
X154433707Y-123671596D02*
X154510836Y-123679193D01*
X154642787Y-123719220D01*
X154708763Y-123739233D01*
X154891172Y-123836733D01*
X155051054Y-123967946D01*
X155182267Y-124127828D01*
X155279767Y-124310237D01*
X155279767Y-124310238D01*
X155339807Y-124508164D01*
X155360080Y-124714000D01*
X155339807Y-124919836D01*
X155299780Y-125051787D01*
X155279767Y-125117763D01*
X155182267Y-125300172D01*
X155051054Y-125460054D01*
X154891172Y-125591267D01*
X154708763Y-125688767D01*
X154642787Y-125708780D01*
X154510836Y-125748807D01*
X154433707Y-125756404D01*
X154356580Y-125764000D01*
X154253420Y-125764000D01*
X154176293Y-125756404D01*
X154099164Y-125748807D01*
X153967213Y-125708780D01*
X153901237Y-125688767D01*
X153718828Y-125591267D01*
X153558946Y-125460054D01*
X153427733Y-125300172D01*
X153330233Y-125117763D01*
X153310220Y-125051787D01*
X153270193Y-124919836D01*
X153249920Y-124714000D01*
X153270193Y-124508164D01*
X153330233Y-124310238D01*
X153330233Y-124310237D01*
X153427733Y-124127828D01*
X153558946Y-123967946D01*
X153718828Y-123836733D01*
X153901237Y-123739233D01*
X153967213Y-123719220D01*
X154099164Y-123679193D01*
X154176293Y-123671596D01*
X154253420Y-123664000D01*
X154356580Y-123664000D01*
X154433707Y-123671596D01*
X154433707Y-123671596D01*
G37*
G36*
X150275000Y-125764000D02*
X148175000Y-125764000D01*
X148175000Y-123664000D01*
X150275000Y-123664000D01*
X150275000Y-125764000D01*
X150275000Y-125764000D01*
G37*
G36*
X156973707Y-123671596D02*
X157050836Y-123679193D01*
X157182787Y-123719220D01*
X157248763Y-123739233D01*
X157431172Y-123836733D01*
X157591054Y-123967946D01*
X157722267Y-124127828D01*
X157819767Y-124310237D01*
X157819767Y-124310238D01*
X157879807Y-124508164D01*
X157900080Y-124714000D01*
X157879807Y-124919836D01*
X157839780Y-125051787D01*
X157819767Y-125117763D01*
X157722267Y-125300172D01*
X157591054Y-125460054D01*
X157431172Y-125591267D01*
X157248763Y-125688767D01*
X157182787Y-125708780D01*
X157050836Y-125748807D01*
X156973707Y-125756404D01*
X156896580Y-125764000D01*
X156793420Y-125764000D01*
X156716293Y-125756404D01*
X156639164Y-125748807D01*
X156507213Y-125708780D01*
X156441237Y-125688767D01*
X156258828Y-125591267D01*
X156098946Y-125460054D01*
X155967733Y-125300172D01*
X155870233Y-125117763D01*
X155850220Y-125051787D01*
X155810193Y-124919836D01*
X155789920Y-124714000D01*
X155810193Y-124508164D01*
X155870233Y-124310238D01*
X155870233Y-124310237D01*
X155967733Y-124127828D01*
X156098946Y-123967946D01*
X156258828Y-123836733D01*
X156441237Y-123739233D01*
X156507213Y-123719220D01*
X156639164Y-123679193D01*
X156716293Y-123671596D01*
X156793420Y-123664000D01*
X156896580Y-123664000D01*
X156973707Y-123671596D01*
X156973707Y-123671596D01*
G37*
G36*
X125764000Y-125764000D02*
X123664000Y-125764000D01*
X123664000Y-123664000D01*
X125764000Y-123664000D01*
X125764000Y-125764000D01*
X125764000Y-125764000D01*
G37*
G36*
X151893707Y-123671596D02*
X151970836Y-123679193D01*
X152102787Y-123719220D01*
X152168763Y-123739233D01*
X152351172Y-123836733D01*
X152511054Y-123967946D01*
X152642267Y-124127828D01*
X152739767Y-124310237D01*
X152739767Y-124310238D01*
X152799807Y-124508164D01*
X152820080Y-124714000D01*
X152799807Y-124919836D01*
X152759780Y-125051787D01*
X152739767Y-125117763D01*
X152642267Y-125300172D01*
X152511054Y-125460054D01*
X152351172Y-125591267D01*
X152168763Y-125688767D01*
X152102787Y-125708780D01*
X151970836Y-125748807D01*
X151893707Y-125756404D01*
X151816580Y-125764000D01*
X151713420Y-125764000D01*
X151636293Y-125756404D01*
X151559164Y-125748807D01*
X151427213Y-125708780D01*
X151361237Y-125688767D01*
X151178828Y-125591267D01*
X151018946Y-125460054D01*
X150887733Y-125300172D01*
X150790233Y-125117763D01*
X150770220Y-125051787D01*
X150730193Y-124919836D01*
X150709920Y-124714000D01*
X150730193Y-124508164D01*
X150790233Y-124310238D01*
X150790233Y-124310237D01*
X150887733Y-124127828D01*
X151018946Y-123967946D01*
X151178828Y-123836733D01*
X151361237Y-123739233D01*
X151427213Y-123719220D01*
X151559164Y-123679193D01*
X151636293Y-123671596D01*
X151713420Y-123664000D01*
X151816580Y-123664000D01*
X151893707Y-123671596D01*
X151893707Y-123671596D01*
G37*
G36*
X161799707Y-120115596D02*
X161876836Y-120123193D01*
X162008787Y-120163220D01*
X162074763Y-120183233D01*
X162257172Y-120280733D01*
X162417054Y-120411946D01*
X162548267Y-120571828D01*
X162645767Y-120754237D01*
X162645767Y-120754238D01*
X162705807Y-120952164D01*
X162726080Y-121158000D01*
X162705807Y-121363836D01*
X162665780Y-121495787D01*
X162645767Y-121561763D01*
X162548267Y-121744172D01*
X162417054Y-121904054D01*
X162257172Y-122035267D01*
X162074763Y-122132767D01*
X162008787Y-122152780D01*
X161876836Y-122192807D01*
X161799707Y-122200403D01*
X161722580Y-122208000D01*
X161619420Y-122208000D01*
X161542293Y-122200403D01*
X161465164Y-122192807D01*
X161333213Y-122152780D01*
X161267237Y-122132767D01*
X161084828Y-122035267D01*
X160924946Y-121904054D01*
X160793733Y-121744172D01*
X160696233Y-121561763D01*
X160676220Y-121495787D01*
X160636193Y-121363836D01*
X160615920Y-121158000D01*
X160636193Y-120952164D01*
X160696233Y-120754238D01*
X160696233Y-120754237D01*
X160793733Y-120571828D01*
X160924946Y-120411946D01*
X161084828Y-120280733D01*
X161267237Y-120183233D01*
X161333213Y-120163220D01*
X161465164Y-120123193D01*
X161542293Y-120115596D01*
X161619420Y-120108000D01*
X161722580Y-120108000D01*
X161799707Y-120115596D01*
X161799707Y-120115596D01*
G37*
G36*
X179579707Y-120115596D02*
X179656836Y-120123193D01*
X179788787Y-120163220D01*
X179854763Y-120183233D01*
X180037172Y-120280733D01*
X180197054Y-120411946D01*
X180328267Y-120571828D01*
X180425767Y-120754237D01*
X180425767Y-120754238D01*
X180485807Y-120952164D01*
X180506080Y-121158000D01*
X180485807Y-121363836D01*
X180445780Y-121495787D01*
X180425767Y-121561763D01*
X180328267Y-121744172D01*
X180197054Y-121904054D01*
X180037172Y-122035267D01*
X179854763Y-122132767D01*
X179788787Y-122152780D01*
X179656836Y-122192807D01*
X179579707Y-122200403D01*
X179502580Y-122208000D01*
X179399420Y-122208000D01*
X179322293Y-122200403D01*
X179245164Y-122192807D01*
X179113213Y-122152780D01*
X179047237Y-122132767D01*
X178864828Y-122035267D01*
X178704946Y-121904054D01*
X178573733Y-121744172D01*
X178476233Y-121561763D01*
X178456220Y-121495787D01*
X178416193Y-121363836D01*
X178395920Y-121158000D01*
X178416193Y-120952164D01*
X178476233Y-120754238D01*
X178476233Y-120754237D01*
X178573733Y-120571828D01*
X178704946Y-120411946D01*
X178864828Y-120280733D01*
X179047237Y-120183233D01*
X179113213Y-120163220D01*
X179245164Y-120123193D01*
X179322293Y-120115596D01*
X179399420Y-120108000D01*
X179502580Y-120108000D01*
X179579707Y-120115596D01*
X179579707Y-120115596D01*
G37*
G36*
X194819707Y-120115596D02*
X194896836Y-120123193D01*
X195028787Y-120163220D01*
X195094763Y-120183233D01*
X195277172Y-120280733D01*
X195437054Y-120411946D01*
X195568267Y-120571828D01*
X195665767Y-120754237D01*
X195665767Y-120754238D01*
X195725807Y-120952164D01*
X195746080Y-121158000D01*
X195725807Y-121363836D01*
X195685780Y-121495787D01*
X195665767Y-121561763D01*
X195568267Y-121744172D01*
X195437054Y-121904054D01*
X195277172Y-122035267D01*
X195094763Y-122132767D01*
X195028787Y-122152780D01*
X194896836Y-122192807D01*
X194819707Y-122200403D01*
X194742580Y-122208000D01*
X194639420Y-122208000D01*
X194562293Y-122200403D01*
X194485164Y-122192807D01*
X194353213Y-122152780D01*
X194287237Y-122132767D01*
X194104828Y-122035267D01*
X193944946Y-121904054D01*
X193813733Y-121744172D01*
X193716233Y-121561763D01*
X193696220Y-121495787D01*
X193656193Y-121363836D01*
X193635920Y-121158000D01*
X193656193Y-120952164D01*
X193716233Y-120754238D01*
X193716233Y-120754237D01*
X193813733Y-120571828D01*
X193944946Y-120411946D01*
X194104828Y-120280733D01*
X194287237Y-120183233D01*
X194353213Y-120163220D01*
X194485164Y-120123193D01*
X194562293Y-120115596D01*
X194639420Y-120108000D01*
X194742580Y-120108000D01*
X194819707Y-120115596D01*
X194819707Y-120115596D01*
G37*
G36*
X189739707Y-120115596D02*
X189816836Y-120123193D01*
X189948787Y-120163220D01*
X190014763Y-120183233D01*
X190197172Y-120280733D01*
X190357054Y-120411946D01*
X190488267Y-120571828D01*
X190585767Y-120754237D01*
X190585767Y-120754238D01*
X190645807Y-120952164D01*
X190666080Y-121158000D01*
X190645807Y-121363836D01*
X190605780Y-121495787D01*
X190585767Y-121561763D01*
X190488267Y-121744172D01*
X190357054Y-121904054D01*
X190197172Y-122035267D01*
X190014763Y-122132767D01*
X189948787Y-122152780D01*
X189816836Y-122192807D01*
X189739707Y-122200403D01*
X189662580Y-122208000D01*
X189559420Y-122208000D01*
X189482293Y-122200403D01*
X189405164Y-122192807D01*
X189273213Y-122152780D01*
X189207237Y-122132767D01*
X189024828Y-122035267D01*
X188864946Y-121904054D01*
X188733733Y-121744172D01*
X188636233Y-121561763D01*
X188616220Y-121495787D01*
X188576193Y-121363836D01*
X188555920Y-121158000D01*
X188576193Y-120952164D01*
X188636233Y-120754238D01*
X188636233Y-120754237D01*
X188733733Y-120571828D01*
X188864946Y-120411946D01*
X189024828Y-120280733D01*
X189207237Y-120183233D01*
X189273213Y-120163220D01*
X189405164Y-120123193D01*
X189482293Y-120115596D01*
X189559420Y-120108000D01*
X189662580Y-120108000D01*
X189739707Y-120115596D01*
X189739707Y-120115596D01*
G37*
G36*
X171959707Y-120115596D02*
X172036836Y-120123193D01*
X172168787Y-120163220D01*
X172234763Y-120183233D01*
X172417172Y-120280733D01*
X172577054Y-120411946D01*
X172708267Y-120571828D01*
X172805767Y-120754237D01*
X172805767Y-120754238D01*
X172865807Y-120952164D01*
X172886080Y-121158000D01*
X172865807Y-121363836D01*
X172825780Y-121495787D01*
X172805767Y-121561763D01*
X172708267Y-121744172D01*
X172577054Y-121904054D01*
X172417172Y-122035267D01*
X172234763Y-122132767D01*
X172168787Y-122152780D01*
X172036836Y-122192807D01*
X171959707Y-122200403D01*
X171882580Y-122208000D01*
X171779420Y-122208000D01*
X171702293Y-122200403D01*
X171625164Y-122192807D01*
X171493213Y-122152780D01*
X171427237Y-122132767D01*
X171244828Y-122035267D01*
X171084946Y-121904054D01*
X170953733Y-121744172D01*
X170856233Y-121561763D01*
X170836220Y-121495787D01*
X170796193Y-121363836D01*
X170775920Y-121158000D01*
X170796193Y-120952164D01*
X170856233Y-120754238D01*
X170856233Y-120754237D01*
X170953733Y-120571828D01*
X171084946Y-120411946D01*
X171244828Y-120280733D01*
X171427237Y-120183233D01*
X171493213Y-120163220D01*
X171625164Y-120123193D01*
X171702293Y-120115596D01*
X171779420Y-120108000D01*
X171882580Y-120108000D01*
X171959707Y-120115596D01*
X171959707Y-120115596D01*
G37*
G36*
X197356888Y-120112470D02*
X197537274Y-120148350D01*
X197728362Y-120227502D01*
X197900336Y-120342411D01*
X198046589Y-120488664D01*
X198161498Y-120660638D01*
X198240650Y-120851726D01*
X198281000Y-121054584D01*
X198281000Y-121261416D01*
X198240650Y-121464274D01*
X198161498Y-121655362D01*
X198046589Y-121827336D01*
X197900336Y-121973589D01*
X197728362Y-122088498D01*
X197537274Y-122167650D01*
X197356888Y-122203530D01*
X197334417Y-122208000D01*
X197127583Y-122208000D01*
X197105112Y-122203530D01*
X196924726Y-122167650D01*
X196733638Y-122088498D01*
X196561664Y-121973589D01*
X196415411Y-121827336D01*
X196300502Y-121655362D01*
X196221350Y-121464274D01*
X196181000Y-121261416D01*
X196181000Y-121054584D01*
X196221350Y-120851726D01*
X196300502Y-120660638D01*
X196415411Y-120488664D01*
X196561664Y-120342411D01*
X196733638Y-120227502D01*
X196924726Y-120148350D01*
X197105112Y-120112470D01*
X197127583Y-120108000D01*
X197334417Y-120108000D01*
X197356888Y-120112470D01*
X197356888Y-120112470D01*
G37*
G36*
X182119707Y-120115596D02*
X182196836Y-120123193D01*
X182328787Y-120163220D01*
X182394763Y-120183233D01*
X182577172Y-120280733D01*
X182737054Y-120411946D01*
X182868267Y-120571828D01*
X182965767Y-120754237D01*
X182965767Y-120754238D01*
X183025807Y-120952164D01*
X183046080Y-121158000D01*
X183025807Y-121363836D01*
X182985780Y-121495787D01*
X182965767Y-121561763D01*
X182868267Y-121744172D01*
X182737054Y-121904054D01*
X182577172Y-122035267D01*
X182394763Y-122132767D01*
X182328787Y-122152780D01*
X182196836Y-122192807D01*
X182119707Y-122200403D01*
X182042580Y-122208000D01*
X181939420Y-122208000D01*
X181862293Y-122200403D01*
X181785164Y-122192807D01*
X181653213Y-122152780D01*
X181587237Y-122132767D01*
X181404828Y-122035267D01*
X181244946Y-121904054D01*
X181113733Y-121744172D01*
X181016233Y-121561763D01*
X180996220Y-121495787D01*
X180956193Y-121363836D01*
X180935920Y-121158000D01*
X180956193Y-120952164D01*
X181016233Y-120754238D01*
X181016233Y-120754237D01*
X181113733Y-120571828D01*
X181244946Y-120411946D01*
X181404828Y-120280733D01*
X181587237Y-120183233D01*
X181653213Y-120163220D01*
X181785164Y-120123193D01*
X181862293Y-120115596D01*
X181939420Y-120108000D01*
X182042580Y-120108000D01*
X182119707Y-120115596D01*
X182119707Y-120115596D01*
G37*
G36*
X159259707Y-120115596D02*
X159336836Y-120123193D01*
X159468787Y-120163220D01*
X159534763Y-120183233D01*
X159717172Y-120280733D01*
X159877054Y-120411946D01*
X160008267Y-120571828D01*
X160105767Y-120754237D01*
X160105767Y-120754238D01*
X160165807Y-120952164D01*
X160186080Y-121158000D01*
X160165807Y-121363836D01*
X160125780Y-121495787D01*
X160105767Y-121561763D01*
X160008267Y-121744172D01*
X159877054Y-121904054D01*
X159717172Y-122035267D01*
X159534763Y-122132767D01*
X159468787Y-122152780D01*
X159336836Y-122192807D01*
X159259707Y-122200403D01*
X159182580Y-122208000D01*
X159079420Y-122208000D01*
X159002293Y-122200403D01*
X158925164Y-122192807D01*
X158793213Y-122152780D01*
X158727237Y-122132767D01*
X158544828Y-122035267D01*
X158384946Y-121904054D01*
X158253733Y-121744172D01*
X158156233Y-121561763D01*
X158136220Y-121495787D01*
X158096193Y-121363836D01*
X158075920Y-121158000D01*
X158096193Y-120952164D01*
X158156233Y-120754238D01*
X158156233Y-120754237D01*
X158253733Y-120571828D01*
X158384946Y-120411946D01*
X158544828Y-120280733D01*
X158727237Y-120183233D01*
X158793213Y-120163220D01*
X158925164Y-120123193D01*
X159002293Y-120115596D01*
X159079420Y-120108000D01*
X159182580Y-120108000D01*
X159259707Y-120115596D01*
X159259707Y-120115596D01*
G37*
G36*
X164339707Y-120115596D02*
X164416836Y-120123193D01*
X164548787Y-120163220D01*
X164614763Y-120183233D01*
X164797172Y-120280733D01*
X164957054Y-120411946D01*
X165088267Y-120571828D01*
X165185767Y-120754237D01*
X165185767Y-120754238D01*
X165245807Y-120952164D01*
X165266080Y-121158000D01*
X165245807Y-121363836D01*
X165205780Y-121495787D01*
X165185767Y-121561763D01*
X165088267Y-121744172D01*
X164957054Y-121904054D01*
X164797172Y-122035267D01*
X164614763Y-122132767D01*
X164548787Y-122152780D01*
X164416836Y-122192807D01*
X164339707Y-122200403D01*
X164262580Y-122208000D01*
X164159420Y-122208000D01*
X164082293Y-122200403D01*
X164005164Y-122192807D01*
X163873213Y-122152780D01*
X163807237Y-122132767D01*
X163624828Y-122035267D01*
X163464946Y-121904054D01*
X163333733Y-121744172D01*
X163236233Y-121561763D01*
X163216220Y-121495787D01*
X163176193Y-121363836D01*
X163155920Y-121158000D01*
X163176193Y-120952164D01*
X163236233Y-120754238D01*
X163236233Y-120754237D01*
X163333733Y-120571828D01*
X163464946Y-120411946D01*
X163624828Y-120280733D01*
X163807237Y-120183233D01*
X163873213Y-120163220D01*
X164005164Y-120123193D01*
X164082293Y-120115596D01*
X164159420Y-120108000D01*
X164262580Y-120108000D01*
X164339707Y-120115596D01*
X164339707Y-120115596D01*
G37*
G36*
X177039707Y-120115596D02*
X177116836Y-120123193D01*
X177248787Y-120163220D01*
X177314763Y-120183233D01*
X177497172Y-120280733D01*
X177657054Y-120411946D01*
X177788267Y-120571828D01*
X177885767Y-120754237D01*
X177885767Y-120754238D01*
X177945807Y-120952164D01*
X177966080Y-121158000D01*
X177945807Y-121363836D01*
X177905780Y-121495787D01*
X177885767Y-121561763D01*
X177788267Y-121744172D01*
X177657054Y-121904054D01*
X177497172Y-122035267D01*
X177314763Y-122132767D01*
X177248787Y-122152780D01*
X177116836Y-122192807D01*
X177039707Y-122200403D01*
X176962580Y-122208000D01*
X176859420Y-122208000D01*
X176782293Y-122200403D01*
X176705164Y-122192807D01*
X176573213Y-122152780D01*
X176507237Y-122132767D01*
X176324828Y-122035267D01*
X176164946Y-121904054D01*
X176033733Y-121744172D01*
X175936233Y-121561763D01*
X175916220Y-121495787D01*
X175876193Y-121363836D01*
X175855920Y-121158000D01*
X175876193Y-120952164D01*
X175936233Y-120754238D01*
X175936233Y-120754237D01*
X176033733Y-120571828D01*
X176164946Y-120411946D01*
X176324828Y-120280733D01*
X176507237Y-120183233D01*
X176573213Y-120163220D01*
X176705164Y-120123193D01*
X176782293Y-120115596D01*
X176859420Y-120108000D01*
X176962580Y-120108000D01*
X177039707Y-120115596D01*
X177039707Y-120115596D01*
G37*
G36*
X184659707Y-120115596D02*
X184736836Y-120123193D01*
X184868787Y-120163220D01*
X184934763Y-120183233D01*
X185117172Y-120280733D01*
X185277054Y-120411946D01*
X185408267Y-120571828D01*
X185505767Y-120754237D01*
X185505767Y-120754238D01*
X185565807Y-120952164D01*
X185586080Y-121158000D01*
X185565807Y-121363836D01*
X185525780Y-121495787D01*
X185505767Y-121561763D01*
X185408267Y-121744172D01*
X185277054Y-121904054D01*
X185117172Y-122035267D01*
X184934763Y-122132767D01*
X184868787Y-122152780D01*
X184736836Y-122192807D01*
X184659707Y-122200403D01*
X184582580Y-122208000D01*
X184479420Y-122208000D01*
X184402293Y-122200403D01*
X184325164Y-122192807D01*
X184193213Y-122152780D01*
X184127237Y-122132767D01*
X183944828Y-122035267D01*
X183784946Y-121904054D01*
X183653733Y-121744172D01*
X183556233Y-121561763D01*
X183536220Y-121495787D01*
X183496193Y-121363836D01*
X183475920Y-121158000D01*
X183496193Y-120952164D01*
X183556233Y-120754238D01*
X183556233Y-120754237D01*
X183653733Y-120571828D01*
X183784946Y-120411946D01*
X183944828Y-120280733D01*
X184127237Y-120183233D01*
X184193213Y-120163220D01*
X184325164Y-120123193D01*
X184402293Y-120115596D01*
X184479420Y-120108000D01*
X184582580Y-120108000D01*
X184659707Y-120115596D01*
X184659707Y-120115596D01*
G37*
G36*
X166879707Y-120115596D02*
X166956836Y-120123193D01*
X167088787Y-120163220D01*
X167154763Y-120183233D01*
X167337172Y-120280733D01*
X167497054Y-120411946D01*
X167628267Y-120571828D01*
X167725767Y-120754237D01*
X167725767Y-120754238D01*
X167785807Y-120952164D01*
X167806080Y-121158000D01*
X167785807Y-121363836D01*
X167745780Y-121495787D01*
X167725767Y-121561763D01*
X167628267Y-121744172D01*
X167497054Y-121904054D01*
X167337172Y-122035267D01*
X167154763Y-122132767D01*
X167088787Y-122152780D01*
X166956836Y-122192807D01*
X166879707Y-122200403D01*
X166802580Y-122208000D01*
X166699420Y-122208000D01*
X166622293Y-122200403D01*
X166545164Y-122192807D01*
X166413213Y-122152780D01*
X166347237Y-122132767D01*
X166164828Y-122035267D01*
X166004946Y-121904054D01*
X165873733Y-121744172D01*
X165776233Y-121561763D01*
X165756220Y-121495787D01*
X165716193Y-121363836D01*
X165695920Y-121158000D01*
X165716193Y-120952164D01*
X165776233Y-120754238D01*
X165776233Y-120754237D01*
X165873733Y-120571828D01*
X166004946Y-120411946D01*
X166164828Y-120280733D01*
X166347237Y-120183233D01*
X166413213Y-120163220D01*
X166545164Y-120123193D01*
X166622293Y-120115596D01*
X166699420Y-120108000D01*
X166802580Y-120108000D01*
X166879707Y-120115596D01*
X166879707Y-120115596D01*
G37*
G36*
X154179707Y-120115596D02*
X154256836Y-120123193D01*
X154388787Y-120163220D01*
X154454763Y-120183233D01*
X154637172Y-120280733D01*
X154797054Y-120411946D01*
X154928267Y-120571828D01*
X155025767Y-120754237D01*
X155025767Y-120754238D01*
X155085807Y-120952164D01*
X155106080Y-121158000D01*
X155085807Y-121363836D01*
X155045780Y-121495787D01*
X155025767Y-121561763D01*
X154928267Y-121744172D01*
X154797054Y-121904054D01*
X154637172Y-122035267D01*
X154454763Y-122132767D01*
X154388787Y-122152780D01*
X154256836Y-122192807D01*
X154179707Y-122200403D01*
X154102580Y-122208000D01*
X153999420Y-122208000D01*
X153922293Y-122200403D01*
X153845164Y-122192807D01*
X153713213Y-122152780D01*
X153647237Y-122132767D01*
X153464828Y-122035267D01*
X153304946Y-121904054D01*
X153173733Y-121744172D01*
X153076233Y-121561763D01*
X153056220Y-121495787D01*
X153016193Y-121363836D01*
X152995920Y-121158000D01*
X153016193Y-120952164D01*
X153076233Y-120754238D01*
X153076233Y-120754237D01*
X153173733Y-120571828D01*
X153304946Y-120411946D01*
X153464828Y-120280733D01*
X153647237Y-120183233D01*
X153713213Y-120163220D01*
X153845164Y-120123193D01*
X153922293Y-120115596D01*
X153999420Y-120108000D01*
X154102580Y-120108000D01*
X154179707Y-120115596D01*
X154179707Y-120115596D01*
G37*
G36*
X151639707Y-120115596D02*
X151716836Y-120123193D01*
X151848787Y-120163220D01*
X151914763Y-120183233D01*
X152097172Y-120280733D01*
X152257054Y-120411946D01*
X152388267Y-120571828D01*
X152485767Y-120754237D01*
X152485767Y-120754238D01*
X152545807Y-120952164D01*
X152566080Y-121158000D01*
X152545807Y-121363836D01*
X152505780Y-121495787D01*
X152485767Y-121561763D01*
X152388267Y-121744172D01*
X152257054Y-121904054D01*
X152097172Y-122035267D01*
X151914763Y-122132767D01*
X151848787Y-122152780D01*
X151716836Y-122192807D01*
X151639707Y-122200403D01*
X151562580Y-122208000D01*
X151459420Y-122208000D01*
X151382293Y-122200403D01*
X151305164Y-122192807D01*
X151173213Y-122152780D01*
X151107237Y-122132767D01*
X150924828Y-122035267D01*
X150764946Y-121904054D01*
X150633733Y-121744172D01*
X150536233Y-121561763D01*
X150516220Y-121495787D01*
X150476193Y-121363836D01*
X150455920Y-121158000D01*
X150476193Y-120952164D01*
X150536233Y-120754238D01*
X150536233Y-120754237D01*
X150633733Y-120571828D01*
X150764946Y-120411946D01*
X150924828Y-120280733D01*
X151107237Y-120183233D01*
X151173213Y-120163220D01*
X151305164Y-120123193D01*
X151382293Y-120115596D01*
X151459420Y-120108000D01*
X151562580Y-120108000D01*
X151639707Y-120115596D01*
X151639707Y-120115596D01*
G37*
G36*
X156719707Y-120115596D02*
X156796836Y-120123193D01*
X156928787Y-120163220D01*
X156994763Y-120183233D01*
X157177172Y-120280733D01*
X157337054Y-120411946D01*
X157468267Y-120571828D01*
X157565767Y-120754237D01*
X157565767Y-120754238D01*
X157625807Y-120952164D01*
X157646080Y-121158000D01*
X157625807Y-121363836D01*
X157585780Y-121495787D01*
X157565767Y-121561763D01*
X157468267Y-121744172D01*
X157337054Y-121904054D01*
X157177172Y-122035267D01*
X156994763Y-122132767D01*
X156928787Y-122152780D01*
X156796836Y-122192807D01*
X156719707Y-122200403D01*
X156642580Y-122208000D01*
X156539420Y-122208000D01*
X156462293Y-122200403D01*
X156385164Y-122192807D01*
X156253213Y-122152780D01*
X156187237Y-122132767D01*
X156004828Y-122035267D01*
X155844946Y-121904054D01*
X155713733Y-121744172D01*
X155616233Y-121561763D01*
X155596220Y-121495787D01*
X155556193Y-121363836D01*
X155535920Y-121158000D01*
X155556193Y-120952164D01*
X155616233Y-120754238D01*
X155616233Y-120754237D01*
X155713733Y-120571828D01*
X155844946Y-120411946D01*
X156004828Y-120280733D01*
X156187237Y-120183233D01*
X156253213Y-120163220D01*
X156385164Y-120123193D01*
X156462293Y-120115596D01*
X156539420Y-120108000D01*
X156642580Y-120108000D01*
X156719707Y-120115596D01*
X156719707Y-120115596D01*
G37*
G36*
X169419707Y-120115596D02*
X169496836Y-120123193D01*
X169628787Y-120163220D01*
X169694763Y-120183233D01*
X169877172Y-120280733D01*
X170037054Y-120411946D01*
X170168267Y-120571828D01*
X170265767Y-120754237D01*
X170265767Y-120754238D01*
X170325807Y-120952164D01*
X170346080Y-121158000D01*
X170325807Y-121363836D01*
X170285780Y-121495787D01*
X170265767Y-121561763D01*
X170168267Y-121744172D01*
X170037054Y-121904054D01*
X169877172Y-122035267D01*
X169694763Y-122132767D01*
X169628787Y-122152780D01*
X169496836Y-122192807D01*
X169419707Y-122200403D01*
X169342580Y-122208000D01*
X169239420Y-122208000D01*
X169162293Y-122200403D01*
X169085164Y-122192807D01*
X168953213Y-122152780D01*
X168887237Y-122132767D01*
X168704828Y-122035267D01*
X168544946Y-121904054D01*
X168413733Y-121744172D01*
X168316233Y-121561763D01*
X168296220Y-121495787D01*
X168256193Y-121363836D01*
X168235920Y-121158000D01*
X168256193Y-120952164D01*
X168316233Y-120754238D01*
X168316233Y-120754237D01*
X168413733Y-120571828D01*
X168544946Y-120411946D01*
X168704828Y-120280733D01*
X168887237Y-120183233D01*
X168953213Y-120163220D01*
X169085164Y-120123193D01*
X169162293Y-120115596D01*
X169239420Y-120108000D01*
X169342580Y-120108000D01*
X169419707Y-120115596D01*
X169419707Y-120115596D01*
G37*
G36*
X187199707Y-120115596D02*
X187276836Y-120123193D01*
X187408787Y-120163220D01*
X187474763Y-120183233D01*
X187657172Y-120280733D01*
X187817054Y-120411946D01*
X187948267Y-120571828D01*
X188045767Y-120754237D01*
X188045767Y-120754238D01*
X188105807Y-120952164D01*
X188126080Y-121158000D01*
X188105807Y-121363836D01*
X188065780Y-121495787D01*
X188045767Y-121561763D01*
X187948267Y-121744172D01*
X187817054Y-121904054D01*
X187657172Y-122035267D01*
X187474763Y-122132767D01*
X187408787Y-122152780D01*
X187276836Y-122192807D01*
X187199707Y-122200403D01*
X187122580Y-122208000D01*
X187019420Y-122208000D01*
X186942293Y-122200403D01*
X186865164Y-122192807D01*
X186733213Y-122152780D01*
X186667237Y-122132767D01*
X186484828Y-122035267D01*
X186324946Y-121904054D01*
X186193733Y-121744172D01*
X186096233Y-121561763D01*
X186076220Y-121495787D01*
X186036193Y-121363836D01*
X186015920Y-121158000D01*
X186036193Y-120952164D01*
X186096233Y-120754238D01*
X186096233Y-120754237D01*
X186193733Y-120571828D01*
X186324946Y-120411946D01*
X186484828Y-120280733D01*
X186667237Y-120183233D01*
X186733213Y-120163220D01*
X186865164Y-120123193D01*
X186942293Y-120115596D01*
X187019420Y-120108000D01*
X187122580Y-120108000D01*
X187199707Y-120115596D01*
X187199707Y-120115596D01*
G37*
G36*
X174499707Y-120115596D02*
X174576836Y-120123193D01*
X174708787Y-120163220D01*
X174774763Y-120183233D01*
X174957172Y-120280733D01*
X175117054Y-120411946D01*
X175248267Y-120571828D01*
X175345767Y-120754237D01*
X175345767Y-120754238D01*
X175405807Y-120952164D01*
X175426080Y-121158000D01*
X175405807Y-121363836D01*
X175365780Y-121495787D01*
X175345767Y-121561763D01*
X175248267Y-121744172D01*
X175117054Y-121904054D01*
X174957172Y-122035267D01*
X174774763Y-122132767D01*
X174708787Y-122152780D01*
X174576836Y-122192807D01*
X174499707Y-122200403D01*
X174422580Y-122208000D01*
X174319420Y-122208000D01*
X174242293Y-122200403D01*
X174165164Y-122192807D01*
X174033213Y-122152780D01*
X173967237Y-122132767D01*
X173784828Y-122035267D01*
X173624946Y-121904054D01*
X173493733Y-121744172D01*
X173396233Y-121561763D01*
X173376220Y-121495787D01*
X173336193Y-121363836D01*
X173315920Y-121158000D01*
X173336193Y-120952164D01*
X173396233Y-120754238D01*
X173396233Y-120754237D01*
X173493733Y-120571828D01*
X173624946Y-120411946D01*
X173784828Y-120280733D01*
X173967237Y-120183233D01*
X174033213Y-120163220D01*
X174165164Y-120123193D01*
X174242293Y-120115596D01*
X174319420Y-120108000D01*
X174422580Y-120108000D01*
X174499707Y-120115596D01*
X174499707Y-120115596D01*
G37*
G36*
X192279707Y-120115596D02*
X192356836Y-120123193D01*
X192488787Y-120163220D01*
X192554763Y-120183233D01*
X192737172Y-120280733D01*
X192897054Y-120411946D01*
X193028267Y-120571828D01*
X193125767Y-120754237D01*
X193125767Y-120754238D01*
X193185807Y-120952164D01*
X193206080Y-121158000D01*
X193185807Y-121363836D01*
X193145780Y-121495787D01*
X193125767Y-121561763D01*
X193028267Y-121744172D01*
X192897054Y-121904054D01*
X192737172Y-122035267D01*
X192554763Y-122132767D01*
X192488787Y-122152780D01*
X192356836Y-122192807D01*
X192279707Y-122200403D01*
X192202580Y-122208000D01*
X192099420Y-122208000D01*
X192022293Y-122200403D01*
X191945164Y-122192807D01*
X191813213Y-122152780D01*
X191747237Y-122132767D01*
X191564828Y-122035267D01*
X191404946Y-121904054D01*
X191273733Y-121744172D01*
X191176233Y-121561763D01*
X191156220Y-121495787D01*
X191116193Y-121363836D01*
X191095920Y-121158000D01*
X191116193Y-120952164D01*
X191176233Y-120754238D01*
X191176233Y-120754237D01*
X191273733Y-120571828D01*
X191404946Y-120411946D01*
X191564828Y-120280733D01*
X191747237Y-120183233D01*
X191813213Y-120163220D01*
X191945164Y-120123193D01*
X192022293Y-120115596D01*
X192099420Y-120108000D01*
X192202580Y-120108000D01*
X192279707Y-120115596D01*
X192279707Y-120115596D01*
G37*
G36*
X107316707Y-119861596D02*
X107393836Y-119869193D01*
X107525787Y-119909220D01*
X107591763Y-119929233D01*
X107774172Y-120026733D01*
X107934054Y-120157946D01*
X108065267Y-120317828D01*
X108162767Y-120500237D01*
X108162767Y-120500238D01*
X108222807Y-120698164D01*
X108243080Y-120904000D01*
X108222807Y-121109836D01*
X108182780Y-121241787D01*
X108162767Y-121307763D01*
X108065267Y-121490172D01*
X107934054Y-121650054D01*
X107774172Y-121781267D01*
X107591763Y-121878767D01*
X107525787Y-121898780D01*
X107393836Y-121938807D01*
X107316707Y-121946404D01*
X107239580Y-121954000D01*
X107136420Y-121954000D01*
X107059293Y-121946404D01*
X106982164Y-121938807D01*
X106850213Y-121898780D01*
X106784237Y-121878767D01*
X106601828Y-121781267D01*
X106441946Y-121650054D01*
X106310733Y-121490172D01*
X106213233Y-121307763D01*
X106193220Y-121241787D01*
X106153193Y-121109836D01*
X106132920Y-120904000D01*
X106153193Y-120698164D01*
X106213233Y-120500238D01*
X106213233Y-120500237D01*
X106310733Y-120317828D01*
X106441946Y-120157946D01*
X106601828Y-120026733D01*
X106784237Y-119929233D01*
X106850213Y-119909220D01*
X106982164Y-119869193D01*
X107059293Y-119861596D01*
X107136420Y-119854000D01*
X107239580Y-119854000D01*
X107316707Y-119861596D01*
X107316707Y-119861596D01*
G37*
G36*
X113412707Y-119861596D02*
X113489836Y-119869193D01*
X113621787Y-119909220D01*
X113687763Y-119929233D01*
X113870172Y-120026733D01*
X114030054Y-120157946D01*
X114161267Y-120317828D01*
X114258767Y-120500237D01*
X114258767Y-120500238D01*
X114318807Y-120698164D01*
X114339080Y-120904000D01*
X114318807Y-121109836D01*
X114278780Y-121241787D01*
X114258767Y-121307763D01*
X114161267Y-121490172D01*
X114030054Y-121650054D01*
X113870172Y-121781267D01*
X113687763Y-121878767D01*
X113621787Y-121898780D01*
X113489836Y-121938807D01*
X113412707Y-121946404D01*
X113335580Y-121954000D01*
X113232420Y-121954000D01*
X113155293Y-121946404D01*
X113078164Y-121938807D01*
X112946213Y-121898780D01*
X112880237Y-121878767D01*
X112697828Y-121781267D01*
X112537946Y-121650054D01*
X112406733Y-121490172D01*
X112309233Y-121307763D01*
X112289220Y-121241787D01*
X112249193Y-121109836D01*
X112228920Y-120904000D01*
X112249193Y-120698164D01*
X112309233Y-120500238D01*
X112309233Y-120500237D01*
X112406733Y-120317828D01*
X112537946Y-120157946D01*
X112697828Y-120026733D01*
X112880237Y-119929233D01*
X112946213Y-119909220D01*
X113078164Y-119869193D01*
X113155293Y-119861596D01*
X113232420Y-119854000D01*
X113335580Y-119854000D01*
X113412707Y-119861596D01*
X113412707Y-119861596D01*
G37*
G36*
X114334000Y-119414000D02*
X112234000Y-119414000D01*
X112234000Y-117314000D01*
X114334000Y-117314000D01*
X114334000Y-119414000D01*
X114334000Y-119414000D01*
G37*
G36*
X108238000Y-119414000D02*
X106138000Y-119414000D01*
X106138000Y-117314000D01*
X108238000Y-117314000D01*
X108238000Y-119414000D01*
X108238000Y-119414000D01*
G37*
G36*
X198920140Y-116233808D02*
X199083150Y-116266233D01*
X199287887Y-116351038D01*
X199287888Y-116351039D01*
X199472148Y-116474158D01*
X199628842Y-116630852D01*
X199628844Y-116630855D01*
X199751962Y-116815113D01*
X199836767Y-117019850D01*
X199880000Y-117237197D01*
X199880000Y-117458803D01*
X199836767Y-117676150D01*
X199751962Y-117880887D01*
X199751961Y-117880888D01*
X199628842Y-118065148D01*
X199472148Y-118221842D01*
X199472145Y-118221844D01*
X199287887Y-118344962D01*
X199083150Y-118429767D01*
X198920140Y-118462192D01*
X198865804Y-118473000D01*
X198644196Y-118473000D01*
X198589860Y-118462192D01*
X198426850Y-118429767D01*
X198222113Y-118344962D01*
X198037855Y-118221844D01*
X198037852Y-118221842D01*
X197881158Y-118065148D01*
X197758039Y-117880888D01*
X197758038Y-117880887D01*
X197673233Y-117676150D01*
X197630000Y-117458803D01*
X197630000Y-117237197D01*
X197673233Y-117019850D01*
X197758038Y-116815113D01*
X197881156Y-116630855D01*
X197881158Y-116630852D01*
X198037852Y-116474158D01*
X198222112Y-116351039D01*
X198222113Y-116351038D01*
X198426850Y-116266233D01*
X198589860Y-116233808D01*
X198644196Y-116223000D01*
X198865804Y-116223000D01*
X198920140Y-116233808D01*
X198920140Y-116233808D01*
G37*
G36*
X158280140Y-116233808D02*
X158443150Y-116266233D01*
X158647887Y-116351038D01*
X158647888Y-116351039D01*
X158832148Y-116474158D01*
X158988842Y-116630852D01*
X158988844Y-116630855D01*
X159111962Y-116815113D01*
X159196767Y-117019850D01*
X159240000Y-117237197D01*
X159240000Y-117458803D01*
X159196767Y-117676150D01*
X159111962Y-117880887D01*
X159111961Y-117880888D01*
X158988842Y-118065148D01*
X158832148Y-118221842D01*
X158832145Y-118221844D01*
X158647887Y-118344962D01*
X158443150Y-118429767D01*
X158280140Y-118462192D01*
X158225804Y-118473000D01*
X158004196Y-118473000D01*
X157949860Y-118462192D01*
X157786850Y-118429767D01*
X157582113Y-118344962D01*
X157397855Y-118221844D01*
X157397852Y-118221842D01*
X157241158Y-118065148D01*
X157118039Y-117880888D01*
X157118038Y-117880887D01*
X157033233Y-117676150D01*
X156990000Y-117458803D01*
X156990000Y-117237197D01*
X157033233Y-117019850D01*
X157118038Y-116815113D01*
X157241156Y-116630855D01*
X157241158Y-116630852D01*
X157397852Y-116474158D01*
X157582112Y-116351039D01*
X157582113Y-116351038D01*
X157786850Y-116266233D01*
X157949860Y-116233808D01*
X158004196Y-116223000D01*
X158225804Y-116223000D01*
X158280140Y-116233808D01*
X158280140Y-116233808D01*
G37*
G36*
X163505240Y-116325273D02*
X163698802Y-116405449D01*
X163873008Y-116521850D01*
X164021150Y-116669992D01*
X164137551Y-116844198D01*
X164217727Y-117037760D01*
X164258600Y-117243243D01*
X164258600Y-117452757D01*
X164217727Y-117658240D01*
X164137551Y-117851802D01*
X164021150Y-118026008D01*
X163873008Y-118174150D01*
X163698802Y-118290551D01*
X163505240Y-118370727D01*
X163299757Y-118411600D01*
X163090243Y-118411600D01*
X162884760Y-118370727D01*
X162691198Y-118290551D01*
X162516992Y-118174150D01*
X162368850Y-118026008D01*
X162252449Y-117851802D01*
X162172273Y-117658240D01*
X162131400Y-117452757D01*
X162131400Y-117243243D01*
X162172273Y-117037760D01*
X162252449Y-116844198D01*
X162368850Y-116669992D01*
X162516992Y-116521850D01*
X162691198Y-116405449D01*
X162884760Y-116325273D01*
X163090243Y-116284400D01*
X163299757Y-116284400D01*
X163505240Y-116325273D01*
X163505240Y-116325273D01*
G37*
G36*
X168585240Y-116325273D02*
X168778802Y-116405449D01*
X168953008Y-116521850D01*
X169101150Y-116669992D01*
X169217551Y-116844198D01*
X169297727Y-117037760D01*
X169338600Y-117243243D01*
X169338600Y-117452757D01*
X169297727Y-117658240D01*
X169217551Y-117851802D01*
X169101150Y-118026008D01*
X168953008Y-118174150D01*
X168778802Y-118290551D01*
X168585240Y-118370727D01*
X168379757Y-118411600D01*
X168170243Y-118411600D01*
X167964760Y-118370727D01*
X167771198Y-118290551D01*
X167596992Y-118174150D01*
X167448850Y-118026008D01*
X167332449Y-117851802D01*
X167252273Y-117658240D01*
X167211400Y-117452757D01*
X167211400Y-117243243D01*
X167252273Y-117037760D01*
X167332449Y-116844198D01*
X167448850Y-116669992D01*
X167596992Y-116521850D01*
X167771198Y-116405449D01*
X167964760Y-116325273D01*
X168170243Y-116284400D01*
X168379757Y-116284400D01*
X168585240Y-116325273D01*
X168585240Y-116325273D01*
G37*
G36*
X171125240Y-116325273D02*
X171318802Y-116405449D01*
X171493008Y-116521850D01*
X171641150Y-116669992D01*
X171757551Y-116844198D01*
X171837727Y-117037760D01*
X171878600Y-117243243D01*
X171878600Y-117452757D01*
X171837727Y-117658240D01*
X171757551Y-117851802D01*
X171641150Y-118026008D01*
X171493008Y-118174150D01*
X171318802Y-118290551D01*
X171125240Y-118370727D01*
X170919757Y-118411600D01*
X170710243Y-118411600D01*
X170504760Y-118370727D01*
X170311198Y-118290551D01*
X170136992Y-118174150D01*
X169988850Y-118026008D01*
X169872449Y-117851802D01*
X169792273Y-117658240D01*
X169751400Y-117452757D01*
X169751400Y-117243243D01*
X169792273Y-117037760D01*
X169872449Y-116844198D01*
X169988850Y-116669992D01*
X170136992Y-116521850D01*
X170311198Y-116405449D01*
X170504760Y-116325273D01*
X170710243Y-116284400D01*
X170919757Y-116284400D01*
X171125240Y-116325273D01*
X171125240Y-116325273D01*
G37*
G36*
X173665240Y-116325273D02*
X173858802Y-116405449D01*
X174033008Y-116521850D01*
X174181150Y-116669992D01*
X174297551Y-116844198D01*
X174377727Y-117037760D01*
X174418600Y-117243243D01*
X174418600Y-117452757D01*
X174377727Y-117658240D01*
X174297551Y-117851802D01*
X174181150Y-118026008D01*
X174033008Y-118174150D01*
X173858802Y-118290551D01*
X173665240Y-118370727D01*
X173459757Y-118411600D01*
X173250243Y-118411600D01*
X173044760Y-118370727D01*
X172851198Y-118290551D01*
X172676992Y-118174150D01*
X172528850Y-118026008D01*
X172412449Y-117851802D01*
X172332273Y-117658240D01*
X172291400Y-117452757D01*
X172291400Y-117243243D01*
X172332273Y-117037760D01*
X172412449Y-116844198D01*
X172528850Y-116669992D01*
X172676992Y-116521850D01*
X172851198Y-116405449D01*
X173044760Y-116325273D01*
X173250243Y-116284400D01*
X173459757Y-116284400D01*
X173665240Y-116325273D01*
X173665240Y-116325273D01*
G37*
G36*
X176205240Y-116325273D02*
X176398802Y-116405449D01*
X176573008Y-116521850D01*
X176721150Y-116669992D01*
X176837551Y-116844198D01*
X176917727Y-117037760D01*
X176958600Y-117243243D01*
X176958600Y-117452757D01*
X176917727Y-117658240D01*
X176837551Y-117851802D01*
X176721150Y-118026008D01*
X176573008Y-118174150D01*
X176398802Y-118290551D01*
X176205240Y-118370727D01*
X175999757Y-118411600D01*
X175790243Y-118411600D01*
X175584760Y-118370727D01*
X175391198Y-118290551D01*
X175216992Y-118174150D01*
X175068850Y-118026008D01*
X174952449Y-117851802D01*
X174872273Y-117658240D01*
X174831400Y-117452757D01*
X174831400Y-117243243D01*
X174872273Y-117037760D01*
X174952449Y-116844198D01*
X175068850Y-116669992D01*
X175216992Y-116521850D01*
X175391198Y-116405449D01*
X175584760Y-116325273D01*
X175790243Y-116284400D01*
X175999757Y-116284400D01*
X176205240Y-116325273D01*
X176205240Y-116325273D01*
G37*
G36*
X188905240Y-116325273D02*
X189098802Y-116405449D01*
X189273008Y-116521850D01*
X189421150Y-116669992D01*
X189537551Y-116844198D01*
X189617727Y-117037760D01*
X189658600Y-117243243D01*
X189658600Y-117452757D01*
X189617727Y-117658240D01*
X189537551Y-117851802D01*
X189421150Y-118026008D01*
X189273008Y-118174150D01*
X189098802Y-118290551D01*
X188905240Y-118370727D01*
X188699757Y-118411600D01*
X188490243Y-118411600D01*
X188284760Y-118370727D01*
X188091198Y-118290551D01*
X187916992Y-118174150D01*
X187768850Y-118026008D01*
X187652449Y-117851802D01*
X187572273Y-117658240D01*
X187531400Y-117452757D01*
X187531400Y-117243243D01*
X187572273Y-117037760D01*
X187652449Y-116844198D01*
X187768850Y-116669992D01*
X187916992Y-116521850D01*
X188091198Y-116405449D01*
X188284760Y-116325273D01*
X188490243Y-116284400D01*
X188699757Y-116284400D01*
X188905240Y-116325273D01*
X188905240Y-116325273D01*
G37*
G36*
X178745240Y-116325273D02*
X178938802Y-116405449D01*
X179113008Y-116521850D01*
X179261150Y-116669992D01*
X179377551Y-116844198D01*
X179457727Y-117037760D01*
X179498600Y-117243243D01*
X179498600Y-117452757D01*
X179457727Y-117658240D01*
X179377551Y-117851802D01*
X179261150Y-118026008D01*
X179113008Y-118174150D01*
X178938802Y-118290551D01*
X178745240Y-118370727D01*
X178539757Y-118411600D01*
X178330243Y-118411600D01*
X178124760Y-118370727D01*
X177931198Y-118290551D01*
X177756992Y-118174150D01*
X177608850Y-118026008D01*
X177492449Y-117851802D01*
X177412273Y-117658240D01*
X177371400Y-117452757D01*
X177371400Y-117243243D01*
X177412273Y-117037760D01*
X177492449Y-116844198D01*
X177608850Y-116669992D01*
X177756992Y-116521850D01*
X177931198Y-116405449D01*
X178124760Y-116325273D01*
X178330243Y-116284400D01*
X178539757Y-116284400D01*
X178745240Y-116325273D01*
X178745240Y-116325273D01*
G37*
G36*
X181285240Y-116325273D02*
X181478802Y-116405449D01*
X181653008Y-116521850D01*
X181801150Y-116669992D01*
X181917551Y-116844198D01*
X181997727Y-117037760D01*
X182038600Y-117243243D01*
X182038600Y-117452757D01*
X181997727Y-117658240D01*
X181917551Y-117851802D01*
X181801150Y-118026008D01*
X181653008Y-118174150D01*
X181478802Y-118290551D01*
X181285240Y-118370727D01*
X181079757Y-118411600D01*
X180870243Y-118411600D01*
X180664760Y-118370727D01*
X180471198Y-118290551D01*
X180296992Y-118174150D01*
X180148850Y-118026008D01*
X180032449Y-117851802D01*
X179952273Y-117658240D01*
X179911400Y-117452757D01*
X179911400Y-117243243D01*
X179952273Y-117037760D01*
X180032449Y-116844198D01*
X180148850Y-116669992D01*
X180296992Y-116521850D01*
X180471198Y-116405449D01*
X180664760Y-116325273D01*
X180870243Y-116284400D01*
X181079757Y-116284400D01*
X181285240Y-116325273D01*
X181285240Y-116325273D01*
G37*
G36*
X186365240Y-116325273D02*
X186558802Y-116405449D01*
X186733008Y-116521850D01*
X186881150Y-116669992D01*
X186997551Y-116844198D01*
X187077727Y-117037760D01*
X187118600Y-117243243D01*
X187118600Y-117452757D01*
X187077727Y-117658240D01*
X186997551Y-117851802D01*
X186881150Y-118026008D01*
X186733008Y-118174150D01*
X186558802Y-118290551D01*
X186365240Y-118370727D01*
X186159757Y-118411600D01*
X185950243Y-118411600D01*
X185744760Y-118370727D01*
X185551198Y-118290551D01*
X185376992Y-118174150D01*
X185228850Y-118026008D01*
X185112449Y-117851802D01*
X185032273Y-117658240D01*
X184991400Y-117452757D01*
X184991400Y-117243243D01*
X185032273Y-117037760D01*
X185112449Y-116844198D01*
X185228850Y-116669992D01*
X185376992Y-116521850D01*
X185551198Y-116405449D01*
X185744760Y-116325273D01*
X185950243Y-116284400D01*
X186159757Y-116284400D01*
X186365240Y-116325273D01*
X186365240Y-116325273D01*
G37*
G36*
X191445240Y-116325273D02*
X191638802Y-116405449D01*
X191813008Y-116521850D01*
X191961150Y-116669992D01*
X192077551Y-116844198D01*
X192157727Y-117037760D01*
X192198600Y-117243243D01*
X192198600Y-117452757D01*
X192157727Y-117658240D01*
X192077551Y-117851802D01*
X191961150Y-118026008D01*
X191813008Y-118174150D01*
X191638802Y-118290551D01*
X191445240Y-118370727D01*
X191239757Y-118411600D01*
X191030243Y-118411600D01*
X190824760Y-118370727D01*
X190631198Y-118290551D01*
X190456992Y-118174150D01*
X190308850Y-118026008D01*
X190192449Y-117851802D01*
X190112273Y-117658240D01*
X190071400Y-117452757D01*
X190071400Y-117243243D01*
X190112273Y-117037760D01*
X190192449Y-116844198D01*
X190308850Y-116669992D01*
X190456992Y-116521850D01*
X190631198Y-116405449D01*
X190824760Y-116325273D01*
X191030243Y-116284400D01*
X191239757Y-116284400D01*
X191445240Y-116325273D01*
X191445240Y-116325273D01*
G37*
G36*
X193985240Y-116325273D02*
X194178802Y-116405449D01*
X194353008Y-116521850D01*
X194501150Y-116669992D01*
X194617551Y-116844198D01*
X194697727Y-117037760D01*
X194738600Y-117243243D01*
X194738600Y-117452757D01*
X194697727Y-117658240D01*
X194617551Y-117851802D01*
X194501150Y-118026008D01*
X194353008Y-118174150D01*
X194178802Y-118290551D01*
X193985240Y-118370727D01*
X193779757Y-118411600D01*
X193570243Y-118411600D01*
X193364760Y-118370727D01*
X193171198Y-118290551D01*
X192996992Y-118174150D01*
X192848850Y-118026008D01*
X192732449Y-117851802D01*
X192652273Y-117658240D01*
X192611400Y-117452757D01*
X192611400Y-117243243D01*
X192652273Y-117037760D01*
X192732449Y-116844198D01*
X192848850Y-116669992D01*
X192996992Y-116521850D01*
X193171198Y-116405449D01*
X193364760Y-116325273D01*
X193570243Y-116284400D01*
X193779757Y-116284400D01*
X193985240Y-116325273D01*
X193985240Y-116325273D01*
G37*
G36*
X196525240Y-116325273D02*
X196718802Y-116405449D01*
X196893008Y-116521850D01*
X197041150Y-116669992D01*
X197157551Y-116844198D01*
X197237727Y-117037760D01*
X197278600Y-117243243D01*
X197278600Y-117452757D01*
X197237727Y-117658240D01*
X197157551Y-117851802D01*
X197041150Y-118026008D01*
X196893008Y-118174150D01*
X196718802Y-118290551D01*
X196525240Y-118370727D01*
X196319757Y-118411600D01*
X196110243Y-118411600D01*
X195904760Y-118370727D01*
X195711198Y-118290551D01*
X195536992Y-118174150D01*
X195388850Y-118026008D01*
X195272449Y-117851802D01*
X195192273Y-117658240D01*
X195151400Y-117452757D01*
X195151400Y-117243243D01*
X195192273Y-117037760D01*
X195272449Y-116844198D01*
X195388850Y-116669992D01*
X195536992Y-116521850D01*
X195711198Y-116405449D01*
X195904760Y-116325273D01*
X196110243Y-116284400D01*
X196319757Y-116284400D01*
X196525240Y-116325273D01*
X196525240Y-116325273D01*
G37*
G36*
X166045240Y-116325273D02*
X166238802Y-116405449D01*
X166413008Y-116521850D01*
X166561150Y-116669992D01*
X166677551Y-116844198D01*
X166757727Y-117037760D01*
X166798600Y-117243243D01*
X166798600Y-117452757D01*
X166757727Y-117658240D01*
X166677551Y-117851802D01*
X166561150Y-118026008D01*
X166413008Y-118174150D01*
X166238802Y-118290551D01*
X166045240Y-118370727D01*
X165839757Y-118411600D01*
X165630243Y-118411600D01*
X165424760Y-118370727D01*
X165231198Y-118290551D01*
X165056992Y-118174150D01*
X164908850Y-118026008D01*
X164792449Y-117851802D01*
X164712273Y-117658240D01*
X164671400Y-117452757D01*
X164671400Y-117243243D01*
X164712273Y-117037760D01*
X164792449Y-116844198D01*
X164908850Y-116669992D01*
X165056992Y-116521850D01*
X165231198Y-116405449D01*
X165424760Y-116325273D01*
X165630243Y-116284400D01*
X165839757Y-116284400D01*
X166045240Y-116325273D01*
X166045240Y-116325273D01*
G37*
G36*
X161718600Y-118411600D02*
X159591400Y-118411600D01*
X159591400Y-116284400D01*
X161718600Y-116284400D01*
X161718600Y-118411600D01*
X161718600Y-118411600D01*
G37*
G36*
X183825240Y-116325273D02*
X184018802Y-116405449D01*
X184193008Y-116521850D01*
X184341150Y-116669992D01*
X184457551Y-116844198D01*
X184537727Y-117037760D01*
X184578600Y-117243243D01*
X184578600Y-117452757D01*
X184537727Y-117658240D01*
X184457551Y-117851802D01*
X184341150Y-118026008D01*
X184193008Y-118174150D01*
X184018802Y-118290551D01*
X183825240Y-118370727D01*
X183619757Y-118411600D01*
X183410243Y-118411600D01*
X183204760Y-118370727D01*
X183011198Y-118290551D01*
X182836992Y-118174150D01*
X182688850Y-118026008D01*
X182572449Y-117851802D01*
X182492273Y-117658240D01*
X182451400Y-117452757D01*
X182451400Y-117243243D01*
X182492273Y-117037760D01*
X182572449Y-116844198D01*
X182688850Y-116669992D01*
X182836992Y-116521850D01*
X183011198Y-116405449D01*
X183204760Y-116325273D01*
X183410243Y-116284400D01*
X183619757Y-116284400D01*
X183825240Y-116325273D01*
X183825240Y-116325273D01*
G37*
G36*
X120825770Y-114331372D02*
X120941689Y-114354429D01*
X121123678Y-114429811D01*
X121287463Y-114539249D01*
X121426751Y-114678537D01*
X121536189Y-114842322D01*
X121611571Y-115024311D01*
X121650000Y-115217509D01*
X121650000Y-115414491D01*
X121611571Y-115607689D01*
X121536189Y-115789678D01*
X121426751Y-115953463D01*
X121287463Y-116092751D01*
X121123678Y-116202189D01*
X120941689Y-116277571D01*
X120825770Y-116300628D01*
X120748493Y-116316000D01*
X120551507Y-116316000D01*
X120474230Y-116300628D01*
X120358311Y-116277571D01*
X120176322Y-116202189D01*
X120012537Y-116092751D01*
X119873249Y-115953463D01*
X119763811Y-115789678D01*
X119688429Y-115607689D01*
X119650000Y-115414491D01*
X119650000Y-115217509D01*
X119688429Y-115024311D01*
X119763811Y-114842322D01*
X119873249Y-114678537D01*
X120012537Y-114539249D01*
X120176322Y-114429811D01*
X120358311Y-114354429D01*
X120474230Y-114331372D01*
X120551507Y-114316000D01*
X120748493Y-114316000D01*
X120825770Y-114331372D01*
X120825770Y-114331372D01*
G37*
G36*
X125905770Y-114331372D02*
X126021689Y-114354429D01*
X126203678Y-114429811D01*
X126367463Y-114539249D01*
X126506751Y-114678537D01*
X126616189Y-114842322D01*
X126691571Y-115024311D01*
X126730000Y-115217509D01*
X126730000Y-115414491D01*
X126691571Y-115607689D01*
X126616189Y-115789678D01*
X126506751Y-115953463D01*
X126367463Y-116092751D01*
X126203678Y-116202189D01*
X126021689Y-116277571D01*
X125905770Y-116300628D01*
X125828493Y-116316000D01*
X125631507Y-116316000D01*
X125554230Y-116300628D01*
X125438311Y-116277571D01*
X125256322Y-116202189D01*
X125092537Y-116092751D01*
X124953249Y-115953463D01*
X124843811Y-115789678D01*
X124768429Y-115607689D01*
X124730000Y-115414491D01*
X124730000Y-115217509D01*
X124768429Y-115024311D01*
X124843811Y-114842322D01*
X124953249Y-114678537D01*
X125092537Y-114539249D01*
X125256322Y-114429811D01*
X125438311Y-114354429D01*
X125554230Y-114331372D01*
X125631507Y-114316000D01*
X125828493Y-114316000D01*
X125905770Y-114331372D01*
X125905770Y-114331372D01*
G37*
G36*
X125926030Y-106710469D02*
X125926033Y-106710470D01*
X125926034Y-106710470D01*
X126114535Y-106767651D01*
X126114537Y-106767652D01*
X126288260Y-106860509D01*
X126440528Y-106985472D01*
X126565491Y-107137740D01*
X126658348Y-107311463D01*
X126715531Y-107499970D01*
X126734838Y-107696000D01*
X126715531Y-107892030D01*
X126658348Y-108080537D01*
X126565491Y-108254260D01*
X126440528Y-108406528D01*
X126288260Y-108531491D01*
X126288258Y-108531492D01*
X126114535Y-108624349D01*
X125926034Y-108681530D01*
X125926033Y-108681530D01*
X125926030Y-108681531D01*
X125779124Y-108696000D01*
X125680876Y-108696000D01*
X125533970Y-108681531D01*
X125533967Y-108681530D01*
X125533966Y-108681530D01*
X125345465Y-108624349D01*
X125171742Y-108531492D01*
X125171740Y-108531491D01*
X125019472Y-108406528D01*
X124894509Y-108254260D01*
X124801652Y-108080537D01*
X124744469Y-107892030D01*
X124725162Y-107696000D01*
X124744469Y-107499970D01*
X124801652Y-107311463D01*
X124894509Y-107137740D01*
X125019472Y-106985472D01*
X125171740Y-106860509D01*
X125345463Y-106767652D01*
X125345465Y-106767651D01*
X125533966Y-106710470D01*
X125533967Y-106710470D01*
X125533970Y-106710469D01*
X125680876Y-106696000D01*
X125779124Y-106696000D01*
X125926030Y-106710469D01*
X125926030Y-106710469D01*
G37*
G36*
X120846030Y-106710469D02*
X120846033Y-106710470D01*
X120846034Y-106710470D01*
X121034535Y-106767651D01*
X121034537Y-106767652D01*
X121208260Y-106860509D01*
X121360528Y-106985472D01*
X121485491Y-107137740D01*
X121578348Y-107311463D01*
X121635531Y-107499970D01*
X121654838Y-107696000D01*
X121635531Y-107892030D01*
X121578348Y-108080537D01*
X121485491Y-108254260D01*
X121360528Y-108406528D01*
X121208260Y-108531491D01*
X121208258Y-108531492D01*
X121034535Y-108624349D01*
X120846034Y-108681530D01*
X120846033Y-108681530D01*
X120846030Y-108681531D01*
X120699124Y-108696000D01*
X120600876Y-108696000D01*
X120453970Y-108681531D01*
X120453967Y-108681530D01*
X120453966Y-108681530D01*
X120265465Y-108624349D01*
X120091742Y-108531492D01*
X120091740Y-108531491D01*
X119939472Y-108406528D01*
X119814509Y-108254260D01*
X119721652Y-108080537D01*
X119664469Y-107892030D01*
X119645162Y-107696000D01*
X119664469Y-107499970D01*
X119721652Y-107311463D01*
X119814509Y-107137740D01*
X119939472Y-106985472D01*
X120091740Y-106860509D01*
X120265463Y-106767652D01*
X120265465Y-106767651D01*
X120453966Y-106710470D01*
X120453967Y-106710470D01*
X120453970Y-106710469D01*
X120600876Y-106696000D01*
X120699124Y-106696000D01*
X120846030Y-106710469D01*
X120846030Y-106710469D01*
G37*
G36*
X121600000Y-104328000D02*
X119700000Y-104328000D01*
X119700000Y-102428000D01*
X121600000Y-102428000D01*
X121600000Y-104328000D01*
X121600000Y-104328000D01*
G37*
G36*
X125864525Y-102436147D02*
X126007105Y-102464508D01*
X126179994Y-102536121D01*
X126335590Y-102640087D01*
X126467913Y-102772410D01*
X126571879Y-102928006D01*
X126643492Y-103100895D01*
X126680000Y-103284433D01*
X126680000Y-103471567D01*
X126643492Y-103655105D01*
X126571879Y-103827994D01*
X126467913Y-103983590D01*
X126335590Y-104115913D01*
X126179994Y-104219879D01*
X126007105Y-104291492D01*
X125869451Y-104318873D01*
X125823568Y-104328000D01*
X125636432Y-104328000D01*
X125590549Y-104318873D01*
X125452895Y-104291492D01*
X125280006Y-104219879D01*
X125124410Y-104115913D01*
X124992087Y-103983590D01*
X124888121Y-103827994D01*
X124816508Y-103655105D01*
X124780000Y-103471567D01*
X124780000Y-103284433D01*
X124816508Y-103100895D01*
X124888121Y-102928006D01*
X124992087Y-102772410D01*
X125124410Y-102640087D01*
X125280006Y-102536121D01*
X125452895Y-102464508D01*
X125595475Y-102436147D01*
X125636432Y-102428000D01*
X125823568Y-102428000D01*
X125864525Y-102436147D01*
X125864525Y-102436147D01*
G37*
G36*
X158280140Y-100993808D02*
X158443150Y-101026233D01*
X158647887Y-101111038D01*
X158729318Y-101165449D01*
X158832148Y-101234158D01*
X158988842Y-101390852D01*
X158988844Y-101390855D01*
X159111962Y-101575113D01*
X159196767Y-101779850D01*
X159240000Y-101997197D01*
X159240000Y-102218803D01*
X159196767Y-102436150D01*
X159111962Y-102640887D01*
X159111961Y-102640888D01*
X158988842Y-102825148D01*
X158832148Y-102981842D01*
X158832145Y-102981844D01*
X158647887Y-103104962D01*
X158443150Y-103189767D01*
X158280140Y-103222192D01*
X158225804Y-103233000D01*
X158004196Y-103233000D01*
X157949860Y-103222192D01*
X157786850Y-103189767D01*
X157582113Y-103104962D01*
X157397855Y-102981844D01*
X157397852Y-102981842D01*
X157241158Y-102825148D01*
X157118039Y-102640888D01*
X157118038Y-102640887D01*
X157033233Y-102436150D01*
X156990000Y-102218803D01*
X156990000Y-101997197D01*
X157033233Y-101779850D01*
X157118038Y-101575113D01*
X157241156Y-101390855D01*
X157241158Y-101390852D01*
X157397852Y-101234158D01*
X157500682Y-101165449D01*
X157582113Y-101111038D01*
X157786850Y-101026233D01*
X157949860Y-100993808D01*
X158004196Y-100983000D01*
X158225804Y-100983000D01*
X158280140Y-100993808D01*
X158280140Y-100993808D01*
G37*
G36*
X198920140Y-100993808D02*
X199083150Y-101026233D01*
X199287887Y-101111038D01*
X199369318Y-101165449D01*
X199472148Y-101234158D01*
X199628842Y-101390852D01*
X199628844Y-101390855D01*
X199751962Y-101575113D01*
X199836767Y-101779850D01*
X199880000Y-101997197D01*
X199880000Y-102218803D01*
X199836767Y-102436150D01*
X199751962Y-102640887D01*
X199751961Y-102640888D01*
X199628842Y-102825148D01*
X199472148Y-102981842D01*
X199472145Y-102981844D01*
X199287887Y-103104962D01*
X199083150Y-103189767D01*
X198920140Y-103222192D01*
X198865804Y-103233000D01*
X198644196Y-103233000D01*
X198589860Y-103222192D01*
X198426850Y-103189767D01*
X198222113Y-103104962D01*
X198037855Y-102981844D01*
X198037852Y-102981842D01*
X197881158Y-102825148D01*
X197758039Y-102640888D01*
X197758038Y-102640887D01*
X197673233Y-102436150D01*
X197630000Y-102218803D01*
X197630000Y-101997197D01*
X197673233Y-101779850D01*
X197758038Y-101575113D01*
X197881156Y-101390855D01*
X197881158Y-101390852D01*
X198037852Y-101234158D01*
X198140682Y-101165449D01*
X198222113Y-101111038D01*
X198426850Y-101026233D01*
X198589860Y-100993808D01*
X198644196Y-100983000D01*
X198865804Y-100983000D01*
X198920140Y-100993808D01*
X198920140Y-100993808D01*
G37*
G36*
X166045240Y-101085273D02*
X166238802Y-101165449D01*
X166413008Y-101281850D01*
X166561150Y-101429992D01*
X166677551Y-101604198D01*
X166757727Y-101797760D01*
X166798600Y-102003243D01*
X166798600Y-102212757D01*
X166757727Y-102418240D01*
X166677551Y-102611802D01*
X166561150Y-102786008D01*
X166413008Y-102934150D01*
X166238802Y-103050551D01*
X166045240Y-103130727D01*
X165839757Y-103171600D01*
X165630243Y-103171600D01*
X165424760Y-103130727D01*
X165231198Y-103050551D01*
X165056992Y-102934150D01*
X164908850Y-102786008D01*
X164792449Y-102611802D01*
X164712273Y-102418240D01*
X164671400Y-102212757D01*
X164671400Y-102003243D01*
X164712273Y-101797760D01*
X164792449Y-101604198D01*
X164908850Y-101429992D01*
X165056992Y-101281850D01*
X165231198Y-101165449D01*
X165424760Y-101085273D01*
X165630243Y-101044400D01*
X165839757Y-101044400D01*
X166045240Y-101085273D01*
X166045240Y-101085273D01*
G37*
G36*
X160965240Y-101085273D02*
X161158802Y-101165449D01*
X161333008Y-101281850D01*
X161481150Y-101429992D01*
X161597551Y-101604198D01*
X161677727Y-101797760D01*
X161718600Y-102003243D01*
X161718600Y-102212757D01*
X161677727Y-102418240D01*
X161597551Y-102611802D01*
X161481150Y-102786008D01*
X161333008Y-102934150D01*
X161158802Y-103050551D01*
X160965240Y-103130727D01*
X160759757Y-103171600D01*
X160550243Y-103171600D01*
X160344760Y-103130727D01*
X160151198Y-103050551D01*
X159976992Y-102934150D01*
X159828850Y-102786008D01*
X159712449Y-102611802D01*
X159632273Y-102418240D01*
X159591400Y-102212757D01*
X159591400Y-102003243D01*
X159632273Y-101797760D01*
X159712449Y-101604198D01*
X159828850Y-101429992D01*
X159976992Y-101281850D01*
X160151198Y-101165449D01*
X160344760Y-101085273D01*
X160550243Y-101044400D01*
X160759757Y-101044400D01*
X160965240Y-101085273D01*
X160965240Y-101085273D01*
G37*
G36*
X171125240Y-101085273D02*
X171318802Y-101165449D01*
X171493008Y-101281850D01*
X171641150Y-101429992D01*
X171757551Y-101604198D01*
X171837727Y-101797760D01*
X171878600Y-102003243D01*
X171878600Y-102212757D01*
X171837727Y-102418240D01*
X171757551Y-102611802D01*
X171641150Y-102786008D01*
X171493008Y-102934150D01*
X171318802Y-103050551D01*
X171125240Y-103130727D01*
X170919757Y-103171600D01*
X170710243Y-103171600D01*
X170504760Y-103130727D01*
X170311198Y-103050551D01*
X170136992Y-102934150D01*
X169988850Y-102786008D01*
X169872449Y-102611802D01*
X169792273Y-102418240D01*
X169751400Y-102212757D01*
X169751400Y-102003243D01*
X169792273Y-101797760D01*
X169872449Y-101604198D01*
X169988850Y-101429992D01*
X170136992Y-101281850D01*
X170311198Y-101165449D01*
X170504760Y-101085273D01*
X170710243Y-101044400D01*
X170919757Y-101044400D01*
X171125240Y-101085273D01*
X171125240Y-101085273D01*
G37*
G36*
X173665240Y-101085273D02*
X173858802Y-101165449D01*
X174033008Y-101281850D01*
X174181150Y-101429992D01*
X174297551Y-101604198D01*
X174377727Y-101797760D01*
X174418600Y-102003243D01*
X174418600Y-102212757D01*
X174377727Y-102418240D01*
X174297551Y-102611802D01*
X174181150Y-102786008D01*
X174033008Y-102934150D01*
X173858802Y-103050551D01*
X173665240Y-103130727D01*
X173459757Y-103171600D01*
X173250243Y-103171600D01*
X173044760Y-103130727D01*
X172851198Y-103050551D01*
X172676992Y-102934150D01*
X172528850Y-102786008D01*
X172412449Y-102611802D01*
X172332273Y-102418240D01*
X172291400Y-102212757D01*
X172291400Y-102003243D01*
X172332273Y-101797760D01*
X172412449Y-101604198D01*
X172528850Y-101429992D01*
X172676992Y-101281850D01*
X172851198Y-101165449D01*
X173044760Y-101085273D01*
X173250243Y-101044400D01*
X173459757Y-101044400D01*
X173665240Y-101085273D01*
X173665240Y-101085273D01*
G37*
G36*
X176205240Y-101085273D02*
X176398802Y-101165449D01*
X176573008Y-101281850D01*
X176721150Y-101429992D01*
X176837551Y-101604198D01*
X176917727Y-101797760D01*
X176958600Y-102003243D01*
X176958600Y-102212757D01*
X176917727Y-102418240D01*
X176837551Y-102611802D01*
X176721150Y-102786008D01*
X176573008Y-102934150D01*
X176398802Y-103050551D01*
X176205240Y-103130727D01*
X175999757Y-103171600D01*
X175790243Y-103171600D01*
X175584760Y-103130727D01*
X175391198Y-103050551D01*
X175216992Y-102934150D01*
X175068850Y-102786008D01*
X174952449Y-102611802D01*
X174872273Y-102418240D01*
X174831400Y-102212757D01*
X174831400Y-102003243D01*
X174872273Y-101797760D01*
X174952449Y-101604198D01*
X175068850Y-101429992D01*
X175216992Y-101281850D01*
X175391198Y-101165449D01*
X175584760Y-101085273D01*
X175790243Y-101044400D01*
X175999757Y-101044400D01*
X176205240Y-101085273D01*
X176205240Y-101085273D01*
G37*
G36*
X178745240Y-101085273D02*
X178938802Y-101165449D01*
X179113008Y-101281850D01*
X179261150Y-101429992D01*
X179377551Y-101604198D01*
X179457727Y-101797760D01*
X179498600Y-102003243D01*
X179498600Y-102212757D01*
X179457727Y-102418240D01*
X179377551Y-102611802D01*
X179261150Y-102786008D01*
X179113008Y-102934150D01*
X178938802Y-103050551D01*
X178745240Y-103130727D01*
X178539757Y-103171600D01*
X178330243Y-103171600D01*
X178124760Y-103130727D01*
X177931198Y-103050551D01*
X177756992Y-102934150D01*
X177608850Y-102786008D01*
X177492449Y-102611802D01*
X177412273Y-102418240D01*
X177371400Y-102212757D01*
X177371400Y-102003243D01*
X177412273Y-101797760D01*
X177492449Y-101604198D01*
X177608850Y-101429992D01*
X177756992Y-101281850D01*
X177931198Y-101165449D01*
X178124760Y-101085273D01*
X178330243Y-101044400D01*
X178539757Y-101044400D01*
X178745240Y-101085273D01*
X178745240Y-101085273D01*
G37*
G36*
X181285240Y-101085273D02*
X181478802Y-101165449D01*
X181653008Y-101281850D01*
X181801150Y-101429992D01*
X181917551Y-101604198D01*
X181997727Y-101797760D01*
X182038600Y-102003243D01*
X182038600Y-102212757D01*
X181997727Y-102418240D01*
X181917551Y-102611802D01*
X181801150Y-102786008D01*
X181653008Y-102934150D01*
X181478802Y-103050551D01*
X181285240Y-103130727D01*
X181079757Y-103171600D01*
X180870243Y-103171600D01*
X180664760Y-103130727D01*
X180471198Y-103050551D01*
X180296992Y-102934150D01*
X180148850Y-102786008D01*
X180032449Y-102611802D01*
X179952273Y-102418240D01*
X179911400Y-102212757D01*
X179911400Y-102003243D01*
X179952273Y-101797760D01*
X180032449Y-101604198D01*
X180148850Y-101429992D01*
X180296992Y-101281850D01*
X180471198Y-101165449D01*
X180664760Y-101085273D01*
X180870243Y-101044400D01*
X181079757Y-101044400D01*
X181285240Y-101085273D01*
X181285240Y-101085273D01*
G37*
G36*
X183825240Y-101085273D02*
X184018802Y-101165449D01*
X184193008Y-101281850D01*
X184341150Y-101429992D01*
X184457551Y-101604198D01*
X184537727Y-101797760D01*
X184578600Y-102003243D01*
X184578600Y-102212757D01*
X184537727Y-102418240D01*
X184457551Y-102611802D01*
X184341150Y-102786008D01*
X184193008Y-102934150D01*
X184018802Y-103050551D01*
X183825240Y-103130727D01*
X183619757Y-103171600D01*
X183410243Y-103171600D01*
X183204760Y-103130727D01*
X183011198Y-103050551D01*
X182836992Y-102934150D01*
X182688850Y-102786008D01*
X182572449Y-102611802D01*
X182492273Y-102418240D01*
X182451400Y-102212757D01*
X182451400Y-102003243D01*
X182492273Y-101797760D01*
X182572449Y-101604198D01*
X182688850Y-101429992D01*
X182836992Y-101281850D01*
X183011198Y-101165449D01*
X183204760Y-101085273D01*
X183410243Y-101044400D01*
X183619757Y-101044400D01*
X183825240Y-101085273D01*
X183825240Y-101085273D01*
G37*
G36*
X186365240Y-101085273D02*
X186558802Y-101165449D01*
X186733008Y-101281850D01*
X186881150Y-101429992D01*
X186997551Y-101604198D01*
X187077727Y-101797760D01*
X187118600Y-102003243D01*
X187118600Y-102212757D01*
X187077727Y-102418240D01*
X186997551Y-102611802D01*
X186881150Y-102786008D01*
X186733008Y-102934150D01*
X186558802Y-103050551D01*
X186365240Y-103130727D01*
X186159757Y-103171600D01*
X185950243Y-103171600D01*
X185744760Y-103130727D01*
X185551198Y-103050551D01*
X185376992Y-102934150D01*
X185228850Y-102786008D01*
X185112449Y-102611802D01*
X185032273Y-102418240D01*
X184991400Y-102212757D01*
X184991400Y-102003243D01*
X185032273Y-101797760D01*
X185112449Y-101604198D01*
X185228850Y-101429992D01*
X185376992Y-101281850D01*
X185551198Y-101165449D01*
X185744760Y-101085273D01*
X185950243Y-101044400D01*
X186159757Y-101044400D01*
X186365240Y-101085273D01*
X186365240Y-101085273D01*
G37*
G36*
X163505240Y-101085273D02*
X163698802Y-101165449D01*
X163873008Y-101281850D01*
X164021150Y-101429992D01*
X164137551Y-101604198D01*
X164217727Y-101797760D01*
X164258600Y-102003243D01*
X164258600Y-102212757D01*
X164217727Y-102418240D01*
X164137551Y-102611802D01*
X164021150Y-102786008D01*
X163873008Y-102934150D01*
X163698802Y-103050551D01*
X163505240Y-103130727D01*
X163299757Y-103171600D01*
X163090243Y-103171600D01*
X162884760Y-103130727D01*
X162691198Y-103050551D01*
X162516992Y-102934150D01*
X162368850Y-102786008D01*
X162252449Y-102611802D01*
X162172273Y-102418240D01*
X162131400Y-102212757D01*
X162131400Y-102003243D01*
X162172273Y-101797760D01*
X162252449Y-101604198D01*
X162368850Y-101429992D01*
X162516992Y-101281850D01*
X162691198Y-101165449D01*
X162884760Y-101085273D01*
X163090243Y-101044400D01*
X163299757Y-101044400D01*
X163505240Y-101085273D01*
X163505240Y-101085273D01*
G37*
G36*
X191445240Y-101085273D02*
X191638802Y-101165449D01*
X191813008Y-101281850D01*
X191961150Y-101429992D01*
X192077551Y-101604198D01*
X192157727Y-101797760D01*
X192198600Y-102003243D01*
X192198600Y-102212757D01*
X192157727Y-102418240D01*
X192077551Y-102611802D01*
X191961150Y-102786008D01*
X191813008Y-102934150D01*
X191638802Y-103050551D01*
X191445240Y-103130727D01*
X191239757Y-103171600D01*
X191030243Y-103171600D01*
X190824760Y-103130727D01*
X190631198Y-103050551D01*
X190456992Y-102934150D01*
X190308850Y-102786008D01*
X190192449Y-102611802D01*
X190112273Y-102418240D01*
X190071400Y-102212757D01*
X190071400Y-102003243D01*
X190112273Y-101797760D01*
X190192449Y-101604198D01*
X190308850Y-101429992D01*
X190456992Y-101281850D01*
X190631198Y-101165449D01*
X190824760Y-101085273D01*
X191030243Y-101044400D01*
X191239757Y-101044400D01*
X191445240Y-101085273D01*
X191445240Y-101085273D01*
G37*
G36*
X193985240Y-101085273D02*
X194178802Y-101165449D01*
X194353008Y-101281850D01*
X194501150Y-101429992D01*
X194617551Y-101604198D01*
X194697727Y-101797760D01*
X194738600Y-102003243D01*
X194738600Y-102212757D01*
X194697727Y-102418240D01*
X194617551Y-102611802D01*
X194501150Y-102786008D01*
X194353008Y-102934150D01*
X194178802Y-103050551D01*
X193985240Y-103130727D01*
X193779757Y-103171600D01*
X193570243Y-103171600D01*
X193364760Y-103130727D01*
X193171198Y-103050551D01*
X192996992Y-102934150D01*
X192848850Y-102786008D01*
X192732449Y-102611802D01*
X192652273Y-102418240D01*
X192611400Y-102212757D01*
X192611400Y-102003243D01*
X192652273Y-101797760D01*
X192732449Y-101604198D01*
X192848850Y-101429992D01*
X192996992Y-101281850D01*
X193171198Y-101165449D01*
X193364760Y-101085273D01*
X193570243Y-101044400D01*
X193779757Y-101044400D01*
X193985240Y-101085273D01*
X193985240Y-101085273D01*
G37*
G36*
X196525240Y-101085273D02*
X196718802Y-101165449D01*
X196893008Y-101281850D01*
X197041150Y-101429992D01*
X197157551Y-101604198D01*
X197237727Y-101797760D01*
X197278600Y-102003243D01*
X197278600Y-102212757D01*
X197237727Y-102418240D01*
X197157551Y-102611802D01*
X197041150Y-102786008D01*
X196893008Y-102934150D01*
X196718802Y-103050551D01*
X196525240Y-103130727D01*
X196319757Y-103171600D01*
X196110243Y-103171600D01*
X195904760Y-103130727D01*
X195711198Y-103050551D01*
X195536992Y-102934150D01*
X195388850Y-102786008D01*
X195272449Y-102611802D01*
X195192273Y-102418240D01*
X195151400Y-102212757D01*
X195151400Y-102003243D01*
X195192273Y-101797760D01*
X195272449Y-101604198D01*
X195388850Y-101429992D01*
X195536992Y-101281850D01*
X195711198Y-101165449D01*
X195904760Y-101085273D01*
X196110243Y-101044400D01*
X196319757Y-101044400D01*
X196525240Y-101085273D01*
X196525240Y-101085273D01*
G37*
G36*
X168585240Y-101085273D02*
X168778802Y-101165449D01*
X168953008Y-101281850D01*
X169101150Y-101429992D01*
X169217551Y-101604198D01*
X169297727Y-101797760D01*
X169338600Y-102003243D01*
X169338600Y-102212757D01*
X169297727Y-102418240D01*
X169217551Y-102611802D01*
X169101150Y-102786008D01*
X168953008Y-102934150D01*
X168778802Y-103050551D01*
X168585240Y-103130727D01*
X168379757Y-103171600D01*
X168170243Y-103171600D01*
X167964760Y-103130727D01*
X167771198Y-103050551D01*
X167596992Y-102934150D01*
X167448850Y-102786008D01*
X167332449Y-102611802D01*
X167252273Y-102418240D01*
X167211400Y-102212757D01*
X167211400Y-102003243D01*
X167252273Y-101797760D01*
X167332449Y-101604198D01*
X167448850Y-101429992D01*
X167596992Y-101281850D01*
X167771198Y-101165449D01*
X167964760Y-101085273D01*
X168170243Y-101044400D01*
X168379757Y-101044400D01*
X168585240Y-101085273D01*
X168585240Y-101085273D01*
G37*
G36*
X188905240Y-101085273D02*
X189098802Y-101165449D01*
X189273008Y-101281850D01*
X189421150Y-101429992D01*
X189537551Y-101604198D01*
X189617727Y-101797760D01*
X189658600Y-102003243D01*
X189658600Y-102212757D01*
X189617727Y-102418240D01*
X189537551Y-102611802D01*
X189421150Y-102786008D01*
X189273008Y-102934150D01*
X189098802Y-103050551D01*
X188905240Y-103130727D01*
X188699757Y-103171600D01*
X188490243Y-103171600D01*
X188284760Y-103130727D01*
X188091198Y-103050551D01*
X187916992Y-102934150D01*
X187768850Y-102786008D01*
X187652449Y-102611802D01*
X187572273Y-102418240D01*
X187531400Y-102212757D01*
X187531400Y-102003243D01*
X187572273Y-101797760D01*
X187652449Y-101604198D01*
X187768850Y-101429992D01*
X187916992Y-101281850D01*
X188091198Y-101165449D01*
X188284760Y-101085273D01*
X188490243Y-101044400D01*
X188699757Y-101044400D01*
X188905240Y-101085273D01*
X188905240Y-101085273D01*
G37*
G36*
X123329452Y-99897127D02*
X123467105Y-99924508D01*
X123639994Y-99996121D01*
X123795590Y-100100087D01*
X123927913Y-100232410D01*
X124031879Y-100388006D01*
X124103492Y-100560895D01*
X124140000Y-100744433D01*
X124140000Y-100931567D01*
X124103492Y-101115105D01*
X124031879Y-101287994D01*
X123927913Y-101443590D01*
X123795590Y-101575913D01*
X123639994Y-101679879D01*
X123467105Y-101751492D01*
X123329452Y-101778873D01*
X123283568Y-101788000D01*
X123096432Y-101788000D01*
X123050548Y-101778873D01*
X122912895Y-101751492D01*
X122740006Y-101679879D01*
X122584410Y-101575913D01*
X122452087Y-101443590D01*
X122348121Y-101287994D01*
X122276508Y-101115105D01*
X122240000Y-100931567D01*
X122240000Y-100744433D01*
X122276508Y-100560895D01*
X122348121Y-100388006D01*
X122452087Y-100232410D01*
X122584410Y-100100087D01*
X122740006Y-99996121D01*
X122912895Y-99924508D01*
X123050549Y-99897127D01*
X123096432Y-99888000D01*
X123283568Y-99888000D01*
X123329452Y-99897127D01*
X123329452Y-99897127D01*
G37*
G36*
X133892000Y-100872000D02*
X131792000Y-100872000D01*
X131792000Y-98772000D01*
X133892000Y-98772000D01*
X133892000Y-100872000D01*
X133892000Y-100872000D01*
G37*
G36*
X135510707Y-98779596D02*
X135587836Y-98787193D01*
X135719787Y-98827220D01*
X135785763Y-98847233D01*
X135968172Y-98944733D01*
X136128054Y-99075946D01*
X136259267Y-99235828D01*
X136356767Y-99418237D01*
X136356767Y-99418238D01*
X136416807Y-99616164D01*
X136437080Y-99822000D01*
X136416807Y-100027836D01*
X136394890Y-100100087D01*
X136356767Y-100225763D01*
X136259267Y-100408172D01*
X136128054Y-100568054D01*
X135968172Y-100699267D01*
X135785763Y-100796767D01*
X135719787Y-100816780D01*
X135587836Y-100856807D01*
X135510707Y-100864403D01*
X135433580Y-100872000D01*
X135330420Y-100872000D01*
X135253293Y-100864403D01*
X135176164Y-100856807D01*
X135044213Y-100816780D01*
X134978237Y-100796767D01*
X134795828Y-100699267D01*
X134635946Y-100568054D01*
X134504733Y-100408172D01*
X134407233Y-100225763D01*
X134369110Y-100100087D01*
X134347193Y-100027836D01*
X134326920Y-99822000D01*
X134347193Y-99616164D01*
X134407233Y-99418238D01*
X134407233Y-99418237D01*
X134504733Y-99235828D01*
X134635946Y-99075946D01*
X134795828Y-98944733D01*
X134978237Y-98847233D01*
X135044213Y-98827220D01*
X135176164Y-98787193D01*
X135253293Y-98779597D01*
X135330420Y-98772000D01*
X135433580Y-98772000D01*
X135510707Y-98779596D01*
X135510707Y-98779596D01*
G37*
G36*
X140590707Y-98779596D02*
X140667836Y-98787193D01*
X140799787Y-98827220D01*
X140865763Y-98847233D01*
X141048172Y-98944733D01*
X141208054Y-99075946D01*
X141339267Y-99235828D01*
X141436767Y-99418237D01*
X141436767Y-99418238D01*
X141496807Y-99616164D01*
X141517080Y-99822000D01*
X141496807Y-100027836D01*
X141474890Y-100100087D01*
X141436767Y-100225763D01*
X141339267Y-100408172D01*
X141208054Y-100568054D01*
X141048172Y-100699267D01*
X140865763Y-100796767D01*
X140799787Y-100816780D01*
X140667836Y-100856807D01*
X140590707Y-100864403D01*
X140513580Y-100872000D01*
X140410420Y-100872000D01*
X140333293Y-100864403D01*
X140256164Y-100856807D01*
X140124213Y-100816780D01*
X140058237Y-100796767D01*
X139875828Y-100699267D01*
X139715946Y-100568054D01*
X139584733Y-100408172D01*
X139487233Y-100225763D01*
X139449110Y-100100087D01*
X139427193Y-100027836D01*
X139406920Y-99822000D01*
X139427193Y-99616164D01*
X139487233Y-99418238D01*
X139487233Y-99418237D01*
X139584733Y-99235828D01*
X139715946Y-99075946D01*
X139875828Y-98944733D01*
X140058237Y-98847233D01*
X140124213Y-98827220D01*
X140256164Y-98787193D01*
X140333293Y-98779597D01*
X140410420Y-98772000D01*
X140513580Y-98772000D01*
X140590707Y-98779596D01*
X140590707Y-98779596D01*
G37*
G36*
X143130707Y-98779596D02*
X143207836Y-98787193D01*
X143339787Y-98827220D01*
X143405763Y-98847233D01*
X143588172Y-98944733D01*
X143748054Y-99075946D01*
X143879267Y-99235828D01*
X143976767Y-99418237D01*
X143976767Y-99418238D01*
X144036807Y-99616164D01*
X144057080Y-99822000D01*
X144036807Y-100027836D01*
X144014890Y-100100087D01*
X143976767Y-100225763D01*
X143879267Y-100408172D01*
X143748054Y-100568054D01*
X143588172Y-100699267D01*
X143405763Y-100796767D01*
X143339787Y-100816780D01*
X143207836Y-100856807D01*
X143130707Y-100864403D01*
X143053580Y-100872000D01*
X142950420Y-100872000D01*
X142873293Y-100864403D01*
X142796164Y-100856807D01*
X142664213Y-100816780D01*
X142598237Y-100796767D01*
X142415828Y-100699267D01*
X142255946Y-100568054D01*
X142124733Y-100408172D01*
X142027233Y-100225763D01*
X141989110Y-100100087D01*
X141967193Y-100027836D01*
X141946920Y-99822000D01*
X141967193Y-99616164D01*
X142027233Y-99418238D01*
X142027233Y-99418237D01*
X142124733Y-99235828D01*
X142255946Y-99075946D01*
X142415828Y-98944733D01*
X142598237Y-98847233D01*
X142664213Y-98827220D01*
X142796164Y-98787193D01*
X142873293Y-98779597D01*
X142950420Y-98772000D01*
X143053580Y-98772000D01*
X143130707Y-98779596D01*
X143130707Y-98779596D01*
G37*
G36*
X138050707Y-98779596D02*
X138127836Y-98787193D01*
X138259787Y-98827220D01*
X138325763Y-98847233D01*
X138508172Y-98944733D01*
X138668054Y-99075946D01*
X138799267Y-99235828D01*
X138896767Y-99418237D01*
X138896767Y-99418238D01*
X138956807Y-99616164D01*
X138977080Y-99822000D01*
X138956807Y-100027836D01*
X138934890Y-100100087D01*
X138896767Y-100225763D01*
X138799267Y-100408172D01*
X138668054Y-100568054D01*
X138508172Y-100699267D01*
X138325763Y-100796767D01*
X138259787Y-100816780D01*
X138127836Y-100856807D01*
X138050707Y-100864403D01*
X137973580Y-100872000D01*
X137870420Y-100872000D01*
X137793293Y-100864403D01*
X137716164Y-100856807D01*
X137584213Y-100816780D01*
X137518237Y-100796767D01*
X137335828Y-100699267D01*
X137175946Y-100568054D01*
X137044733Y-100408172D01*
X136947233Y-100225763D01*
X136909110Y-100100087D01*
X136887193Y-100027836D01*
X136866920Y-99822000D01*
X136887193Y-99616164D01*
X136947233Y-99418238D01*
X136947233Y-99418237D01*
X137044733Y-99235828D01*
X137175946Y-99075946D01*
X137335828Y-98944733D01*
X137518237Y-98847233D01*
X137584213Y-98827220D01*
X137716164Y-98787193D01*
X137793293Y-98779597D01*
X137870420Y-98772000D01*
X137973580Y-98772000D01*
X138050707Y-98779596D01*
X138050707Y-98779596D01*
G37*
G36*
X171959707Y-97255596D02*
X172036836Y-97263193D01*
X172168787Y-97303220D01*
X172234763Y-97323233D01*
X172417172Y-97420733D01*
X172577054Y-97551946D01*
X172708267Y-97711828D01*
X172805767Y-97894237D01*
X172805767Y-97894238D01*
X172865807Y-98092164D01*
X172886080Y-98298000D01*
X172865807Y-98503836D01*
X172825780Y-98635787D01*
X172805767Y-98701763D01*
X172708267Y-98884172D01*
X172577054Y-99044054D01*
X172417172Y-99175267D01*
X172234763Y-99272767D01*
X172168787Y-99292780D01*
X172036836Y-99332807D01*
X171959707Y-99340403D01*
X171882580Y-99348000D01*
X171779420Y-99348000D01*
X171702293Y-99340403D01*
X171625164Y-99332807D01*
X171493213Y-99292780D01*
X171427237Y-99272767D01*
X171244828Y-99175267D01*
X171084946Y-99044054D01*
X170953733Y-98884172D01*
X170856233Y-98701763D01*
X170836220Y-98635787D01*
X170796193Y-98503836D01*
X170775920Y-98298000D01*
X170796193Y-98092164D01*
X170856233Y-97894238D01*
X170856233Y-97894237D01*
X170953733Y-97711828D01*
X171084946Y-97551946D01*
X171244828Y-97420733D01*
X171427237Y-97323233D01*
X171493213Y-97303220D01*
X171625164Y-97263193D01*
X171702293Y-97255597D01*
X171779420Y-97248000D01*
X171882580Y-97248000D01*
X171959707Y-97255596D01*
X171959707Y-97255596D01*
G37*
G36*
X177039707Y-97255596D02*
X177116836Y-97263193D01*
X177248787Y-97303220D01*
X177314763Y-97323233D01*
X177497172Y-97420733D01*
X177657054Y-97551946D01*
X177788267Y-97711828D01*
X177885767Y-97894237D01*
X177885767Y-97894238D01*
X177945807Y-98092164D01*
X177966080Y-98298000D01*
X177945807Y-98503836D01*
X177905780Y-98635787D01*
X177885767Y-98701763D01*
X177788267Y-98884172D01*
X177657054Y-99044054D01*
X177497172Y-99175267D01*
X177314763Y-99272767D01*
X177248787Y-99292780D01*
X177116836Y-99332807D01*
X177039707Y-99340403D01*
X176962580Y-99348000D01*
X176859420Y-99348000D01*
X176782293Y-99340403D01*
X176705164Y-99332807D01*
X176573213Y-99292780D01*
X176507237Y-99272767D01*
X176324828Y-99175267D01*
X176164946Y-99044054D01*
X176033733Y-98884172D01*
X175936233Y-98701763D01*
X175916220Y-98635787D01*
X175876193Y-98503836D01*
X175855920Y-98298000D01*
X175876193Y-98092164D01*
X175936233Y-97894238D01*
X175936233Y-97894237D01*
X176033733Y-97711828D01*
X176164946Y-97551946D01*
X176324828Y-97420733D01*
X176507237Y-97323233D01*
X176573213Y-97303220D01*
X176705164Y-97263193D01*
X176782293Y-97255597D01*
X176859420Y-97248000D01*
X176962580Y-97248000D01*
X177039707Y-97255596D01*
X177039707Y-97255596D01*
G37*
G36*
X174499707Y-97255596D02*
X174576836Y-97263193D01*
X174708787Y-97303220D01*
X174774763Y-97323233D01*
X174957172Y-97420733D01*
X175117054Y-97551946D01*
X175248267Y-97711828D01*
X175345767Y-97894237D01*
X175345767Y-97894238D01*
X175405807Y-98092164D01*
X175426080Y-98298000D01*
X175405807Y-98503836D01*
X175365780Y-98635787D01*
X175345767Y-98701763D01*
X175248267Y-98884172D01*
X175117054Y-99044054D01*
X174957172Y-99175267D01*
X174774763Y-99272767D01*
X174708787Y-99292780D01*
X174576836Y-99332807D01*
X174499707Y-99340403D01*
X174422580Y-99348000D01*
X174319420Y-99348000D01*
X174242293Y-99340403D01*
X174165164Y-99332807D01*
X174033213Y-99292780D01*
X173967237Y-99272767D01*
X173784828Y-99175267D01*
X173624946Y-99044054D01*
X173493733Y-98884172D01*
X173396233Y-98701763D01*
X173376220Y-98635787D01*
X173336193Y-98503836D01*
X173315920Y-98298000D01*
X173336193Y-98092164D01*
X173396233Y-97894238D01*
X173396233Y-97894237D01*
X173493733Y-97711828D01*
X173624946Y-97551946D01*
X173784828Y-97420733D01*
X173967237Y-97323233D01*
X174033213Y-97303220D01*
X174165164Y-97263193D01*
X174242293Y-97255597D01*
X174319420Y-97248000D01*
X174422580Y-97248000D01*
X174499707Y-97255596D01*
X174499707Y-97255596D01*
G37*
G36*
X169419707Y-97255596D02*
X169496836Y-97263193D01*
X169628787Y-97303220D01*
X169694763Y-97323233D01*
X169877172Y-97420733D01*
X170037054Y-97551946D01*
X170168267Y-97711828D01*
X170265767Y-97894237D01*
X170265767Y-97894238D01*
X170325807Y-98092164D01*
X170346080Y-98298000D01*
X170325807Y-98503836D01*
X170285780Y-98635787D01*
X170265767Y-98701763D01*
X170168267Y-98884172D01*
X170037054Y-99044054D01*
X169877172Y-99175267D01*
X169694763Y-99272767D01*
X169628787Y-99292780D01*
X169496836Y-99332807D01*
X169419707Y-99340403D01*
X169342580Y-99348000D01*
X169239420Y-99348000D01*
X169162293Y-99340403D01*
X169085164Y-99332807D01*
X168953213Y-99292780D01*
X168887237Y-99272767D01*
X168704828Y-99175267D01*
X168544946Y-99044054D01*
X168413733Y-98884172D01*
X168316233Y-98701763D01*
X168296220Y-98635787D01*
X168256193Y-98503836D01*
X168235920Y-98298000D01*
X168256193Y-98092164D01*
X168316233Y-97894238D01*
X168316233Y-97894237D01*
X168413733Y-97711828D01*
X168544946Y-97551946D01*
X168704828Y-97420733D01*
X168887237Y-97323233D01*
X168953213Y-97303220D01*
X169085164Y-97263193D01*
X169162293Y-97255597D01*
X169239420Y-97248000D01*
X169342580Y-97248000D01*
X169419707Y-97255596D01*
X169419707Y-97255596D01*
G37*
G36*
X166879707Y-97255596D02*
X166956836Y-97263193D01*
X167088787Y-97303220D01*
X167154763Y-97323233D01*
X167337172Y-97420733D01*
X167497054Y-97551946D01*
X167628267Y-97711828D01*
X167725767Y-97894237D01*
X167725767Y-97894238D01*
X167785807Y-98092164D01*
X167806080Y-98298000D01*
X167785807Y-98503836D01*
X167745780Y-98635787D01*
X167725767Y-98701763D01*
X167628267Y-98884172D01*
X167497054Y-99044054D01*
X167337172Y-99175267D01*
X167154763Y-99272767D01*
X167088787Y-99292780D01*
X166956836Y-99332807D01*
X166879707Y-99340403D01*
X166802580Y-99348000D01*
X166699420Y-99348000D01*
X166622293Y-99340403D01*
X166545164Y-99332807D01*
X166413213Y-99292780D01*
X166347237Y-99272767D01*
X166164828Y-99175267D01*
X166004946Y-99044054D01*
X165873733Y-98884172D01*
X165776233Y-98701763D01*
X165756220Y-98635787D01*
X165716193Y-98503836D01*
X165695920Y-98298000D01*
X165716193Y-98092164D01*
X165776233Y-97894238D01*
X165776233Y-97894237D01*
X165873733Y-97711828D01*
X166004946Y-97551946D01*
X166164828Y-97420733D01*
X166347237Y-97323233D01*
X166413213Y-97303220D01*
X166545164Y-97263193D01*
X166622293Y-97255597D01*
X166699420Y-97248000D01*
X166802580Y-97248000D01*
X166879707Y-97255596D01*
X166879707Y-97255596D01*
G37*
G36*
X164339707Y-97255596D02*
X164416836Y-97263193D01*
X164548787Y-97303220D01*
X164614763Y-97323233D01*
X164797172Y-97420733D01*
X164957054Y-97551946D01*
X165088267Y-97711828D01*
X165185767Y-97894237D01*
X165185767Y-97894238D01*
X165245807Y-98092164D01*
X165266080Y-98298000D01*
X165245807Y-98503836D01*
X165205780Y-98635787D01*
X165185767Y-98701763D01*
X165088267Y-98884172D01*
X164957054Y-99044054D01*
X164797172Y-99175267D01*
X164614763Y-99272767D01*
X164548787Y-99292780D01*
X164416836Y-99332807D01*
X164339707Y-99340403D01*
X164262580Y-99348000D01*
X164159420Y-99348000D01*
X164082293Y-99340403D01*
X164005164Y-99332807D01*
X163873213Y-99292780D01*
X163807237Y-99272767D01*
X163624828Y-99175267D01*
X163464946Y-99044054D01*
X163333733Y-98884172D01*
X163236233Y-98701763D01*
X163216220Y-98635787D01*
X163176193Y-98503836D01*
X163155920Y-98298000D01*
X163176193Y-98092164D01*
X163236233Y-97894238D01*
X163236233Y-97894237D01*
X163333733Y-97711828D01*
X163464946Y-97551946D01*
X163624828Y-97420733D01*
X163807237Y-97323233D01*
X163873213Y-97303220D01*
X164005164Y-97263193D01*
X164082293Y-97255597D01*
X164159420Y-97248000D01*
X164262580Y-97248000D01*
X164339707Y-97255596D01*
X164339707Y-97255596D01*
G37*
G36*
X161799707Y-97255596D02*
X161876836Y-97263193D01*
X162008787Y-97303220D01*
X162074763Y-97323233D01*
X162257172Y-97420733D01*
X162417054Y-97551946D01*
X162548267Y-97711828D01*
X162645767Y-97894237D01*
X162645767Y-97894238D01*
X162705807Y-98092164D01*
X162726080Y-98298000D01*
X162705807Y-98503836D01*
X162665780Y-98635787D01*
X162645767Y-98701763D01*
X162548267Y-98884172D01*
X162417054Y-99044054D01*
X162257172Y-99175267D01*
X162074763Y-99272767D01*
X162008787Y-99292780D01*
X161876836Y-99332807D01*
X161799707Y-99340403D01*
X161722580Y-99348000D01*
X161619420Y-99348000D01*
X161542293Y-99340403D01*
X161465164Y-99332807D01*
X161333213Y-99292780D01*
X161267237Y-99272767D01*
X161084828Y-99175267D01*
X160924946Y-99044054D01*
X160793733Y-98884172D01*
X160696233Y-98701763D01*
X160676220Y-98635787D01*
X160636193Y-98503836D01*
X160615920Y-98298000D01*
X160636193Y-98092164D01*
X160696233Y-97894238D01*
X160696233Y-97894237D01*
X160793733Y-97711828D01*
X160924946Y-97551946D01*
X161084828Y-97420733D01*
X161267237Y-97323233D01*
X161333213Y-97303220D01*
X161465164Y-97263193D01*
X161542293Y-97255597D01*
X161619420Y-97248000D01*
X161722580Y-97248000D01*
X161799707Y-97255596D01*
X161799707Y-97255596D01*
G37*
G36*
X159259707Y-97255596D02*
X159336836Y-97263193D01*
X159468787Y-97303220D01*
X159534763Y-97323233D01*
X159717172Y-97420733D01*
X159877054Y-97551946D01*
X160008267Y-97711828D01*
X160105767Y-97894237D01*
X160105767Y-97894238D01*
X160165807Y-98092164D01*
X160186080Y-98298000D01*
X160165807Y-98503836D01*
X160125780Y-98635787D01*
X160105767Y-98701763D01*
X160008267Y-98884172D01*
X159877054Y-99044054D01*
X159717172Y-99175267D01*
X159534763Y-99272767D01*
X159468787Y-99292780D01*
X159336836Y-99332807D01*
X159259707Y-99340403D01*
X159182580Y-99348000D01*
X159079420Y-99348000D01*
X159002293Y-99340403D01*
X158925164Y-99332807D01*
X158793213Y-99292780D01*
X158727237Y-99272767D01*
X158544828Y-99175267D01*
X158384946Y-99044054D01*
X158253733Y-98884172D01*
X158156233Y-98701763D01*
X158136220Y-98635787D01*
X158096193Y-98503836D01*
X158075920Y-98298000D01*
X158096193Y-98092164D01*
X158156233Y-97894238D01*
X158156233Y-97894237D01*
X158253733Y-97711828D01*
X158384946Y-97551946D01*
X158544828Y-97420733D01*
X158727237Y-97323233D01*
X158793213Y-97303220D01*
X158925164Y-97263193D01*
X159002293Y-97255597D01*
X159079420Y-97248000D01*
X159182580Y-97248000D01*
X159259707Y-97255596D01*
X159259707Y-97255596D01*
G37*
G36*
X156719707Y-97255596D02*
X156796836Y-97263193D01*
X156928787Y-97303220D01*
X156994763Y-97323233D01*
X157177172Y-97420733D01*
X157337054Y-97551946D01*
X157468267Y-97711828D01*
X157565767Y-97894237D01*
X157565767Y-97894238D01*
X157625807Y-98092164D01*
X157646080Y-98298000D01*
X157625807Y-98503836D01*
X157585780Y-98635787D01*
X157565767Y-98701763D01*
X157468267Y-98884172D01*
X157337054Y-99044054D01*
X157177172Y-99175267D01*
X156994763Y-99272767D01*
X156928787Y-99292780D01*
X156796836Y-99332807D01*
X156719707Y-99340403D01*
X156642580Y-99348000D01*
X156539420Y-99348000D01*
X156462293Y-99340403D01*
X156385164Y-99332807D01*
X156253213Y-99292780D01*
X156187237Y-99272767D01*
X156004828Y-99175267D01*
X155844946Y-99044054D01*
X155713733Y-98884172D01*
X155616233Y-98701763D01*
X155596220Y-98635787D01*
X155556193Y-98503836D01*
X155535920Y-98298000D01*
X155556193Y-98092164D01*
X155616233Y-97894238D01*
X155616233Y-97894237D01*
X155713733Y-97711828D01*
X155844946Y-97551946D01*
X156004828Y-97420733D01*
X156187237Y-97323233D01*
X156253213Y-97303220D01*
X156385164Y-97263193D01*
X156462293Y-97255597D01*
X156539420Y-97248000D01*
X156642580Y-97248000D01*
X156719707Y-97255596D01*
X156719707Y-97255596D01*
G37*
G36*
X151639707Y-97255596D02*
X151716836Y-97263193D01*
X151848787Y-97303220D01*
X151914763Y-97323233D01*
X152097172Y-97420733D01*
X152257054Y-97551946D01*
X152388267Y-97711828D01*
X152485767Y-97894237D01*
X152485767Y-97894238D01*
X152545807Y-98092164D01*
X152566080Y-98298000D01*
X152545807Y-98503836D01*
X152505780Y-98635787D01*
X152485767Y-98701763D01*
X152388267Y-98884172D01*
X152257054Y-99044054D01*
X152097172Y-99175267D01*
X151914763Y-99272767D01*
X151848787Y-99292780D01*
X151716836Y-99332807D01*
X151639707Y-99340403D01*
X151562580Y-99348000D01*
X151459420Y-99348000D01*
X151382293Y-99340403D01*
X151305164Y-99332807D01*
X151173213Y-99292780D01*
X151107237Y-99272767D01*
X150924828Y-99175267D01*
X150764946Y-99044054D01*
X150633733Y-98884172D01*
X150536233Y-98701763D01*
X150516220Y-98635787D01*
X150476193Y-98503836D01*
X150455920Y-98298000D01*
X150476193Y-98092164D01*
X150536233Y-97894238D01*
X150536233Y-97894237D01*
X150633733Y-97711828D01*
X150764946Y-97551946D01*
X150924828Y-97420733D01*
X151107237Y-97323233D01*
X151173213Y-97303220D01*
X151305164Y-97263193D01*
X151382293Y-97255597D01*
X151459420Y-97248000D01*
X151562580Y-97248000D01*
X151639707Y-97255596D01*
X151639707Y-97255596D01*
G37*
G36*
X154179707Y-97255596D02*
X154256836Y-97263193D01*
X154388787Y-97303220D01*
X154454763Y-97323233D01*
X154637172Y-97420733D01*
X154797054Y-97551946D01*
X154928267Y-97711828D01*
X155025767Y-97894237D01*
X155025767Y-97894238D01*
X155085807Y-98092164D01*
X155106080Y-98298000D01*
X155085807Y-98503836D01*
X155045780Y-98635787D01*
X155025767Y-98701763D01*
X154928267Y-98884172D01*
X154797054Y-99044054D01*
X154637172Y-99175267D01*
X154454763Y-99272767D01*
X154388787Y-99292780D01*
X154256836Y-99332807D01*
X154179707Y-99340403D01*
X154102580Y-99348000D01*
X153999420Y-99348000D01*
X153922293Y-99340403D01*
X153845164Y-99332807D01*
X153713213Y-99292780D01*
X153647237Y-99272767D01*
X153464828Y-99175267D01*
X153304946Y-99044054D01*
X153173733Y-98884172D01*
X153076233Y-98701763D01*
X153056220Y-98635787D01*
X153016193Y-98503836D01*
X152995920Y-98298000D01*
X153016193Y-98092164D01*
X153076233Y-97894238D01*
X153076233Y-97894237D01*
X153173733Y-97711828D01*
X153304946Y-97551946D01*
X153464828Y-97420733D01*
X153647237Y-97323233D01*
X153713213Y-97303220D01*
X153845164Y-97263193D01*
X153922293Y-97255597D01*
X153999420Y-97248000D01*
X154102580Y-97248000D01*
X154179707Y-97255596D01*
X154179707Y-97255596D01*
G37*
G36*
X182119707Y-97255596D02*
X182196836Y-97263193D01*
X182328787Y-97303220D01*
X182394763Y-97323233D01*
X182577172Y-97420733D01*
X182737054Y-97551946D01*
X182868267Y-97711828D01*
X182965767Y-97894237D01*
X182965767Y-97894238D01*
X183025807Y-98092164D01*
X183046080Y-98298000D01*
X183025807Y-98503836D01*
X182985780Y-98635787D01*
X182965767Y-98701763D01*
X182868267Y-98884172D01*
X182737054Y-99044054D01*
X182577172Y-99175267D01*
X182394763Y-99272767D01*
X182328787Y-99292780D01*
X182196836Y-99332807D01*
X182119707Y-99340403D01*
X182042580Y-99348000D01*
X181939420Y-99348000D01*
X181862293Y-99340403D01*
X181785164Y-99332807D01*
X181653213Y-99292780D01*
X181587237Y-99272767D01*
X181404828Y-99175267D01*
X181244946Y-99044054D01*
X181113733Y-98884172D01*
X181016233Y-98701763D01*
X180996220Y-98635787D01*
X180956193Y-98503836D01*
X180935920Y-98298000D01*
X180956193Y-98092164D01*
X181016233Y-97894238D01*
X181016233Y-97894237D01*
X181113733Y-97711828D01*
X181244946Y-97551946D01*
X181404828Y-97420733D01*
X181587237Y-97323233D01*
X181653213Y-97303220D01*
X181785164Y-97263193D01*
X181862293Y-97255597D01*
X181939420Y-97248000D01*
X182042580Y-97248000D01*
X182119707Y-97255596D01*
X182119707Y-97255596D01*
G37*
G36*
X198281000Y-99348000D02*
X196181000Y-99348000D01*
X196181000Y-97248000D01*
X198281000Y-97248000D01*
X198281000Y-99348000D01*
X198281000Y-99348000D01*
G37*
G36*
X194819707Y-97255596D02*
X194896836Y-97263193D01*
X195028787Y-97303220D01*
X195094763Y-97323233D01*
X195277172Y-97420733D01*
X195437054Y-97551946D01*
X195568267Y-97711828D01*
X195665767Y-97894237D01*
X195665767Y-97894238D01*
X195725807Y-98092164D01*
X195746080Y-98298000D01*
X195725807Y-98503836D01*
X195685780Y-98635787D01*
X195665767Y-98701763D01*
X195568267Y-98884172D01*
X195437054Y-99044054D01*
X195277172Y-99175267D01*
X195094763Y-99272767D01*
X195028787Y-99292780D01*
X194896836Y-99332807D01*
X194819707Y-99340403D01*
X194742580Y-99348000D01*
X194639420Y-99348000D01*
X194562293Y-99340403D01*
X194485164Y-99332807D01*
X194353213Y-99292780D01*
X194287237Y-99272767D01*
X194104828Y-99175267D01*
X193944946Y-99044054D01*
X193813733Y-98884172D01*
X193716233Y-98701763D01*
X193696220Y-98635787D01*
X193656193Y-98503836D01*
X193635920Y-98298000D01*
X193656193Y-98092164D01*
X193716233Y-97894238D01*
X193716233Y-97894237D01*
X193813733Y-97711828D01*
X193944946Y-97551946D01*
X194104828Y-97420733D01*
X194287237Y-97323233D01*
X194353213Y-97303220D01*
X194485164Y-97263193D01*
X194562293Y-97255597D01*
X194639420Y-97248000D01*
X194742580Y-97248000D01*
X194819707Y-97255596D01*
X194819707Y-97255596D01*
G37*
G36*
X192279707Y-97255596D02*
X192356836Y-97263193D01*
X192488787Y-97303220D01*
X192554763Y-97323233D01*
X192737172Y-97420733D01*
X192897054Y-97551946D01*
X193028267Y-97711828D01*
X193125767Y-97894237D01*
X193125767Y-97894238D01*
X193185807Y-98092164D01*
X193206080Y-98298000D01*
X193185807Y-98503836D01*
X193145780Y-98635787D01*
X193125767Y-98701763D01*
X193028267Y-98884172D01*
X192897054Y-99044054D01*
X192737172Y-99175267D01*
X192554763Y-99272767D01*
X192488787Y-99292780D01*
X192356836Y-99332807D01*
X192279707Y-99340403D01*
X192202580Y-99348000D01*
X192099420Y-99348000D01*
X192022293Y-99340403D01*
X191945164Y-99332807D01*
X191813213Y-99292780D01*
X191747237Y-99272767D01*
X191564828Y-99175267D01*
X191404946Y-99044054D01*
X191273733Y-98884172D01*
X191176233Y-98701763D01*
X191156220Y-98635787D01*
X191116193Y-98503836D01*
X191095920Y-98298000D01*
X191116193Y-98092164D01*
X191176233Y-97894238D01*
X191176233Y-97894237D01*
X191273733Y-97711828D01*
X191404946Y-97551946D01*
X191564828Y-97420733D01*
X191747237Y-97323233D01*
X191813213Y-97303220D01*
X191945164Y-97263193D01*
X192022293Y-97255597D01*
X192099420Y-97248000D01*
X192202580Y-97248000D01*
X192279707Y-97255596D01*
X192279707Y-97255596D01*
G37*
G36*
X189739707Y-97255596D02*
X189816836Y-97263193D01*
X189948787Y-97303220D01*
X190014763Y-97323233D01*
X190197172Y-97420733D01*
X190357054Y-97551946D01*
X190488267Y-97711828D01*
X190585767Y-97894237D01*
X190585767Y-97894238D01*
X190645807Y-98092164D01*
X190666080Y-98298000D01*
X190645807Y-98503836D01*
X190605780Y-98635787D01*
X190585767Y-98701763D01*
X190488267Y-98884172D01*
X190357054Y-99044054D01*
X190197172Y-99175267D01*
X190014763Y-99272767D01*
X189948787Y-99292780D01*
X189816836Y-99332807D01*
X189739707Y-99340403D01*
X189662580Y-99348000D01*
X189559420Y-99348000D01*
X189482293Y-99340403D01*
X189405164Y-99332807D01*
X189273213Y-99292780D01*
X189207237Y-99272767D01*
X189024828Y-99175267D01*
X188864946Y-99044054D01*
X188733733Y-98884172D01*
X188636233Y-98701763D01*
X188616220Y-98635787D01*
X188576193Y-98503836D01*
X188555920Y-98298000D01*
X188576193Y-98092164D01*
X188636233Y-97894238D01*
X188636233Y-97894237D01*
X188733733Y-97711828D01*
X188864946Y-97551946D01*
X189024828Y-97420733D01*
X189207237Y-97323233D01*
X189273213Y-97303220D01*
X189405164Y-97263193D01*
X189482293Y-97255597D01*
X189559420Y-97248000D01*
X189662580Y-97248000D01*
X189739707Y-97255596D01*
X189739707Y-97255596D01*
G37*
G36*
X187199707Y-97255596D02*
X187276836Y-97263193D01*
X187408787Y-97303220D01*
X187474763Y-97323233D01*
X187657172Y-97420733D01*
X187817054Y-97551946D01*
X187948267Y-97711828D01*
X188045767Y-97894237D01*
X188045767Y-97894238D01*
X188105807Y-98092164D01*
X188126080Y-98298000D01*
X188105807Y-98503836D01*
X188065780Y-98635787D01*
X188045767Y-98701763D01*
X187948267Y-98884172D01*
X187817054Y-99044054D01*
X187657172Y-99175267D01*
X187474763Y-99272767D01*
X187408787Y-99292780D01*
X187276836Y-99332807D01*
X187199707Y-99340403D01*
X187122580Y-99348000D01*
X187019420Y-99348000D01*
X186942293Y-99340403D01*
X186865164Y-99332807D01*
X186733213Y-99292780D01*
X186667237Y-99272767D01*
X186484828Y-99175267D01*
X186324946Y-99044054D01*
X186193733Y-98884172D01*
X186096233Y-98701763D01*
X186076220Y-98635787D01*
X186036193Y-98503836D01*
X186015920Y-98298000D01*
X186036193Y-98092164D01*
X186096233Y-97894238D01*
X186096233Y-97894237D01*
X186193733Y-97711828D01*
X186324946Y-97551946D01*
X186484828Y-97420733D01*
X186667237Y-97323233D01*
X186733213Y-97303220D01*
X186865164Y-97263193D01*
X186942293Y-97255597D01*
X187019420Y-97248000D01*
X187122580Y-97248000D01*
X187199707Y-97255596D01*
X187199707Y-97255596D01*
G37*
G36*
X184659707Y-97255596D02*
X184736836Y-97263193D01*
X184868787Y-97303220D01*
X184934763Y-97323233D01*
X185117172Y-97420733D01*
X185277054Y-97551946D01*
X185408267Y-97711828D01*
X185505767Y-97894237D01*
X185505767Y-97894238D01*
X185565807Y-98092164D01*
X185586080Y-98298000D01*
X185565807Y-98503836D01*
X185525780Y-98635787D01*
X185505767Y-98701763D01*
X185408267Y-98884172D01*
X185277054Y-99044054D01*
X185117172Y-99175267D01*
X184934763Y-99272767D01*
X184868787Y-99292780D01*
X184736836Y-99332807D01*
X184659707Y-99340403D01*
X184582580Y-99348000D01*
X184479420Y-99348000D01*
X184402293Y-99340403D01*
X184325164Y-99332807D01*
X184193213Y-99292780D01*
X184127237Y-99272767D01*
X183944828Y-99175267D01*
X183784946Y-99044054D01*
X183653733Y-98884172D01*
X183556233Y-98701763D01*
X183536220Y-98635787D01*
X183496193Y-98503836D01*
X183475920Y-98298000D01*
X183496193Y-98092164D01*
X183556233Y-97894238D01*
X183556233Y-97894237D01*
X183653733Y-97711828D01*
X183784946Y-97551946D01*
X183944828Y-97420733D01*
X184127237Y-97323233D01*
X184193213Y-97303220D01*
X184325164Y-97263193D01*
X184402293Y-97255597D01*
X184479420Y-97248000D01*
X184582580Y-97248000D01*
X184659707Y-97255596D01*
X184659707Y-97255596D01*
G37*
G36*
X179579707Y-97255596D02*
X179656836Y-97263193D01*
X179788787Y-97303220D01*
X179854763Y-97323233D01*
X180037172Y-97420733D01*
X180197054Y-97551946D01*
X180328267Y-97711828D01*
X180425767Y-97894237D01*
X180425767Y-97894238D01*
X180485807Y-98092164D01*
X180506080Y-98298000D01*
X180485807Y-98503836D01*
X180445780Y-98635787D01*
X180425767Y-98701763D01*
X180328267Y-98884172D01*
X180197054Y-99044054D01*
X180037172Y-99175267D01*
X179854763Y-99272767D01*
X179788787Y-99292780D01*
X179656836Y-99332807D01*
X179579707Y-99340403D01*
X179502580Y-99348000D01*
X179399420Y-99348000D01*
X179322293Y-99340403D01*
X179245164Y-99332807D01*
X179113213Y-99292780D01*
X179047237Y-99272767D01*
X178864828Y-99175267D01*
X178704946Y-99044054D01*
X178573733Y-98884172D01*
X178476233Y-98701763D01*
X178456220Y-98635787D01*
X178416193Y-98503836D01*
X178395920Y-98298000D01*
X178416193Y-98092164D01*
X178476233Y-97894238D01*
X178476233Y-97894237D01*
X178573733Y-97711828D01*
X178704946Y-97551946D01*
X178864828Y-97420733D01*
X179047237Y-97323233D01*
X179113213Y-97303220D01*
X179245164Y-97263193D01*
X179322293Y-97255597D01*
X179399420Y-97248000D01*
X179502580Y-97248000D01*
X179579707Y-97255596D01*
X179579707Y-97255596D01*
G37*
G36*
X199645707Y-91794596D02*
X199722836Y-91802193D01*
X199854787Y-91842220D01*
X199920763Y-91862233D01*
X200103172Y-91959733D01*
X200263054Y-92090946D01*
X200394267Y-92250828D01*
X200491767Y-92433237D01*
X200491767Y-92433238D01*
X200551807Y-92631164D01*
X200572080Y-92837000D01*
X200551807Y-93042836D01*
X200511780Y-93174787D01*
X200491767Y-93240763D01*
X200394267Y-93423172D01*
X200263054Y-93583054D01*
X200103172Y-93714267D01*
X199920763Y-93811767D01*
X199854787Y-93831780D01*
X199722836Y-93871807D01*
X199645707Y-93879404D01*
X199568580Y-93887000D01*
X199465420Y-93887000D01*
X199388293Y-93879403D01*
X199311164Y-93871807D01*
X199179213Y-93831780D01*
X199113237Y-93811767D01*
X198930828Y-93714267D01*
X198770946Y-93583054D01*
X198639733Y-93423172D01*
X198542233Y-93240763D01*
X198522220Y-93174787D01*
X198482193Y-93042836D01*
X198461920Y-92837000D01*
X198482193Y-92631164D01*
X198542233Y-92433238D01*
X198542233Y-92433237D01*
X198639733Y-92250828D01*
X198770946Y-92090946D01*
X198930828Y-91959733D01*
X199113237Y-91862233D01*
X199179213Y-91842220D01*
X199311164Y-91802193D01*
X199388293Y-91794597D01*
X199465420Y-91787000D01*
X199568580Y-91787000D01*
X199645707Y-91794596D01*
X199645707Y-91794596D01*
G37*
G36*
X161324000Y-93887000D02*
X159224000Y-93887000D01*
X159224000Y-91787000D01*
X161324000Y-91787000D01*
X161324000Y-93887000D01*
X161324000Y-93887000D01*
G37*
G36*
X162942707Y-91794596D02*
X163019836Y-91802193D01*
X163151787Y-91842220D01*
X163217763Y-91862233D01*
X163400172Y-91959733D01*
X163560054Y-92090946D01*
X163691267Y-92250828D01*
X163788767Y-92433237D01*
X163788767Y-92433238D01*
X163848807Y-92631164D01*
X163869080Y-92837000D01*
X163848807Y-93042836D01*
X163808780Y-93174787D01*
X163788767Y-93240763D01*
X163691267Y-93423172D01*
X163560054Y-93583054D01*
X163400172Y-93714267D01*
X163217763Y-93811767D01*
X163151787Y-93831780D01*
X163019836Y-93871807D01*
X162942707Y-93879404D01*
X162865580Y-93887000D01*
X162762420Y-93887000D01*
X162685293Y-93879403D01*
X162608164Y-93871807D01*
X162476213Y-93831780D01*
X162410237Y-93811767D01*
X162227828Y-93714267D01*
X162067946Y-93583054D01*
X161936733Y-93423172D01*
X161839233Y-93240763D01*
X161819220Y-93174787D01*
X161779193Y-93042836D01*
X161758920Y-92837000D01*
X161779193Y-92631164D01*
X161839233Y-92433238D01*
X161839233Y-92433237D01*
X161936733Y-92250828D01*
X162067946Y-92090946D01*
X162227828Y-91959733D01*
X162410237Y-91862233D01*
X162476213Y-91842220D01*
X162608164Y-91802193D01*
X162685293Y-91794597D01*
X162762420Y-91787000D01*
X162865580Y-91787000D01*
X162942707Y-91794596D01*
X162942707Y-91794596D01*
G37*
G36*
X198027000Y-93887000D02*
X195927000Y-93887000D01*
X195927000Y-91787000D01*
X198027000Y-91787000D01*
X198027000Y-93887000D01*
X198027000Y-93887000D01*
G37*
G36*
X131352000Y-93887000D02*
X129252000Y-93887000D01*
X129252000Y-91787000D01*
X131352000Y-91787000D01*
X131352000Y-93887000D01*
X131352000Y-93887000D01*
G37*
G36*
X132970707Y-91794596D02*
X133047836Y-91802193D01*
X133179787Y-91842220D01*
X133245763Y-91862233D01*
X133428172Y-91959733D01*
X133588054Y-92090946D01*
X133719267Y-92250828D01*
X133816767Y-92433237D01*
X133816767Y-92433238D01*
X133876807Y-92631164D01*
X133897080Y-92837000D01*
X133876807Y-93042836D01*
X133836780Y-93174787D01*
X133816767Y-93240763D01*
X133719267Y-93423172D01*
X133588054Y-93583054D01*
X133428172Y-93714267D01*
X133245763Y-93811767D01*
X133179787Y-93831780D01*
X133047836Y-93871807D01*
X132970707Y-93879404D01*
X132893580Y-93887000D01*
X132790420Y-93887000D01*
X132713293Y-93879403D01*
X132636164Y-93871807D01*
X132504213Y-93831780D01*
X132438237Y-93811767D01*
X132255828Y-93714267D01*
X132095946Y-93583054D01*
X131964733Y-93423172D01*
X131867233Y-93240763D01*
X131847220Y-93174787D01*
X131807193Y-93042836D01*
X131786920Y-92837000D01*
X131807193Y-92631164D01*
X131867233Y-92433238D01*
X131867233Y-92433237D01*
X131964733Y-92250828D01*
X132095946Y-92090946D01*
X132255828Y-91959733D01*
X132438237Y-91862233D01*
X132504213Y-91842220D01*
X132636164Y-91802193D01*
X132713293Y-91794596D01*
X132790420Y-91787000D01*
X132893580Y-91787000D01*
X132970707Y-91794596D01*
X132970707Y-91794596D01*
G37*
G36*
X144052000Y-93887000D02*
X141952000Y-93887000D01*
X141952000Y-91787000D01*
X144052000Y-91787000D01*
X144052000Y-93887000D01*
X144052000Y-93887000D01*
G37*
G36*
X145670707Y-91794596D02*
X145747836Y-91802193D01*
X145879787Y-91842220D01*
X145945763Y-91862233D01*
X146128172Y-91959733D01*
X146288054Y-92090946D01*
X146419267Y-92250828D01*
X146516767Y-92433237D01*
X146516767Y-92433238D01*
X146576807Y-92631164D01*
X146597080Y-92837000D01*
X146576807Y-93042836D01*
X146536780Y-93174787D01*
X146516767Y-93240763D01*
X146419267Y-93423172D01*
X146288054Y-93583054D01*
X146128172Y-93714267D01*
X145945763Y-93811767D01*
X145879787Y-93831780D01*
X145747836Y-93871807D01*
X145670707Y-93879404D01*
X145593580Y-93887000D01*
X145490420Y-93887000D01*
X145413293Y-93879403D01*
X145336164Y-93871807D01*
X145204213Y-93831780D01*
X145138237Y-93811767D01*
X144955828Y-93714267D01*
X144795946Y-93583054D01*
X144664733Y-93423172D01*
X144567233Y-93240763D01*
X144547220Y-93174787D01*
X144507193Y-93042836D01*
X144486920Y-92837000D01*
X144507193Y-92631164D01*
X144567233Y-92433238D01*
X144567233Y-92433237D01*
X144664733Y-92250828D01*
X144795946Y-92090946D01*
X144955828Y-91959733D01*
X145138237Y-91862233D01*
X145204213Y-91842220D01*
X145336164Y-91802193D01*
X145413293Y-91794597D01*
X145490420Y-91787000D01*
X145593580Y-91787000D01*
X145670707Y-91794596D01*
X145670707Y-91794596D01*
G37*
G36*
X186945707Y-91794596D02*
X187022836Y-91802193D01*
X187154787Y-91842220D01*
X187220763Y-91862233D01*
X187403172Y-91959733D01*
X187563054Y-92090946D01*
X187694267Y-92250828D01*
X187791767Y-92433237D01*
X187791767Y-92433238D01*
X187851807Y-92631164D01*
X187872080Y-92837000D01*
X187851807Y-93042836D01*
X187811780Y-93174787D01*
X187791767Y-93240763D01*
X187694267Y-93423172D01*
X187563054Y-93583054D01*
X187403172Y-93714267D01*
X187220763Y-93811767D01*
X187154787Y-93831780D01*
X187022836Y-93871807D01*
X186945707Y-93879404D01*
X186868580Y-93887000D01*
X186765420Y-93887000D01*
X186688293Y-93879403D01*
X186611164Y-93871807D01*
X186479213Y-93831780D01*
X186413237Y-93811767D01*
X186230828Y-93714267D01*
X186070946Y-93583054D01*
X185939733Y-93423172D01*
X185842233Y-93240763D01*
X185822220Y-93174787D01*
X185782193Y-93042836D01*
X185761920Y-92837000D01*
X185782193Y-92631164D01*
X185842233Y-92433238D01*
X185842233Y-92433237D01*
X185939733Y-92250828D01*
X186070946Y-92090946D01*
X186230828Y-91959733D01*
X186413237Y-91862233D01*
X186479213Y-91842220D01*
X186611164Y-91802193D01*
X186688293Y-91794597D01*
X186765420Y-91787000D01*
X186868580Y-91787000D01*
X186945707Y-91794596D01*
X186945707Y-91794596D01*
G37*
G36*
X185327000Y-93887000D02*
X183227000Y-93887000D01*
X183227000Y-91787000D01*
X185327000Y-91787000D01*
X185327000Y-93887000D01*
X185327000Y-93887000D01*
G37*
G36*
X175642707Y-91794596D02*
X175719836Y-91802193D01*
X175851787Y-91842220D01*
X175917763Y-91862233D01*
X176100172Y-91959733D01*
X176260054Y-92090946D01*
X176391267Y-92250828D01*
X176488767Y-92433237D01*
X176488767Y-92433238D01*
X176548807Y-92631164D01*
X176569080Y-92837000D01*
X176548807Y-93042836D01*
X176508780Y-93174787D01*
X176488767Y-93240763D01*
X176391267Y-93423172D01*
X176260054Y-93583054D01*
X176100172Y-93714267D01*
X175917763Y-93811767D01*
X175851787Y-93831780D01*
X175719836Y-93871807D01*
X175642707Y-93879404D01*
X175565580Y-93887000D01*
X175462420Y-93887000D01*
X175385293Y-93879403D01*
X175308164Y-93871807D01*
X175176213Y-93831780D01*
X175110237Y-93811767D01*
X174927828Y-93714267D01*
X174767946Y-93583054D01*
X174636733Y-93423172D01*
X174539233Y-93240763D01*
X174519220Y-93174787D01*
X174479193Y-93042836D01*
X174458920Y-92837000D01*
X174479193Y-92631164D01*
X174539233Y-92433238D01*
X174539233Y-92433237D01*
X174636733Y-92250828D01*
X174767946Y-92090946D01*
X174927828Y-91959733D01*
X175110237Y-91862233D01*
X175176213Y-91842220D01*
X175308164Y-91802193D01*
X175385293Y-91794597D01*
X175462420Y-91787000D01*
X175565580Y-91787000D01*
X175642707Y-91794596D01*
X175642707Y-91794596D01*
G37*
G36*
X174024000Y-93887000D02*
X171924000Y-93887000D01*
X171924000Y-91787000D01*
X174024000Y-91787000D01*
X174024000Y-93887000D01*
X174024000Y-93887000D01*
G37*
G36*
X121667707Y-91794596D02*
X121744836Y-91802193D01*
X121876787Y-91842220D01*
X121942763Y-91862233D01*
X122125172Y-91959733D01*
X122285054Y-92090946D01*
X122416267Y-92250828D01*
X122513767Y-92433237D01*
X122513767Y-92433238D01*
X122573807Y-92631164D01*
X122594080Y-92837000D01*
X122573807Y-93042836D01*
X122533780Y-93174787D01*
X122513767Y-93240763D01*
X122416267Y-93423172D01*
X122285054Y-93583054D01*
X122125172Y-93714267D01*
X121942763Y-93811767D01*
X121876787Y-93831780D01*
X121744836Y-93871807D01*
X121667707Y-93879404D01*
X121590580Y-93887000D01*
X121487420Y-93887000D01*
X121410293Y-93879403D01*
X121333164Y-93871807D01*
X121201213Y-93831780D01*
X121135237Y-93811767D01*
X120952828Y-93714267D01*
X120792946Y-93583054D01*
X120661733Y-93423172D01*
X120564233Y-93240763D01*
X120544220Y-93174787D01*
X120504193Y-93042836D01*
X120483920Y-92837000D01*
X120504193Y-92631164D01*
X120564233Y-92433238D01*
X120564233Y-92433237D01*
X120661733Y-92250828D01*
X120792946Y-92090946D01*
X120952828Y-91959733D01*
X121135237Y-91862233D01*
X121201213Y-91842220D01*
X121333164Y-91802193D01*
X121410293Y-91794596D01*
X121487420Y-91787000D01*
X121590580Y-91787000D01*
X121667707Y-91794596D01*
X121667707Y-91794596D01*
G37*
G36*
X107349000Y-93887000D02*
X105249000Y-93887000D01*
X105249000Y-91787000D01*
X107349000Y-91787000D01*
X107349000Y-93887000D01*
X107349000Y-93887000D01*
G37*
G36*
X108967707Y-91794596D02*
X109044836Y-91802193D01*
X109176787Y-91842220D01*
X109242763Y-91862233D01*
X109425172Y-91959733D01*
X109585054Y-92090946D01*
X109716267Y-92250828D01*
X109813767Y-92433237D01*
X109813767Y-92433238D01*
X109873807Y-92631164D01*
X109894080Y-92837000D01*
X109873807Y-93042836D01*
X109833780Y-93174787D01*
X109813767Y-93240763D01*
X109716267Y-93423172D01*
X109585054Y-93583054D01*
X109425172Y-93714267D01*
X109242763Y-93811767D01*
X109176787Y-93831780D01*
X109044836Y-93871807D01*
X108967707Y-93879403D01*
X108890580Y-93887000D01*
X108787420Y-93887000D01*
X108710293Y-93879403D01*
X108633164Y-93871807D01*
X108501213Y-93831780D01*
X108435237Y-93811767D01*
X108252828Y-93714267D01*
X108092946Y-93583054D01*
X107961733Y-93423172D01*
X107864233Y-93240763D01*
X107844220Y-93174787D01*
X107804193Y-93042836D01*
X107783920Y-92837000D01*
X107804193Y-92631164D01*
X107864233Y-92433238D01*
X107864233Y-92433237D01*
X107961733Y-92250828D01*
X108092946Y-92090946D01*
X108252828Y-91959733D01*
X108435237Y-91862233D01*
X108501213Y-91842220D01*
X108633164Y-91802193D01*
X108710293Y-91794596D01*
X108787420Y-91787000D01*
X108890580Y-91787000D01*
X108967707Y-91794596D01*
X108967707Y-91794596D01*
G37*
G36*
X120049000Y-93887000D02*
X117949000Y-93887000D01*
X117949000Y-91787000D01*
X120049000Y-91787000D01*
X120049000Y-93887000D01*
X120049000Y-93887000D01*
G37*
M02*
