  0
SECTION
  2
HEADER
  9
$ACADVER
  1
AC1009
  9
$DWGCODEPAGE
  3
ansi_932
  9
$INSBASE
 10
0.0
 20
0.0
 30
0.0
  9
$EXTMIN
 10
0.0
 20
0.0
 30
0.0
  9
$EXTMAX
 10
98.00000000000001
 20
40.0
 30
0.0
  9
$LIMMIN
 10
0.0
 20
0.0
  9
$LIMMAX
 10
420.0
 20
297.0
  9
$ORTHOMODE
 70
     0
  9
$REGENMODE
 70
     1
  9
$FILLMODE
 70
     1
  9
$QTEXTMODE
 70
     0
  9
$MIRRTEXT
 70
     0
  9
$DRAGMODE
 70
     2
  9
$LTSCALE
 40
1.0
  9
$OSMODE
 70
   511
  9
$ATTMODE
 70
     1
  9
$TEXTSIZE
 40
2.5
  9
$TRACEWID
 40
1.0
  9
$TEXTSTYLE
  7
STANDARD
  9
$CLAYER
  8
0
  9
$CELTYPE
  6
BYLAYER
  9
$CECOLOR
 62
   256
  9
$DIMSCALE
 40
1.0
  9
$DIMASZ
 40
2.5
  9
$DIMEXO
 40
0.625
  9
$DIMDLI
 40
3.75
  9
$DIMRND
 40
0.0
  9
$DIMDLE
 40
0.0
  9
$DIMEXE
 40
1.25
  9
$DIMTP
 40
0.0
  9
$DIMTM
 40
0.0
  9
$DIMTXT
 40
2.5
  9
$DIMCEN
 40
2.5
  9
$DIMTSZ
 40
0.0
  9
$DIMTOL
 70
     0
  9
$DIMLIM
 70
     0
  9
$DIMTIH
 70
     0
  9
$DIMTOH
 70
     0
  9
$DIMSE1
 70
     0
  9
$DIMSE2
 70
     0
  9
$DIMTAD
 70
     1
  9
$DIMZIN
 70
     8
  9
$DIMBLK
  1

  9
$DIMASO
 70
     1
  9
$DIMSHO
 70
     1
  9
$DIMPOST
  1

  9
$DIMAPOST
  1

  9
$DIMALT
 70
     0
  9
$DIMALTD
 70
     3
  9
$DIMALTF
 40
0.03937007874016
  9
$DIMLFAC
 40
1.0
  9
$DIMTOFL
 70
     1
  9
$DIMTVP
 40
0.0
  9
$DIMTIX
 70
     0
  9
$DIMSOXD
 70
     0
  9
$DIMSAH
 70
     0
  9
$DIMBLK1
  1

  9
$DIMBLK2
  1

  9
$DIMSTYLE
  2
ISO-25
  9
$DIMCLRD
 70
     0
  9
$DIMCLRE
 70
     0
  9
$DIMCLRT
 70
     0
  9
$DIMTFAC
 40
1.0
  9
$DIMGAP
 40
0.625
  9
$LUNITS
 70
     2
  9
$LUPREC
 70
     3
  9
$SKETCHINC
 40
1.0
  9
$FILLETRAD
 40
2.0
  9
$AUNITS
 70
     0
  9
$AUPREC
 70
     0
  9
$MENU
  1
.
  9
$ELEVATION
 40
0.0
  9
$PELEVATION
 40
0.0
  9
$THICKNESS
 40
0.0
  9
$LIMCHECK
 70
     0
  9
$CHAMFERA
 40
10.0
  9
$CHAMFERB
 40
10.0
  9
$SKPOLY
 70
     0
  9
$TDCREATE
 40
2455023.012359514
  9
$TDUPDATE
 40
2458448.626477928
  9
$TDINDWG
 40
0.0
  9
$TDUSRTIMER
 40
0.0
  9
$USRTIMER
 70
     1
  9
$ANGBASE
 50
0.0
  9
$ANGDIR
 70
     0
  9
$PDMODE
 70
     0
  9
$PDSIZE
 40
0.0
  9
$PLINEWID
 40
0.0
  9
$COORDS
 70
     1
  9
$SPLFRAME
 70
     0
  9
$SPLINETYPE
 70
     6
  9
$SPLINESEGS
 70
     8
  9
$ATTDIA
 70
     0
  9
$ATTREQ
 70
     1
  9
$HANDLING
 70
     1
  9
$HANDSEED
  5
49D
  9
$SURFTAB1
 70
     6
  9
$SURFTAB2
 70
     6
  9
$SURFTYPE
 70
     6
  9
$SURFU
 70
     6
  9
$SURFV
 70
     6
  9
$UCSNAME
  2

  9
$UCSORG
 10
0.0
 20
0.0
 30
0.0
  9
$UCSXDIR
 10
1.0
 20
0.0
 30
0.0
  9
$UCSYDIR
 10
0.0
 20
1.0
 30
0.0
  9
$PUCSNAME
  2

  9
$PUCSORG
 10
0.0
 20
0.0
 30
0.0
  9
$PUCSXDIR
 10
1.0
 20
0.0
 30
0.0
  9
$PUCSYDIR
 10
0.0
 20
1.0
 30
0.0
  9
$USERI1
 70
     0
  9
$USERI2
 70
     0
  9
$USERI3
 70
     0
  9
$USERI4
 70
     0
  9
$USERI5
 70
     0
  9
$USERR1
 40
0.0
  9
$USERR2
 40
0.0
  9
$USERR3
 40
0.0
  9
$USERR4
 40
0.0
  9
$USERR5
 40
0.0
  9
$WORLDVIEW
 70
     1
  9
$SHADEDGE
 70
     3
  9
$SHADEDIF
 70
    70
  9
$TILEMODE
 70
     1
  9
$MAXACTVP
 70
    64
  9
$PLIMCHECK
 70
     0
  9
$PEXTMIN
 10
1.000000000000000E+20
 20
1.000000000000000E+20
 30
1.000000000000000E+20
  9
$PEXTMAX
 10
-1.000000000000000E+20
 20
-1.000000000000000E+20
 30
-1.000000000000000E+20
  9
$PLIMMIN
 10
0.0
 20
0.0
  9
$PLIMMAX
 10
0.0
 20
0.0
  9
$UNITMODE
 70
     0
  9
$VISRETAIN
 70
     1
  9
$PLINEGEN
 70
     0
  9
$PSLTSCALE
 70
     1
  0
ENDSEC
  0
SECTION
  2
TABLES
  0
TABLE
  2
VPORT
 70
     1
  0
VPORT
  2
*ACTIVE
 70
     0
 10
0.0
 20
0.0
 11
1.0
 21
1.0
 12
181.2296486047192
 22
18.88404758963707
 13
0.0
 23
0.0
 14
1.0
 24
1.0
 15
1.0
 25
1.0
 16
0.0
 26
0.0
 36
1.0
 17
-134.1869158878505
 27
0.0
 37
0.0
 40
61.58258861604352
 41
2.688916876574307
 42
50.0
 43
0.0
 44
0.0
 50
0.0
 51
0.0
 71
    16
 72
  1000
 73
     1
 74
     3
 75
     0
 76
     1
 77
     0
 78
     0
  0
ENDTAB
  0
TABLE
  2
LTYPE
 70
     1
  0
LTYPE
  2
CONTINUOUS
 70
     0
  3
Solid line
 72
    65
 73
     0
 40
0.0
  0
ENDTAB
  0
TABLE
  2
LAYER
 70
     2
  0
LAYER
  2
0
 70
     0
 62
     7
  6
CONTINUOUS
  0
LAYER
  2
DEFPOINTS
 70
     0
 62
     7
  6
CONTINUOUS
  0
ENDTAB
  0
TABLE
  2
STYLE
 70
     2
  0
STYLE
  2
STANDARD
 70
     0
 40
0.0
 41
1.0
 50
0.0
 71
     0
 42
2.5
  3
arial.ttf
  4

  0
STYLE
  2
ANNOTATIVE
 70
     0
 40
0.0
 41
1.0
 50
0.0
 71
     0
 42
2.5
  3
arial.ttf
  4

  0
ENDTAB
  0
TABLE
  2
VIEW
 70
     0
  0
ENDTAB
  0
TABLE
  2
UCS
 70
     0
  0
ENDTAB
  0
TABLE
  2
APPID
 70
     2
  0
APPID
  2
ACAD
 70
     0
  0
APPID
  2
ACADANNOTATIVE
 70
     0
  0
ENDTAB
  0
TABLE
  2
DIMSTYLE
 70
     2
  0
DIMSTYLE
  2
ISO-25
 70
     0
  3

  4

  5

  6

  7

 40
1.0
 41
2.5
 42
0.625
 43
3.75
 44
1.25
 45
0.0
 46
0.0
 47
0.0
 48
0.0
140
2.5
141
2.5
142
0.0
143
0.03937007874016
144
1.0
145
0.0
146
1.0
147
0.625
 71
     0
 72
     0
 73
     0
 74
     0
 75
     0
 76
     0
 77
     1
 78
     8
170
     0
171
     3
172
     1
173
     0
174
     0
175
     0
176
     0
177
     0
178
     0
  0
DIMSTYLE
  2
ANNOTATIVE
 70
     0
  3

  4

  5

  6

  7

 40
0.0
 41
2.5
 42
0.625
 43
3.75
 44
1.25
 45
0.0
 46
0.0
 47
0.0
 48
0.0
140
2.5
141
2.5
142
0.0
143
0.03937007874016
144
1.0
145
0.0
146
1.0
147
0.625
 71
     0
 72
     0
 73
     0
 74
     0
 75
     0
 76
     0
 77
     1
 78
     8
170
     0
171
     3
172
     1
173
     0
174
     0
175
     0
176
     0
177
     0
178
     0
  0
ENDTAB
  0
ENDSEC
  0
SECTION
  2
BLOCKS
  0
BLOCK
  8
0
  2
$MODEL_SPACE
 70
     0
 10
0.0
 20
0.0
 30
0.0
  3
$MODEL_SPACE
  1

  0
ENDBLK
  5
21
  8
0
  0
BLOCK
 67
     1
  8
0
  2
$PAPER_SPACE
 70
     0
 10
0.0
 20
0.0
 30
0.0
  3
$PAPER_SPACE
  1

  0
ENDBLK
  5
1D
 67
     1
  8
0
  0
BLOCK
  8
0
  2
*D0
 70
     1
 10
0.0
 20
0.0
 30
0.0
  3
*D0
  1

  0
LINE
  5
2BD
  8
0
 62
     0
 10
0.0
 20
38.62499999999996
 30
0.0
 11
0.0
 21
46.24999999999996
 31
0.0
  0
LINE
  5
2BE
  8
0
 62
     0
 10
98.0
 20
38.625
 30
0.0
 11
98.0
 21
46.25
 31
0.0
  0
LINE
  5
2BF
  8
0
 62
     0
 10
2.5
 20
44.99999999999996
 30
0.0
 11
95.5
 21
45.0
 31
0.0
  0
SOLID
  5
2C0
  8
0
 62
     0
 10
2.5
 20
45.41666666666662
 30
0.0
 11
2.5
 21
44.58333333333329
 31
0.0
 12
0.0
 22
44.99999999999996
 32
0.0
 13
0.0
 23
44.99999999999996
 33
0.0
  0
SOLID
  5
2C1
  8
0
 62
     0
 10
95.5
 20
44.58333333333334
 30
0.0
 11
95.5
 21
45.41666666666666
 31
0.0
 12
98.0
 22
45.0
 32
0.0
 13
98.0
 23
45.0
 33
0.0
  0
TEXT
  5
2C2
  8
0
  6
CONTINUOUS
 62
     0
 10
47.06375
 20
45.66749999999998
 30
0.0
 40
2.5
  1
98
 50
0.0000000000000249
  0
POINT
  5
2C3
  8
DEFPOINTS
 62
     0
 10
0.0
 20
37.99999999999996
 30
0.0
  0
POINT
  5
2C4
  8
DEFPOINTS
 62
     0
 10
98.0
 20
38.0
 30
0.0
  0
POINT
  5
2C5
  8
DEFPOINTS
 62
     0
 10
98.0
 20
45.0
 30
0.0
  0
ENDBLK
  5
2BC
  8
0
  0
BLOCK
  8
0
  2
*D1
 70
     1
 10
0.0
 20
0.0
 30
0.0
  3
*D1
  1

  0
LINE
  5
2CC
  8
0
 62
     0
 10
1.375
 20
39.99999999999996
 30
0.0
 11
-8.884970583840708
 21
39.99999999999996
 31
0.0
  0
LINE
  5
2CD
  8
0
 62
     0
 10
1.375
 20
0.0
 30
0.0
 11
-8.884970583840708
 21
0.0
 31
0.0
  0
LINE
  5
2CE
  8
0
 62
     0
 10
-7.634970583840708
 20
37.49999999999996
 30
0.0
 11
-7.634970583840708
 21
2.5
 31
0.0
  0
SOLID
  5
2CF
  8
0
 62
     0
 10
-7.218303917174041
 20
37.49999999999996
 30
0.0
 11
-8.051637250507374
 21
37.49999999999996
 31
0.0
 12
-7.634970583840708
 22
39.99999999999996
 32
0.0
 13
-7.634970583840708
 23
39.99999999999996
 33
0.0
  0
SOLID
  5
2D0
  8
0
 62
     0
 10
-8.051637250507374
 20
2.5
 30
0.0
 11
-7.218303917174041
 21
2.5
 31
0.0
 12
-7.634970583840708
 22
0.0
 32
0.0
 13
-7.634970583840708
 23
0.0
 33
0.0
  0
TEXT
  5
2D1
  8
0
  6
CONTINUOUS
 62
     0
 10
-8.302470583840709
 20
18.12124999999998
 30
0.0
 40
2.5
  1
40
 50
90.0
  0
POINT
  5
2D2
  8
DEFPOINTS
 62
     0
 10
2.0
 20
39.99999999999996
 30
0.0
  0
POINT
  5
2D3
  8
DEFPOINTS
 62
     0
 10
2.0
 20
0.0
 30
0.0
  0
POINT
  5
2D4
  8
DEFPOINTS
 62
     0
 10
-7.634970583840708
 20
0.0
 30
0.0
  0
ENDBLK
  5
2CB
  8
0
  0
ENDSEC
  0
SECTION
  2
ENTITIES
  0
LINE
  5
422
  8
0
 10
0.0
 20
2.0
 30
0.0
 11
0.0
 21
37.99999999999996
 31
0.0
  0
ARC
  5
423
  8
0
 10
2.0
 20
37.99999999999996
 30
0.0
 40
2.0
 50
90.00000000000001
 51
180.0
  0
LINE
  5
424
  8
0
 10
2.0
 20
39.99999999999996
 30
0.0
 11
96.00000000000001
 21
39.99999999999997
 31
0.0
  0
ARC
  5
425
  8
0
 10
96.00000000000001
 20
37.99999999999997
 30
0.0
 40
2.0
 50
0.0000000000000127
 51
90.0
  0
LINE
  5
426
  8
0
 10
98.00000000000001
 20
37.99999999999997
 30
0.0
 11
98.00000000000001
 21
2.0
 31
0.0
  0
ARC
  5
427
  8
0
 10
96.00000000000001
 20
2.0
 30
0.0
 40
2.0
 50
270.0
 51
0.0
  0
LINE
  5
428
  8
0
 10
96.00000000000001
 20
0.0
 30
0.0
 11
2.0
 21
0.0
 31
0.0
  0
ARC
  5
429
  8
0
 10
2.0
 20
2.0
 30
0.0
 40
2.0
 50
180.0
 51
270.0
  0
LINE
  5
42A
  8
0
 10
98.0
 20
33.46
 30
0.0
 11
98.0
 21
30.92
 31
0.0
  0
LINE
  5
42B
  8
0
 10
98.0
 20
30.92
 30
0.0
 11
49.74
 21
30.92
 31
0.0
  0
LINE
  5
42C
  8
0
 10
49.74
 20
30.92
 30
0.0
 11
49.74
 21
33.46
 31
0.0
  0
LINE
  5
42D
  8
0
 10
49.74
 20
33.46
 30
0.0
 11
98.0
 21
33.46
 31
0.0
  0
LINE
  5
42E
  8
0
 10
98.0
 20
10.6
 30
0.0
 11
98.0
 21
8.060000000000002
 31
0.0
  0
LINE
  5
42F
  8
0
 10
98.0
 20
8.060000000000002
 30
0.0
 11
49.74
 21
8.060000000000002
 31
0.0
  0
LINE
  5
430
  8
0
 10
49.74
 20
8.060000000000002
 30
0.0
 11
49.74
 21
10.6
 31
0.0
  0
LINE
  5
431
  8
0
 10
49.74
 20
10.6
 30
0.0
 11
98.0
 21
10.6
 31
0.0
  0
LINE
  5
432
  8
0
 10
0.0
 20
2.0
 30
0.0
 11
0.0
 21
38.0
 31
0.0
  0
ARC
  5
433
  8
0
 10
2.0
 20
38.0
 30
0.0
 40
2.0
 50
90.00000000000001
 51
180.0
  0
LINE
  5
434
  8
0
 10
2.0
 20
40.0
 30
0.0
 11
18.0
 21
40.0
 31
0.0
  0
ARC
  5
435
  8
0
 10
18.0
 20
38.0
 30
0.0
 40
2.0
 50
0.0000000000000127
 51
90.0
  0
LINE
  5
436
  8
0
 10
20.0
 20
38.0
 30
0.0
 11
20.0
 21
2.0
 31
0.0
  0
ARC
  5
437
  8
0
 10
18.0
 20
2.0
 30
0.0
 40
2.0
 50
270.0
 51
0.0
  0
LINE
  5
438
  8
0
 10
18.0
 20
0.0
 30
0.0
 11
2.0
 21
0.0
 31
0.0
  0
ARC
  5
439
  8
0
 10
2.0
 20
2.0
 30
0.0
 40
2.0
 50
180.0
 51
270.0
  0
LINE
  5
43A
  8
0
 10
1.109999999999999
 20
39.0
 30
0.0
 11
1.109999999999999
 21
36.45999999999999
 31
0.0
  0
LINE
  5
43B
  8
0
 10
1.109999999999999
 20
36.45999999999999
 30
0.0
 11
6.189999999999998
 21
36.45999999999999
 31
0.0
  0
LINE
  5
43C
  8
0
 10
6.189999999999998
 20
36.45999999999999
 30
0.0
 11
6.189999999999998
 21
39.0
 31
0.0
  0
LINE
  5
43D
  8
0
 10
6.189999999999998
 20
39.0
 30
0.0
 11
1.109999999999999
 21
39.0
 31
0.0
  0
LINE
  5
43E
  8
0
 10
13.81
 20
39.0
 30
0.0
 11
13.81
 21
36.45999999999999
 31
0.0
  0
LINE
  5
43F
  8
0
 10
13.81
 20
36.45999999999999
 30
0.0
 11
18.89
 21
36.45999999999999
 31
0.0
  0
LINE
  5
440
  8
0
 10
18.89
 20
36.45999999999999
 30
0.0
 11
18.89
 21
39.0
 31
0.0
  0
LINE
  5
441
  8
0
 10
18.89
 20
39.0
 30
0.0
 11
13.81
 21
39.0
 31
0.0
  0
LINE
  5
442
  8
0
 10
1.109999999999999
 20
3.439999999999998
 30
0.0
 11
1.109999999999999
 21
0.8999999999999915
 31
0.0
  0
LINE
  5
443
  8
0
 10
1.109999999999999
 20
0.8999999999999915
 30
0.0
 11
18.89
 21
0.8999999999999915
 31
0.0
  0
LINE
  5
444
  8
0
 10
18.89
 20
0.8999999999999915
 30
0.0
 11
18.89
 21
3.439999999999998
 31
0.0
  0
LINE
  5
445
  8
0
 10
18.89
 20
3.439999999999998
 30
0.0
 11
1.109999999999999
 21
3.439999999999998
 31
0.0
  0
LINE
  5
446
  8
0
 10
24.0
 20
2.0
 30
0.0
 11
24.0
 21
38.0
 31
0.0
  0
ARC
  5
447
  8
0
 10
26.0
 20
38.0
 30
0.0
 40
2.0
 50
90.00000000000001
 51
180.0
  0
LINE
  5
448
  8
0
 10
26.0
 20
40.0
 30
0.0
 11
42.0
 21
40.0
 31
0.0
  0
ARC
  5
449
  8
0
 10
42.0
 20
38.0
 30
0.0
 40
2.0
 50
0.0000000000000127
 51
90.0
  0
LINE
  5
44A
  8
0
 10
44.0
 20
38.0
 30
0.0
 11
44.0
 21
2.0
 31
0.0
  0
ARC
  5
44B
  8
0
 10
42.0
 20
2.0
 30
0.0
 40
2.0
 50
270.0
 51
0.0
  0
LINE
  5
44C
  8
0
 10
42.0
 20
0.0
 30
0.0
 11
26.0
 21
0.0
 31
0.0
  0
ARC
  5
44D
  8
0
 10
26.0
 20
2.0
 30
0.0
 40
2.0
 50
180.0
 51
270.0
  0
LINE
  5
44E
  8
0
 10
25.11
 20
39.0
 30
0.0
 11
25.11
 21
36.45999999999999
 31
0.0
  0
LINE
  5
44F
  8
0
 10
25.11
 20
36.45999999999999
 30
0.0
 11
30.19
 21
36.45999999999999
 31
0.0
  0
LINE
  5
450
  8
0
 10
30.19
 20
36.45999999999999
 30
0.0
 11
30.19
 21
39.0
 31
0.0
  0
LINE
  5
451
  8
0
 10
30.19
 20
39.0
 30
0.0
 11
25.11
 21
39.0
 31
0.0
  0
LINE
  5
452
  8
0
 10
37.81
 20
39.0
 30
0.0
 11
37.81
 21
36.45999999999999
 31
0.0
  0
LINE
  5
453
  8
0
 10
37.81
 20
36.45999999999999
 30
0.0
 11
42.89
 21
36.45999999999999
 31
0.0
  0
LINE
  5
454
  8
0
 10
42.89
 20
36.45999999999999
 30
0.0
 11
42.89
 21
39.0
 31
0.0
  0
LINE
  5
455
  8
0
 10
42.89
 20
39.0
 30
0.0
 11
37.81
 21
39.0
 31
0.0
  0
LINE
  5
456
  8
0
 10
25.11
 20
3.439999999999998
 30
0.0
 11
25.11
 21
0.8999999999999915
 31
0.0
  0
LINE
  5
457
  8
0
 10
25.11
 20
0.8999999999999915
 30
0.0
 11
42.89
 21
0.8999999999999915
 31
0.0
  0
LINE
  5
458
  8
0
 10
42.89
 20
0.8999999999999915
 30
0.0
 11
42.89
 21
3.439999999999998
 31
0.0
  0
LINE
  5
459
  8
0
 10
42.89
 20
3.439999999999998
 30
0.0
 11
25.11
 21
3.439999999999998
 31
0.0
  0
LINE
  5
45A
  8
0
 10
78.0
 20
2.0
 30
0.0
 11
78.0
 21
38.0
 31
0.0
  0
ARC
  5
45B
  8
0
 10
80.0
 20
38.0
 30
0.0
 40
2.0
 50
90.00000000000001
 51
180.0
  0
LINE
  5
45C
  8
0
 10
80.0
 20
40.0
 30
0.0
 11
96.0
 21
40.0
 31
0.0
  0
ARC
  5
45D
  8
0
 10
96.0
 20
38.0
 30
0.0
 40
2.0
 50
0.0000000000000127
 51
90.0
  0
LINE
  5
45E
  8
0
 10
98.0
 20
38.0
 30
0.0
 11
98.0
 21
2.0
 31
0.0
  0
ARC
  5
45F
  8
0
 10
96.0
 20
2.0
 30
0.0
 40
2.0
 50
270.0
 51
0.0
  0
LINE
  5
460
  8
0
 10
96.0
 20
0.0
 30
0.0
 11
80.0
 21
0.0
 31
0.0
  0
ARC
  5
461
  8
0
 10
80.0
 20
2.0
 30
0.0
 40
2.0
 50
180.0
 51
270.0
  0
LINE
  5
462
  8
0
 10
79.11
 20
39.0
 30
0.0
 11
79.11
 21
36.45999999999999
 31
0.0
  0
LINE
  5
463
  8
0
 10
79.11
 20
36.45999999999999
 30
0.0
 11
84.19
 21
36.45999999999999
 31
0.0
  0
LINE
  5
464
  8
0
 10
84.19
 20
36.45999999999999
 30
0.0
 11
84.19
 21
39.0
 31
0.0
  0
LINE
  5
465
  8
0
 10
84.19
 20
39.0
 30
0.0
 11
79.11
 21
39.0
 31
0.0
  0
LINE
  5
466
  8
0
 10
91.81
 20
39.0
 30
0.0
 11
91.81
 21
36.45999999999999
 31
0.0
  0
LINE
  5
467
  8
0
 10
91.81
 20
36.45999999999999
 30
0.0
 11
96.89
 21
36.45999999999999
 31
0.0
  0
LINE
  5
468
  8
0
 10
96.89
 20
36.45999999999999
 30
0.0
 11
96.89
 21
39.0
 31
0.0
  0
LINE
  5
469
  8
0
 10
96.89
 20
39.0
 30
0.0
 11
91.81
 21
39.0
 31
0.0
  0
LINE
  5
46A
  8
0
 10
79.11
 20
3.439999999999998
 30
0.0
 11
79.11
 21
0.8999999999999915
 31
0.0
  0
LINE
  5
46B
  8
0
 10
79.11
 20
0.8999999999999915
 30
0.0
 11
96.89
 21
0.8999999999999915
 31
0.0
  0
LINE
  5
46C
  8
0
 10
96.89
 20
0.8999999999999915
 30
0.0
 11
96.89
 21
3.439999999999998
 31
0.0
  0
LINE
  5
46D
  8
0
 10
96.89
 20
3.439999999999998
 30
0.0
 11
79.11
 21
3.439999999999998
 31
0.0
  0
LINE
  5
46E
  8
0
 10
54.0
 20
2.0
 30
0.0
 11
54.0
 21
38.0
 31
0.0
  0
ARC
  5
46F
  8
0
 10
56.0
 20
38.0
 30
0.0
 40
2.0
 50
90.00000000000001
 51
180.0
  0
LINE
  5
470
  8
0
 10
56.0
 20
40.0
 30
0.0
 11
72.0
 21
40.0
 31
0.0
  0
ARC
  5
471
  8
0
 10
72.0
 20
38.0
 30
0.0
 40
2.0
 50
0.0000000000000127
 51
90.0
  0
LINE
  5
472
  8
0
 10
74.0
 20
38.0
 30
0.0
 11
74.0
 21
2.0
 31
0.0
  0
ARC
  5
473
  8
0
 10
72.0
 20
2.0
 30
0.0
 40
2.0
 50
270.0
 51
0.0
  0
LINE
  5
474
  8
0
 10
72.0
 20
0.0
 30
0.0
 11
56.0
 21
0.0
 31
0.0
  0
ARC
  5
475
  8
0
 10
56.0
 20
2.0
 30
0.0
 40
2.0
 50
180.0
 51
270.0
  0
LINE
  5
476
  8
0
 10
55.11
 20
39.0
 30
0.0
 11
55.11
 21
36.45999999999999
 31
0.0
  0
LINE
  5
477
  8
0
 10
55.11
 20
36.45999999999999
 30
0.0
 11
60.19
 21
36.45999999999999
 31
0.0
  0
LINE
  5
478
  8
0
 10
60.19
 20
36.45999999999999
 30
0.0
 11
60.19
 21
39.0
 31
0.0
  0
LINE
  5
479
  8
0
 10
60.19
 20
39.0
 30
0.0
 11
55.11
 21
39.0
 31
0.0
  0
LINE
  5
47A
  8
0
 10
67.81
 20
39.0
 30
0.0
 11
67.81
 21
36.45999999999999
 31
0.0
  0
LINE
  5
47B
  8
0
 10
67.81
 20
36.45999999999999
 30
0.0
 11
72.89
 21
36.45999999999999
 31
0.0
  0
LINE
  5
47C
  8
0
 10
72.89
 20
36.45999999999999
 30
0.0
 11
72.89
 21
39.0
 31
0.0
  0
LINE
  5
47D
  8
0
 10
72.89
 20
39.0
 30
0.0
 11
67.81
 21
39.0
 31
0.0
  0
LINE
  5
47E
  8
0
 10
55.11
 20
3.439999999999998
 30
0.0
 11
55.11
 21
0.8999999999999915
 31
0.0
  0
LINE
  5
47F
  8
0
 10
55.11
 20
0.8999999999999915
 30
0.0
 11
72.89
 21
0.8999999999999915
 31
0.0
  0
LINE
  5
480
  8
0
 10
72.89
 20
0.8999999999999915
 30
0.0
 11
72.89
 21
3.439999999999998
 31
0.0
  0
LINE
  5
481
  8
0
 10
72.89
 20
3.439999999999998
 30
0.0
 11
55.11
 21
3.439999999999998
 31
0.0
  0
LINE
  5
482
  8
0
 10
73.46
 20
7.0
 30
0.0
 11
73.46
 21
4.46
 31
0.0
  0
LINE
  5
483
  8
0
 10
73.46
 20
4.46
 30
0.0
 11
78.53999999999999
 21
4.46
 31
0.0
  0
LINE
  5
484
  8
0
 10
78.53999999999999
 20
4.46
 30
0.0
 11
78.53999999999999
 21
7.0
 31
0.0
  0
LINE
  5
485
  8
0
 10
78.53999999999999
 20
7.0
 30
0.0
 11
73.46
 21
7.0
 31
0.0
  0
LINE
  5
486
  8
0
 10
43.92000000000001
 20
7.0
 30
0.0
 11
43.92000000000001
 21
4.46
 31
0.0
  0
LINE
  5
487
  8
0
 10
43.92000000000001
 20
4.46
 30
0.0
 11
54.08000000000001
 21
4.46
 31
0.0
  0
LINE
  5
488
  8
0
 10
54.08000000000001
 20
4.46
 30
0.0
 11
54.08000000000001
 21
7.0
 31
0.0
  0
LINE
  5
489
  8
0
 10
54.08000000000001
 20
7.0
 30
0.0
 11
43.92000000000001
 21
7.0
 31
0.0
  0
LINE
  5
48A
  8
0
 10
19.46
 20
7.0
 30
0.0
 11
19.46
 21
4.46
 31
0.0
  0
LINE
  5
48B
  8
0
 10
19.46
 20
4.46
 30
0.0
 11
24.54
 21
4.46
 31
0.0
  0
LINE
  5
48C
  8
0
 10
24.54
 20
4.46
 30
0.0
 11
24.54
 21
7.0
 31
0.0
  0
LINE
  5
48D
  8
0
 10
24.54
 20
7.0
 30
0.0
 11
19.46
 21
7.0
 31
0.0
  0
CIRCLE
  5
498
  8
0
 10
3.0
 20
20.0
 30
0.0
 40
3.0
  0
CIRCLE
  5
49A
  8
0
 10
95.0
 20
20.0
 30
0.0
 40
3.0
  0
CIRCLE
  5
49B
  8
0
 10
3.0
 20
20.0
 30
0.0
 40
1.6
  0
CIRCLE
  5
49C
  8
0
 10
95.0
 20
20.0
 30
0.0
 40
1.6
  0
ENDSEC
  0
EOF
